%TF.GenerationSoftware,KiCad,Pcbnew,9.0.5*%
%TF.CreationDate,2025-11-03T16:46:03-08:00*%
%TF.ProjectId,DC34_Cnet_Badge_Main,44433334-5f43-46e6-9574-5f4261646765,rev?*%
%TF.SameCoordinates,Original*%
%TF.FileFunction,Legend,Top*%
%TF.FilePolarity,Positive*%
%FSLAX46Y46*%
G04 Gerber Fmt 4.6, Leading zero omitted, Abs format (unit mm)*
G04 Created by KiCad (PCBNEW 9.0.5) date 2025-11-03 16:46:03*
%MOMM*%
%LPD*%
G01*
G04 APERTURE LIST*
%ADD10C,0.150000*%
%ADD11C,0.100000*%
%ADD12C,0.120000*%
%ADD13C,0.203200*%
G04 APERTURE END LIST*
D10*
X140454819Y-41761904D02*
X141264342Y-41761904D01*
X141264342Y-41761904D02*
X141359580Y-41714285D01*
X141359580Y-41714285D02*
X141407200Y-41666666D01*
X141407200Y-41666666D02*
X141454819Y-41571428D01*
X141454819Y-41571428D02*
X141454819Y-41380952D01*
X141454819Y-41380952D02*
X141407200Y-41285714D01*
X141407200Y-41285714D02*
X141359580Y-41238095D01*
X141359580Y-41238095D02*
X141264342Y-41190476D01*
X141264342Y-41190476D02*
X140454819Y-41190476D01*
X140550057Y-40761904D02*
X140502438Y-40714285D01*
X140502438Y-40714285D02*
X140454819Y-40619047D01*
X140454819Y-40619047D02*
X140454819Y-40380952D01*
X140454819Y-40380952D02*
X140502438Y-40285714D01*
X140502438Y-40285714D02*
X140550057Y-40238095D01*
X140550057Y-40238095D02*
X140645295Y-40190476D01*
X140645295Y-40190476D02*
X140740533Y-40190476D01*
X140740533Y-40190476D02*
X140883390Y-40238095D01*
X140883390Y-40238095D02*
X141454819Y-40809523D01*
X141454819Y-40809523D02*
X141454819Y-40190476D01*
D11*
X145627580Y-39803884D02*
X144818057Y-39803884D01*
X144818057Y-39803884D02*
X144722819Y-39851503D01*
X144722819Y-39851503D02*
X144675200Y-39899122D01*
X144675200Y-39899122D02*
X144627580Y-39994360D01*
X144627580Y-39994360D02*
X144627580Y-40184836D01*
X144627580Y-40184836D02*
X144675200Y-40280074D01*
X144675200Y-40280074D02*
X144722819Y-40327693D01*
X144722819Y-40327693D02*
X144818057Y-40375312D01*
X144818057Y-40375312D02*
X145627580Y-40375312D01*
X144675200Y-40803884D02*
X144627580Y-40946741D01*
X144627580Y-40946741D02*
X144627580Y-41184836D01*
X144627580Y-41184836D02*
X144675200Y-41280074D01*
X144675200Y-41280074D02*
X144722819Y-41327693D01*
X144722819Y-41327693D02*
X144818057Y-41375312D01*
X144818057Y-41375312D02*
X144913295Y-41375312D01*
X144913295Y-41375312D02*
X145008533Y-41327693D01*
X145008533Y-41327693D02*
X145056152Y-41280074D01*
X145056152Y-41280074D02*
X145103771Y-41184836D01*
X145103771Y-41184836D02*
X145151390Y-40994360D01*
X145151390Y-40994360D02*
X145199009Y-40899122D01*
X145199009Y-40899122D02*
X145246628Y-40851503D01*
X145246628Y-40851503D02*
X145341866Y-40803884D01*
X145341866Y-40803884D02*
X145437104Y-40803884D01*
X145437104Y-40803884D02*
X145532342Y-40851503D01*
X145532342Y-40851503D02*
X145579961Y-40899122D01*
X145579961Y-40899122D02*
X145627580Y-40994360D01*
X145627580Y-40994360D02*
X145627580Y-41232455D01*
X145627580Y-41232455D02*
X145579961Y-41375312D01*
X145151390Y-42137217D02*
X145103771Y-42280074D01*
X145103771Y-42280074D02*
X145056152Y-42327693D01*
X145056152Y-42327693D02*
X144960914Y-42375312D01*
X144960914Y-42375312D02*
X144818057Y-42375312D01*
X144818057Y-42375312D02*
X144722819Y-42327693D01*
X144722819Y-42327693D02*
X144675200Y-42280074D01*
X144675200Y-42280074D02*
X144627580Y-42184836D01*
X144627580Y-42184836D02*
X144627580Y-41803884D01*
X144627580Y-41803884D02*
X145627580Y-41803884D01*
X145627580Y-41803884D02*
X145627580Y-42137217D01*
X145627580Y-42137217D02*
X145579961Y-42232455D01*
X145579961Y-42232455D02*
X145532342Y-42280074D01*
X145532342Y-42280074D02*
X145437104Y-42327693D01*
X145437104Y-42327693D02*
X145341866Y-42327693D01*
X145341866Y-42327693D02*
X145246628Y-42280074D01*
X145246628Y-42280074D02*
X145199009Y-42232455D01*
X145199009Y-42232455D02*
X145151390Y-42137217D01*
X145151390Y-42137217D02*
X145151390Y-41803884D01*
D10*
X51491905Y-63914819D02*
X51491905Y-62914819D01*
X51491905Y-62914819D02*
X51730000Y-62914819D01*
X51730000Y-62914819D02*
X51872857Y-62962438D01*
X51872857Y-62962438D02*
X51968095Y-63057676D01*
X51968095Y-63057676D02*
X52015714Y-63152914D01*
X52015714Y-63152914D02*
X52063333Y-63343390D01*
X52063333Y-63343390D02*
X52063333Y-63486247D01*
X52063333Y-63486247D02*
X52015714Y-63676723D01*
X52015714Y-63676723D02*
X51968095Y-63771961D01*
X51968095Y-63771961D02*
X51872857Y-63867200D01*
X51872857Y-63867200D02*
X51730000Y-63914819D01*
X51730000Y-63914819D02*
X51491905Y-63914819D01*
X53015714Y-63914819D02*
X52444286Y-63914819D01*
X52730000Y-63914819D02*
X52730000Y-62914819D01*
X52730000Y-62914819D02*
X52634762Y-63057676D01*
X52634762Y-63057676D02*
X52539524Y-63152914D01*
X52539524Y-63152914D02*
X52444286Y-63200533D01*
X101184819Y-8603333D02*
X101899104Y-8603333D01*
X101899104Y-8603333D02*
X102041961Y-8650952D01*
X102041961Y-8650952D02*
X102137200Y-8746190D01*
X102137200Y-8746190D02*
X102184819Y-8889047D01*
X102184819Y-8889047D02*
X102184819Y-8984285D01*
X101184819Y-7650952D02*
X101184819Y-8127142D01*
X101184819Y-8127142D02*
X101661009Y-8174761D01*
X101661009Y-8174761D02*
X101613390Y-8127142D01*
X101613390Y-8127142D02*
X101565771Y-8031904D01*
X101565771Y-8031904D02*
X101565771Y-7793809D01*
X101565771Y-7793809D02*
X101613390Y-7698571D01*
X101613390Y-7698571D02*
X101661009Y-7650952D01*
X101661009Y-7650952D02*
X101756247Y-7603333D01*
X101756247Y-7603333D02*
X101994342Y-7603333D01*
X101994342Y-7603333D02*
X102089580Y-7650952D01*
X102089580Y-7650952D02*
X102137200Y-7698571D01*
X102137200Y-7698571D02*
X102184819Y-7793809D01*
X102184819Y-7793809D02*
X102184819Y-8031904D01*
X102184819Y-8031904D02*
X102137200Y-8127142D01*
X102137200Y-8127142D02*
X102089580Y-8174761D01*
X42405348Y-33333333D02*
X43119633Y-33333333D01*
X43119633Y-33333333D02*
X43262490Y-33380952D01*
X43262490Y-33380952D02*
X43357729Y-33476190D01*
X43357729Y-33476190D02*
X43405348Y-33619047D01*
X43405348Y-33619047D02*
X43405348Y-33714285D01*
X43405348Y-32333333D02*
X43405348Y-32904761D01*
X43405348Y-32619047D02*
X42405348Y-32619047D01*
X42405348Y-32619047D02*
X42548205Y-32714285D01*
X42548205Y-32714285D02*
X42643443Y-32809523D01*
X42643443Y-32809523D02*
X42691062Y-32904761D01*
X143933333Y-145573200D02*
X144133333Y-145639866D01*
X144133333Y-145639866D02*
X144466667Y-145639866D01*
X144466667Y-145639866D02*
X144600000Y-145573200D01*
X144600000Y-145573200D02*
X144666667Y-145506533D01*
X144666667Y-145506533D02*
X144733333Y-145373200D01*
X144733333Y-145373200D02*
X144733333Y-145239866D01*
X144733333Y-145239866D02*
X144666667Y-145106533D01*
X144666667Y-145106533D02*
X144600000Y-145039866D01*
X144600000Y-145039866D02*
X144466667Y-144973200D01*
X144466667Y-144973200D02*
X144200000Y-144906533D01*
X144200000Y-144906533D02*
X144066667Y-144839866D01*
X144066667Y-144839866D02*
X144000000Y-144773200D01*
X144000000Y-144773200D02*
X143933333Y-144639866D01*
X143933333Y-144639866D02*
X143933333Y-144506533D01*
X143933333Y-144506533D02*
X144000000Y-144373200D01*
X144000000Y-144373200D02*
X144066667Y-144306533D01*
X144066667Y-144306533D02*
X144200000Y-144239866D01*
X144200000Y-144239866D02*
X144533333Y-144239866D01*
X144533333Y-144239866D02*
X144733333Y-144306533D01*
X146066666Y-145639866D02*
X145266666Y-145639866D01*
X145666666Y-145639866D02*
X145666666Y-144239866D01*
X145666666Y-144239866D02*
X145533333Y-144439866D01*
X145533333Y-144439866D02*
X145400000Y-144573200D01*
X145400000Y-144573200D02*
X145266666Y-144639866D01*
D12*
%TO.C,U2*%
X97120000Y-26300000D02*
X97120000Y-55699999D01*
X97120000Y-55699999D02*
X143880000Y-55700000D01*
X143520000Y-36100001D02*
X143880000Y-36100001D01*
X143520000Y-45900000D02*
X143520000Y-36100001D01*
X143880000Y-26300001D02*
X97120000Y-26300000D01*
X143880000Y-36100001D02*
X143880000Y-26300001D01*
X143880000Y-45900000D02*
X143520000Y-45900000D01*
X143880000Y-55700000D02*
X143880000Y-45900000D01*
%TO.C,D1*%
X53790000Y-59420000D02*
X53790000Y-59264000D01*
X53790000Y-61736000D02*
X53790000Y-61580000D01*
X50558563Y-59420000D02*
G75*
G02*
X53790000Y-59264484I1671437J-1080000D01*
G01*
X51189039Y-59420000D02*
G75*
G02*
X53270961Y-59420000I1040961J-1080000D01*
G01*
X53270961Y-61580000D02*
G75*
G02*
X51189039Y-61580000I-1040961J1080000D01*
G01*
X53790000Y-61735516D02*
G75*
G02*
X50558563Y-61580000I-1560000J1235516D01*
G01*
%TO.C,J5*%
X103170000Y-5670000D02*
X104500000Y-5670000D01*
X103170000Y-7000000D02*
X103170000Y-5670000D01*
X103170000Y-8270001D02*
X105770000Y-8270000D01*
X103170000Y-10870000D02*
X103170000Y-8270001D01*
X103170000Y-10870000D02*
X110910000Y-10870000D01*
X105770000Y-8270000D02*
X105770001Y-5670000D01*
X105770001Y-5670000D02*
X110909999Y-5670000D01*
X110910000Y-10870000D02*
X110909999Y-5670000D01*
%TO.C,J1*%
X63190529Y-24000000D02*
X64570529Y-24000000D01*
X63190529Y-25380000D02*
X63190529Y-24000000D01*
X63190529Y-26650000D02*
X63190529Y-42000000D01*
X63190529Y-26650000D02*
X65950529Y-26650000D01*
X63190529Y-42000000D02*
X65950529Y-42000000D01*
X65950529Y-26650000D02*
X65950529Y-42000000D01*
D13*
%TO.C,S1*%
X142300000Y-146500000D02*
X142300000Y-155500000D01*
X142300000Y-155500000D02*
X147500000Y-155500000D01*
X147500000Y-146500000D02*
X142300000Y-146500000D01*
X147500000Y-155500000D02*
X147500000Y-146500000D01*
%TD*%
M02*
