M48
; DRILL file KiCad 10.0.1 date 2026-05-28T10:03:08
; FORMAT={-:-/ absolute / metric / decimal}
; #@! TF.CreationDate,2026-05-28T10:03:08-07:00
; #@! TF.GenerationSoftware,Kicad,Pcbnew,10.0.1
; #@! TF.FileFunction,Plated,1,2,PTH
FMAT,2
METRIC
; #@! TA.AperFunction,Plated,PTH,ViaDrill
T1C0.400
; #@! TA.AperFunction,Plated,PTH,ComponentDrill
T2C0.900
; #@! TA.AperFunction,Plated,PTH,ComponentDrill
T3C1.000
; #@! TA.AperFunction,Plated,PTH,ComponentDrill
T4C1.100
%
G90
G05
T1
X54.5Y-25.0
X102.377Y-116.123
X106.5Y-115.5
X157.5Y-147.5
X160.2Y-78.2
X163.2Y-75.2
T2
X19.5Y-102.46
X19.5Y-105.0
T3
X-7.739Y33.769
X-5.912Y35.533
X-4.085Y37.297
X-2.257Y39.062
X-0.43Y40.826
X1.397Y42.591
X39.38Y-31.12
X41.92Y-31.12
X44.46Y-31.12
X47.0Y-31.12
X49.54Y-31.12
X52.08Y-31.12
X54.62Y-31.12
X96.31Y-111.57
X96.31Y-121.73
X96.31Y-116.65
X96.31Y-119.19
X96.31Y-124.27
X96.31Y-109.03
X96.31Y-114.11
X96.31Y-126.81
X113.865Y-156.01
X116.405Y-156.01
X126.1Y-110.1
X126.1Y-122.8
X126.1Y-132.96
X126.1Y-145.66
X126.1Y-112.64
X126.1Y-115.18
X126.1Y-117.72
X126.1Y-120.26
X126.1Y-125.34
X126.1Y-127.88
X126.1Y-130.42
X126.1Y-135.5
X126.1Y-138.04
X126.1Y-140.58
X126.1Y-143.12
X151.5Y-112.64
X151.5Y-115.18
X151.5Y-117.72
X151.5Y-120.26
X151.5Y-125.34
X151.5Y-127.88
X151.5Y-130.42
X151.5Y-135.5
X151.5Y-138.04
X151.5Y-140.58
X151.5Y-143.12
X151.5Y-110.1
X151.5Y-122.8
X151.5Y-132.96
X151.5Y-145.66
X159.112Y-83.704
X160.908Y-81.908
X160.908Y-85.5
X162.704Y-83.704
X162.704Y-87.296
X164.5Y-85.5
X188.015Y-173.227
X188.319Y-175.709
X188.624Y-178.19
X191.191Y-172.837
X191.495Y-175.319
X191.8Y-177.8
T4
X118.5Y-137.5
X118.5Y-147.66
M30
