%TF.GenerationSoftware,KiCad,Pcbnew,10.0.1*%
%TF.CreationDate,2026-04-28T15:52:30-07:00*%
%TF.ProjectId,DC34_Cnet_Badge_Main,44433334-5f43-46e6-9574-5f4261646765,rev?*%
%TF.SameCoordinates,Original*%
%TF.FileFunction,Soldermask,Top*%
%TF.FilePolarity,Negative*%
%FSLAX46Y46*%
G04 Gerber Fmt 4.6, Leading zero omitted, Abs format (unit mm)*
G04 Created by KiCad (PCBNEW 10.0.1) date 2026-04-28 15:52:30*
%MOMM*%
%LPD*%
G01*
G04 APERTURE LIST*
G04 Aperture macros list*
%AMRoundRect*
0 Rectangle with rounded corners*
0 $1 Rounding radius*
0 $2 $3 $4 $5 $6 $7 $8 $9 X,Y pos of 4 corners*
0 Add a 4 corners polygon primitive as box body*
4,1,4,$2,$3,$4,$5,$6,$7,$8,$9,$2,$3,0*
0 Add four circle primitives for the rounded corners*
1,1,$1+$1,$2,$3*
1,1,$1+$1,$4,$5*
1,1,$1+$1,$6,$7*
1,1,$1+$1,$8,$9*
0 Add four rect primitives between the rounded corners*
20,1,$1+$1,$2,$3,$4,$5,0*
20,1,$1+$1,$4,$5,$6,$7,0*
20,1,$1+$1,$6,$7,$8,$9,0*
20,1,$1+$1,$8,$9,$2,$3,0*%
%AMHorizOval*
0 Thick line with rounded ends*
0 $1 width*
0 $2 $3 position (X,Y) of the first rounded end (center of the circle)*
0 $4 $5 position (X,Y) of the second rounded end (center of the circle)*
0 Add line between two ends*
20,1,$1,$2,$3,$4,$5,0*
0 Add two circle primitives to create the rounded ends*
1,1,$1,$2,$3*
1,1,$1,$4,$5*%
%AMRotRect*
0 Rectangle, with rotation*
0 The origin of the aperture is its center*
0 $1 length*
0 $2 width*
0 $3 Rotation angle, in degrees counterclockwise*
0 Add horizontal line*
21,1,$1,$2,0,0,$3*%
G04 Aperture macros list end*
%ADD10C,0.300000*%
%ADD11C,0.010000*%
%ADD12R,1.800000X1.800000*%
%ADD13C,1.800000*%
%ADD14RotRect,1.700000X1.700000X45.000000*%
%ADD15HorizOval,1.700000X0.000000X0.000000X0.000000X0.000000X0*%
%ADD16R,1.700000X1.700000*%
%ADD17C,1.700000*%
%ADD18O,2.000000X1.400000*%
%ADD19RotRect,1.700000X1.700000X314.000000*%
%ADD20RoundRect,0.250000X0.625000X-0.350000X0.625000X0.350000X-0.625000X0.350000X-0.625000X-0.350000X0*%
%ADD21O,1.750000X1.200000*%
%ADD22O,1.700000X1.700000*%
G04 APERTURE END LIST*
D10*
X46571428Y-177746248D02*
X46571428Y-169746248D01*
X46571428Y-169746248D02*
X49238095Y-175460534D01*
X49238095Y-175460534D02*
X51904762Y-169746248D01*
X51904762Y-169746248D02*
X51904762Y-177746248D01*
X55333333Y-175460534D02*
X59142857Y-175460534D01*
X54571428Y-177746248D02*
X57238095Y-169746248D01*
X57238095Y-169746248D02*
X59904762Y-177746248D01*
X66380952Y-177746248D02*
X62571428Y-177746248D01*
X62571428Y-177746248D02*
X62571428Y-169746248D01*
X68285714Y-169746248D02*
X70190476Y-177746248D01*
X70190476Y-177746248D02*
X71714285Y-172031962D01*
X71714285Y-172031962D02*
X73238095Y-177746248D01*
X73238095Y-177746248D02*
X75142857Y-169746248D01*
X77809523Y-175460534D02*
X81619047Y-175460534D01*
X77047618Y-177746248D02*
X79714285Y-169746248D01*
X79714285Y-169746248D02*
X82380952Y-177746248D01*
X89619047Y-177746248D02*
X86952380Y-173936724D01*
X85047618Y-177746248D02*
X85047618Y-169746248D01*
X85047618Y-169746248D02*
X88095237Y-169746248D01*
X88095237Y-169746248D02*
X88857142Y-170127200D01*
X88857142Y-170127200D02*
X89238095Y-170508153D01*
X89238095Y-170508153D02*
X89619047Y-171270057D01*
X89619047Y-171270057D02*
X89619047Y-172412915D01*
X89619047Y-172412915D02*
X89238095Y-173174819D01*
X89238095Y-173174819D02*
X88857142Y-173555772D01*
X88857142Y-173555772D02*
X88095237Y-173936724D01*
X88095237Y-173936724D02*
X85047618Y-173936724D01*
X93047618Y-173555772D02*
X95714285Y-173555772D01*
X96857142Y-177746248D02*
X93047618Y-177746248D01*
X93047618Y-177746248D02*
X93047618Y-169746248D01*
X93047618Y-169746248D02*
X96857142Y-169746248D01*
X105999999Y-177365296D02*
X107142856Y-177746248D01*
X107142856Y-177746248D02*
X109047618Y-177746248D01*
X109047618Y-177746248D02*
X109809523Y-177365296D01*
X109809523Y-177365296D02*
X110190475Y-176984343D01*
X110190475Y-176984343D02*
X110571428Y-176222438D01*
X110571428Y-176222438D02*
X110571428Y-175460534D01*
X110571428Y-175460534D02*
X110190475Y-174698629D01*
X110190475Y-174698629D02*
X109809523Y-174317676D01*
X109809523Y-174317676D02*
X109047618Y-173936724D01*
X109047618Y-173936724D02*
X107523809Y-173555772D01*
X107523809Y-173555772D02*
X106761904Y-173174819D01*
X106761904Y-173174819D02*
X106380951Y-172793867D01*
X106380951Y-172793867D02*
X105999999Y-172031962D01*
X105999999Y-172031962D02*
X105999999Y-171270057D01*
X105999999Y-171270057D02*
X106380951Y-170508153D01*
X106380951Y-170508153D02*
X106761904Y-170127200D01*
X106761904Y-170127200D02*
X107523809Y-169746248D01*
X107523809Y-169746248D02*
X109428570Y-169746248D01*
X109428570Y-169746248D02*
X110571428Y-170127200D01*
X118571428Y-176984343D02*
X118190476Y-177365296D01*
X118190476Y-177365296D02*
X117047618Y-177746248D01*
X117047618Y-177746248D02*
X116285714Y-177746248D01*
X116285714Y-177746248D02*
X115142857Y-177365296D01*
X115142857Y-177365296D02*
X114380952Y-176603391D01*
X114380952Y-176603391D02*
X113999999Y-175841486D01*
X113999999Y-175841486D02*
X113619047Y-174317676D01*
X113619047Y-174317676D02*
X113619047Y-173174819D01*
X113619047Y-173174819D02*
X113999999Y-171651010D01*
X113999999Y-171651010D02*
X114380952Y-170889105D01*
X114380952Y-170889105D02*
X115142857Y-170127200D01*
X115142857Y-170127200D02*
X116285714Y-169746248D01*
X116285714Y-169746248D02*
X117047618Y-169746248D01*
X117047618Y-169746248D02*
X118190476Y-170127200D01*
X118190476Y-170127200D02*
X118571428Y-170508153D01*
X121619047Y-175460534D02*
X125428571Y-175460534D01*
X120857142Y-177746248D02*
X123523809Y-169746248D01*
X123523809Y-169746248D02*
X126190476Y-177746248D01*
X128857142Y-177746248D02*
X128857142Y-169746248D01*
X128857142Y-169746248D02*
X133428571Y-177746248D01*
X133428571Y-177746248D02*
X133428571Y-169746248D01*
X57809523Y-182625800D02*
X62380952Y-182625800D01*
X60095238Y-190625800D02*
X60095238Y-182625800D01*
X66571428Y-182625800D02*
X68095237Y-182625800D01*
X68095237Y-182625800D02*
X68857142Y-183006752D01*
X68857142Y-183006752D02*
X69619047Y-183768657D01*
X69619047Y-183768657D02*
X69999999Y-185292467D01*
X69999999Y-185292467D02*
X69999999Y-187959133D01*
X69999999Y-187959133D02*
X69619047Y-189482943D01*
X69619047Y-189482943D02*
X68857142Y-190244848D01*
X68857142Y-190244848D02*
X68095237Y-190625800D01*
X68095237Y-190625800D02*
X66571428Y-190625800D01*
X66571428Y-190625800D02*
X65809523Y-190244848D01*
X65809523Y-190244848D02*
X65047618Y-189482943D01*
X65047618Y-189482943D02*
X64666666Y-187959133D01*
X64666666Y-187959133D02*
X64666666Y-185292467D01*
X64666666Y-185292467D02*
X65047618Y-183768657D01*
X65047618Y-183768657D02*
X65809523Y-183006752D01*
X65809523Y-183006752D02*
X66571428Y-182625800D01*
X74952380Y-182625800D02*
X76476189Y-182625800D01*
X76476189Y-182625800D02*
X77238094Y-183006752D01*
X77238094Y-183006752D02*
X77999999Y-183768657D01*
X77999999Y-183768657D02*
X78380951Y-185292467D01*
X78380951Y-185292467D02*
X78380951Y-187959133D01*
X78380951Y-187959133D02*
X77999999Y-189482943D01*
X77999999Y-189482943D02*
X77238094Y-190244848D01*
X77238094Y-190244848D02*
X76476189Y-190625800D01*
X76476189Y-190625800D02*
X74952380Y-190625800D01*
X74952380Y-190625800D02*
X74190475Y-190244848D01*
X74190475Y-190244848D02*
X73428570Y-189482943D01*
X73428570Y-189482943D02*
X73047618Y-187959133D01*
X73047618Y-187959133D02*
X73047618Y-185292467D01*
X73047618Y-185292467D02*
X73428570Y-183768657D01*
X73428570Y-183768657D02*
X74190475Y-183006752D01*
X74190475Y-183006752D02*
X74952380Y-182625800D01*
X85619046Y-190625800D02*
X81809522Y-190625800D01*
X81809522Y-190625800D02*
X81809522Y-182625800D01*
X93619046Y-182625800D02*
X98571427Y-182625800D01*
X98571427Y-182625800D02*
X95904760Y-185673419D01*
X95904760Y-185673419D02*
X97047617Y-185673419D01*
X97047617Y-185673419D02*
X97809522Y-186054371D01*
X97809522Y-186054371D02*
X98190474Y-186435324D01*
X98190474Y-186435324D02*
X98571427Y-187197228D01*
X98571427Y-187197228D02*
X98571427Y-189101990D01*
X98571427Y-189101990D02*
X98190474Y-189863895D01*
X98190474Y-189863895D02*
X97809522Y-190244848D01*
X97809522Y-190244848D02*
X97047617Y-190625800D01*
X97047617Y-190625800D02*
X94761903Y-190625800D01*
X94761903Y-190625800D02*
X93999998Y-190244848D01*
X93999998Y-190244848D02*
X93619046Y-189863895D01*
X103523808Y-182625800D02*
X104285713Y-182625800D01*
X104285713Y-182625800D02*
X105047617Y-183006752D01*
X105047617Y-183006752D02*
X105428570Y-183387705D01*
X105428570Y-183387705D02*
X105809522Y-184149609D01*
X105809522Y-184149609D02*
X106190475Y-185673419D01*
X106190475Y-185673419D02*
X106190475Y-187578181D01*
X106190475Y-187578181D02*
X105809522Y-189101990D01*
X105809522Y-189101990D02*
X105428570Y-189863895D01*
X105428570Y-189863895D02*
X105047617Y-190244848D01*
X105047617Y-190244848D02*
X104285713Y-190625800D01*
X104285713Y-190625800D02*
X103523808Y-190625800D01*
X103523808Y-190625800D02*
X102761903Y-190244848D01*
X102761903Y-190244848D02*
X102380951Y-189863895D01*
X102380951Y-189863895D02*
X101999998Y-189101990D01*
X101999998Y-189101990D02*
X101619046Y-187578181D01*
X101619046Y-187578181D02*
X101619046Y-185673419D01*
X101619046Y-185673419D02*
X101999998Y-184149609D01*
X101999998Y-184149609D02*
X102380951Y-183387705D01*
X102380951Y-183387705D02*
X102761903Y-183006752D01*
X102761903Y-183006752D02*
X103523808Y-182625800D01*
X111142856Y-182625800D02*
X111904761Y-182625800D01*
X111904761Y-182625800D02*
X112666665Y-183006752D01*
X112666665Y-183006752D02*
X113047618Y-183387705D01*
X113047618Y-183387705D02*
X113428570Y-184149609D01*
X113428570Y-184149609D02*
X113809523Y-185673419D01*
X113809523Y-185673419D02*
X113809523Y-187578181D01*
X113809523Y-187578181D02*
X113428570Y-189101990D01*
X113428570Y-189101990D02*
X113047618Y-189863895D01*
X113047618Y-189863895D02*
X112666665Y-190244848D01*
X112666665Y-190244848D02*
X111904761Y-190625800D01*
X111904761Y-190625800D02*
X111142856Y-190625800D01*
X111142856Y-190625800D02*
X110380951Y-190244848D01*
X110380951Y-190244848D02*
X109999999Y-189863895D01*
X109999999Y-189863895D02*
X109619046Y-189101990D01*
X109619046Y-189101990D02*
X109238094Y-187578181D01*
X109238094Y-187578181D02*
X109238094Y-185673419D01*
X109238094Y-185673419D02*
X109619046Y-184149609D01*
X109619046Y-184149609D02*
X109999999Y-183387705D01*
X109999999Y-183387705D02*
X110380951Y-183006752D01*
X110380951Y-183006752D02*
X111142856Y-182625800D01*
X118761904Y-182625800D02*
X119523809Y-182625800D01*
X119523809Y-182625800D02*
X120285713Y-183006752D01*
X120285713Y-183006752D02*
X120666666Y-183387705D01*
X120666666Y-183387705D02*
X121047618Y-184149609D01*
X121047618Y-184149609D02*
X121428571Y-185673419D01*
X121428571Y-185673419D02*
X121428571Y-187578181D01*
X121428571Y-187578181D02*
X121047618Y-189101990D01*
X121047618Y-189101990D02*
X120666666Y-189863895D01*
X120666666Y-189863895D02*
X120285713Y-190244848D01*
X120285713Y-190244848D02*
X119523809Y-190625800D01*
X119523809Y-190625800D02*
X118761904Y-190625800D01*
X118761904Y-190625800D02*
X117999999Y-190244848D01*
X117999999Y-190244848D02*
X117619047Y-189863895D01*
X117619047Y-189863895D02*
X117238094Y-189101990D01*
X117238094Y-189101990D02*
X116857142Y-187578181D01*
X116857142Y-187578181D02*
X116857142Y-185673419D01*
X116857142Y-185673419D02*
X117238094Y-184149609D01*
X117238094Y-184149609D02*
X117619047Y-183387705D01*
X117619047Y-183387705D02*
X117999999Y-183006752D01*
X117999999Y-183006752D02*
X118761904Y-182625800D01*
X69619048Y-206552971D02*
X69238095Y-206172019D01*
X69238095Y-206172019D02*
X68476191Y-205029161D01*
X68476191Y-205029161D02*
X68095238Y-204267257D01*
X68095238Y-204267257D02*
X67714286Y-203124400D01*
X67714286Y-203124400D02*
X67333333Y-201219638D01*
X67333333Y-201219638D02*
X67333333Y-199695828D01*
X67333333Y-199695828D02*
X67714286Y-197791066D01*
X67714286Y-197791066D02*
X68095238Y-196648209D01*
X68095238Y-196648209D02*
X68476191Y-195886304D01*
X68476191Y-195886304D02*
X69238095Y-194743447D01*
X69238095Y-194743447D02*
X69619048Y-194362495D01*
X72666666Y-203505352D02*
X72666666Y-195505352D01*
X72666666Y-195505352D02*
X75333333Y-201219638D01*
X75333333Y-201219638D02*
X78000000Y-195505352D01*
X78000000Y-195505352D02*
X78000000Y-203505352D01*
X81428571Y-203124400D02*
X82571428Y-203505352D01*
X82571428Y-203505352D02*
X84476190Y-203505352D01*
X84476190Y-203505352D02*
X85238095Y-203124400D01*
X85238095Y-203124400D02*
X85619047Y-202743447D01*
X85619047Y-202743447D02*
X86000000Y-201981542D01*
X86000000Y-201981542D02*
X86000000Y-201219638D01*
X86000000Y-201219638D02*
X85619047Y-200457733D01*
X85619047Y-200457733D02*
X85238095Y-200076780D01*
X85238095Y-200076780D02*
X84476190Y-199695828D01*
X84476190Y-199695828D02*
X82952381Y-199314876D01*
X82952381Y-199314876D02*
X82190476Y-198933923D01*
X82190476Y-198933923D02*
X81809523Y-198552971D01*
X81809523Y-198552971D02*
X81428571Y-197791066D01*
X81428571Y-197791066D02*
X81428571Y-197029161D01*
X81428571Y-197029161D02*
X81809523Y-196267257D01*
X81809523Y-196267257D02*
X82190476Y-195886304D01*
X82190476Y-195886304D02*
X82952381Y-195505352D01*
X82952381Y-195505352D02*
X84857142Y-195505352D01*
X84857142Y-195505352D02*
X86000000Y-195886304D01*
X88285714Y-195505352D02*
X92857143Y-195505352D01*
X90571429Y-203505352D02*
X90571429Y-195505352D01*
X94761905Y-195505352D02*
X99714286Y-195505352D01*
X99714286Y-195505352D02*
X97047619Y-198552971D01*
X97047619Y-198552971D02*
X98190476Y-198552971D01*
X98190476Y-198552971D02*
X98952381Y-198933923D01*
X98952381Y-198933923D02*
X99333333Y-199314876D01*
X99333333Y-199314876D02*
X99714286Y-200076780D01*
X99714286Y-200076780D02*
X99714286Y-201981542D01*
X99714286Y-201981542D02*
X99333333Y-202743447D01*
X99333333Y-202743447D02*
X98952381Y-203124400D01*
X98952381Y-203124400D02*
X98190476Y-203505352D01*
X98190476Y-203505352D02*
X95904762Y-203505352D01*
X95904762Y-203505352D02*
X95142857Y-203124400D01*
X95142857Y-203124400D02*
X94761905Y-202743447D01*
X103142857Y-203505352D02*
X103142857Y-195505352D01*
X107714286Y-203505352D02*
X104285715Y-198933923D01*
X107714286Y-195505352D02*
X103142857Y-200076780D01*
X110380953Y-206552971D02*
X110761905Y-206172019D01*
X110761905Y-206172019D02*
X111523810Y-205029161D01*
X111523810Y-205029161D02*
X111904762Y-204267257D01*
X111904762Y-204267257D02*
X112285715Y-203124400D01*
X112285715Y-203124400D02*
X112666667Y-201219638D01*
X112666667Y-201219638D02*
X112666667Y-199695828D01*
X112666667Y-199695828D02*
X112285715Y-197791066D01*
X112285715Y-197791066D02*
X111904762Y-196648209D01*
X111904762Y-196648209D02*
X111523810Y-195886304D01*
X111523810Y-195886304D02*
X110761905Y-194743447D01*
X110761905Y-194743447D02*
X110380953Y-194362495D01*
D11*
%TO.C,Ref\u002A\u002A*%
X15052560Y-194186431D02*
X15079654Y-194213619D01*
X15122180Y-194267382D01*
X15183576Y-194351395D01*
X15210084Y-194388520D01*
X15302435Y-194519764D01*
X15387687Y-194643616D01*
X15462691Y-194755270D01*
X15524297Y-194849922D01*
X15569355Y-194922766D01*
X15594715Y-194968997D01*
X15599166Y-194982049D01*
X15592634Y-194998601D01*
X15570894Y-194992305D01*
X15530730Y-194960713D01*
X15468927Y-194901379D01*
X15399928Y-194830390D01*
X15267961Y-194682115D01*
X15162908Y-194542617D01*
X15086790Y-194415366D01*
X15041628Y-194303827D01*
X15029441Y-194211469D01*
X15030914Y-194197090D01*
X15037460Y-194182146D01*
X15052560Y-194186431D01*
G36*
X15052560Y-194186431D02*
G01*
X15079654Y-194213619D01*
X15122180Y-194267382D01*
X15183576Y-194351395D01*
X15210084Y-194388520D01*
X15302435Y-194519764D01*
X15387687Y-194643616D01*
X15462691Y-194755270D01*
X15524297Y-194849922D01*
X15569355Y-194922766D01*
X15594715Y-194968997D01*
X15599166Y-194982049D01*
X15592634Y-194998601D01*
X15570894Y-194992305D01*
X15530730Y-194960713D01*
X15468927Y-194901379D01*
X15399928Y-194830390D01*
X15267961Y-194682115D01*
X15162908Y-194542617D01*
X15086790Y-194415366D01*
X15041628Y-194303827D01*
X15029441Y-194211469D01*
X15030914Y-194197090D01*
X15037460Y-194182146D01*
X15052560Y-194186431D01*
G37*
X16155123Y-193485775D02*
X16191137Y-193510913D01*
X16275433Y-193608458D01*
X16326366Y-193727089D01*
X16340000Y-193833160D01*
X16334864Y-193910895D01*
X16321116Y-194011353D01*
X16301240Y-194122251D01*
X16277721Y-194231306D01*
X16253045Y-194326234D01*
X16229698Y-194394754D01*
X16223801Y-194407412D01*
X16167932Y-194477760D01*
X16095166Y-194510350D01*
X16009967Y-194503977D01*
X15953824Y-194480454D01*
X15886484Y-194420605D01*
X15837476Y-194326841D01*
X15807958Y-194203939D01*
X15799088Y-194056678D01*
X15811523Y-193893503D01*
X15838905Y-193749751D01*
X15878060Y-193625079D01*
X15925751Y-193528675D01*
X15952505Y-193493149D01*
X16008126Y-193460640D01*
X16079816Y-193458491D01*
X16155123Y-193485775D01*
G36*
X16155123Y-193485775D02*
G01*
X16191137Y-193510913D01*
X16275433Y-193608458D01*
X16326366Y-193727089D01*
X16340000Y-193833160D01*
X16334864Y-193910895D01*
X16321116Y-194011353D01*
X16301240Y-194122251D01*
X16277721Y-194231306D01*
X16253045Y-194326234D01*
X16229698Y-194394754D01*
X16223801Y-194407412D01*
X16167932Y-194477760D01*
X16095166Y-194510350D01*
X16009967Y-194503977D01*
X15953824Y-194480454D01*
X15886484Y-194420605D01*
X15837476Y-194326841D01*
X15807958Y-194203939D01*
X15799088Y-194056678D01*
X15811523Y-193893503D01*
X15838905Y-193749751D01*
X15878060Y-193625079D01*
X15925751Y-193528675D01*
X15952505Y-193493149D01*
X16008126Y-193460640D01*
X16079816Y-193458491D01*
X16155123Y-193485775D01*
G37*
X24933723Y-179749075D02*
X25003643Y-179779583D01*
X25046609Y-179835241D01*
X25049574Y-179843562D01*
X25052743Y-179912207D01*
X25029645Y-179993569D01*
X24985862Y-180072474D01*
X24949950Y-180114308D01*
X24889456Y-180165255D01*
X24800325Y-180231025D01*
X24691051Y-180306107D01*
X24570128Y-180384989D01*
X24446048Y-180462159D01*
X24327305Y-180532106D01*
X24222392Y-180589318D01*
X24202178Y-180599566D01*
X24065935Y-180658591D01*
X23939891Y-180696210D01*
X23830824Y-180711162D01*
X23745512Y-180702184D01*
X23716583Y-180689947D01*
X23654069Y-180632504D01*
X23623863Y-180556679D01*
X23624420Y-180469501D01*
X23654190Y-180378000D01*
X23711626Y-180289207D01*
X23795180Y-180210152D01*
X23827065Y-180188133D01*
X23938888Y-180122315D01*
X24072708Y-180052109D01*
X24219940Y-179981223D01*
X24372001Y-179913365D01*
X24520307Y-179852244D01*
X24656276Y-179801568D01*
X24771322Y-179765046D01*
X24845889Y-179747959D01*
X24933723Y-179749075D01*
G36*
X24933723Y-179749075D02*
G01*
X25003643Y-179779583D01*
X25046609Y-179835241D01*
X25049574Y-179843562D01*
X25052743Y-179912207D01*
X25029645Y-179993569D01*
X24985862Y-180072474D01*
X24949950Y-180114308D01*
X24889456Y-180165255D01*
X24800325Y-180231025D01*
X24691051Y-180306107D01*
X24570128Y-180384989D01*
X24446048Y-180462159D01*
X24327305Y-180532106D01*
X24222392Y-180589318D01*
X24202178Y-180599566D01*
X24065935Y-180658591D01*
X23939891Y-180696210D01*
X23830824Y-180711162D01*
X23745512Y-180702184D01*
X23716583Y-180689947D01*
X23654069Y-180632504D01*
X23623863Y-180556679D01*
X23624420Y-180469501D01*
X23654190Y-180378000D01*
X23711626Y-180289207D01*
X23795180Y-180210152D01*
X23827065Y-180188133D01*
X23938888Y-180122315D01*
X24072708Y-180052109D01*
X24219940Y-179981223D01*
X24372001Y-179913365D01*
X24520307Y-179852244D01*
X24656276Y-179801568D01*
X24771322Y-179765046D01*
X24845889Y-179747959D01*
X24933723Y-179749075D01*
G37*
X34616410Y-178329609D02*
X34616926Y-178329736D01*
X34671870Y-178361425D01*
X34700224Y-178416810D01*
X34703807Y-178488202D01*
X34684442Y-178567915D01*
X34643949Y-178648260D01*
X34584150Y-178721552D01*
X34510769Y-178777846D01*
X34452191Y-178806767D01*
X34388320Y-178825036D01*
X34309655Y-178833816D01*
X34206693Y-178834269D01*
X34092879Y-178828969D01*
X34022398Y-178826548D01*
X33975727Y-178834263D01*
X33935278Y-178858753D01*
X33883457Y-178906656D01*
X33881212Y-178908847D01*
X33778880Y-178991661D01*
X33682585Y-179033497D01*
X33590387Y-179034949D01*
X33533737Y-179015496D01*
X33493805Y-178981708D01*
X33456724Y-178928245D01*
X33452392Y-178919621D01*
X33428677Y-178826046D01*
X33445245Y-178734460D01*
X33500047Y-178646985D01*
X33591034Y-178565744D01*
X33716156Y-178492856D01*
X33873364Y-178430446D01*
X33946067Y-178408531D01*
X34034708Y-178387759D01*
X34142539Y-178368177D01*
X34259473Y-178350971D01*
X34375417Y-178337326D01*
X34480281Y-178328428D01*
X34563976Y-178325460D01*
X34616410Y-178329609D01*
G36*
X34616410Y-178329609D02*
G01*
X34616926Y-178329736D01*
X34671870Y-178361425D01*
X34700224Y-178416810D01*
X34703807Y-178488202D01*
X34684442Y-178567915D01*
X34643949Y-178648260D01*
X34584150Y-178721552D01*
X34510769Y-178777846D01*
X34452191Y-178806767D01*
X34388320Y-178825036D01*
X34309655Y-178833816D01*
X34206693Y-178834269D01*
X34092879Y-178828969D01*
X34022398Y-178826548D01*
X33975727Y-178834263D01*
X33935278Y-178858753D01*
X33883457Y-178906656D01*
X33881212Y-178908847D01*
X33778880Y-178991661D01*
X33682585Y-179033497D01*
X33590387Y-179034949D01*
X33533737Y-179015496D01*
X33493805Y-178981708D01*
X33456724Y-178928245D01*
X33452392Y-178919621D01*
X33428677Y-178826046D01*
X33445245Y-178734460D01*
X33500047Y-178646985D01*
X33591034Y-178565744D01*
X33716156Y-178492856D01*
X33873364Y-178430446D01*
X33946067Y-178408531D01*
X34034708Y-178387759D01*
X34142539Y-178368177D01*
X34259473Y-178350971D01*
X34375417Y-178337326D01*
X34480281Y-178328428D01*
X34563976Y-178325460D01*
X34616410Y-178329609D01*
G37*
X36681166Y-175637527D02*
X36866694Y-175639278D01*
X37014943Y-175641048D01*
X37130963Y-175643223D01*
X37219809Y-175646188D01*
X37286531Y-175650329D01*
X37336181Y-175656032D01*
X37373812Y-175663683D01*
X37404476Y-175673666D01*
X37433225Y-175686368D01*
X37453750Y-175696500D01*
X37546598Y-175760313D01*
X37614904Y-175849318D01*
X37662808Y-175969615D01*
X37676477Y-176024584D01*
X37685829Y-176075289D01*
X37699676Y-176160663D01*
X37716918Y-176273412D01*
X37736454Y-176406242D01*
X37757186Y-176551860D01*
X37770655Y-176649000D01*
X37792190Y-176801877D01*
X37813998Y-176949301D01*
X37834823Y-177083324D01*
X37853411Y-177195995D01*
X37868507Y-177279364D01*
X37875309Y-177311772D01*
X37896533Y-177407788D01*
X37905545Y-177467241D01*
X37901080Y-177494463D01*
X37881876Y-177493784D01*
X37846669Y-177469534D01*
X37832608Y-177458155D01*
X37806780Y-177433263D01*
X37756553Y-177381661D01*
X37686162Y-177307820D01*
X37599842Y-177216211D01*
X37501828Y-177111305D01*
X37396354Y-176997573D01*
X37395682Y-176996846D01*
X37290584Y-176883894D01*
X37188247Y-176775755D01*
X37084625Y-176668416D01*
X36975674Y-176557864D01*
X36857349Y-176440085D01*
X36725605Y-176311066D01*
X36576397Y-176166794D01*
X36405681Y-176003256D01*
X36209411Y-175816439D01*
X36130833Y-175741872D01*
X36014416Y-175631470D01*
X36681166Y-175637527D01*
G36*
X36681166Y-175637527D02*
G01*
X36866694Y-175639278D01*
X37014943Y-175641048D01*
X37130963Y-175643223D01*
X37219809Y-175646188D01*
X37286531Y-175650329D01*
X37336181Y-175656032D01*
X37373812Y-175663683D01*
X37404476Y-175673666D01*
X37433225Y-175686368D01*
X37453750Y-175696500D01*
X37546598Y-175760313D01*
X37614904Y-175849318D01*
X37662808Y-175969615D01*
X37676477Y-176024584D01*
X37685829Y-176075289D01*
X37699676Y-176160663D01*
X37716918Y-176273412D01*
X37736454Y-176406242D01*
X37757186Y-176551860D01*
X37770655Y-176649000D01*
X37792190Y-176801877D01*
X37813998Y-176949301D01*
X37834823Y-177083324D01*
X37853411Y-177195995D01*
X37868507Y-177279364D01*
X37875309Y-177311772D01*
X37896533Y-177407788D01*
X37905545Y-177467241D01*
X37901080Y-177494463D01*
X37881876Y-177493784D01*
X37846669Y-177469534D01*
X37832608Y-177458155D01*
X37806780Y-177433263D01*
X37756553Y-177381661D01*
X37686162Y-177307820D01*
X37599842Y-177216211D01*
X37501828Y-177111305D01*
X37396354Y-176997573D01*
X37395682Y-176996846D01*
X37290584Y-176883894D01*
X37188247Y-176775755D01*
X37084625Y-176668416D01*
X36975674Y-176557864D01*
X36857349Y-176440085D01*
X36725605Y-176311066D01*
X36576397Y-176166794D01*
X36405681Y-176003256D01*
X36209411Y-175816439D01*
X36130833Y-175741872D01*
X36014416Y-175631470D01*
X36681166Y-175637527D01*
G37*
X34103191Y-200826204D02*
X34552050Y-200831917D01*
X34702534Y-201043584D01*
X34869611Y-201278845D01*
X35045864Y-201527501D01*
X35229181Y-201786544D01*
X35417451Y-202052969D01*
X35608562Y-202323768D01*
X35800403Y-202595936D01*
X35990863Y-202866466D01*
X36177829Y-203132352D01*
X36359190Y-203390587D01*
X36532835Y-203638164D01*
X36696653Y-203872078D01*
X36848531Y-204089322D01*
X36986358Y-204286889D01*
X37108022Y-204461773D01*
X37211413Y-204610968D01*
X37294418Y-204731467D01*
X37352056Y-204816014D01*
X37707750Y-205342307D01*
X37700527Y-203081820D01*
X37693305Y-200821334D01*
X38649666Y-200821334D01*
X38649666Y-206896167D01*
X37749633Y-206896167D01*
X36567749Y-205223890D01*
X36331475Y-204889504D01*
X36118171Y-204587453D01*
X35926310Y-204315545D01*
X35754362Y-204071592D01*
X35600798Y-203853403D01*
X35464090Y-203658789D01*
X35342709Y-203485559D01*
X35235126Y-203331525D01*
X35139812Y-203194496D01*
X35055239Y-203072282D01*
X34979877Y-202962695D01*
X34912199Y-202863543D01*
X34850675Y-202772637D01*
X34793776Y-202687787D01*
X34739973Y-202606804D01*
X34728045Y-202588750D01*
X34560383Y-202334750D01*
X34572429Y-202482917D01*
X34574257Y-202524694D01*
X34576285Y-202605714D01*
X34578475Y-202722885D01*
X34580793Y-202873116D01*
X34583202Y-203053318D01*
X34585667Y-203260399D01*
X34588152Y-203491270D01*
X34590622Y-203742838D01*
X34593040Y-204012014D01*
X34595371Y-204295707D01*
X34597580Y-204590827D01*
X34598775Y-204763625D01*
X34613076Y-206896167D01*
X33654333Y-206896167D01*
X33654333Y-200820492D01*
X34103191Y-200826204D01*
G36*
X34103191Y-200826204D02*
G01*
X34552050Y-200831917D01*
X34702534Y-201043584D01*
X34869611Y-201278845D01*
X35045864Y-201527501D01*
X35229181Y-201786544D01*
X35417451Y-202052969D01*
X35608562Y-202323768D01*
X35800403Y-202595936D01*
X35990863Y-202866466D01*
X36177829Y-203132352D01*
X36359190Y-203390587D01*
X36532835Y-203638164D01*
X36696653Y-203872078D01*
X36848531Y-204089322D01*
X36986358Y-204286889D01*
X37108022Y-204461773D01*
X37211413Y-204610968D01*
X37294418Y-204731467D01*
X37352056Y-204816014D01*
X37707750Y-205342307D01*
X37700527Y-203081820D01*
X37693305Y-200821334D01*
X38649666Y-200821334D01*
X38649666Y-206896167D01*
X37749633Y-206896167D01*
X36567749Y-205223890D01*
X36331475Y-204889504D01*
X36118171Y-204587453D01*
X35926310Y-204315545D01*
X35754362Y-204071592D01*
X35600798Y-203853403D01*
X35464090Y-203658789D01*
X35342709Y-203485559D01*
X35235126Y-203331525D01*
X35139812Y-203194496D01*
X35055239Y-203072282D01*
X34979877Y-202962695D01*
X34912199Y-202863543D01*
X34850675Y-202772637D01*
X34793776Y-202687787D01*
X34739973Y-202606804D01*
X34728045Y-202588750D01*
X34560383Y-202334750D01*
X34572429Y-202482917D01*
X34574257Y-202524694D01*
X34576285Y-202605714D01*
X34578475Y-202722885D01*
X34580793Y-202873116D01*
X34583202Y-203053318D01*
X34585667Y-203260399D01*
X34588152Y-203491270D01*
X34590622Y-203742838D01*
X34593040Y-204012014D01*
X34595371Y-204295707D01*
X34597580Y-204590827D01*
X34598775Y-204763625D01*
X34613076Y-206896167D01*
X33654333Y-206896167D01*
X33654333Y-200820492D01*
X34103191Y-200826204D01*
G37*
X45190166Y-202514667D02*
X46439000Y-202514667D01*
X46439000Y-203319000D01*
X45190166Y-203319000D01*
X45190326Y-204456709D01*
X45190776Y-204703629D01*
X45192014Y-204932735D01*
X45193980Y-205140480D01*
X45196611Y-205323314D01*
X45199849Y-205477691D01*
X45203632Y-205600062D01*
X45207899Y-205686878D01*
X45212154Y-205732000D01*
X45246450Y-205866831D01*
X45305025Y-205971522D01*
X45393462Y-206053915D01*
X45475916Y-206102417D01*
X45531121Y-206128948D01*
X45577940Y-206146725D01*
X45626893Y-206157383D01*
X45688500Y-206162555D01*
X45773283Y-206163875D01*
X45867500Y-206163229D01*
X46029142Y-206157914D01*
X46160267Y-206144848D01*
X46272179Y-206122842D01*
X46286047Y-206119225D01*
X46440011Y-206077910D01*
X46448679Y-206121913D01*
X46454599Y-206165217D01*
X46462399Y-206240542D01*
X46471259Y-206337663D01*
X46480354Y-206446355D01*
X46488864Y-206556392D01*
X46495965Y-206657548D01*
X46500835Y-206739598D01*
X46502653Y-206792317D01*
X46502652Y-206793057D01*
X46499451Y-206833825D01*
X46485533Y-206864166D01*
X46454143Y-206888250D01*
X46398527Y-206910251D01*
X46311930Y-206934340D01*
X46248500Y-206950026D01*
X46151310Y-206967078D01*
X46023372Y-206980202D01*
X45876047Y-206989137D01*
X45720696Y-206993622D01*
X45568679Y-206993398D01*
X45431357Y-206988205D01*
X45320091Y-206977782D01*
X45285416Y-206972088D01*
X45062567Y-206912777D01*
X44865765Y-206825790D01*
X44767490Y-206766243D01*
X44628648Y-206657596D01*
X44518498Y-206532830D01*
X44426718Y-206379931D01*
X44414852Y-206355816D01*
X44388671Y-206300055D01*
X44366113Y-206247132D01*
X44346909Y-206193536D01*
X44330790Y-206135756D01*
X44317487Y-206070279D01*
X44306729Y-205993595D01*
X44298248Y-205902191D01*
X44291774Y-205792555D01*
X44287039Y-205661176D01*
X44283771Y-205504542D01*
X44281703Y-205319141D01*
X44280565Y-205101463D01*
X44280087Y-204847994D01*
X44280000Y-204597722D01*
X44280000Y-203319000D01*
X43475666Y-203319000D01*
X43475666Y-202514667D01*
X44280000Y-202514667D01*
X44280000Y-201985500D01*
X44280606Y-201840852D01*
X44282313Y-201711274D01*
X44284949Y-201602434D01*
X44288346Y-201520001D01*
X44292332Y-201469644D01*
X44295875Y-201456260D01*
X44324636Y-201454295D01*
X44387176Y-201449005D01*
X44475142Y-201441169D01*
X44580178Y-201431568D01*
X44693931Y-201420983D01*
X44808045Y-201410194D01*
X44914167Y-201399982D01*
X45003943Y-201391127D01*
X45069017Y-201384410D01*
X45089625Y-201382104D01*
X45190166Y-201370209D01*
X45190166Y-202514667D01*
G36*
X45190166Y-202514667D02*
G01*
X46439000Y-202514667D01*
X46439000Y-203319000D01*
X45190166Y-203319000D01*
X45190326Y-204456709D01*
X45190776Y-204703629D01*
X45192014Y-204932735D01*
X45193980Y-205140480D01*
X45196611Y-205323314D01*
X45199849Y-205477691D01*
X45203632Y-205600062D01*
X45207899Y-205686878D01*
X45212154Y-205732000D01*
X45246450Y-205866831D01*
X45305025Y-205971522D01*
X45393462Y-206053915D01*
X45475916Y-206102417D01*
X45531121Y-206128948D01*
X45577940Y-206146725D01*
X45626893Y-206157383D01*
X45688500Y-206162555D01*
X45773283Y-206163875D01*
X45867500Y-206163229D01*
X46029142Y-206157914D01*
X46160267Y-206144848D01*
X46272179Y-206122842D01*
X46286047Y-206119225D01*
X46440011Y-206077910D01*
X46448679Y-206121913D01*
X46454599Y-206165217D01*
X46462399Y-206240542D01*
X46471259Y-206337663D01*
X46480354Y-206446355D01*
X46488864Y-206556392D01*
X46495965Y-206657548D01*
X46500835Y-206739598D01*
X46502653Y-206792317D01*
X46502652Y-206793057D01*
X46499451Y-206833825D01*
X46485533Y-206864166D01*
X46454143Y-206888250D01*
X46398527Y-206910251D01*
X46311930Y-206934340D01*
X46248500Y-206950026D01*
X46151310Y-206967078D01*
X46023372Y-206980202D01*
X45876047Y-206989137D01*
X45720696Y-206993622D01*
X45568679Y-206993398D01*
X45431357Y-206988205D01*
X45320091Y-206977782D01*
X45285416Y-206972088D01*
X45062567Y-206912777D01*
X44865765Y-206825790D01*
X44767490Y-206766243D01*
X44628648Y-206657596D01*
X44518498Y-206532830D01*
X44426718Y-206379931D01*
X44414852Y-206355816D01*
X44388671Y-206300055D01*
X44366113Y-206247132D01*
X44346909Y-206193536D01*
X44330790Y-206135756D01*
X44317487Y-206070279D01*
X44306729Y-205993595D01*
X44298248Y-205902191D01*
X44291774Y-205792555D01*
X44287039Y-205661176D01*
X44283771Y-205504542D01*
X44281703Y-205319141D01*
X44280565Y-205101463D01*
X44280087Y-204847994D01*
X44280000Y-204597722D01*
X44280000Y-203319000D01*
X43475666Y-203319000D01*
X43475666Y-202514667D01*
X44280000Y-202514667D01*
X44280000Y-201985500D01*
X44280606Y-201840852D01*
X44282313Y-201711274D01*
X44284949Y-201602434D01*
X44288346Y-201520001D01*
X44292332Y-201469644D01*
X44295875Y-201456260D01*
X44324636Y-201454295D01*
X44387176Y-201449005D01*
X44475142Y-201441169D01*
X44580178Y-201431568D01*
X44693931Y-201420983D01*
X44808045Y-201410194D01*
X44914167Y-201399982D01*
X45003943Y-201391127D01*
X45069017Y-201384410D01*
X45089625Y-201382104D01*
X45190166Y-201370209D01*
X45190166Y-202514667D01*
G37*
X29786284Y-203991042D02*
X29787795Y-204285977D01*
X29789250Y-204541813D01*
X29790890Y-204761784D01*
X29792955Y-204949124D01*
X29795687Y-205107067D01*
X29799324Y-205238845D01*
X29804109Y-205347692D01*
X29810282Y-205436843D01*
X29818082Y-205509531D01*
X29827752Y-205568989D01*
X29839531Y-205618451D01*
X29853661Y-205661151D01*
X29870381Y-205700322D01*
X29889932Y-205739199D01*
X29912555Y-205781014D01*
X29920558Y-205795682D01*
X30018846Y-205933324D01*
X30147819Y-206042281D01*
X30306460Y-206121924D01*
X30493749Y-206171620D01*
X30537899Y-206178364D01*
X30742764Y-206188893D01*
X30934722Y-206165228D01*
X31109532Y-206109240D01*
X31262956Y-206022799D01*
X31390753Y-205907776D01*
X31488682Y-205766041D01*
X31493459Y-205756840D01*
X31513517Y-205716436D01*
X31530901Y-205677210D01*
X31545804Y-205635952D01*
X31558417Y-205589451D01*
X31568932Y-205534500D01*
X31577541Y-205467887D01*
X31584436Y-205386405D01*
X31589808Y-205286842D01*
X31593848Y-205165991D01*
X31596750Y-205020641D01*
X31598704Y-204847583D01*
X31599902Y-204643607D01*
X31600536Y-204405505D01*
X31600798Y-204130066D01*
X31600853Y-203959292D01*
X31601166Y-202514667D01*
X32534793Y-202514667D01*
X32526812Y-204043959D01*
X32525189Y-204348400D01*
X32523565Y-204613776D01*
X32521718Y-204843354D01*
X32519425Y-205040402D01*
X32516466Y-205208187D01*
X32512617Y-205349978D01*
X32507656Y-205469040D01*
X32501363Y-205568643D01*
X32493514Y-205652053D01*
X32483887Y-205722538D01*
X32472261Y-205783365D01*
X32458414Y-205837802D01*
X32442123Y-205889117D01*
X32423167Y-205940577D01*
X32401323Y-205995450D01*
X32392770Y-206016518D01*
X32295611Y-206207140D01*
X32164902Y-206390889D01*
X32009308Y-206557740D01*
X31837494Y-206697666D01*
X31761937Y-206746376D01*
X31573364Y-206838611D01*
X31354782Y-206911591D01*
X31114525Y-206964005D01*
X30860927Y-206994543D01*
X30602323Y-207001892D01*
X30347045Y-206984742D01*
X30292388Y-206977584D01*
X30209206Y-206961821D01*
X30104687Y-206936597D01*
X29997419Y-206906524D01*
X29964132Y-206896176D01*
X29723868Y-206799110D01*
X29512168Y-206670837D01*
X29328623Y-206510992D01*
X29172826Y-206319213D01*
X29044368Y-206095138D01*
X29031331Y-206067286D01*
X29004689Y-206009158D01*
X28981476Y-205956772D01*
X28961441Y-205906888D01*
X28944333Y-205856267D01*
X28929901Y-205801668D01*
X28917895Y-205739852D01*
X28908064Y-205667580D01*
X28900156Y-205581610D01*
X28893922Y-205478705D01*
X28889111Y-205355623D01*
X28885470Y-205209126D01*
X28882751Y-205035973D01*
X28880701Y-204832924D01*
X28879070Y-204596741D01*
X28877608Y-204324182D01*
X28876328Y-204065125D01*
X28868630Y-202514667D01*
X29778708Y-202514667D01*
X29786284Y-203991042D01*
G36*
X29786284Y-203991042D02*
G01*
X29787795Y-204285977D01*
X29789250Y-204541813D01*
X29790890Y-204761784D01*
X29792955Y-204949124D01*
X29795687Y-205107067D01*
X29799324Y-205238845D01*
X29804109Y-205347692D01*
X29810282Y-205436843D01*
X29818082Y-205509531D01*
X29827752Y-205568989D01*
X29839531Y-205618451D01*
X29853661Y-205661151D01*
X29870381Y-205700322D01*
X29889932Y-205739199D01*
X29912555Y-205781014D01*
X29920558Y-205795682D01*
X30018846Y-205933324D01*
X30147819Y-206042281D01*
X30306460Y-206121924D01*
X30493749Y-206171620D01*
X30537899Y-206178364D01*
X30742764Y-206188893D01*
X30934722Y-206165228D01*
X31109532Y-206109240D01*
X31262956Y-206022799D01*
X31390753Y-205907776D01*
X31488682Y-205766041D01*
X31493459Y-205756840D01*
X31513517Y-205716436D01*
X31530901Y-205677210D01*
X31545804Y-205635952D01*
X31558417Y-205589451D01*
X31568932Y-205534500D01*
X31577541Y-205467887D01*
X31584436Y-205386405D01*
X31589808Y-205286842D01*
X31593848Y-205165991D01*
X31596750Y-205020641D01*
X31598704Y-204847583D01*
X31599902Y-204643607D01*
X31600536Y-204405505D01*
X31600798Y-204130066D01*
X31600853Y-203959292D01*
X31601166Y-202514667D01*
X32534793Y-202514667D01*
X32526812Y-204043959D01*
X32525189Y-204348400D01*
X32523565Y-204613776D01*
X32521718Y-204843354D01*
X32519425Y-205040402D01*
X32516466Y-205208187D01*
X32512617Y-205349978D01*
X32507656Y-205469040D01*
X32501363Y-205568643D01*
X32493514Y-205652053D01*
X32483887Y-205722538D01*
X32472261Y-205783365D01*
X32458414Y-205837802D01*
X32442123Y-205889117D01*
X32423167Y-205940577D01*
X32401323Y-205995450D01*
X32392770Y-206016518D01*
X32295611Y-206207140D01*
X32164902Y-206390889D01*
X32009308Y-206557740D01*
X31837494Y-206697666D01*
X31761937Y-206746376D01*
X31573364Y-206838611D01*
X31354782Y-206911591D01*
X31114525Y-206964005D01*
X30860927Y-206994543D01*
X30602323Y-207001892D01*
X30347045Y-206984742D01*
X30292388Y-206977584D01*
X30209206Y-206961821D01*
X30104687Y-206936597D01*
X29997419Y-206906524D01*
X29964132Y-206896176D01*
X29723868Y-206799110D01*
X29512168Y-206670837D01*
X29328623Y-206510992D01*
X29172826Y-206319213D01*
X29044368Y-206095138D01*
X29031331Y-206067286D01*
X29004689Y-206009158D01*
X28981476Y-205956772D01*
X28961441Y-205906888D01*
X28944333Y-205856267D01*
X28929901Y-205801668D01*
X28917895Y-205739852D01*
X28908064Y-205667580D01*
X28900156Y-205581610D01*
X28893922Y-205478705D01*
X28889111Y-205355623D01*
X28885470Y-205209126D01*
X28882751Y-205035973D01*
X28880701Y-204832924D01*
X28879070Y-204596741D01*
X28877608Y-204324182D01*
X28876328Y-204065125D01*
X28868630Y-202514667D01*
X29778708Y-202514667D01*
X29786284Y-203991042D01*
G37*
X26410593Y-202420643D02*
X26552468Y-202439901D01*
X26821599Y-202510376D01*
X27067977Y-202615867D01*
X27290351Y-202754925D01*
X27487474Y-202926101D01*
X27658095Y-203127945D01*
X27800966Y-203359009D01*
X27914838Y-203617845D01*
X27998461Y-203903003D01*
X28045707Y-204171940D01*
X28055375Y-204282133D01*
X28060997Y-204419478D01*
X28062811Y-204574677D01*
X28061056Y-204738436D01*
X28055973Y-204901458D01*
X28047799Y-205054446D01*
X28036774Y-205188105D01*
X28023137Y-205293137D01*
X28015925Y-205329834D01*
X27929739Y-205638948D01*
X27821787Y-205912977D01*
X27690517Y-206154030D01*
X27534376Y-206364219D01*
X27351809Y-206545655D01*
X27141263Y-206700447D01*
X26916794Y-206823382D01*
X26674111Y-206916057D01*
X26409854Y-206974005D01*
X26193083Y-206995152D01*
X25915538Y-206992008D01*
X25660227Y-206953184D01*
X25426266Y-206878465D01*
X25212772Y-206767635D01*
X25184227Y-206749066D01*
X25120775Y-206707387D01*
X25072379Y-206676897D01*
X25048460Y-206663510D01*
X25047671Y-206663334D01*
X25046123Y-206683854D01*
X25044671Y-206742834D01*
X25043343Y-206836399D01*
X25042166Y-206960674D01*
X25041169Y-207111785D01*
X25040380Y-207285858D01*
X25039827Y-207479018D01*
X25039537Y-207687391D01*
X25039500Y-207795750D01*
X25039500Y-208928167D01*
X24150500Y-208928167D01*
X24150500Y-205771035D01*
X25039500Y-205771035D01*
X25129458Y-205848497D01*
X25320032Y-205987445D01*
X25524754Y-206090204D01*
X25738884Y-206155598D01*
X25957683Y-206182451D01*
X26176409Y-206169587D01*
X26309500Y-206141262D01*
X26489848Y-206070216D01*
X26651679Y-205962485D01*
X26792946Y-205820381D01*
X26911606Y-205646216D01*
X27005613Y-205442302D01*
X27050064Y-205303980D01*
X27086043Y-205130840D01*
X27108779Y-204930223D01*
X27118158Y-204714900D01*
X27114069Y-204497640D01*
X27096399Y-204291212D01*
X27065036Y-204108385D01*
X27060754Y-204090299D01*
X26988870Y-203870191D01*
X26889187Y-203679131D01*
X26764041Y-203518820D01*
X26615769Y-203390959D01*
X26446707Y-203297248D01*
X26259191Y-203239390D01*
X26055558Y-203219085D01*
X25880943Y-203231257D01*
X25686836Y-203277516D01*
X25493235Y-203358458D01*
X25312303Y-203468071D01*
X25178336Y-203578549D01*
X25039500Y-203711374D01*
X25039500Y-205771035D01*
X24150500Y-205771035D01*
X24150500Y-203711374D01*
X24150500Y-202514667D01*
X24868948Y-202514667D01*
X24914832Y-202668125D01*
X24937914Y-202743766D01*
X24956844Y-202802956D01*
X24968023Y-202834504D01*
X24968852Y-202836236D01*
X24988112Y-202831270D01*
X25032184Y-202805173D01*
X25092682Y-202763084D01*
X25113244Y-202747757D01*
X25313171Y-202618945D01*
X25546381Y-202510559D01*
X25653333Y-202471295D01*
X25769088Y-202442431D01*
X25914498Y-202422521D01*
X26077757Y-202411979D01*
X26247058Y-202411215D01*
X26410593Y-202420643D01*
G36*
X26410593Y-202420643D02*
G01*
X26552468Y-202439901D01*
X26821599Y-202510376D01*
X27067977Y-202615867D01*
X27290351Y-202754925D01*
X27487474Y-202926101D01*
X27658095Y-203127945D01*
X27800966Y-203359009D01*
X27914838Y-203617845D01*
X27998461Y-203903003D01*
X28045707Y-204171940D01*
X28055375Y-204282133D01*
X28060997Y-204419478D01*
X28062811Y-204574677D01*
X28061056Y-204738436D01*
X28055973Y-204901458D01*
X28047799Y-205054446D01*
X28036774Y-205188105D01*
X28023137Y-205293137D01*
X28015925Y-205329834D01*
X27929739Y-205638948D01*
X27821787Y-205912977D01*
X27690517Y-206154030D01*
X27534376Y-206364219D01*
X27351809Y-206545655D01*
X27141263Y-206700447D01*
X26916794Y-206823382D01*
X26674111Y-206916057D01*
X26409854Y-206974005D01*
X26193083Y-206995152D01*
X25915538Y-206992008D01*
X25660227Y-206953184D01*
X25426266Y-206878465D01*
X25212772Y-206767635D01*
X25184227Y-206749066D01*
X25120775Y-206707387D01*
X25072379Y-206676897D01*
X25048460Y-206663510D01*
X25047671Y-206663334D01*
X25046123Y-206683854D01*
X25044671Y-206742834D01*
X25043343Y-206836399D01*
X25042166Y-206960674D01*
X25041169Y-207111785D01*
X25040380Y-207285858D01*
X25039827Y-207479018D01*
X25039537Y-207687391D01*
X25039500Y-207795750D01*
X25039500Y-208928167D01*
X24150500Y-208928167D01*
X24150500Y-205771035D01*
X25039500Y-205771035D01*
X25129458Y-205848497D01*
X25320032Y-205987445D01*
X25524754Y-206090204D01*
X25738884Y-206155598D01*
X25957683Y-206182451D01*
X26176409Y-206169587D01*
X26309500Y-206141262D01*
X26489848Y-206070216D01*
X26651679Y-205962485D01*
X26792946Y-205820381D01*
X26911606Y-205646216D01*
X27005613Y-205442302D01*
X27050064Y-205303980D01*
X27086043Y-205130840D01*
X27108779Y-204930223D01*
X27118158Y-204714900D01*
X27114069Y-204497640D01*
X27096399Y-204291212D01*
X27065036Y-204108385D01*
X27060754Y-204090299D01*
X26988870Y-203870191D01*
X26889187Y-203679131D01*
X26764041Y-203518820D01*
X26615769Y-203390959D01*
X26446707Y-203297248D01*
X26259191Y-203239390D01*
X26055558Y-203219085D01*
X25880943Y-203231257D01*
X25686836Y-203277516D01*
X25493235Y-203358458D01*
X25312303Y-203468071D01*
X25178336Y-203578549D01*
X25039500Y-203711374D01*
X25039500Y-205771035D01*
X24150500Y-205771035D01*
X24150500Y-203711374D01*
X24150500Y-202514667D01*
X24868948Y-202514667D01*
X24914832Y-202668125D01*
X24937914Y-202743766D01*
X24956844Y-202802956D01*
X24968023Y-202834504D01*
X24968852Y-202836236D01*
X24988112Y-202831270D01*
X25032184Y-202805173D01*
X25092682Y-202763084D01*
X25113244Y-202747757D01*
X25313171Y-202618945D01*
X25546381Y-202510559D01*
X25653333Y-202471295D01*
X25769088Y-202442431D01*
X25914498Y-202422521D01*
X26077757Y-202411979D01*
X26247058Y-202411215D01*
X26410593Y-202420643D01*
G37*
X19063948Y-202420281D02*
X19269739Y-202456132D01*
X19453328Y-202519029D01*
X19621679Y-202611466D01*
X19781756Y-202735939D01*
X19807475Y-202759373D01*
X19882979Y-202835113D01*
X19956097Y-202917832D01*
X20013414Y-202992150D01*
X20023000Y-203006512D01*
X20097083Y-203122205D01*
X20310221Y-202918978D01*
X20502490Y-202750761D01*
X20690030Y-202619987D01*
X20880333Y-202523568D01*
X21080897Y-202458417D01*
X21299216Y-202421447D01*
X21542784Y-202409571D01*
X21547000Y-202409569D01*
X21792172Y-202420855D01*
X22008439Y-202456039D01*
X22203120Y-202517108D01*
X22383531Y-202606049D01*
X22467750Y-202659593D01*
X22638295Y-202801573D01*
X22783816Y-202977635D01*
X22901218Y-203181417D01*
X22928737Y-203238637D01*
X22952801Y-203290153D01*
X22973655Y-203339100D01*
X22991547Y-203388616D01*
X23006722Y-203441838D01*
X23019426Y-203501902D01*
X23029907Y-203571947D01*
X23038409Y-203655109D01*
X23045180Y-203754525D01*
X23050466Y-203873331D01*
X23054512Y-204014666D01*
X23057566Y-204181667D01*
X23059873Y-204377469D01*
X23061679Y-204605210D01*
X23063232Y-204868028D01*
X23064777Y-205169059D01*
X23065298Y-205271625D01*
X23073606Y-206896167D01*
X22140970Y-206896167D01*
X22135027Y-205335125D01*
X22129083Y-203774084D01*
X22081538Y-203656654D01*
X22016064Y-203521068D01*
X21939837Y-203418390D01*
X21844686Y-203339274D01*
X21764457Y-203293895D01*
X21691769Y-203260151D01*
X21631697Y-203239676D01*
X21568622Y-203229247D01*
X21486928Y-203225643D01*
X21432424Y-203225396D01*
X21237654Y-203239729D01*
X21058238Y-203283948D01*
X20888643Y-203360744D01*
X20723339Y-203472808D01*
X20556796Y-203622832D01*
X20504541Y-203676946D01*
X20340500Y-203851680D01*
X20340500Y-206896167D01*
X19430333Y-206896167D01*
X19429966Y-205515042D01*
X19429661Y-205203255D01*
X19428828Y-204930673D01*
X19427322Y-204694168D01*
X19425000Y-204490613D01*
X19421717Y-204316880D01*
X19417331Y-204169842D01*
X19411696Y-204046372D01*
X19404671Y-203943343D01*
X19396109Y-203857627D01*
X19385869Y-203786097D01*
X19373805Y-203725625D01*
X19359775Y-203673085D01*
X19343634Y-203625349D01*
X19342986Y-203623612D01*
X19279422Y-203501336D01*
X19189788Y-203393908D01*
X19083777Y-203311187D01*
X18995181Y-203269906D01*
X18796668Y-203226707D01*
X18597150Y-203224708D01*
X18399273Y-203262932D01*
X18205686Y-203340402D01*
X18019036Y-203456144D01*
X17841971Y-203609181D01*
X17724911Y-203738257D01*
X17610000Y-203877570D01*
X17610000Y-206896167D01*
X16699833Y-206896167D01*
X16699833Y-202514667D01*
X17439034Y-202514667D01*
X17460071Y-202594042D01*
X17477677Y-202664730D01*
X17497072Y-202748621D01*
X17503774Y-202779250D01*
X17522246Y-202861801D01*
X17539280Y-202906113D01*
X17563263Y-202915128D01*
X17602581Y-202891784D01*
X17665618Y-202839022D01*
X17668128Y-202836874D01*
X17867734Y-202682696D01*
X18065308Y-202566106D01*
X18269285Y-202483993D01*
X18488103Y-202433249D01*
X18730198Y-202410763D01*
X18828989Y-202408982D01*
X19063948Y-202420281D01*
G36*
X19063948Y-202420281D02*
G01*
X19269739Y-202456132D01*
X19453328Y-202519029D01*
X19621679Y-202611466D01*
X19781756Y-202735939D01*
X19807475Y-202759373D01*
X19882979Y-202835113D01*
X19956097Y-202917832D01*
X20013414Y-202992150D01*
X20023000Y-203006512D01*
X20097083Y-203122205D01*
X20310221Y-202918978D01*
X20502490Y-202750761D01*
X20690030Y-202619987D01*
X20880333Y-202523568D01*
X21080897Y-202458417D01*
X21299216Y-202421447D01*
X21542784Y-202409571D01*
X21547000Y-202409569D01*
X21792172Y-202420855D01*
X22008439Y-202456039D01*
X22203120Y-202517108D01*
X22383531Y-202606049D01*
X22467750Y-202659593D01*
X22638295Y-202801573D01*
X22783816Y-202977635D01*
X22901218Y-203181417D01*
X22928737Y-203238637D01*
X22952801Y-203290153D01*
X22973655Y-203339100D01*
X22991547Y-203388616D01*
X23006722Y-203441838D01*
X23019426Y-203501902D01*
X23029907Y-203571947D01*
X23038409Y-203655109D01*
X23045180Y-203754525D01*
X23050466Y-203873331D01*
X23054512Y-204014666D01*
X23057566Y-204181667D01*
X23059873Y-204377469D01*
X23061679Y-204605210D01*
X23063232Y-204868028D01*
X23064777Y-205169059D01*
X23065298Y-205271625D01*
X23073606Y-206896167D01*
X22140970Y-206896167D01*
X22135027Y-205335125D01*
X22129083Y-203774084D01*
X22081538Y-203656654D01*
X22016064Y-203521068D01*
X21939837Y-203418390D01*
X21844686Y-203339274D01*
X21764457Y-203293895D01*
X21691769Y-203260151D01*
X21631697Y-203239676D01*
X21568622Y-203229247D01*
X21486928Y-203225643D01*
X21432424Y-203225396D01*
X21237654Y-203239729D01*
X21058238Y-203283948D01*
X20888643Y-203360744D01*
X20723339Y-203472808D01*
X20556796Y-203622832D01*
X20504541Y-203676946D01*
X20340500Y-203851680D01*
X20340500Y-206896167D01*
X19430333Y-206896167D01*
X19429966Y-205515042D01*
X19429661Y-205203255D01*
X19428828Y-204930673D01*
X19427322Y-204694168D01*
X19425000Y-204490613D01*
X19421717Y-204316880D01*
X19417331Y-204169842D01*
X19411696Y-204046372D01*
X19404671Y-203943343D01*
X19396109Y-203857627D01*
X19385869Y-203786097D01*
X19373805Y-203725625D01*
X19359775Y-203673085D01*
X19343634Y-203625349D01*
X19342986Y-203623612D01*
X19279422Y-203501336D01*
X19189788Y-203393908D01*
X19083777Y-203311187D01*
X18995181Y-203269906D01*
X18796668Y-203226707D01*
X18597150Y-203224708D01*
X18399273Y-203262932D01*
X18205686Y-203340402D01*
X18019036Y-203456144D01*
X17841971Y-203609181D01*
X17724911Y-203738257D01*
X17610000Y-203877570D01*
X17610000Y-206896167D01*
X16699833Y-206896167D01*
X16699833Y-202514667D01*
X17439034Y-202514667D01*
X17460071Y-202594042D01*
X17477677Y-202664730D01*
X17497072Y-202748621D01*
X17503774Y-202779250D01*
X17522246Y-202861801D01*
X17539280Y-202906113D01*
X17563263Y-202915128D01*
X17602581Y-202891784D01*
X17665618Y-202839022D01*
X17668128Y-202836874D01*
X17867734Y-202682696D01*
X18065308Y-202566106D01*
X18269285Y-202483993D01*
X18488103Y-202433249D01*
X18730198Y-202410763D01*
X18828989Y-202408982D01*
X19063948Y-202420281D01*
G37*
X13919661Y-202422100D02*
X14036903Y-202424068D01*
X14128131Y-202428134D01*
X14201502Y-202434942D01*
X14265171Y-202445135D01*
X14327294Y-202459356D01*
X14360916Y-202468342D01*
X14639012Y-202565440D01*
X14890900Y-202695492D01*
X15115852Y-202857649D01*
X15313139Y-203051058D01*
X15482034Y-203274869D01*
X15621809Y-203528230D01*
X15731736Y-203810291D01*
X15811087Y-204120200D01*
X15821600Y-204176250D01*
X15839461Y-204313461D01*
X15850821Y-204479360D01*
X15855677Y-204661090D01*
X15854029Y-204845796D01*
X15845874Y-205020623D01*
X15831210Y-205172714D01*
X15821748Y-205234491D01*
X15748059Y-205542777D01*
X15642726Y-205826051D01*
X15507221Y-206082755D01*
X15343014Y-206311330D01*
X15151576Y-206510217D01*
X14934378Y-206677857D01*
X14692890Y-206812691D01*
X14428583Y-206913160D01*
X14183519Y-206971000D01*
X14060369Y-206986306D01*
X13910062Y-206995552D01*
X13747359Y-206998595D01*
X13587020Y-206995293D01*
X13443806Y-206985502D01*
X13387250Y-206978711D01*
X13111963Y-206918816D01*
X12853464Y-206821504D01*
X12614290Y-206689219D01*
X12396979Y-206524407D01*
X12204070Y-206329515D01*
X12038102Y-206106986D01*
X11901611Y-205859266D01*
X11797136Y-205588802D01*
X11746762Y-205398148D01*
X11692038Y-205069254D01*
X11676744Y-204831283D01*
X12621434Y-204831283D01*
X12648920Y-205082636D01*
X12703643Y-205315882D01*
X12783989Y-205527785D01*
X12888344Y-205715111D01*
X13015093Y-205874626D01*
X13162622Y-206003094D01*
X13329317Y-206097283D01*
X13401185Y-206124697D01*
X13553926Y-206168032D01*
X13691012Y-206188423D01*
X13831147Y-206187659D01*
X13937583Y-206175988D01*
X14133435Y-206127906D01*
X14312172Y-206042327D01*
X14471850Y-205921278D01*
X14610527Y-205766785D01*
X14726258Y-205580873D01*
X14817098Y-205365567D01*
X14861244Y-205213417D01*
X14890907Y-205047234D01*
X14907340Y-204855504D01*
X14910540Y-204652894D01*
X14900509Y-204454070D01*
X14877246Y-204273696D01*
X14861244Y-204197417D01*
X14786203Y-203959911D01*
X14685321Y-203752477D01*
X14560249Y-203576579D01*
X14412640Y-203433678D01*
X14244144Y-203325238D01*
X14056412Y-203252722D01*
X13851097Y-203217591D01*
X13751333Y-203214387D01*
X13543485Y-203235841D01*
X13352369Y-203294880D01*
X13179629Y-203389536D01*
X13026910Y-203517843D01*
X12895856Y-203677830D01*
X12788111Y-203867531D01*
X12705320Y-204084977D01*
X12649126Y-204328201D01*
X12622799Y-204565056D01*
X12621434Y-204831283D01*
X11676744Y-204831283D01*
X11671163Y-204744460D01*
X11683179Y-204427355D01*
X11727125Y-204121527D01*
X11802044Y-203830564D01*
X11906975Y-203558055D01*
X12040961Y-203307588D01*
X12203041Y-203082752D01*
X12392256Y-202887134D01*
X12425645Y-202858229D01*
X12570134Y-202751616D01*
X12741883Y-202649364D01*
X12925958Y-202559237D01*
X13107422Y-202489000D01*
X13175583Y-202468310D01*
X13240070Y-202451802D01*
X13301977Y-202439647D01*
X13369459Y-202431203D01*
X13450673Y-202425827D01*
X13553777Y-202422875D01*
X13686926Y-202421705D01*
X13768250Y-202421587D01*
X13919661Y-202422100D01*
G36*
X13919661Y-202422100D02*
G01*
X14036903Y-202424068D01*
X14128131Y-202428134D01*
X14201502Y-202434942D01*
X14265171Y-202445135D01*
X14327294Y-202459356D01*
X14360916Y-202468342D01*
X14639012Y-202565440D01*
X14890900Y-202695492D01*
X15115852Y-202857649D01*
X15313139Y-203051058D01*
X15482034Y-203274869D01*
X15621809Y-203528230D01*
X15731736Y-203810291D01*
X15811087Y-204120200D01*
X15821600Y-204176250D01*
X15839461Y-204313461D01*
X15850821Y-204479360D01*
X15855677Y-204661090D01*
X15854029Y-204845796D01*
X15845874Y-205020623D01*
X15831210Y-205172714D01*
X15821748Y-205234491D01*
X15748059Y-205542777D01*
X15642726Y-205826051D01*
X15507221Y-206082755D01*
X15343014Y-206311330D01*
X15151576Y-206510217D01*
X14934378Y-206677857D01*
X14692890Y-206812691D01*
X14428583Y-206913160D01*
X14183519Y-206971000D01*
X14060369Y-206986306D01*
X13910062Y-206995552D01*
X13747359Y-206998595D01*
X13587020Y-206995293D01*
X13443806Y-206985502D01*
X13387250Y-206978711D01*
X13111963Y-206918816D01*
X12853464Y-206821504D01*
X12614290Y-206689219D01*
X12396979Y-206524407D01*
X12204070Y-206329515D01*
X12038102Y-206106986D01*
X11901611Y-205859266D01*
X11797136Y-205588802D01*
X11746762Y-205398148D01*
X11692038Y-205069254D01*
X11676744Y-204831283D01*
X12621434Y-204831283D01*
X12648920Y-205082636D01*
X12703643Y-205315882D01*
X12783989Y-205527785D01*
X12888344Y-205715111D01*
X13015093Y-205874626D01*
X13162622Y-206003094D01*
X13329317Y-206097283D01*
X13401185Y-206124697D01*
X13553926Y-206168032D01*
X13691012Y-206188423D01*
X13831147Y-206187659D01*
X13937583Y-206175988D01*
X14133435Y-206127906D01*
X14312172Y-206042327D01*
X14471850Y-205921278D01*
X14610527Y-205766785D01*
X14726258Y-205580873D01*
X14817098Y-205365567D01*
X14861244Y-205213417D01*
X14890907Y-205047234D01*
X14907340Y-204855504D01*
X14910540Y-204652894D01*
X14900509Y-204454070D01*
X14877246Y-204273696D01*
X14861244Y-204197417D01*
X14786203Y-203959911D01*
X14685321Y-203752477D01*
X14560249Y-203576579D01*
X14412640Y-203433678D01*
X14244144Y-203325238D01*
X14056412Y-203252722D01*
X13851097Y-203217591D01*
X13751333Y-203214387D01*
X13543485Y-203235841D01*
X13352369Y-203294880D01*
X13179629Y-203389536D01*
X13026910Y-203517843D01*
X12895856Y-203677830D01*
X12788111Y-203867531D01*
X12705320Y-204084977D01*
X12649126Y-204328201D01*
X12622799Y-204565056D01*
X12621434Y-204831283D01*
X11676744Y-204831283D01*
X11671163Y-204744460D01*
X11683179Y-204427355D01*
X11727125Y-204121527D01*
X11802044Y-203830564D01*
X11906975Y-203558055D01*
X12040961Y-203307588D01*
X12203041Y-203082752D01*
X12392256Y-202887134D01*
X12425645Y-202858229D01*
X12570134Y-202751616D01*
X12741883Y-202649364D01*
X12925958Y-202559237D01*
X13107422Y-202489000D01*
X13175583Y-202468310D01*
X13240070Y-202451802D01*
X13301977Y-202439647D01*
X13369459Y-202431203D01*
X13450673Y-202425827D01*
X13553777Y-202422875D01*
X13686926Y-202421705D01*
X13768250Y-202421587D01*
X13919661Y-202422100D01*
G37*
X41558018Y-202414298D02*
X41698326Y-202426721D01*
X41775657Y-202439529D01*
X41988897Y-202494849D01*
X42171893Y-202565781D01*
X42335519Y-202657870D01*
X42490651Y-202776661D01*
X42559293Y-202839076D01*
X42721213Y-203017092D01*
X42856631Y-203219235D01*
X42966174Y-203447424D01*
X43050471Y-203703581D01*
X43110147Y-203989628D01*
X43145831Y-204307484D01*
X43158150Y-204659072D01*
X43158166Y-204672833D01*
X43158166Y-204970000D01*
X40279500Y-204970000D01*
X40279867Y-205017625D01*
X40289068Y-205105136D01*
X40312963Y-205216373D01*
X40347632Y-205337040D01*
X40389156Y-205452842D01*
X40416366Y-205515386D01*
X40524493Y-205695184D01*
X40665009Y-205848028D01*
X40837215Y-205973369D01*
X41040412Y-206070658D01*
X41183306Y-206117104D01*
X41251885Y-206134206D01*
X41319494Y-206146513D01*
X41395112Y-206154777D01*
X41487716Y-206159750D01*
X41606285Y-206162182D01*
X41729416Y-206162809D01*
X41940253Y-206159449D01*
X42122301Y-206147471D01*
X42288590Y-206124850D01*
X42452149Y-206089557D01*
X42626006Y-206039568D01*
X42720002Y-206008722D01*
X42816953Y-205978070D01*
X42878925Y-205963983D01*
X42909585Y-205965748D01*
X42914028Y-205971114D01*
X42919262Y-206001860D01*
X42927501Y-206065698D01*
X42937789Y-206153575D01*
X42949168Y-206256435D01*
X42960682Y-206365224D01*
X42971375Y-206470888D01*
X42980289Y-206564372D01*
X42986468Y-206636620D01*
X42988955Y-206678579D01*
X42988966Y-206680373D01*
X42980070Y-206713400D01*
X42947988Y-206742607D01*
X42884330Y-206775353D01*
X42876774Y-206778721D01*
X42719646Y-206838753D01*
X42531882Y-206894592D01*
X42325173Y-206942828D01*
X42290333Y-206949767D01*
X42193158Y-206963793D01*
X42063848Y-206975490D01*
X41912547Y-206984594D01*
X41749404Y-206990843D01*
X41584564Y-206993972D01*
X41428174Y-206993719D01*
X41290380Y-206989819D01*
X41181330Y-206982009D01*
X41157916Y-206979167D01*
X40845520Y-206918632D01*
X40561532Y-206826816D01*
X40306458Y-206704272D01*
X40080807Y-206551556D01*
X39885086Y-206369225D01*
X39719802Y-206157834D01*
X39585462Y-205917939D01*
X39482574Y-205650094D01*
X39411644Y-205354856D01*
X39373181Y-205032781D01*
X39372604Y-205023813D01*
X39365841Y-204837678D01*
X39367407Y-204641097D01*
X39376658Y-204446541D01*
X39392951Y-204266479D01*
X39411029Y-204144500D01*
X40325665Y-204144500D01*
X42204608Y-204144500D01*
X42192614Y-204075709D01*
X42140227Y-203852969D01*
X42066517Y-203665841D01*
X41970586Y-203512854D01*
X41851535Y-203392540D01*
X41725658Y-203311875D01*
X41554530Y-203247408D01*
X41378473Y-203221835D01*
X41201991Y-203232785D01*
X41029593Y-203277885D01*
X40865785Y-203354761D01*
X40715073Y-203461042D01*
X40581965Y-203594355D01*
X40470968Y-203752326D01*
X40386588Y-203932583D01*
X40354937Y-204033535D01*
X40325665Y-204144500D01*
X39411029Y-204144500D01*
X39415641Y-204113384D01*
X39420950Y-204086815D01*
X39502841Y-203787051D01*
X39616108Y-203511213D01*
X39758918Y-203261259D01*
X39929439Y-203039146D01*
X40125836Y-202846831D01*
X40346277Y-202686271D01*
X40588928Y-202559422D01*
X40851956Y-202468244D01*
X40961232Y-202442451D01*
X41087312Y-202423838D01*
X41238286Y-202412907D01*
X41399930Y-202409710D01*
X41558018Y-202414298D01*
G36*
X41558018Y-202414298D02*
G01*
X41698326Y-202426721D01*
X41775657Y-202439529D01*
X41988897Y-202494849D01*
X42171893Y-202565781D01*
X42335519Y-202657870D01*
X42490651Y-202776661D01*
X42559293Y-202839076D01*
X42721213Y-203017092D01*
X42856631Y-203219235D01*
X42966174Y-203447424D01*
X43050471Y-203703581D01*
X43110147Y-203989628D01*
X43145831Y-204307484D01*
X43158150Y-204659072D01*
X43158166Y-204672833D01*
X43158166Y-204970000D01*
X40279500Y-204970000D01*
X40279867Y-205017625D01*
X40289068Y-205105136D01*
X40312963Y-205216373D01*
X40347632Y-205337040D01*
X40389156Y-205452842D01*
X40416366Y-205515386D01*
X40524493Y-205695184D01*
X40665009Y-205848028D01*
X40837215Y-205973369D01*
X41040412Y-206070658D01*
X41183306Y-206117104D01*
X41251885Y-206134206D01*
X41319494Y-206146513D01*
X41395112Y-206154777D01*
X41487716Y-206159750D01*
X41606285Y-206162182D01*
X41729416Y-206162809D01*
X41940253Y-206159449D01*
X42122301Y-206147471D01*
X42288590Y-206124850D01*
X42452149Y-206089557D01*
X42626006Y-206039568D01*
X42720002Y-206008722D01*
X42816953Y-205978070D01*
X42878925Y-205963983D01*
X42909585Y-205965748D01*
X42914028Y-205971114D01*
X42919262Y-206001860D01*
X42927501Y-206065698D01*
X42937789Y-206153575D01*
X42949168Y-206256435D01*
X42960682Y-206365224D01*
X42971375Y-206470888D01*
X42980289Y-206564372D01*
X42986468Y-206636620D01*
X42988955Y-206678579D01*
X42988966Y-206680373D01*
X42980070Y-206713400D01*
X42947988Y-206742607D01*
X42884330Y-206775353D01*
X42876774Y-206778721D01*
X42719646Y-206838753D01*
X42531882Y-206894592D01*
X42325173Y-206942828D01*
X42290333Y-206949767D01*
X42193158Y-206963793D01*
X42063848Y-206975490D01*
X41912547Y-206984594D01*
X41749404Y-206990843D01*
X41584564Y-206993972D01*
X41428174Y-206993719D01*
X41290380Y-206989819D01*
X41181330Y-206982009D01*
X41157916Y-206979167D01*
X40845520Y-206918632D01*
X40561532Y-206826816D01*
X40306458Y-206704272D01*
X40080807Y-206551556D01*
X39885086Y-206369225D01*
X39719802Y-206157834D01*
X39585462Y-205917939D01*
X39482574Y-205650094D01*
X39411644Y-205354856D01*
X39373181Y-205032781D01*
X39372604Y-205023813D01*
X39365841Y-204837678D01*
X39367407Y-204641097D01*
X39376658Y-204446541D01*
X39392951Y-204266479D01*
X39411029Y-204144500D01*
X40325665Y-204144500D01*
X42204608Y-204144500D01*
X42192614Y-204075709D01*
X42140227Y-203852969D01*
X42066517Y-203665841D01*
X41970586Y-203512854D01*
X41851535Y-203392540D01*
X41725658Y-203311875D01*
X41554530Y-203247408D01*
X41378473Y-203221835D01*
X41201991Y-203232785D01*
X41029593Y-203277885D01*
X40865785Y-203354761D01*
X40715073Y-203461042D01*
X40581965Y-203594355D01*
X40470968Y-203752326D01*
X40386588Y-203932583D01*
X40354937Y-204033535D01*
X40325665Y-204144500D01*
X39411029Y-204144500D01*
X39415641Y-204113384D01*
X39420950Y-204086815D01*
X39502841Y-203787051D01*
X39616108Y-203511213D01*
X39758918Y-203261259D01*
X39929439Y-203039146D01*
X40125836Y-202846831D01*
X40346277Y-202686271D01*
X40588928Y-202559422D01*
X40851956Y-202468244D01*
X40961232Y-202442451D01*
X41087312Y-202423838D01*
X41238286Y-202412907D01*
X41399930Y-202409710D01*
X41558018Y-202414298D01*
G37*
X9834786Y-200727004D02*
X9982554Y-200728612D01*
X10101276Y-200731847D01*
X10197590Y-200737042D01*
X10278134Y-200744532D01*
X10349546Y-200754651D01*
X10402750Y-200764496D01*
X10493576Y-200785029D01*
X10596952Y-200811898D01*
X10703959Y-200842356D01*
X10805678Y-200873657D01*
X10893191Y-200903056D01*
X10957579Y-200927807D01*
X10989923Y-200945162D01*
X10990111Y-200945345D01*
X10992932Y-200970317D01*
X10991433Y-201030656D01*
X10986031Y-201119662D01*
X10977141Y-201230636D01*
X10965178Y-201356877D01*
X10963653Y-201371793D01*
X10950593Y-201499248D01*
X10939168Y-201612037D01*
X10930045Y-201703489D01*
X10923887Y-201766931D01*
X10921361Y-201795691D01*
X10921333Y-201796465D01*
X10902419Y-201795858D01*
X10850700Y-201784310D01*
X10773705Y-201763727D01*
X10678964Y-201736013D01*
X10662041Y-201730854D01*
X10537330Y-201695125D01*
X10401821Y-201660359D01*
X10273835Y-201631066D01*
X10191083Y-201614929D01*
X10039349Y-201595259D01*
X9863653Y-201582867D01*
X9677985Y-201577931D01*
X9496339Y-201580628D01*
X9332705Y-201591135D01*
X9238583Y-201602875D01*
X8944575Y-201668868D01*
X8669169Y-201769060D01*
X8416145Y-201901614D01*
X8189281Y-202064694D01*
X8075910Y-202167838D01*
X7893234Y-202378085D01*
X7739577Y-202616805D01*
X7615969Y-202880711D01*
X7523438Y-203166516D01*
X7463014Y-203470933D01*
X7435726Y-203790675D01*
X7442604Y-204122456D01*
X7446928Y-204176251D01*
X7490476Y-204496767D01*
X7562071Y-204786369D01*
X7662496Y-205046533D01*
X7792539Y-205278733D01*
X7952984Y-205484446D01*
X8144618Y-205665145D01*
X8301121Y-205779779D01*
X8507415Y-205894294D01*
X8744348Y-205987688D01*
X9005103Y-206058564D01*
X9282860Y-206105526D01*
X9570802Y-206127176D01*
X9862109Y-206122118D01*
X9941656Y-206115881D01*
X10095213Y-206098534D01*
X10264838Y-206073977D01*
X10438581Y-206044377D01*
X10604493Y-206011899D01*
X10750626Y-205978708D01*
X10853021Y-205950737D01*
X10916605Y-205933936D01*
X10962577Y-205926903D01*
X10977300Y-205929078D01*
X10983031Y-205953094D01*
X10991229Y-206011299D01*
X11001143Y-206095669D01*
X11012020Y-206198183D01*
X11023109Y-206310818D01*
X11033660Y-206425552D01*
X11042921Y-206534361D01*
X11050140Y-206629223D01*
X11054566Y-206702117D01*
X11055449Y-206745019D01*
X11054420Y-206752552D01*
X11028897Y-206768862D01*
X10969866Y-206792006D01*
X10885169Y-206819739D01*
X10782646Y-206849814D01*
X10670139Y-206879988D01*
X10555487Y-206908015D01*
X10446533Y-206931649D01*
X10394508Y-206941499D01*
X10245802Y-206962182D01*
X10066348Y-206978091D01*
X9867492Y-206988967D01*
X9660576Y-206994555D01*
X9456944Y-206994597D01*
X9267942Y-206988837D01*
X9104912Y-206977018D01*
X9058666Y-206971734D01*
X8684192Y-206906372D01*
X8337398Y-206809687D01*
X8018662Y-206681952D01*
X7728364Y-206523439D01*
X7466881Y-206334422D01*
X7234593Y-206115171D01*
X7031879Y-205865961D01*
X6859117Y-205587063D01*
X6720803Y-205289154D01*
X6650988Y-205093006D01*
X6594623Y-204886209D01*
X6548558Y-204656298D01*
X6527926Y-204525500D01*
X6512052Y-204377011D01*
X6502482Y-204200404D01*
X6498974Y-204005912D01*
X6501289Y-203803767D01*
X6509187Y-203604198D01*
X6522427Y-203417439D01*
X6540770Y-203253720D01*
X6560457Y-203139084D01*
X6658296Y-202771251D01*
X6788153Y-202430499D01*
X6949277Y-202117593D01*
X7140920Y-201833297D01*
X7362333Y-201578378D01*
X7612767Y-201353600D01*
X7891473Y-201159729D01*
X8197702Y-200997530D01*
X8530705Y-200867767D01*
X8874762Y-200774449D01*
X8945560Y-200759825D01*
X9012319Y-200748526D01*
X9081984Y-200740126D01*
X9161503Y-200734196D01*
X9257821Y-200730310D01*
X9377884Y-200728041D01*
X9528641Y-200726961D01*
X9651333Y-200726688D01*
X9834786Y-200727004D01*
G36*
X9834786Y-200727004D02*
G01*
X9982554Y-200728612D01*
X10101276Y-200731847D01*
X10197590Y-200737042D01*
X10278134Y-200744532D01*
X10349546Y-200754651D01*
X10402750Y-200764496D01*
X10493576Y-200785029D01*
X10596952Y-200811898D01*
X10703959Y-200842356D01*
X10805678Y-200873657D01*
X10893191Y-200903056D01*
X10957579Y-200927807D01*
X10989923Y-200945162D01*
X10990111Y-200945345D01*
X10992932Y-200970317D01*
X10991433Y-201030656D01*
X10986031Y-201119662D01*
X10977141Y-201230636D01*
X10965178Y-201356877D01*
X10963653Y-201371793D01*
X10950593Y-201499248D01*
X10939168Y-201612037D01*
X10930045Y-201703489D01*
X10923887Y-201766931D01*
X10921361Y-201795691D01*
X10921333Y-201796465D01*
X10902419Y-201795858D01*
X10850700Y-201784310D01*
X10773705Y-201763727D01*
X10678964Y-201736013D01*
X10662041Y-201730854D01*
X10537330Y-201695125D01*
X10401821Y-201660359D01*
X10273835Y-201631066D01*
X10191083Y-201614929D01*
X10039349Y-201595259D01*
X9863653Y-201582867D01*
X9677985Y-201577931D01*
X9496339Y-201580628D01*
X9332705Y-201591135D01*
X9238583Y-201602875D01*
X8944575Y-201668868D01*
X8669169Y-201769060D01*
X8416145Y-201901614D01*
X8189281Y-202064694D01*
X8075910Y-202167838D01*
X7893234Y-202378085D01*
X7739577Y-202616805D01*
X7615969Y-202880711D01*
X7523438Y-203166516D01*
X7463014Y-203470933D01*
X7435726Y-203790675D01*
X7442604Y-204122456D01*
X7446928Y-204176251D01*
X7490476Y-204496767D01*
X7562071Y-204786369D01*
X7662496Y-205046533D01*
X7792539Y-205278733D01*
X7952984Y-205484446D01*
X8144618Y-205665145D01*
X8301121Y-205779779D01*
X8507415Y-205894294D01*
X8744348Y-205987688D01*
X9005103Y-206058564D01*
X9282860Y-206105526D01*
X9570802Y-206127176D01*
X9862109Y-206122118D01*
X9941656Y-206115881D01*
X10095213Y-206098534D01*
X10264838Y-206073977D01*
X10438581Y-206044377D01*
X10604493Y-206011899D01*
X10750626Y-205978708D01*
X10853021Y-205950737D01*
X10916605Y-205933936D01*
X10962577Y-205926903D01*
X10977300Y-205929078D01*
X10983031Y-205953094D01*
X10991229Y-206011299D01*
X11001143Y-206095669D01*
X11012020Y-206198183D01*
X11023109Y-206310818D01*
X11033660Y-206425552D01*
X11042921Y-206534361D01*
X11050140Y-206629223D01*
X11054566Y-206702117D01*
X11055449Y-206745019D01*
X11054420Y-206752552D01*
X11028897Y-206768862D01*
X10969866Y-206792006D01*
X10885169Y-206819739D01*
X10782646Y-206849814D01*
X10670139Y-206879988D01*
X10555487Y-206908015D01*
X10446533Y-206931649D01*
X10394508Y-206941499D01*
X10245802Y-206962182D01*
X10066348Y-206978091D01*
X9867492Y-206988967D01*
X9660576Y-206994555D01*
X9456944Y-206994597D01*
X9267942Y-206988837D01*
X9104912Y-206977018D01*
X9058666Y-206971734D01*
X8684192Y-206906372D01*
X8337398Y-206809687D01*
X8018662Y-206681952D01*
X7728364Y-206523439D01*
X7466881Y-206334422D01*
X7234593Y-206115171D01*
X7031879Y-205865961D01*
X6859117Y-205587063D01*
X6720803Y-205289154D01*
X6650988Y-205093006D01*
X6594623Y-204886209D01*
X6548558Y-204656298D01*
X6527926Y-204525500D01*
X6512052Y-204377011D01*
X6502482Y-204200404D01*
X6498974Y-204005912D01*
X6501289Y-203803767D01*
X6509187Y-203604198D01*
X6522427Y-203417439D01*
X6540770Y-203253720D01*
X6560457Y-203139084D01*
X6658296Y-202771251D01*
X6788153Y-202430499D01*
X6949277Y-202117593D01*
X7140920Y-201833297D01*
X7362333Y-201578378D01*
X7612767Y-201353600D01*
X7891473Y-201159729D01*
X8197702Y-200997530D01*
X8530705Y-200867767D01*
X8874762Y-200774449D01*
X8945560Y-200759825D01*
X9012319Y-200748526D01*
X9081984Y-200740126D01*
X9161503Y-200734196D01*
X9257821Y-200730310D01*
X9377884Y-200728041D01*
X9528641Y-200726961D01*
X9651333Y-200726688D01*
X9834786Y-200727004D01*
G37*
X27192309Y-172506140D02*
X27248454Y-172506784D01*
X27548168Y-172510994D01*
X27811537Y-172516322D01*
X28044547Y-172523293D01*
X28253182Y-172532432D01*
X28443426Y-172544266D01*
X28621266Y-172559319D01*
X28792684Y-172578117D01*
X28963667Y-172601186D01*
X29140198Y-172629051D01*
X29328264Y-172662237D01*
X29533847Y-172701270D01*
X29591042Y-172712467D01*
X30296225Y-172869109D01*
X30993004Y-173059329D01*
X31677995Y-173281625D01*
X32347813Y-173534497D01*
X32999074Y-173816442D01*
X33628394Y-174125957D01*
X34232388Y-174461543D01*
X34807673Y-174821695D01*
X35350864Y-175204914D01*
X35547589Y-175355826D01*
X35634610Y-175424084D01*
X35711719Y-175484427D01*
X35771762Y-175531266D01*
X35807589Y-175559015D01*
X35812139Y-175562478D01*
X35833791Y-175587905D01*
X35832753Y-175599468D01*
X35808114Y-175607110D01*
X35747442Y-175620041D01*
X35656575Y-175637301D01*
X35541350Y-175657931D01*
X35407604Y-175680971D01*
X35261175Y-175705462D01*
X35107901Y-175730444D01*
X34953617Y-175754957D01*
X34804162Y-175778043D01*
X34665373Y-175798741D01*
X34543087Y-175816092D01*
X34443141Y-175829137D01*
X34416333Y-175832301D01*
X34281016Y-175847136D01*
X34132414Y-175862511D01*
X33989883Y-175876467D01*
X33887166Y-175885821D01*
X33745282Y-175901488D01*
X33625506Y-175923812D01*
X33507681Y-175957085D01*
X33434968Y-175982125D01*
X33210377Y-176052210D01*
X32957112Y-176112280D01*
X32688150Y-176159904D01*
X32416465Y-176192652D01*
X32246750Y-176204701D01*
X32107770Y-176212571D01*
X32001202Y-176221392D01*
X31917126Y-176232617D01*
X31845623Y-176247697D01*
X31776773Y-176268084D01*
X31749333Y-176277493D01*
X31673294Y-176300971D01*
X31566896Y-176329299D01*
X31441419Y-176359695D01*
X31308143Y-176389377D01*
X31230750Y-176405362D01*
X31069868Y-176438473D01*
X30939567Y-176468178D01*
X30828645Y-176497889D01*
X30725904Y-176531021D01*
X30620144Y-176570988D01*
X30500163Y-176621204D01*
X30447583Y-176644091D01*
X30325217Y-176694656D01*
X30164794Y-176755912D01*
X29968966Y-176826928D01*
X29740381Y-176906771D01*
X29481690Y-176994508D01*
X29195542Y-177089207D01*
X29029416Y-177143273D01*
X28107940Y-177457762D01*
X27182159Y-177805554D01*
X26265374Y-178181452D01*
X25481651Y-178529046D01*
X25177384Y-178670683D01*
X24905212Y-178801544D01*
X24658292Y-178925688D01*
X24429781Y-179047175D01*
X24212838Y-179170063D01*
X24000619Y-179298411D01*
X23786283Y-179436279D01*
X23562987Y-179587725D01*
X23323889Y-179756809D01*
X23062147Y-179947590D01*
X22947796Y-180032209D01*
X22733007Y-180191467D01*
X22546759Y-180328957D01*
X22383810Y-180448428D01*
X22238923Y-180553627D01*
X22106858Y-180648300D01*
X21982374Y-180736197D01*
X21860232Y-180821065D01*
X21735192Y-180906651D01*
X21602016Y-180996703D01*
X21557583Y-181026567D01*
X21397131Y-181135527D01*
X21253370Y-181236348D01*
X21120631Y-181333689D01*
X20993243Y-181432208D01*
X20865535Y-181536562D01*
X20731838Y-181651410D01*
X20586480Y-181781411D01*
X20423792Y-181931223D01*
X20238102Y-182105503D01*
X20197633Y-182143774D01*
X20021574Y-182309058D01*
X19871147Y-182447068D01*
X19742576Y-182560987D01*
X19632088Y-182653995D01*
X19535910Y-182729274D01*
X19450267Y-182790006D01*
X19375133Y-182837181D01*
X19240551Y-182923074D01*
X19122447Y-183015369D01*
X19007537Y-183125306D01*
X18915636Y-183225892D01*
X18817472Y-183345986D01*
X18707451Y-183494180D01*
X18592281Y-183660528D01*
X18478673Y-183835087D01*
X18373337Y-184007911D01*
X18297493Y-184142000D01*
X18204361Y-184306716D01*
X18114590Y-184448001D01*
X18018700Y-184578968D01*
X17907211Y-184712730D01*
X17797276Y-184833940D01*
X17676155Y-184972494D01*
X17588893Y-185092637D01*
X17533285Y-185198121D01*
X17507125Y-185292702D01*
X17504373Y-185332398D01*
X17484841Y-185454621D01*
X17429248Y-185583951D01*
X17341187Y-185712676D01*
X17310595Y-185748233D01*
X17248625Y-185823645D01*
X17177768Y-185920264D01*
X17109455Y-186022158D01*
X17080833Y-186068418D01*
X17012472Y-186176034D01*
X16930940Y-186294546D01*
X16850381Y-186403651D01*
X16823904Y-186437259D01*
X16743292Y-186538734D01*
X16686404Y-186616836D01*
X16649625Y-186680513D01*
X16629337Y-186738713D01*
X16621924Y-186800383D01*
X16623770Y-186874470D01*
X16627395Y-186923427D01*
X16631407Y-186989355D01*
X16631125Y-187051172D01*
X16624944Y-187112890D01*
X16611262Y-187178523D01*
X16588473Y-187252083D01*
X16554975Y-187337583D01*
X16509164Y-187439036D01*
X16449434Y-187560455D01*
X16374184Y-187705852D01*
X16281808Y-187879240D01*
X16170704Y-188084633D01*
X16142681Y-188136180D01*
X16042933Y-188323045D01*
X15963583Y-188480547D01*
X15902165Y-188614953D01*
X15856213Y-188732527D01*
X15823260Y-188839536D01*
X15800841Y-188942245D01*
X15787319Y-189039071D01*
X15765859Y-189190568D01*
X15732625Y-189348513D01*
X15685601Y-189520030D01*
X15622774Y-189712244D01*
X15542127Y-189932279D01*
X15514279Y-190004465D01*
X15429516Y-190229459D01*
X15354342Y-190446282D01*
X15287965Y-190659463D01*
X15229596Y-190873533D01*
X15178444Y-191093021D01*
X15133718Y-191322456D01*
X15094628Y-191566369D01*
X15060384Y-191829288D01*
X15030195Y-192115743D01*
X15003270Y-192430264D01*
X14978820Y-192777380D01*
X14956053Y-193161621D01*
X14952772Y-193222034D01*
X14943994Y-193380107D01*
X14935460Y-193524064D01*
X14927527Y-193648593D01*
X14920553Y-193748383D01*
X14914897Y-193818121D01*
X14910916Y-193852497D01*
X14910097Y-193855124D01*
X14899102Y-193838826D01*
X14871604Y-193788463D01*
X14829638Y-193708028D01*
X14775239Y-193601516D01*
X14710441Y-193472920D01*
X14637280Y-193326234D01*
X14557791Y-193165451D01*
X14532863Y-193114757D01*
X14395713Y-192833514D01*
X14275812Y-192582996D01*
X14170277Y-192356690D01*
X14076225Y-192148080D01*
X13990775Y-191950653D01*
X13911043Y-191757894D01*
X13834147Y-191563288D01*
X13760484Y-191369124D01*
X13632773Y-191009995D01*
X13510835Y-190634795D01*
X13396752Y-190251464D01*
X13292602Y-189867942D01*
X13200466Y-189492169D01*
X13122424Y-189132084D01*
X13060556Y-188795628D01*
X13026509Y-188567287D01*
X13010481Y-188417822D01*
X12996434Y-188231233D01*
X12984382Y-188012680D01*
X12974334Y-187767328D01*
X12966304Y-187500339D01*
X12960303Y-187216875D01*
X12956343Y-186922098D01*
X12954436Y-186621172D01*
X12954593Y-186319259D01*
X12956827Y-186021521D01*
X12961148Y-185733121D01*
X12967570Y-185459221D01*
X12976103Y-185204985D01*
X12986760Y-184975574D01*
X12999553Y-184776151D01*
X13014492Y-184611878D01*
X13017403Y-184586500D01*
X13030011Y-184495287D01*
X13049133Y-184375079D01*
X13072658Y-184238323D01*
X13098475Y-184097471D01*
X13113468Y-184019824D01*
X13285689Y-183251759D01*
X13495855Y-182499897D01*
X13743196Y-181765413D01*
X14026947Y-181049484D01*
X14346340Y-180353288D01*
X14700608Y-179677999D01*
X15088985Y-179024796D01*
X15510704Y-178394855D01*
X15964997Y-177789351D01*
X16451097Y-177209463D01*
X16968238Y-176656367D01*
X17515652Y-176131238D01*
X18092573Y-175635254D01*
X18698234Y-175169592D01*
X19038750Y-174929942D01*
X19683499Y-174515889D01*
X20350723Y-174137269D01*
X21038686Y-173794794D01*
X21745650Y-173489172D01*
X22469879Y-173221111D01*
X23209635Y-172991321D01*
X23963182Y-172800511D01*
X24547156Y-172681430D01*
X24788124Y-172639435D01*
X25019104Y-172603861D01*
X25245806Y-172574339D01*
X25473936Y-172550500D01*
X25709200Y-172531974D01*
X25957308Y-172518394D01*
X26223965Y-172509389D01*
X26514879Y-172504591D01*
X26835758Y-172503631D01*
X27192309Y-172506140D01*
G36*
X27192309Y-172506140D02*
G01*
X27248454Y-172506784D01*
X27548168Y-172510994D01*
X27811537Y-172516322D01*
X28044547Y-172523293D01*
X28253182Y-172532432D01*
X28443426Y-172544266D01*
X28621266Y-172559319D01*
X28792684Y-172578117D01*
X28963667Y-172601186D01*
X29140198Y-172629051D01*
X29328264Y-172662237D01*
X29533847Y-172701270D01*
X29591042Y-172712467D01*
X30296225Y-172869109D01*
X30993004Y-173059329D01*
X31677995Y-173281625D01*
X32347813Y-173534497D01*
X32999074Y-173816442D01*
X33628394Y-174125957D01*
X34232388Y-174461543D01*
X34807673Y-174821695D01*
X35350864Y-175204914D01*
X35547589Y-175355826D01*
X35634610Y-175424084D01*
X35711719Y-175484427D01*
X35771762Y-175531266D01*
X35807589Y-175559015D01*
X35812139Y-175562478D01*
X35833791Y-175587905D01*
X35832753Y-175599468D01*
X35808114Y-175607110D01*
X35747442Y-175620041D01*
X35656575Y-175637301D01*
X35541350Y-175657931D01*
X35407604Y-175680971D01*
X35261175Y-175705462D01*
X35107901Y-175730444D01*
X34953617Y-175754957D01*
X34804162Y-175778043D01*
X34665373Y-175798741D01*
X34543087Y-175816092D01*
X34443141Y-175829137D01*
X34416333Y-175832301D01*
X34281016Y-175847136D01*
X34132414Y-175862511D01*
X33989883Y-175876467D01*
X33887166Y-175885821D01*
X33745282Y-175901488D01*
X33625506Y-175923812D01*
X33507681Y-175957085D01*
X33434968Y-175982125D01*
X33210377Y-176052210D01*
X32957112Y-176112280D01*
X32688150Y-176159904D01*
X32416465Y-176192652D01*
X32246750Y-176204701D01*
X32107770Y-176212571D01*
X32001202Y-176221392D01*
X31917126Y-176232617D01*
X31845623Y-176247697D01*
X31776773Y-176268084D01*
X31749333Y-176277493D01*
X31673294Y-176300971D01*
X31566896Y-176329299D01*
X31441419Y-176359695D01*
X31308143Y-176389377D01*
X31230750Y-176405362D01*
X31069868Y-176438473D01*
X30939567Y-176468178D01*
X30828645Y-176497889D01*
X30725904Y-176531021D01*
X30620144Y-176570988D01*
X30500163Y-176621204D01*
X30447583Y-176644091D01*
X30325217Y-176694656D01*
X30164794Y-176755912D01*
X29968966Y-176826928D01*
X29740381Y-176906771D01*
X29481690Y-176994508D01*
X29195542Y-177089207D01*
X29029416Y-177143273D01*
X28107940Y-177457762D01*
X27182159Y-177805554D01*
X26265374Y-178181452D01*
X25481651Y-178529046D01*
X25177384Y-178670683D01*
X24905212Y-178801544D01*
X24658292Y-178925688D01*
X24429781Y-179047175D01*
X24212838Y-179170063D01*
X24000619Y-179298411D01*
X23786283Y-179436279D01*
X23562987Y-179587725D01*
X23323889Y-179756809D01*
X23062147Y-179947590D01*
X22947796Y-180032209D01*
X22733007Y-180191467D01*
X22546759Y-180328957D01*
X22383810Y-180448428D01*
X22238923Y-180553627D01*
X22106858Y-180648300D01*
X21982374Y-180736197D01*
X21860232Y-180821065D01*
X21735192Y-180906651D01*
X21602016Y-180996703D01*
X21557583Y-181026567D01*
X21397131Y-181135527D01*
X21253370Y-181236348D01*
X21120631Y-181333689D01*
X20993243Y-181432208D01*
X20865535Y-181536562D01*
X20731838Y-181651410D01*
X20586480Y-181781411D01*
X20423792Y-181931223D01*
X20238102Y-182105503D01*
X20197633Y-182143774D01*
X20021574Y-182309058D01*
X19871147Y-182447068D01*
X19742576Y-182560987D01*
X19632088Y-182653995D01*
X19535910Y-182729274D01*
X19450267Y-182790006D01*
X19375133Y-182837181D01*
X19240551Y-182923074D01*
X19122447Y-183015369D01*
X19007537Y-183125306D01*
X18915636Y-183225892D01*
X18817472Y-183345986D01*
X18707451Y-183494180D01*
X18592281Y-183660528D01*
X18478673Y-183835087D01*
X18373337Y-184007911D01*
X18297493Y-184142000D01*
X18204361Y-184306716D01*
X18114590Y-184448001D01*
X18018700Y-184578968D01*
X17907211Y-184712730D01*
X17797276Y-184833940D01*
X17676155Y-184972494D01*
X17588893Y-185092637D01*
X17533285Y-185198121D01*
X17507125Y-185292702D01*
X17504373Y-185332398D01*
X17484841Y-185454621D01*
X17429248Y-185583951D01*
X17341187Y-185712676D01*
X17310595Y-185748233D01*
X17248625Y-185823645D01*
X17177768Y-185920264D01*
X17109455Y-186022158D01*
X17080833Y-186068418D01*
X17012472Y-186176034D01*
X16930940Y-186294546D01*
X16850381Y-186403651D01*
X16823904Y-186437259D01*
X16743292Y-186538734D01*
X16686404Y-186616836D01*
X16649625Y-186680513D01*
X16629337Y-186738713D01*
X16621924Y-186800383D01*
X16623770Y-186874470D01*
X16627395Y-186923427D01*
X16631407Y-186989355D01*
X16631125Y-187051172D01*
X16624944Y-187112890D01*
X16611262Y-187178523D01*
X16588473Y-187252083D01*
X16554975Y-187337583D01*
X16509164Y-187439036D01*
X16449434Y-187560455D01*
X16374184Y-187705852D01*
X16281808Y-187879240D01*
X16170704Y-188084633D01*
X16142681Y-188136180D01*
X16042933Y-188323045D01*
X15963583Y-188480547D01*
X15902165Y-188614953D01*
X15856213Y-188732527D01*
X15823260Y-188839536D01*
X15800841Y-188942245D01*
X15787319Y-189039071D01*
X15765859Y-189190568D01*
X15732625Y-189348513D01*
X15685601Y-189520030D01*
X15622774Y-189712244D01*
X15542127Y-189932279D01*
X15514279Y-190004465D01*
X15429516Y-190229459D01*
X15354342Y-190446282D01*
X15287965Y-190659463D01*
X15229596Y-190873533D01*
X15178444Y-191093021D01*
X15133718Y-191322456D01*
X15094628Y-191566369D01*
X15060384Y-191829288D01*
X15030195Y-192115743D01*
X15003270Y-192430264D01*
X14978820Y-192777380D01*
X14956053Y-193161621D01*
X14952772Y-193222034D01*
X14943994Y-193380107D01*
X14935460Y-193524064D01*
X14927527Y-193648593D01*
X14920553Y-193748383D01*
X14914897Y-193818121D01*
X14910916Y-193852497D01*
X14910097Y-193855124D01*
X14899102Y-193838826D01*
X14871604Y-193788463D01*
X14829638Y-193708028D01*
X14775239Y-193601516D01*
X14710441Y-193472920D01*
X14637280Y-193326234D01*
X14557791Y-193165451D01*
X14532863Y-193114757D01*
X14395713Y-192833514D01*
X14275812Y-192582996D01*
X14170277Y-192356690D01*
X14076225Y-192148080D01*
X13990775Y-191950653D01*
X13911043Y-191757894D01*
X13834147Y-191563288D01*
X13760484Y-191369124D01*
X13632773Y-191009995D01*
X13510835Y-190634795D01*
X13396752Y-190251464D01*
X13292602Y-189867942D01*
X13200466Y-189492169D01*
X13122424Y-189132084D01*
X13060556Y-188795628D01*
X13026509Y-188567287D01*
X13010481Y-188417822D01*
X12996434Y-188231233D01*
X12984382Y-188012680D01*
X12974334Y-187767328D01*
X12966304Y-187500339D01*
X12960303Y-187216875D01*
X12956343Y-186922098D01*
X12954436Y-186621172D01*
X12954593Y-186319259D01*
X12956827Y-186021521D01*
X12961148Y-185733121D01*
X12967570Y-185459221D01*
X12976103Y-185204985D01*
X12986760Y-184975574D01*
X12999553Y-184776151D01*
X13014492Y-184611878D01*
X13017403Y-184586500D01*
X13030011Y-184495287D01*
X13049133Y-184375079D01*
X13072658Y-184238323D01*
X13098475Y-184097471D01*
X13113468Y-184019824D01*
X13285689Y-183251759D01*
X13495855Y-182499897D01*
X13743196Y-181765413D01*
X14026947Y-181049484D01*
X14346340Y-180353288D01*
X14700608Y-179677999D01*
X15088985Y-179024796D01*
X15510704Y-178394855D01*
X15964997Y-177789351D01*
X16451097Y-177209463D01*
X16968238Y-176656367D01*
X17515652Y-176131238D01*
X18092573Y-175635254D01*
X18698234Y-175169592D01*
X19038750Y-174929942D01*
X19683499Y-174515889D01*
X20350723Y-174137269D01*
X21038686Y-173794794D01*
X21745650Y-173489172D01*
X22469879Y-173221111D01*
X23209635Y-172991321D01*
X23963182Y-172800511D01*
X24547156Y-172681430D01*
X24788124Y-172639435D01*
X25019104Y-172603861D01*
X25245806Y-172574339D01*
X25473936Y-172550500D01*
X25709200Y-172531974D01*
X25957308Y-172518394D01*
X26223965Y-172509389D01*
X26514879Y-172504591D01*
X26835758Y-172503631D01*
X27192309Y-172506140D01*
G37*
X38049290Y-177817567D02*
X38073786Y-177838523D01*
X38108556Y-177878494D01*
X38156849Y-177941278D01*
X38221917Y-178030676D01*
X38307008Y-178150485D01*
X38325944Y-178177337D01*
X38644494Y-178641389D01*
X38932985Y-179087762D01*
X39195544Y-179523745D01*
X39436299Y-179956627D01*
X39659376Y-180393698D01*
X39868903Y-180842247D01*
X39983313Y-181104584D01*
X40128500Y-181463656D01*
X40269187Y-181846464D01*
X40403401Y-182245831D01*
X40529166Y-182654578D01*
X40644509Y-183065530D01*
X40747456Y-183471508D01*
X40836033Y-183865337D01*
X40908266Y-184239839D01*
X40962181Y-184587837D01*
X40978856Y-184724084D01*
X40984889Y-184800381D01*
X40990493Y-184914324D01*
X40995636Y-185061229D01*
X41000284Y-185236408D01*
X41004403Y-185435178D01*
X41007961Y-185652853D01*
X41010924Y-185884747D01*
X41013259Y-186126174D01*
X41014932Y-186372451D01*
X41015909Y-186618891D01*
X41016159Y-186860808D01*
X41015646Y-187093519D01*
X41014338Y-187312336D01*
X41012201Y-187512575D01*
X41009202Y-187689551D01*
X41005308Y-187838578D01*
X41001702Y-187930834D01*
X40988435Y-188165911D01*
X40971085Y-188384532D01*
X40948408Y-188594220D01*
X40919162Y-188802501D01*
X40882102Y-189016898D01*
X40835985Y-189244936D01*
X40779567Y-189494140D01*
X40711605Y-189772033D01*
X40671107Y-189931084D01*
X40454214Y-190691114D01*
X40199786Y-191432377D01*
X39908280Y-192154067D01*
X39580157Y-192855380D01*
X39215874Y-193535512D01*
X38815891Y-194193659D01*
X38380668Y-194829017D01*
X37910662Y-195440781D01*
X37406333Y-196028148D01*
X36872525Y-196585971D01*
X36315935Y-197107703D01*
X35732702Y-197597050D01*
X35124424Y-198053163D01*
X34492695Y-198475196D01*
X33839112Y-198862300D01*
X33165272Y-199213629D01*
X32472771Y-199528335D01*
X31763205Y-199805571D01*
X31038171Y-200044489D01*
X30299264Y-200244243D01*
X29755033Y-200364244D01*
X29539655Y-200406063D01*
X29340332Y-200441817D01*
X29150601Y-200472160D01*
X28963999Y-200497745D01*
X28774062Y-200519222D01*
X28574328Y-200537247D01*
X28358332Y-200552470D01*
X28119612Y-200565545D01*
X27851704Y-200577125D01*
X27548146Y-200587862D01*
X27537166Y-200588219D01*
X27185973Y-200598126D01*
X26867042Y-200603832D01*
X26570512Y-200605328D01*
X26286519Y-200602606D01*
X26005201Y-200595659D01*
X25769750Y-200586811D01*
X25522093Y-200569427D01*
X25241343Y-200537726D01*
X24933780Y-200492942D01*
X24605686Y-200436307D01*
X24263341Y-200369055D01*
X23913025Y-200292419D01*
X23561020Y-200207632D01*
X23213607Y-200115929D01*
X22879820Y-200019375D01*
X22190621Y-199789132D01*
X21506721Y-199518393D01*
X20831410Y-199208948D01*
X20167976Y-198862587D01*
X19519708Y-198481098D01*
X18889896Y-198066273D01*
X18281828Y-197619901D01*
X17885166Y-197301529D01*
X17726395Y-197165390D01*
X17551287Y-197008145D01*
X17365147Y-196835080D01*
X17173278Y-196651482D01*
X16980986Y-196462639D01*
X16793573Y-196273836D01*
X16616346Y-196090361D01*
X16454606Y-195917500D01*
X16313660Y-195760541D01*
X16198811Y-195624770D01*
X16182371Y-195604311D01*
X16116046Y-195516678D01*
X16077736Y-195454198D01*
X16068698Y-195416423D01*
X16090187Y-195402906D01*
X16143460Y-195413200D01*
X16229772Y-195446858D01*
X16350379Y-195503432D01*
X16398533Y-195527362D01*
X16522546Y-195590984D01*
X16646782Y-195657777D01*
X16777358Y-195731307D01*
X16920396Y-195815144D01*
X17082013Y-195912855D01*
X17268330Y-196028007D01*
X17419500Y-196122647D01*
X17629521Y-196252062D01*
X17807902Y-196356270D01*
X17956342Y-196436154D01*
X18076539Y-196492597D01*
X18170189Y-196526482D01*
X18214750Y-196536415D01*
X18274355Y-196541457D01*
X18322861Y-196531910D01*
X18378453Y-196502808D01*
X18408337Y-196483526D01*
X18482564Y-196440969D01*
X18544723Y-196423400D01*
X18591006Y-196422990D01*
X18641113Y-196430067D01*
X18671729Y-196448912D01*
X18695378Y-196490641D01*
X18710636Y-196529177D01*
X18752863Y-196620563D01*
X18817255Y-196728644D01*
X18905442Y-196855593D01*
X19019057Y-197003578D01*
X19159732Y-197174771D01*
X19329099Y-197371342D01*
X19427251Y-197482292D01*
X19504048Y-197567232D01*
X19571639Y-197639697D01*
X19624824Y-197694291D01*
X19658403Y-197725617D01*
X19666921Y-197731000D01*
X19688276Y-197719658D01*
X19740457Y-197687490D01*
X19819157Y-197637282D01*
X19920067Y-197571822D01*
X20038879Y-197493898D01*
X20171285Y-197406296D01*
X20253972Y-197351242D01*
X20572947Y-197140747D01*
X20864213Y-196953842D01*
X21133026Y-196787558D01*
X21384641Y-196638927D01*
X21624316Y-196504978D01*
X21857305Y-196382744D01*
X22088864Y-196269254D01*
X22324251Y-196161539D01*
X22478333Y-196094688D01*
X22723103Y-195994723D01*
X22971183Y-195902270D01*
X23230198Y-195814893D01*
X23507770Y-195730156D01*
X23811525Y-195645625D01*
X24149085Y-195558864D01*
X24178412Y-195551598D01*
X24471471Y-195477018D01*
X24723115Y-195408351D01*
X24933824Y-195345445D01*
X25104078Y-195288147D01*
X25234357Y-195236303D01*
X25325142Y-195189760D01*
X25335623Y-195183068D01*
X25413573Y-195109150D01*
X25469544Y-195013594D01*
X25527326Y-194917806D01*
X25607552Y-194838457D01*
X25714380Y-194773379D01*
X25851970Y-194720405D01*
X26024479Y-194677367D01*
X26161333Y-194653063D01*
X26279221Y-194634662D01*
X26414442Y-194613549D01*
X26542505Y-194593549D01*
X26574083Y-194588616D01*
X26707713Y-194563596D01*
X26821303Y-194531092D01*
X26923866Y-194486202D01*
X27024415Y-194424027D01*
X27131965Y-194339669D01*
X27255528Y-194228226D01*
X27280476Y-194204616D01*
X27516613Y-193979933D01*
X28209515Y-194003488D01*
X28378382Y-194009181D01*
X28535075Y-194014372D01*
X28674213Y-194018890D01*
X28790420Y-194022564D01*
X28878315Y-194025223D01*
X28932521Y-194026695D01*
X28946663Y-194026938D01*
X28969821Y-194019837D01*
X28993802Y-193994513D01*
X29022538Y-193944770D01*
X29059957Y-193864410D01*
X29082042Y-193813409D01*
X29150600Y-193664934D01*
X29230759Y-193510741D01*
X29315207Y-193363865D01*
X29396633Y-193237346D01*
X29434133Y-193185525D01*
X29464874Y-193147898D01*
X29496670Y-193118151D01*
X29534702Y-193095359D01*
X29584153Y-193078597D01*
X29650204Y-193066940D01*
X29738037Y-193059463D01*
X29852833Y-193055239D01*
X29999774Y-193053343D01*
X30177028Y-193052855D01*
X30365410Y-193052022D01*
X30514592Y-193049669D01*
X30627687Y-193045658D01*
X30707805Y-193039851D01*
X30758059Y-193032110D01*
X30775666Y-193026236D01*
X30817690Y-192988467D01*
X30865521Y-192917219D01*
X30896878Y-192857168D01*
X30935029Y-192781645D01*
X30967985Y-192733315D01*
X31007042Y-192700381D01*
X31063497Y-192671047D01*
X31083841Y-192661925D01*
X31145319Y-192632604D01*
X31204598Y-192598727D01*
X31268328Y-192555456D01*
X31343158Y-192497954D01*
X31435739Y-192421385D01*
X31552719Y-192320911D01*
X31553088Y-192320590D01*
X31652255Y-192236829D01*
X31735630Y-192175122D01*
X31811610Y-192133781D01*
X31888591Y-192111118D01*
X31974970Y-192105445D01*
X32079143Y-192115072D01*
X32209505Y-192138312D01*
X32331416Y-192164073D01*
X32502323Y-192193518D01*
X32651110Y-192203438D01*
X32773096Y-192193944D01*
X32863602Y-192165147D01*
X32886365Y-192150984D01*
X32971910Y-192064835D01*
X33036811Y-191954225D01*
X33061965Y-191880512D01*
X33096366Y-191750483D01*
X33130455Y-191652282D01*
X33170874Y-191575981D01*
X33224268Y-191511651D01*
X33297279Y-191449360D01*
X33396550Y-191379181D01*
X33398066Y-191378158D01*
X33488932Y-191315561D01*
X33549803Y-191269225D01*
X33586566Y-191232953D01*
X33605112Y-191200549D01*
X33611329Y-191165814D01*
X33611675Y-191153388D01*
X33596218Y-191110148D01*
X33555849Y-191052600D01*
X33500241Y-190990852D01*
X33439065Y-190935013D01*
X33381993Y-190895191D01*
X33352937Y-190882983D01*
X33302104Y-190882412D01*
X33211676Y-190896105D01*
X33081896Y-190924017D01*
X32961353Y-190953626D01*
X32786039Y-190997342D01*
X32640938Y-191030354D01*
X32515628Y-191053839D01*
X32399692Y-191068976D01*
X32282710Y-191076942D01*
X32154262Y-191078916D01*
X32003929Y-191076076D01*
X31906876Y-191072842D01*
X31761589Y-191068056D01*
X31652209Y-191065876D01*
X31572375Y-191066546D01*
X31515727Y-191070313D01*
X31475903Y-191077421D01*
X31446543Y-191088115D01*
X31441210Y-191090788D01*
X31342097Y-191163488D01*
X31258559Y-191264403D01*
X31202000Y-191379624D01*
X31200417Y-191384470D01*
X31179513Y-191439704D01*
X31152713Y-191482840D01*
X31114245Y-191516397D01*
X31058339Y-191542896D01*
X30979222Y-191564856D01*
X30871124Y-191584797D01*
X30728273Y-191605238D01*
X30680416Y-191611504D01*
X30425429Y-191649306D01*
X30206367Y-191693583D01*
X30016961Y-191747352D01*
X29850944Y-191813630D01*
X29702047Y-191895435D01*
X29564005Y-191995784D01*
X29430547Y-192117696D01*
X29295408Y-192264186D01*
X29274850Y-192288178D01*
X29179797Y-192391827D01*
X29096043Y-192460128D01*
X29014737Y-192494959D01*
X28927030Y-192498200D01*
X28824071Y-192471730D01*
X28697010Y-192417427D01*
X28687491Y-192412875D01*
X28500250Y-192322917D01*
X28214500Y-192323176D01*
X28024962Y-192329096D01*
X27861255Y-192348796D01*
X27708150Y-192385752D01*
X27550417Y-192443437D01*
X27411752Y-192506322D01*
X27315528Y-192556934D01*
X27230735Y-192612624D01*
X27144597Y-192682769D01*
X27047230Y-192773928D01*
X26972485Y-192845762D01*
X26906280Y-192907401D01*
X26855763Y-192952323D01*
X26828080Y-192974003D01*
X26827958Y-192974072D01*
X26791857Y-192983761D01*
X26721804Y-192994089D01*
X26626158Y-193004373D01*
X26513281Y-193013933D01*
X26391533Y-193022088D01*
X26269273Y-193028156D01*
X26154862Y-193031457D01*
X26119000Y-193031830D01*
X25936140Y-193042117D01*
X25785085Y-193072198D01*
X25659408Y-193123686D01*
X25597070Y-193162940D01*
X25510061Y-193219860D01*
X25423879Y-193261589D01*
X25327668Y-193291529D01*
X25210571Y-193313083D01*
X25066370Y-193329230D01*
X24859832Y-193352830D01*
X24676325Y-193385099D01*
X24496846Y-193429672D01*
X24414984Y-193453896D01*
X24327777Y-193475667D01*
X24221322Y-193495078D01*
X24118663Y-193507926D01*
X24118651Y-193507928D01*
X23954599Y-193529140D01*
X23782494Y-193565694D01*
X23593615Y-193619840D01*
X23379239Y-193693829D01*
X23335583Y-193710062D01*
X23193313Y-193762804D01*
X23076082Y-193803628D01*
X22974494Y-193834330D01*
X22879154Y-193856701D01*
X22780665Y-193872536D01*
X22669631Y-193883628D01*
X22536658Y-193891771D01*
X22372348Y-193898758D01*
X22340750Y-193899955D01*
X22165862Y-193907350D01*
X22025819Y-193915700D01*
X21913133Y-193926197D01*
X21820317Y-193940036D01*
X21739883Y-193958409D01*
X21664343Y-193982511D01*
X21586210Y-194013534D01*
X21561708Y-194024122D01*
X21436543Y-194072931D01*
X21305182Y-194110868D01*
X21155485Y-194140882D01*
X20980762Y-194165279D01*
X20865503Y-194176876D01*
X20721694Y-194188020D01*
X20556187Y-194198467D01*
X20375837Y-194207977D01*
X20187495Y-194216309D01*
X19998017Y-194223221D01*
X19814253Y-194228472D01*
X19643058Y-194231820D01*
X19491285Y-194233025D01*
X19365786Y-194231844D01*
X19273415Y-194228037D01*
X19251475Y-194226174D01*
X19160846Y-194216119D01*
X19102498Y-194206040D01*
X19066543Y-194192211D01*
X19043089Y-194170906D01*
X19023298Y-194140207D01*
X18984787Y-194048558D01*
X18954339Y-193923922D01*
X18933482Y-193775137D01*
X18923744Y-193611043D01*
X18923218Y-193561167D01*
X18925831Y-193425068D01*
X18935458Y-193313571D01*
X18955094Y-193211150D01*
X18987732Y-193102283D01*
X19036366Y-192971445D01*
X19037521Y-192968500D01*
X19081980Y-192845845D01*
X19131355Y-192693878D01*
X19182079Y-192524763D01*
X19230584Y-192350664D01*
X19273305Y-192183744D01*
X19295124Y-192090084D01*
X19320811Y-191932658D01*
X19329501Y-191762823D01*
X19320998Y-191573340D01*
X19295106Y-191356972D01*
X19271218Y-191211667D01*
X19234623Y-190979495D01*
X19215134Y-190792077D01*
X19757849Y-190792077D01*
X19760257Y-190869973D01*
X19765502Y-190890839D01*
X19813142Y-190985159D01*
X19887978Y-191054630D01*
X19951441Y-191083416D01*
X20035772Y-191093099D01*
X20122616Y-191070210D01*
X20196361Y-191029910D01*
X20257258Y-190976156D01*
X20323372Y-190892703D01*
X20362160Y-190832305D01*
X20426816Y-190713869D01*
X20493662Y-190574867D01*
X20557940Y-190426806D01*
X20606154Y-190303527D01*
X33863673Y-190303527D01*
X33865288Y-190373565D01*
X33887578Y-190459554D01*
X33931430Y-190568519D01*
X33980851Y-190673321D01*
X34037748Y-190782185D01*
X34096425Y-190882041D01*
X34150159Y-190961949D01*
X34182631Y-191001641D01*
X34232886Y-191051719D01*
X34270719Y-191076763D01*
X34311735Y-191083463D01*
X34363913Y-191079380D01*
X34451884Y-191057054D01*
X34548842Y-191012722D01*
X34575220Y-190997185D01*
X34652735Y-190943718D01*
X34750415Y-190868309D01*
X34863537Y-190775331D01*
X34987379Y-190669156D01*
X35117217Y-190554156D01*
X35248331Y-190434704D01*
X35375996Y-190315172D01*
X35495491Y-190199931D01*
X35602092Y-190093354D01*
X35691078Y-189999814D01*
X35757727Y-189923682D01*
X35797314Y-189869331D01*
X35801251Y-189862101D01*
X35822844Y-189803084D01*
X35819517Y-189757255D01*
X35788291Y-189723328D01*
X35726187Y-189700017D01*
X35630225Y-189686036D01*
X35497425Y-189680100D01*
X35379416Y-189680060D01*
X35181483Y-189691622D01*
X34976883Y-189720323D01*
X34772036Y-189763950D01*
X34573365Y-189820291D01*
X34387290Y-189887134D01*
X34220234Y-189962266D01*
X34078617Y-190043477D01*
X33968861Y-190128552D01*
X33918916Y-190183203D01*
X33881845Y-190242415D01*
X33863673Y-190303527D01*
X20606154Y-190303527D01*
X20614889Y-190281194D01*
X20659749Y-190149536D01*
X20687033Y-190046911D01*
X20722842Y-189922072D01*
X20773938Y-189804658D01*
X20790613Y-189775072D01*
X20836635Y-189694558D01*
X20879159Y-189609537D01*
X20921723Y-189511698D01*
X20967863Y-189392727D01*
X21021115Y-189244313D01*
X21041850Y-189184564D01*
X21094778Y-189036344D01*
X21140486Y-188921547D01*
X21182559Y-188832668D01*
X21224582Y-188762199D01*
X21270141Y-188702635D01*
X21274376Y-188697737D01*
X21328328Y-188621704D01*
X21352379Y-188543753D01*
X21352681Y-188449502D01*
X21329795Y-188367658D01*
X21277927Y-188316455D01*
X21197826Y-188296396D01*
X21130887Y-188300309D01*
X21072952Y-188312531D01*
X21024861Y-188334684D01*
X20974177Y-188374473D01*
X20912000Y-188435939D01*
X20798960Y-188571308D01*
X20691219Y-188734084D01*
X20594301Y-188913090D01*
X20513729Y-189097149D01*
X20455027Y-189275084D01*
X20425541Y-189420123D01*
X20405459Y-189543920D01*
X20377554Y-189639696D01*
X20336114Y-189721714D01*
X20275425Y-189804234D01*
X20268194Y-189812923D01*
X20198394Y-189903324D01*
X20153833Y-189981764D01*
X20126871Y-190062947D01*
X20119311Y-190099432D01*
X20098681Y-190178455D01*
X20062883Y-190260349D01*
X20007219Y-190354048D01*
X19926987Y-190468486D01*
X19920549Y-190477206D01*
X19835935Y-190601190D01*
X19782389Y-190704315D01*
X19757849Y-190792077D01*
X19215134Y-190792077D01*
X19214305Y-190784113D01*
X19210224Y-190623248D01*
X19222343Y-190494628D01*
X19250623Y-190395979D01*
X19257283Y-190381522D01*
X19326076Y-190281949D01*
X19411393Y-190204615D01*
X19494772Y-190151055D01*
X19587497Y-190103388D01*
X19676518Y-190067384D01*
X19748783Y-190048817D01*
X19766635Y-190047500D01*
X19802668Y-190040417D01*
X19829286Y-190015405D01*
X19848421Y-189966819D01*
X19862006Y-189889014D01*
X19871975Y-189776345D01*
X19874725Y-189731877D01*
X19883634Y-189609363D01*
X19897654Y-189514873D01*
X19921855Y-189438789D01*
X19961312Y-189371493D01*
X20021096Y-189303368D01*
X20106281Y-189224795D01*
X20171872Y-189168484D01*
X20289240Y-189065541D01*
X20373891Y-188981716D01*
X20428064Y-188912247D01*
X20453999Y-188852375D01*
X20453933Y-188797338D01*
X20430106Y-188742375D01*
X20394794Y-188694483D01*
X20342708Y-188620387D01*
X20320915Y-188555156D01*
X20319333Y-188530521D01*
X20328769Y-188457242D01*
X20355047Y-188355685D01*
X20395121Y-188234945D01*
X20445943Y-188104115D01*
X20504468Y-187972289D01*
X20510714Y-187959222D01*
X20565112Y-187856271D01*
X20618815Y-187784210D01*
X20683131Y-187733549D01*
X20769363Y-187694795D01*
X20859083Y-187666734D01*
X21045146Y-187596463D01*
X21230084Y-187494222D01*
X21399292Y-187368172D01*
X21409878Y-187358925D01*
X21511478Y-187274584D01*
X21599238Y-187216741D01*
X21686243Y-187179225D01*
X21785575Y-187155864D01*
X21862515Y-187145395D01*
X21965072Y-187128711D01*
X22043192Y-187105523D01*
X22075768Y-187088314D01*
X22106067Y-187054477D01*
X22148863Y-186991517D01*
X22198405Y-186908509D01*
X22247691Y-186816986D01*
X22381082Y-186573571D01*
X22541622Y-186310405D01*
X22723979Y-186034888D01*
X22922822Y-185754420D01*
X23132819Y-185476401D01*
X23348638Y-185208230D01*
X23564948Y-184957308D01*
X23671740Y-184840500D01*
X23812116Y-184685007D01*
X23922540Y-184551243D01*
X24002192Y-184440347D01*
X24050253Y-184353458D01*
X24065912Y-184293046D01*
X24074625Y-184231480D01*
X24102928Y-184172367D01*
X24154339Y-184112752D01*
X24232375Y-184049682D01*
X24340553Y-183980202D01*
X24482390Y-183901358D01*
X24610727Y-183835428D01*
X24755560Y-183760100D01*
X24867745Y-183694234D01*
X24954141Y-183632085D01*
X25021609Y-183567907D01*
X25077009Y-183495956D01*
X25127200Y-183410487D01*
X25134284Y-183396956D01*
X25216819Y-183257174D01*
X25305950Y-183149683D01*
X25411261Y-183064546D01*
X25509441Y-183007954D01*
X25653295Y-182924001D01*
X25758599Y-182836677D01*
X25829138Y-182742606D01*
X25846247Y-182707617D01*
X25871174Y-182661886D01*
X25906212Y-182623017D01*
X25955487Y-182589790D01*
X26023128Y-182560982D01*
X26113263Y-182535374D01*
X26230018Y-182511745D01*
X26377523Y-182488873D01*
X26559903Y-182465538D01*
X26730559Y-182446061D01*
X26971701Y-182419506D01*
X26942539Y-181729000D01*
X28447333Y-181729000D01*
X28447333Y-181423125D01*
X28449275Y-181257049D01*
X28456028Y-181126615D01*
X28468986Y-181025270D01*
X28489541Y-180946460D01*
X28519084Y-180883632D01*
X28559009Y-180830234D01*
X28577428Y-180810816D01*
X28628412Y-180763211D01*
X28667942Y-180740466D01*
X28712660Y-180735777D01*
X28752569Y-180739208D01*
X28839988Y-180757358D01*
X28924701Y-180788891D01*
X28995577Y-180828195D01*
X29041484Y-180869654D01*
X29051762Y-180890079D01*
X29050178Y-180936281D01*
X29032850Y-181000192D01*
X29020396Y-181031027D01*
X28986447Y-181124194D01*
X28981933Y-181201349D01*
X29008111Y-181278075D01*
X29045291Y-181339753D01*
X29101510Y-181413655D01*
X29162674Y-181472173D01*
X29231802Y-181514955D01*
X29311914Y-181541651D01*
X29406027Y-181551911D01*
X29517160Y-181545383D01*
X29648333Y-181521718D01*
X29802564Y-181480565D01*
X29982872Y-181421573D01*
X30192276Y-181344392D01*
X30433794Y-181248672D01*
X30669833Y-181151111D01*
X30921516Y-181043650D01*
X31135168Y-180947931D01*
X31313047Y-180862700D01*
X31457413Y-180786704D01*
X31570523Y-180718689D01*
X31654637Y-180657401D01*
X31712011Y-180601587D01*
X31742312Y-180555718D01*
X31759712Y-180514859D01*
X31765676Y-180479214D01*
X31759451Y-180435327D01*
X31740283Y-180369743D01*
X31730145Y-180338462D01*
X31726637Y-180329703D01*
X31878706Y-180329703D01*
X31896555Y-180403599D01*
X31933268Y-180467388D01*
X31993534Y-180540547D01*
X32064994Y-180610025D01*
X32135289Y-180662774D01*
X32149947Y-180671144D01*
X32206156Y-180699472D01*
X32244380Y-180709240D01*
X32284212Y-180701386D01*
X32337388Y-180680127D01*
X32436795Y-180621689D01*
X32522326Y-180540440D01*
X32566139Y-180475926D01*
X32595118Y-180378108D01*
X32583417Y-180277750D01*
X32532126Y-180179206D01*
X32476181Y-180116388D01*
X32379788Y-180048661D01*
X32268683Y-180017549D01*
X32212942Y-180014500D01*
X32096778Y-180031002D01*
X32000523Y-180076615D01*
X31928926Y-180145496D01*
X31886737Y-180231806D01*
X31878706Y-180329703D01*
X31726637Y-180329703D01*
X31659373Y-180161777D01*
X31568577Y-179996806D01*
X31465418Y-179856903D01*
X31434563Y-179823217D01*
X31375623Y-179766287D01*
X31327263Y-179733471D01*
X31273309Y-179716078D01*
X31220166Y-179708012D01*
X31050964Y-179705538D01*
X30866606Y-179734317D01*
X30676784Y-179791327D01*
X30491189Y-179873545D01*
X30319513Y-179977951D01*
X30293369Y-179996972D01*
X30135126Y-180100279D01*
X29984255Y-180169314D01*
X29845036Y-180202284D01*
X29796708Y-180204983D01*
X29716075Y-180200737D01*
X29663838Y-180185683D01*
X29632666Y-180162667D01*
X29601557Y-180124370D01*
X29590333Y-180098116D01*
X29606303Y-180045486D01*
X29650110Y-179976691D01*
X29715597Y-179900799D01*
X29742093Y-179874623D01*
X29832771Y-179795124D01*
X29931811Y-179722404D01*
X30045277Y-179653176D01*
X30179233Y-179584153D01*
X30339745Y-179512049D01*
X30532876Y-179433577D01*
X30613356Y-179402446D01*
X30753848Y-179346965D01*
X30914900Y-179280622D01*
X31078888Y-179210832D01*
X31228185Y-179145008D01*
X31262500Y-179129423D01*
X31420549Y-179058642D01*
X31551193Y-179004670D01*
X31664502Y-178964621D01*
X31770543Y-178935611D01*
X31879387Y-178914756D01*
X32001102Y-178899171D01*
X32098583Y-178889920D01*
X32228037Y-178877399D01*
X32370575Y-178861487D01*
X32505062Y-178844630D01*
X32574833Y-178834821D01*
X32715215Y-178815002D01*
X32819190Y-178803378D01*
X32891888Y-178799964D01*
X32938438Y-178804775D01*
X32963968Y-178817826D01*
X32973090Y-178835981D01*
X32961798Y-178875475D01*
X32920697Y-178928980D01*
X32856810Y-178989631D01*
X32777156Y-179050564D01*
X32710310Y-179092888D01*
X32531857Y-179205415D01*
X32390738Y-179315264D01*
X32287715Y-179421389D01*
X32223546Y-179522741D01*
X32198994Y-179618275D01*
X32214817Y-179706942D01*
X32236247Y-179745697D01*
X32308971Y-179826028D01*
X32409645Y-179892773D01*
X32542603Y-179948093D01*
X32712177Y-179994152D01*
X32750318Y-180002329D01*
X32929885Y-180029575D01*
X33082431Y-180032007D01*
X33204849Y-180009670D01*
X33241583Y-179995278D01*
X33298836Y-179960018D01*
X33369317Y-179904621D01*
X33438283Y-179840729D01*
X33441747Y-179837192D01*
X33508406Y-179771936D01*
X33566153Y-179727167D01*
X33624540Y-179700434D01*
X33693122Y-179689290D01*
X33781454Y-179691287D01*
X33899088Y-179703976D01*
X33940534Y-179709371D01*
X34084101Y-179724454D01*
X34262177Y-179736790D01*
X34467014Y-179746241D01*
X34690867Y-179752664D01*
X34925991Y-179755922D01*
X35164640Y-179755873D01*
X35399068Y-179752377D01*
X35621530Y-179745295D01*
X35707500Y-179741321D01*
X35966226Y-179727203D01*
X36227515Y-179711210D01*
X36486941Y-179693727D01*
X36740076Y-179675139D01*
X36982495Y-179655831D01*
X37209771Y-179636187D01*
X37417479Y-179616592D01*
X37601192Y-179597430D01*
X37756483Y-179579087D01*
X37878928Y-179561947D01*
X37964098Y-179546395D01*
X37972333Y-179544479D01*
X38118125Y-179492266D01*
X38234433Y-179411322D01*
X38325968Y-179297787D01*
X38366929Y-179221194D01*
X38407313Y-179105667D01*
X38412556Y-179001068D01*
X38384073Y-178897568D01*
X38318470Y-178784766D01*
X38230838Y-178708082D01*
X38120802Y-178667260D01*
X38037509Y-178659833D01*
X37991806Y-178662335D01*
X37909414Y-178669435D01*
X37795654Y-178680527D01*
X37655849Y-178695004D01*
X37495321Y-178712259D01*
X37319393Y-178731685D01*
X37133386Y-178752675D01*
X36942623Y-178774623D01*
X36752426Y-178796922D01*
X36568117Y-178818965D01*
X36395019Y-178840144D01*
X36238455Y-178859854D01*
X36103745Y-178877487D01*
X35996213Y-178892437D01*
X35991710Y-178893094D01*
X35824309Y-178913658D01*
X35691763Y-178920083D01*
X35588674Y-178911339D01*
X35509647Y-178886397D01*
X35449282Y-178844227D01*
X35402182Y-178783799D01*
X35400040Y-178780214D01*
X35372218Y-178704921D01*
X35360420Y-178611574D01*
X35364845Y-178517333D01*
X35385694Y-178439358D01*
X35395845Y-178420677D01*
X35442504Y-178361693D01*
X35496756Y-178322865D01*
X35568148Y-178300554D01*
X35666231Y-178291119D01*
X35738365Y-178290109D01*
X35831663Y-178292534D01*
X35913215Y-178300755D01*
X35996961Y-178317314D01*
X36096844Y-178344757D01*
X36180815Y-178370843D01*
X36285129Y-178402212D01*
X36382072Y-178427984D01*
X36460638Y-178445442D01*
X36508898Y-178451861D01*
X36582305Y-178439388D01*
X36679525Y-178402390D01*
X36734083Y-178375764D01*
X36797782Y-178344420D01*
X36858668Y-178319668D01*
X36924953Y-178299555D01*
X37004848Y-178282132D01*
X37106564Y-178265449D01*
X37238311Y-178247554D01*
X37313635Y-178238084D01*
X37418919Y-178220845D01*
X37509323Y-178194482D01*
X37594856Y-178153909D01*
X37685531Y-178094043D01*
X37791357Y-178009800D01*
X37833032Y-177974300D01*
X37903134Y-177914174D01*
X37964253Y-177862258D01*
X38007053Y-177826459D01*
X38018119Y-177817504D01*
X38031818Y-177811827D01*
X38049290Y-177817567D01*
G36*
X38049290Y-177817567D02*
G01*
X38073786Y-177838523D01*
X38108556Y-177878494D01*
X38156849Y-177941278D01*
X38221917Y-178030676D01*
X38307008Y-178150485D01*
X38325944Y-178177337D01*
X38644494Y-178641389D01*
X38932985Y-179087762D01*
X39195544Y-179523745D01*
X39436299Y-179956627D01*
X39659376Y-180393698D01*
X39868903Y-180842247D01*
X39983313Y-181104584D01*
X40128500Y-181463656D01*
X40269187Y-181846464D01*
X40403401Y-182245831D01*
X40529166Y-182654578D01*
X40644509Y-183065530D01*
X40747456Y-183471508D01*
X40836033Y-183865337D01*
X40908266Y-184239839D01*
X40962181Y-184587837D01*
X40978856Y-184724084D01*
X40984889Y-184800381D01*
X40990493Y-184914324D01*
X40995636Y-185061229D01*
X41000284Y-185236408D01*
X41004403Y-185435178D01*
X41007961Y-185652853D01*
X41010924Y-185884747D01*
X41013259Y-186126174D01*
X41014932Y-186372451D01*
X41015909Y-186618891D01*
X41016159Y-186860808D01*
X41015646Y-187093519D01*
X41014338Y-187312336D01*
X41012201Y-187512575D01*
X41009202Y-187689551D01*
X41005308Y-187838578D01*
X41001702Y-187930834D01*
X40988435Y-188165911D01*
X40971085Y-188384532D01*
X40948408Y-188594220D01*
X40919162Y-188802501D01*
X40882102Y-189016898D01*
X40835985Y-189244936D01*
X40779567Y-189494140D01*
X40711605Y-189772033D01*
X40671107Y-189931084D01*
X40454214Y-190691114D01*
X40199786Y-191432377D01*
X39908280Y-192154067D01*
X39580157Y-192855380D01*
X39215874Y-193535512D01*
X38815891Y-194193659D01*
X38380668Y-194829017D01*
X37910662Y-195440781D01*
X37406333Y-196028148D01*
X36872525Y-196585971D01*
X36315935Y-197107703D01*
X35732702Y-197597050D01*
X35124424Y-198053163D01*
X34492695Y-198475196D01*
X33839112Y-198862300D01*
X33165272Y-199213629D01*
X32472771Y-199528335D01*
X31763205Y-199805571D01*
X31038171Y-200044489D01*
X30299264Y-200244243D01*
X29755033Y-200364244D01*
X29539655Y-200406063D01*
X29340332Y-200441817D01*
X29150601Y-200472160D01*
X28963999Y-200497745D01*
X28774062Y-200519222D01*
X28574328Y-200537247D01*
X28358332Y-200552470D01*
X28119612Y-200565545D01*
X27851704Y-200577125D01*
X27548146Y-200587862D01*
X27537166Y-200588219D01*
X27185973Y-200598126D01*
X26867042Y-200603832D01*
X26570512Y-200605328D01*
X26286519Y-200602606D01*
X26005201Y-200595659D01*
X25769750Y-200586811D01*
X25522093Y-200569427D01*
X25241343Y-200537726D01*
X24933780Y-200492942D01*
X24605686Y-200436307D01*
X24263341Y-200369055D01*
X23913025Y-200292419D01*
X23561020Y-200207632D01*
X23213607Y-200115929D01*
X22879820Y-200019375D01*
X22190621Y-199789132D01*
X21506721Y-199518393D01*
X20831410Y-199208948D01*
X20167976Y-198862587D01*
X19519708Y-198481098D01*
X18889896Y-198066273D01*
X18281828Y-197619901D01*
X17885166Y-197301529D01*
X17726395Y-197165390D01*
X17551287Y-197008145D01*
X17365147Y-196835080D01*
X17173278Y-196651482D01*
X16980986Y-196462639D01*
X16793573Y-196273836D01*
X16616346Y-196090361D01*
X16454606Y-195917500D01*
X16313660Y-195760541D01*
X16198811Y-195624770D01*
X16182371Y-195604311D01*
X16116046Y-195516678D01*
X16077736Y-195454198D01*
X16068698Y-195416423D01*
X16090187Y-195402906D01*
X16143460Y-195413200D01*
X16229772Y-195446858D01*
X16350379Y-195503432D01*
X16398533Y-195527362D01*
X16522546Y-195590984D01*
X16646782Y-195657777D01*
X16777358Y-195731307D01*
X16920396Y-195815144D01*
X17082013Y-195912855D01*
X17268330Y-196028007D01*
X17419500Y-196122647D01*
X17629521Y-196252062D01*
X17807902Y-196356270D01*
X17956342Y-196436154D01*
X18076539Y-196492597D01*
X18170189Y-196526482D01*
X18214750Y-196536415D01*
X18274355Y-196541457D01*
X18322861Y-196531910D01*
X18378453Y-196502808D01*
X18408337Y-196483526D01*
X18482564Y-196440969D01*
X18544723Y-196423400D01*
X18591006Y-196422990D01*
X18641113Y-196430067D01*
X18671729Y-196448912D01*
X18695378Y-196490641D01*
X18710636Y-196529177D01*
X18752863Y-196620563D01*
X18817255Y-196728644D01*
X18905442Y-196855593D01*
X19019057Y-197003578D01*
X19159732Y-197174771D01*
X19329099Y-197371342D01*
X19427251Y-197482292D01*
X19504048Y-197567232D01*
X19571639Y-197639697D01*
X19624824Y-197694291D01*
X19658403Y-197725617D01*
X19666921Y-197731000D01*
X19688276Y-197719658D01*
X19740457Y-197687490D01*
X19819157Y-197637282D01*
X19920067Y-197571822D01*
X20038879Y-197493898D01*
X20171285Y-197406296D01*
X20253972Y-197351242D01*
X20572947Y-197140747D01*
X20864213Y-196953842D01*
X21133026Y-196787558D01*
X21384641Y-196638927D01*
X21624316Y-196504978D01*
X21857305Y-196382744D01*
X22088864Y-196269254D01*
X22324251Y-196161539D01*
X22478333Y-196094688D01*
X22723103Y-195994723D01*
X22971183Y-195902270D01*
X23230198Y-195814893D01*
X23507770Y-195730156D01*
X23811525Y-195645625D01*
X24149085Y-195558864D01*
X24178412Y-195551598D01*
X24471471Y-195477018D01*
X24723115Y-195408351D01*
X24933824Y-195345445D01*
X25104078Y-195288147D01*
X25234357Y-195236303D01*
X25325142Y-195189760D01*
X25335623Y-195183068D01*
X25413573Y-195109150D01*
X25469544Y-195013594D01*
X25527326Y-194917806D01*
X25607552Y-194838457D01*
X25714380Y-194773379D01*
X25851970Y-194720405D01*
X26024479Y-194677367D01*
X26161333Y-194653063D01*
X26279221Y-194634662D01*
X26414442Y-194613549D01*
X26542505Y-194593549D01*
X26574083Y-194588616D01*
X26707713Y-194563596D01*
X26821303Y-194531092D01*
X26923866Y-194486202D01*
X27024415Y-194424027D01*
X27131965Y-194339669D01*
X27255528Y-194228226D01*
X27280476Y-194204616D01*
X27516613Y-193979933D01*
X28209515Y-194003488D01*
X28378382Y-194009181D01*
X28535075Y-194014372D01*
X28674213Y-194018890D01*
X28790420Y-194022564D01*
X28878315Y-194025223D01*
X28932521Y-194026695D01*
X28946663Y-194026938D01*
X28969821Y-194019837D01*
X28993802Y-193994513D01*
X29022538Y-193944770D01*
X29059957Y-193864410D01*
X29082042Y-193813409D01*
X29150600Y-193664934D01*
X29230759Y-193510741D01*
X29315207Y-193363865D01*
X29396633Y-193237346D01*
X29434133Y-193185525D01*
X29464874Y-193147898D01*
X29496670Y-193118151D01*
X29534702Y-193095359D01*
X29584153Y-193078597D01*
X29650204Y-193066940D01*
X29738037Y-193059463D01*
X29852833Y-193055239D01*
X29999774Y-193053343D01*
X30177028Y-193052855D01*
X30365410Y-193052022D01*
X30514592Y-193049669D01*
X30627687Y-193045658D01*
X30707805Y-193039851D01*
X30758059Y-193032110D01*
X30775666Y-193026236D01*
X30817690Y-192988467D01*
X30865521Y-192917219D01*
X30896878Y-192857168D01*
X30935029Y-192781645D01*
X30967985Y-192733315D01*
X31007042Y-192700381D01*
X31063497Y-192671047D01*
X31083841Y-192661925D01*
X31145319Y-192632604D01*
X31204598Y-192598727D01*
X31268328Y-192555456D01*
X31343158Y-192497954D01*
X31435739Y-192421385D01*
X31552719Y-192320911D01*
X31553088Y-192320590D01*
X31652255Y-192236829D01*
X31735630Y-192175122D01*
X31811610Y-192133781D01*
X31888591Y-192111118D01*
X31974970Y-192105445D01*
X32079143Y-192115072D01*
X32209505Y-192138312D01*
X32331416Y-192164073D01*
X32502323Y-192193518D01*
X32651110Y-192203438D01*
X32773096Y-192193944D01*
X32863602Y-192165147D01*
X32886365Y-192150984D01*
X32971910Y-192064835D01*
X33036811Y-191954225D01*
X33061965Y-191880512D01*
X33096366Y-191750483D01*
X33130455Y-191652282D01*
X33170874Y-191575981D01*
X33224268Y-191511651D01*
X33297279Y-191449360D01*
X33396550Y-191379181D01*
X33398066Y-191378158D01*
X33488932Y-191315561D01*
X33549803Y-191269225D01*
X33586566Y-191232953D01*
X33605112Y-191200549D01*
X33611329Y-191165814D01*
X33611675Y-191153388D01*
X33596218Y-191110148D01*
X33555849Y-191052600D01*
X33500241Y-190990852D01*
X33439065Y-190935013D01*
X33381993Y-190895191D01*
X33352937Y-190882983D01*
X33302104Y-190882412D01*
X33211676Y-190896105D01*
X33081896Y-190924017D01*
X32961353Y-190953626D01*
X32786039Y-190997342D01*
X32640938Y-191030354D01*
X32515628Y-191053839D01*
X32399692Y-191068976D01*
X32282710Y-191076942D01*
X32154262Y-191078916D01*
X32003929Y-191076076D01*
X31906876Y-191072842D01*
X31761589Y-191068056D01*
X31652209Y-191065876D01*
X31572375Y-191066546D01*
X31515727Y-191070313D01*
X31475903Y-191077421D01*
X31446543Y-191088115D01*
X31441210Y-191090788D01*
X31342097Y-191163488D01*
X31258559Y-191264403D01*
X31202000Y-191379624D01*
X31200417Y-191384470D01*
X31179513Y-191439704D01*
X31152713Y-191482840D01*
X31114245Y-191516397D01*
X31058339Y-191542896D01*
X30979222Y-191564856D01*
X30871124Y-191584797D01*
X30728273Y-191605238D01*
X30680416Y-191611504D01*
X30425429Y-191649306D01*
X30206367Y-191693583D01*
X30016961Y-191747352D01*
X29850944Y-191813630D01*
X29702047Y-191895435D01*
X29564005Y-191995784D01*
X29430547Y-192117696D01*
X29295408Y-192264186D01*
X29274850Y-192288178D01*
X29179797Y-192391827D01*
X29096043Y-192460128D01*
X29014737Y-192494959D01*
X28927030Y-192498200D01*
X28824071Y-192471730D01*
X28697010Y-192417427D01*
X28687491Y-192412875D01*
X28500250Y-192322917D01*
X28214500Y-192323176D01*
X28024962Y-192329096D01*
X27861255Y-192348796D01*
X27708150Y-192385752D01*
X27550417Y-192443437D01*
X27411752Y-192506322D01*
X27315528Y-192556934D01*
X27230735Y-192612624D01*
X27144597Y-192682769D01*
X27047230Y-192773928D01*
X26972485Y-192845762D01*
X26906280Y-192907401D01*
X26855763Y-192952323D01*
X26828080Y-192974003D01*
X26827958Y-192974072D01*
X26791857Y-192983761D01*
X26721804Y-192994089D01*
X26626158Y-193004373D01*
X26513281Y-193013933D01*
X26391533Y-193022088D01*
X26269273Y-193028156D01*
X26154862Y-193031457D01*
X26119000Y-193031830D01*
X25936140Y-193042117D01*
X25785085Y-193072198D01*
X25659408Y-193123686D01*
X25597070Y-193162940D01*
X25510061Y-193219860D01*
X25423879Y-193261589D01*
X25327668Y-193291529D01*
X25210571Y-193313083D01*
X25066370Y-193329230D01*
X24859832Y-193352830D01*
X24676325Y-193385099D01*
X24496846Y-193429672D01*
X24414984Y-193453896D01*
X24327777Y-193475667D01*
X24221322Y-193495078D01*
X24118663Y-193507926D01*
X24118651Y-193507928D01*
X23954599Y-193529140D01*
X23782494Y-193565694D01*
X23593615Y-193619840D01*
X23379239Y-193693829D01*
X23335583Y-193710062D01*
X23193313Y-193762804D01*
X23076082Y-193803628D01*
X22974494Y-193834330D01*
X22879154Y-193856701D01*
X22780665Y-193872536D01*
X22669631Y-193883628D01*
X22536658Y-193891771D01*
X22372348Y-193898758D01*
X22340750Y-193899955D01*
X22165862Y-193907350D01*
X22025819Y-193915700D01*
X21913133Y-193926197D01*
X21820317Y-193940036D01*
X21739883Y-193958409D01*
X21664343Y-193982511D01*
X21586210Y-194013534D01*
X21561708Y-194024122D01*
X21436543Y-194072931D01*
X21305182Y-194110868D01*
X21155485Y-194140882D01*
X20980762Y-194165279D01*
X20865503Y-194176876D01*
X20721694Y-194188020D01*
X20556187Y-194198467D01*
X20375837Y-194207977D01*
X20187495Y-194216309D01*
X19998017Y-194223221D01*
X19814253Y-194228472D01*
X19643058Y-194231820D01*
X19491285Y-194233025D01*
X19365786Y-194231844D01*
X19273415Y-194228037D01*
X19251475Y-194226174D01*
X19160846Y-194216119D01*
X19102498Y-194206040D01*
X19066543Y-194192211D01*
X19043089Y-194170906D01*
X19023298Y-194140207D01*
X18984787Y-194048558D01*
X18954339Y-193923922D01*
X18933482Y-193775137D01*
X18923744Y-193611043D01*
X18923218Y-193561167D01*
X18925831Y-193425068D01*
X18935458Y-193313571D01*
X18955094Y-193211150D01*
X18987732Y-193102283D01*
X19036366Y-192971445D01*
X19037521Y-192968500D01*
X19081980Y-192845845D01*
X19131355Y-192693878D01*
X19182079Y-192524763D01*
X19230584Y-192350664D01*
X19273305Y-192183744D01*
X19295124Y-192090084D01*
X19320811Y-191932658D01*
X19329501Y-191762823D01*
X19320998Y-191573340D01*
X19295106Y-191356972D01*
X19271218Y-191211667D01*
X19234623Y-190979495D01*
X19215134Y-190792077D01*
X19757849Y-190792077D01*
X19760257Y-190869973D01*
X19765502Y-190890839D01*
X19813142Y-190985159D01*
X19887978Y-191054630D01*
X19951441Y-191083416D01*
X20035772Y-191093099D01*
X20122616Y-191070210D01*
X20196361Y-191029910D01*
X20257258Y-190976156D01*
X20323372Y-190892703D01*
X20362160Y-190832305D01*
X20426816Y-190713869D01*
X20493662Y-190574867D01*
X20557940Y-190426806D01*
X20606154Y-190303527D01*
X33863673Y-190303527D01*
X33865288Y-190373565D01*
X33887578Y-190459554D01*
X33931430Y-190568519D01*
X33980851Y-190673321D01*
X34037748Y-190782185D01*
X34096425Y-190882041D01*
X34150159Y-190961949D01*
X34182631Y-191001641D01*
X34232886Y-191051719D01*
X34270719Y-191076763D01*
X34311735Y-191083463D01*
X34363913Y-191079380D01*
X34451884Y-191057054D01*
X34548842Y-191012722D01*
X34575220Y-190997185D01*
X34652735Y-190943718D01*
X34750415Y-190868309D01*
X34863537Y-190775331D01*
X34987379Y-190669156D01*
X35117217Y-190554156D01*
X35248331Y-190434704D01*
X35375996Y-190315172D01*
X35495491Y-190199931D01*
X35602092Y-190093354D01*
X35691078Y-189999814D01*
X35757727Y-189923682D01*
X35797314Y-189869331D01*
X35801251Y-189862101D01*
X35822844Y-189803084D01*
X35819517Y-189757255D01*
X35788291Y-189723328D01*
X35726187Y-189700017D01*
X35630225Y-189686036D01*
X35497425Y-189680100D01*
X35379416Y-189680060D01*
X35181483Y-189691622D01*
X34976883Y-189720323D01*
X34772036Y-189763950D01*
X34573365Y-189820291D01*
X34387290Y-189887134D01*
X34220234Y-189962266D01*
X34078617Y-190043477D01*
X33968861Y-190128552D01*
X33918916Y-190183203D01*
X33881845Y-190242415D01*
X33863673Y-190303527D01*
X20606154Y-190303527D01*
X20614889Y-190281194D01*
X20659749Y-190149536D01*
X20687033Y-190046911D01*
X20722842Y-189922072D01*
X20773938Y-189804658D01*
X20790613Y-189775072D01*
X20836635Y-189694558D01*
X20879159Y-189609537D01*
X20921723Y-189511698D01*
X20967863Y-189392727D01*
X21021115Y-189244313D01*
X21041850Y-189184564D01*
X21094778Y-189036344D01*
X21140486Y-188921547D01*
X21182559Y-188832668D01*
X21224582Y-188762199D01*
X21270141Y-188702635D01*
X21274376Y-188697737D01*
X21328328Y-188621704D01*
X21352379Y-188543753D01*
X21352681Y-188449502D01*
X21329795Y-188367658D01*
X21277927Y-188316455D01*
X21197826Y-188296396D01*
X21130887Y-188300309D01*
X21072952Y-188312531D01*
X21024861Y-188334684D01*
X20974177Y-188374473D01*
X20912000Y-188435939D01*
X20798960Y-188571308D01*
X20691219Y-188734084D01*
X20594301Y-188913090D01*
X20513729Y-189097149D01*
X20455027Y-189275084D01*
X20425541Y-189420123D01*
X20405459Y-189543920D01*
X20377554Y-189639696D01*
X20336114Y-189721714D01*
X20275425Y-189804234D01*
X20268194Y-189812923D01*
X20198394Y-189903324D01*
X20153833Y-189981764D01*
X20126871Y-190062947D01*
X20119311Y-190099432D01*
X20098681Y-190178455D01*
X20062883Y-190260349D01*
X20007219Y-190354048D01*
X19926987Y-190468486D01*
X19920549Y-190477206D01*
X19835935Y-190601190D01*
X19782389Y-190704315D01*
X19757849Y-190792077D01*
X19215134Y-190792077D01*
X19214305Y-190784113D01*
X19210224Y-190623248D01*
X19222343Y-190494628D01*
X19250623Y-190395979D01*
X19257283Y-190381522D01*
X19326076Y-190281949D01*
X19411393Y-190204615D01*
X19494772Y-190151055D01*
X19587497Y-190103388D01*
X19676518Y-190067384D01*
X19748783Y-190048817D01*
X19766635Y-190047500D01*
X19802668Y-190040417D01*
X19829286Y-190015405D01*
X19848421Y-189966819D01*
X19862006Y-189889014D01*
X19871975Y-189776345D01*
X19874725Y-189731877D01*
X19883634Y-189609363D01*
X19897654Y-189514873D01*
X19921855Y-189438789D01*
X19961312Y-189371493D01*
X20021096Y-189303368D01*
X20106281Y-189224795D01*
X20171872Y-189168484D01*
X20289240Y-189065541D01*
X20373891Y-188981716D01*
X20428064Y-188912247D01*
X20453999Y-188852375D01*
X20453933Y-188797338D01*
X20430106Y-188742375D01*
X20394794Y-188694483D01*
X20342708Y-188620387D01*
X20320915Y-188555156D01*
X20319333Y-188530521D01*
X20328769Y-188457242D01*
X20355047Y-188355685D01*
X20395121Y-188234945D01*
X20445943Y-188104115D01*
X20504468Y-187972289D01*
X20510714Y-187959222D01*
X20565112Y-187856271D01*
X20618815Y-187784210D01*
X20683131Y-187733549D01*
X20769363Y-187694795D01*
X20859083Y-187666734D01*
X21045146Y-187596463D01*
X21230084Y-187494222D01*
X21399292Y-187368172D01*
X21409878Y-187358925D01*
X21511478Y-187274584D01*
X21599238Y-187216741D01*
X21686243Y-187179225D01*
X21785575Y-187155864D01*
X21862515Y-187145395D01*
X21965072Y-187128711D01*
X22043192Y-187105523D01*
X22075768Y-187088314D01*
X22106067Y-187054477D01*
X22148863Y-186991517D01*
X22198405Y-186908509D01*
X22247691Y-186816986D01*
X22381082Y-186573571D01*
X22541622Y-186310405D01*
X22723979Y-186034888D01*
X22922822Y-185754420D01*
X23132819Y-185476401D01*
X23348638Y-185208230D01*
X23564948Y-184957308D01*
X23671740Y-184840500D01*
X23812116Y-184685007D01*
X23922540Y-184551243D01*
X24002192Y-184440347D01*
X24050253Y-184353458D01*
X24065912Y-184293046D01*
X24074625Y-184231480D01*
X24102928Y-184172367D01*
X24154339Y-184112752D01*
X24232375Y-184049682D01*
X24340553Y-183980202D01*
X24482390Y-183901358D01*
X24610727Y-183835428D01*
X24755560Y-183760100D01*
X24867745Y-183694234D01*
X24954141Y-183632085D01*
X25021609Y-183567907D01*
X25077009Y-183495956D01*
X25127200Y-183410487D01*
X25134284Y-183396956D01*
X25216819Y-183257174D01*
X25305950Y-183149683D01*
X25411261Y-183064546D01*
X25509441Y-183007954D01*
X25653295Y-182924001D01*
X25758599Y-182836677D01*
X25829138Y-182742606D01*
X25846247Y-182707617D01*
X25871174Y-182661886D01*
X25906212Y-182623017D01*
X25955487Y-182589790D01*
X26023128Y-182560982D01*
X26113263Y-182535374D01*
X26230018Y-182511745D01*
X26377523Y-182488873D01*
X26559903Y-182465538D01*
X26730559Y-182446061D01*
X26971701Y-182419506D01*
X26942539Y-181729000D01*
X28447333Y-181729000D01*
X28447333Y-181423125D01*
X28449275Y-181257049D01*
X28456028Y-181126615D01*
X28468986Y-181025270D01*
X28489541Y-180946460D01*
X28519084Y-180883632D01*
X28559009Y-180830234D01*
X28577428Y-180810816D01*
X28628412Y-180763211D01*
X28667942Y-180740466D01*
X28712660Y-180735777D01*
X28752569Y-180739208D01*
X28839988Y-180757358D01*
X28924701Y-180788891D01*
X28995577Y-180828195D01*
X29041484Y-180869654D01*
X29051762Y-180890079D01*
X29050178Y-180936281D01*
X29032850Y-181000192D01*
X29020396Y-181031027D01*
X28986447Y-181124194D01*
X28981933Y-181201349D01*
X29008111Y-181278075D01*
X29045291Y-181339753D01*
X29101510Y-181413655D01*
X29162674Y-181472173D01*
X29231802Y-181514955D01*
X29311914Y-181541651D01*
X29406027Y-181551911D01*
X29517160Y-181545383D01*
X29648333Y-181521718D01*
X29802564Y-181480565D01*
X29982872Y-181421573D01*
X30192276Y-181344392D01*
X30433794Y-181248672D01*
X30669833Y-181151111D01*
X30921516Y-181043650D01*
X31135168Y-180947931D01*
X31313047Y-180862700D01*
X31457413Y-180786704D01*
X31570523Y-180718689D01*
X31654637Y-180657401D01*
X31712011Y-180601587D01*
X31742312Y-180555718D01*
X31759712Y-180514859D01*
X31765676Y-180479214D01*
X31759451Y-180435327D01*
X31740283Y-180369743D01*
X31730145Y-180338462D01*
X31726637Y-180329703D01*
X31878706Y-180329703D01*
X31896555Y-180403599D01*
X31933268Y-180467388D01*
X31993534Y-180540547D01*
X32064994Y-180610025D01*
X32135289Y-180662774D01*
X32149947Y-180671144D01*
X32206156Y-180699472D01*
X32244380Y-180709240D01*
X32284212Y-180701386D01*
X32337388Y-180680127D01*
X32436795Y-180621689D01*
X32522326Y-180540440D01*
X32566139Y-180475926D01*
X32595118Y-180378108D01*
X32583417Y-180277750D01*
X32532126Y-180179206D01*
X32476181Y-180116388D01*
X32379788Y-180048661D01*
X32268683Y-180017549D01*
X32212942Y-180014500D01*
X32096778Y-180031002D01*
X32000523Y-180076615D01*
X31928926Y-180145496D01*
X31886737Y-180231806D01*
X31878706Y-180329703D01*
X31726637Y-180329703D01*
X31659373Y-180161777D01*
X31568577Y-179996806D01*
X31465418Y-179856903D01*
X31434563Y-179823217D01*
X31375623Y-179766287D01*
X31327263Y-179733471D01*
X31273309Y-179716078D01*
X31220166Y-179708012D01*
X31050964Y-179705538D01*
X30866606Y-179734317D01*
X30676784Y-179791327D01*
X30491189Y-179873545D01*
X30319513Y-179977951D01*
X30293369Y-179996972D01*
X30135126Y-180100279D01*
X29984255Y-180169314D01*
X29845036Y-180202284D01*
X29796708Y-180204983D01*
X29716075Y-180200737D01*
X29663838Y-180185683D01*
X29632666Y-180162667D01*
X29601557Y-180124370D01*
X29590333Y-180098116D01*
X29606303Y-180045486D01*
X29650110Y-179976691D01*
X29715597Y-179900799D01*
X29742093Y-179874623D01*
X29832771Y-179795124D01*
X29931811Y-179722404D01*
X30045277Y-179653176D01*
X30179233Y-179584153D01*
X30339745Y-179512049D01*
X30532876Y-179433577D01*
X30613356Y-179402446D01*
X30753848Y-179346965D01*
X30914900Y-179280622D01*
X31078888Y-179210832D01*
X31228185Y-179145008D01*
X31262500Y-179129423D01*
X31420549Y-179058642D01*
X31551193Y-179004670D01*
X31664502Y-178964621D01*
X31770543Y-178935611D01*
X31879387Y-178914756D01*
X32001102Y-178899171D01*
X32098583Y-178889920D01*
X32228037Y-178877399D01*
X32370575Y-178861487D01*
X32505062Y-178844630D01*
X32574833Y-178834821D01*
X32715215Y-178815002D01*
X32819190Y-178803378D01*
X32891888Y-178799964D01*
X32938438Y-178804775D01*
X32963968Y-178817826D01*
X32973090Y-178835981D01*
X32961798Y-178875475D01*
X32920697Y-178928980D01*
X32856810Y-178989631D01*
X32777156Y-179050564D01*
X32710310Y-179092888D01*
X32531857Y-179205415D01*
X32390738Y-179315264D01*
X32287715Y-179421389D01*
X32223546Y-179522741D01*
X32198994Y-179618275D01*
X32214817Y-179706942D01*
X32236247Y-179745697D01*
X32308971Y-179826028D01*
X32409645Y-179892773D01*
X32542603Y-179948093D01*
X32712177Y-179994152D01*
X32750318Y-180002329D01*
X32929885Y-180029575D01*
X33082431Y-180032007D01*
X33204849Y-180009670D01*
X33241583Y-179995278D01*
X33298836Y-179960018D01*
X33369317Y-179904621D01*
X33438283Y-179840729D01*
X33441747Y-179837192D01*
X33508406Y-179771936D01*
X33566153Y-179727167D01*
X33624540Y-179700434D01*
X33693122Y-179689290D01*
X33781454Y-179691287D01*
X33899088Y-179703976D01*
X33940534Y-179709371D01*
X34084101Y-179724454D01*
X34262177Y-179736790D01*
X34467014Y-179746241D01*
X34690867Y-179752664D01*
X34925991Y-179755922D01*
X35164640Y-179755873D01*
X35399068Y-179752377D01*
X35621530Y-179745295D01*
X35707500Y-179741321D01*
X35966226Y-179727203D01*
X36227515Y-179711210D01*
X36486941Y-179693727D01*
X36740076Y-179675139D01*
X36982495Y-179655831D01*
X37209771Y-179636187D01*
X37417479Y-179616592D01*
X37601192Y-179597430D01*
X37756483Y-179579087D01*
X37878928Y-179561947D01*
X37964098Y-179546395D01*
X37972333Y-179544479D01*
X38118125Y-179492266D01*
X38234433Y-179411322D01*
X38325968Y-179297787D01*
X38366929Y-179221194D01*
X38407313Y-179105667D01*
X38412556Y-179001068D01*
X38384073Y-178897568D01*
X38318470Y-178784766D01*
X38230838Y-178708082D01*
X38120802Y-178667260D01*
X38037509Y-178659833D01*
X37991806Y-178662335D01*
X37909414Y-178669435D01*
X37795654Y-178680527D01*
X37655849Y-178695004D01*
X37495321Y-178712259D01*
X37319393Y-178731685D01*
X37133386Y-178752675D01*
X36942623Y-178774623D01*
X36752426Y-178796922D01*
X36568117Y-178818965D01*
X36395019Y-178840144D01*
X36238455Y-178859854D01*
X36103745Y-178877487D01*
X35996213Y-178892437D01*
X35991710Y-178893094D01*
X35824309Y-178913658D01*
X35691763Y-178920083D01*
X35588674Y-178911339D01*
X35509647Y-178886397D01*
X35449282Y-178844227D01*
X35402182Y-178783799D01*
X35400040Y-178780214D01*
X35372218Y-178704921D01*
X35360420Y-178611574D01*
X35364845Y-178517333D01*
X35385694Y-178439358D01*
X35395845Y-178420677D01*
X35442504Y-178361693D01*
X35496756Y-178322865D01*
X35568148Y-178300554D01*
X35666231Y-178291119D01*
X35738365Y-178290109D01*
X35831663Y-178292534D01*
X35913215Y-178300755D01*
X35996961Y-178317314D01*
X36096844Y-178344757D01*
X36180815Y-178370843D01*
X36285129Y-178402212D01*
X36382072Y-178427984D01*
X36460638Y-178445442D01*
X36508898Y-178451861D01*
X36582305Y-178439388D01*
X36679525Y-178402390D01*
X36734083Y-178375764D01*
X36797782Y-178344420D01*
X36858668Y-178319668D01*
X36924953Y-178299555D01*
X37004848Y-178282132D01*
X37106564Y-178265449D01*
X37238311Y-178247554D01*
X37313635Y-178238084D01*
X37418919Y-178220845D01*
X37509323Y-178194482D01*
X37594856Y-178153909D01*
X37685531Y-178094043D01*
X37791357Y-178009800D01*
X37833032Y-177974300D01*
X37903134Y-177914174D01*
X37964253Y-177862258D01*
X38007053Y-177826459D01*
X38018119Y-177817504D01*
X38031818Y-177811827D01*
X38049290Y-177817567D01*
G37*
%TD*%
D12*
%TO.C,D1*%
X18000000Y-103500000D03*
D13*
X20540000Y-103500000D03*
%TD*%
D14*
%TO.C,J5*%
X160907898Y-81907898D03*
D15*
X159111847Y-83703949D03*
X162703949Y-83703949D03*
X160907898Y-85500000D03*
X164500000Y-85500000D03*
X162703949Y-87296052D03*
%TD*%
D16*
%TO.C,J1*%
X54620000Y-31120000D03*
D17*
X52080000Y-31120000D03*
X49540000Y-31120000D03*
X47000000Y-31120000D03*
X44460000Y-31120000D03*
X41920000Y-31120000D03*
X39380000Y-31120000D03*
%TD*%
D18*
%TO.C,U2*%
X126099999Y-145660000D03*
X126100000Y-143120000D03*
X126100000Y-140580000D03*
X126100000Y-138040000D03*
X126100000Y-135500000D03*
X126099999Y-132960000D03*
X126100000Y-130420000D03*
X126100000Y-127880000D03*
X126100000Y-125340000D03*
X126099999Y-122800000D03*
X126100000Y-120260000D03*
X126100000Y-117720000D03*
X126100000Y-115180000D03*
X126100000Y-112640000D03*
X126099999Y-110100000D03*
X151500001Y-110100000D03*
X151500000Y-112640000D03*
X151500000Y-115180000D03*
X151500000Y-117720000D03*
X151500000Y-120260000D03*
X151500001Y-122800000D03*
X151500000Y-125340000D03*
X151500000Y-127880000D03*
X151500000Y-130420000D03*
X151500001Y-132960000D03*
X151500000Y-135500000D03*
X151500000Y-138040000D03*
X151500000Y-140580000D03*
X151500000Y-143120000D03*
X151500001Y-145660000D03*
%TD*%
D19*
%TO.C,J2*%
X-7738756Y33768543D03*
D17*
X-5911633Y35532976D03*
X-4084508Y37297406D03*
X-2257387Y39061841D03*
X-430265Y40826274D03*
X1396860Y42590705D03*
%TD*%
D20*
%TO.C,J4*%
X140000000Y-191000000D03*
D21*
X140000000Y-189000000D03*
%TD*%
D16*
%TO.C,U1*%
X156782500Y-190750000D03*
D22*
X156782500Y-188210000D03*
X156782500Y-185670000D03*
X156782500Y-183130000D03*
X156782500Y-180590000D03*
X156782500Y-178050000D03*
%TD*%
D13*
%TO.C,S1*%
X9142138Y37172827D03*
X11000000Y35500000D03*
X12857862Y33827174D03*
X11283356Y39550892D03*
X13141219Y37878064D03*
X14999081Y36205238D03*
%TD*%
D16*
%TO.C,J3*%
X96310001Y-126810001D03*
D17*
X96310000Y-124269999D03*
X96309999Y-121730001D03*
X96310000Y-119190001D03*
X96310000Y-116649999D03*
X96310001Y-114110000D03*
X96309999Y-111569999D03*
X96310001Y-109030000D03*
%TD*%
M02*
