%TF.GenerationSoftware,KiCad,Pcbnew,10.0.1*%
%TF.CreationDate,2026-04-28T15:52:30-07:00*%
%TF.ProjectId,DC34_Cnet_Badge_Main,44433334-5f43-46e6-9574-5f4261646765,rev?*%
%TF.SameCoordinates,Original*%
%TF.FileFunction,Legend,Top*%
%TF.FilePolarity,Positive*%
%FSLAX46Y46*%
G04 Gerber Fmt 4.6, Leading zero omitted, Abs format (unit mm)*
G04 Created by KiCad (PCBNEW 10.0.1) date 2026-04-28 15:52:30*
%MOMM*%
%LPD*%
G01*
G04 APERTURE LIST*
%ADD10C,0.150000*%
%ADD11C,0.120000*%
G04 APERTURE END LIST*
D10*
X18531905Y-100994819D02*
X18531905Y-99994819D01*
X18531905Y-99994819D02*
X18770000Y-99994819D01*
X18770000Y-99994819D02*
X18912857Y-100042438D01*
X18912857Y-100042438D02*
X19008095Y-100137676D01*
X19008095Y-100137676D02*
X19055714Y-100232914D01*
X19055714Y-100232914D02*
X19103333Y-100423390D01*
X19103333Y-100423390D02*
X19103333Y-100566247D01*
X19103333Y-100566247D02*
X19055714Y-100756723D01*
X19055714Y-100756723D02*
X19008095Y-100851961D01*
X19008095Y-100851961D02*
X18912857Y-100947200D01*
X18912857Y-100947200D02*
X18770000Y-100994819D01*
X18770000Y-100994819D02*
X18531905Y-100994819D01*
X20055714Y-100994819D02*
X19484286Y-100994819D01*
X19770000Y-100994819D02*
X19770000Y-99994819D01*
X19770000Y-99994819D02*
X19674762Y-100137676D01*
X19674762Y-100137676D02*
X19579524Y-100232914D01*
X19579524Y-100232914D02*
X19484286Y-100280533D01*
X157429983Y-80697439D02*
X157935059Y-81202515D01*
X157935059Y-81202515D02*
X158002403Y-81337202D01*
X158002403Y-81337202D02*
X158002403Y-81471889D01*
X158002403Y-81471889D02*
X157935059Y-81606576D01*
X157935059Y-81606576D02*
X157867716Y-81673920D01*
X158103418Y-80024004D02*
X157766701Y-80360721D01*
X157766701Y-80360721D02*
X158069746Y-80731110D01*
X158069746Y-80731110D02*
X158069746Y-80663767D01*
X158069746Y-80663767D02*
X158103418Y-80562752D01*
X158103418Y-80562752D02*
X158271777Y-80394393D01*
X158271777Y-80394393D02*
X158372792Y-80360721D01*
X158372792Y-80360721D02*
X158440136Y-80360721D01*
X158440136Y-80360721D02*
X158541151Y-80394393D01*
X158541151Y-80394393D02*
X158709510Y-80562752D01*
X158709510Y-80562752D02*
X158743181Y-80663767D01*
X158743181Y-80663767D02*
X158743181Y-80731110D01*
X158743181Y-80731110D02*
X158709510Y-80832126D01*
X158709510Y-80832126D02*
X158541151Y-81000484D01*
X158541151Y-81000484D02*
X158440136Y-81034156D01*
X158440136Y-81034156D02*
X158372792Y-81034156D01*
X46666666Y-8954819D02*
X46666666Y-9669104D01*
X46666666Y-9669104D02*
X46619047Y-9811961D01*
X46619047Y-9811961D02*
X46523809Y-9907200D01*
X46523809Y-9907200D02*
X46380952Y-9954819D01*
X46380952Y-9954819D02*
X46285714Y-9954819D01*
X47666666Y-9954819D02*
X47095238Y-9954819D01*
X47380952Y-9954819D02*
X47380952Y-8954819D01*
X47380952Y-8954819D02*
X47285714Y-9097676D01*
X47285714Y-9097676D02*
X47190476Y-9192914D01*
X47190476Y-9192914D02*
X47095238Y-9240533D01*
%TO.C,D1*%
D11*
X17710000Y-102264000D02*
X17710000Y-102420000D01*
X17710000Y-104580000D02*
X17710000Y-104736000D01*
X17710000Y-102264484D02*
G75*
G02*
X20941437Y-102420000I1560000J-1235516D01*
G01*
X18229039Y-102420000D02*
G75*
G02*
X20310961Y-102420000I1040961J-1080000D01*
G01*
X20310961Y-104580000D02*
G75*
G02*
X18229039Y-104580000I-1040961J1080000D01*
G01*
X20941437Y-104580000D02*
G75*
G02*
X17710000Y-104735516I-1671437J1080000D01*
G01*
%TO.C,J5*%
X160907898Y-80026994D02*
X161848350Y-80967446D01*
X159967446Y-80967446D02*
X160907898Y-80026994D01*
X159069420Y-81865472D02*
X160907898Y-83703949D01*
X157230943Y-83703949D02*
X159069420Y-81865472D01*
X157230943Y-83703949D02*
X162703949Y-89176956D01*
X160907898Y-83703949D02*
X162746376Y-81865472D01*
X162746376Y-81865472D02*
X166380904Y-85500000D01*
X162703949Y-89176956D02*
X166380904Y-85500000D01*
%TO.C,J1*%
X38000000Y-29740000D02*
X38000000Y-32500000D01*
X53350000Y-29740000D02*
X38000000Y-29740000D01*
X53350000Y-29740000D02*
X53350000Y-32500000D01*
X53350000Y-32500000D02*
X38000000Y-32500000D01*
X54620000Y-29740000D02*
X56000000Y-29740000D01*
X56000000Y-29740000D02*
X56000000Y-31120000D01*
%TD*%
M02*
