M48
; DRILL file {KiCad 9.0.5} date 2025-11-03T16:46:09-0800
; FORMAT={-:-/ absolute / metric / decimal}
; #@! TF.CreationDate,2025-11-03T16:46:09-08:00
; #@! TF.GenerationSoftware,Kicad,Pcbnew,9.0.5
; #@! TF.FileFunction,Plated,1,2,PTH
FMAT,2
METRIC
; #@! TA.AperFunction,Plated,PTH,ViaDrill
T1C0.400
; #@! TA.AperFunction,Plated,PTH,ComponentDrill
T2C0.750
; #@! TA.AperFunction,Plated,PTH,ComponentDrill
T3C0.900
; #@! TA.AperFunction,Plated,PTH,ComponentDrill
T4C1.000
%
G90
G05
T1
X80.0Y-49.0
X86.0Y-59.0
X87.5Y-55.5
X91.5Y-48.0
X93.5Y-11.0
X93.5Y-19.5
X112.5Y-36.5
X115.5Y-21.0
X138.5Y-21.5
X138.5Y-24.5
T2
X133.0Y-153.45
X135.0Y-153.45
T3
X50.96Y-60.5
X53.5Y-60.5
T4
X64.571Y-25.38
X64.571Y-27.92
X64.571Y-30.46
X64.571Y-33.0
X64.571Y-35.54
X64.571Y-38.08
X64.571Y-40.62
X73.825Y-18.77
X75.31Y-117.07
X75.31Y-127.23
X75.31Y-122.15
X75.31Y-124.69
X75.31Y-129.77
X75.31Y-114.53
X75.31Y-119.61
X75.31Y-132.31
X76.365Y-18.77
X78.905Y-18.77
X81.445Y-18.77
X83.985Y-18.77
X86.525Y-18.77
X102.72Y-28.3
X102.72Y-53.7
X104.5Y-7.0
X104.5Y-9.54
X105.26Y-28.3
X105.26Y-53.7
X107.04Y-7.0
X107.04Y-9.54
X107.8Y-28.3
X107.8Y-53.7
X109.58Y-7.0
X109.58Y-9.54
X110.34Y-28.3
X110.34Y-53.7
X112.88Y-28.3
X112.88Y-53.7
X115.42Y-28.3
X115.42Y-53.7
X117.96Y-28.3
X117.96Y-53.7
X120.5Y-28.3
X120.5Y-53.7
X123.04Y-28.3
X123.04Y-53.7
X125.58Y-28.3
X125.58Y-53.7
X128.12Y-28.3
X128.12Y-53.7
X130.66Y-28.3
X130.66Y-53.7
X133.2Y-28.3
X133.2Y-53.7
X135.74Y-28.3
X135.74Y-53.7
X138.28Y-28.3
X138.28Y-53.7
X143.3Y-148.5
X143.3Y-151.0
X143.3Y-153.5
X145.718Y-159.25
X145.718Y-161.79
X145.718Y-164.33
X145.718Y-166.87
X145.718Y-169.41
X145.718Y-171.95
X146.5Y-148.5
X146.5Y-151.0
X146.5Y-153.5
M30
