%TF.GenerationSoftware,KiCad,Pcbnew,9.0.4*%
%TF.CreationDate,2025-10-07T14:54:38-07:00*%
%TF.ProjectId,DC34_Cnet_Badge_SAO,44433334-5f43-46e6-9574-5f4261646765,rev?*%
%TF.SameCoordinates,Original*%
%TF.FileFunction,Legend,Bot*%
%TF.FilePolarity,Positive*%
%FSLAX46Y46*%
G04 Gerber Fmt 4.6, Leading zero omitted, Abs format (unit mm)*
G04 Created by KiCad (PCBNEW 9.0.4) date 2025-10-07 14:54:38*
%MOMM*%
%LPD*%
G01*
G04 APERTURE LIST*
%ADD10C,0.150000*%
%ADD11C,0.120000*%
G04 APERTURE END LIST*
D10*
X151724819Y-125436666D02*
X152439104Y-125436666D01*
X152439104Y-125436666D02*
X152581961Y-125389047D01*
X152581961Y-125389047D02*
X152677200Y-125293809D01*
X152677200Y-125293809D02*
X152724819Y-125150952D01*
X152724819Y-125150952D02*
X152724819Y-125055714D01*
X152724819Y-126436666D02*
X152724819Y-125865238D01*
X152724819Y-126150952D02*
X151724819Y-126150952D01*
X151724819Y-126150952D02*
X151867676Y-126055714D01*
X151867676Y-126055714D02*
X151962914Y-125960476D01*
X151962914Y-125960476D02*
X152010533Y-125865238D01*
D11*
%TO.C,J1*%
X143090000Y-128370000D02*
X143090000Y-123170000D01*
X148230000Y-123170000D02*
X143090000Y-123170000D01*
X148230000Y-125770000D02*
X148230000Y-123170000D01*
X150830000Y-123170000D02*
X149500000Y-123170000D01*
X150830000Y-124500000D02*
X150830000Y-123170000D01*
X150830000Y-125770000D02*
X148230000Y-125770000D01*
X150830000Y-128370000D02*
X143090000Y-128370000D01*
X150830000Y-128370000D02*
X150830000Y-125770000D01*
X145700000Y-121100000D02*
X145700000Y-122600000D01*
X145700000Y-121100000D01*
X148200000Y-121100000D02*
X145700000Y-121100000D01*
X148200000Y-121100000D01*
X148200000Y-122600000D02*
X148200000Y-121100000D01*
X148200000Y-122600000D01*
%TD*%
M02*
