%TF.GenerationSoftware,KiCad,Pcbnew,9.0.4*%
%TF.CreationDate,2025-10-07T14:54:38-07:00*%
%TF.ProjectId,DC34_Cnet_Badge_SAO,44433334-5f43-46e6-9574-5f4261646765,rev?*%
%TF.SameCoordinates,Original*%
%TF.FileFunction,Copper,L1,Top*%
%TF.FilePolarity,Positive*%
%FSLAX46Y46*%
G04 Gerber Fmt 4.6, Leading zero omitted, Abs format (unit mm)*
G04 Created by KiCad (PCBNEW 9.0.4) date 2025-10-07 14:54:38*
%MOMM*%
%LPD*%
G01*
G04 APERTURE LIST*
%TA.AperFunction,Conductor*%
%ADD10C,0.000000*%
%TD*%
%TA.AperFunction,NonConductor*%
%ADD11C,0.000000*%
%TD*%
%TA.AperFunction,ComponentPad*%
%ADD12R,1.800000X1.800000*%
%TD*%
%TA.AperFunction,ComponentPad*%
%ADD13C,1.800000*%
%TD*%
%TA.AperFunction,ComponentPad*%
%ADD14R,1.700000X1.700000*%
%TD*%
%TA.AperFunction,ComponentPad*%
%ADD15O,1.700000X1.700000*%
%TD*%
G04 APERTURE END LIST*
D10*
%TA.AperFunction,Conductor*%
%TO.N,+3.3V*%
G36*
X162301096Y-80110923D02*
G01*
X162698676Y-80165417D01*
X162676264Y-90288885D01*
X162653853Y-100412352D01*
X162374728Y-100661742D01*
X162095599Y-100911132D01*
X145876652Y-100911132D01*
X132276478Y-100889338D01*
X130056001Y-100849096D01*
X129624287Y-100817848D01*
X129467256Y-100777737D01*
X129467267Y-100777737D01*
X129385144Y-100723308D01*
X129348156Y-100698008D01*
X129313757Y-100671004D01*
X129297499Y-100656165D01*
X129281854Y-100640061D01*
X129266809Y-100622413D01*
X129252353Y-100602942D01*
X129238475Y-100581368D01*
X129225161Y-100557411D01*
X129212402Y-100530793D01*
X129200184Y-100501234D01*
X129188497Y-100468455D01*
X129177328Y-100432175D01*
X129166666Y-100392115D01*
X129156499Y-100347997D01*
X129146816Y-100299540D01*
X129137604Y-100246465D01*
X129128852Y-100188493D01*
X129120548Y-100125344D01*
X129105238Y-99982397D01*
X129091581Y-99815390D01*
X129079482Y-99622086D01*
X129068848Y-99400249D01*
X129059584Y-99147644D01*
X129051598Y-98862036D01*
X129044795Y-98541188D01*
X129039082Y-98182865D01*
X129034365Y-97784832D01*
X129030550Y-97344852D01*
X129025251Y-96330110D01*
X129022435Y-95120753D01*
X129021352Y-93698897D01*
X129021387Y-90146145D01*
X129021387Y-80141901D01*
X129320532Y-80141901D01*
X129619677Y-80141901D01*
X129619677Y-89909207D01*
X129623431Y-95263971D01*
X129641825Y-98223374D01*
X129685558Y-99520351D01*
X129720269Y-99774473D01*
X129765327Y-99887839D01*
X129803296Y-99941406D01*
X129840556Y-99990729D01*
X129877432Y-100036024D01*
X129914246Y-100077508D01*
X129951323Y-100115394D01*
X129988985Y-100149900D01*
X130027558Y-100181240D01*
X130067363Y-100209629D01*
X130108725Y-100235283D01*
X130151968Y-100258419D01*
X130197415Y-100279250D01*
X130245390Y-100297993D01*
X130296217Y-100314864D01*
X130350218Y-100330077D01*
X130407718Y-100343848D01*
X130469040Y-100356393D01*
X131800213Y-100373068D01*
X135207503Y-100377313D01*
X146187401Y-100349427D01*
X161611956Y-100286786D01*
X161876502Y-100050423D01*
X162141051Y-99814063D01*
X162163485Y-89977981D01*
X162185919Y-80141900D01*
X161972437Y-80141900D01*
X161758959Y-80141900D01*
X161928320Y-80419678D01*
X161943421Y-80445239D01*
X161957596Y-80471948D01*
X161970876Y-80501464D01*
X161983290Y-80535448D01*
X161994866Y-80575559D01*
X162005635Y-80623456D01*
X162015625Y-80680800D01*
X162024866Y-80749250D01*
X162033387Y-80830466D01*
X162041218Y-80926108D01*
X162048387Y-81037836D01*
X162054924Y-81167309D01*
X162060858Y-81316186D01*
X162066218Y-81486129D01*
X162071035Y-81678796D01*
X162075336Y-81895848D01*
X162082511Y-82409743D01*
X162087977Y-83041093D01*
X162091968Y-83803175D01*
X162094719Y-84709267D01*
X162096464Y-85772649D01*
X162097438Y-87006597D01*
X162098006Y-90039306D01*
X162094615Y-95907246D01*
X162078946Y-97650429D01*
X162043931Y-98786468D01*
X161982050Y-99455398D01*
X161938684Y-99658458D01*
X161885781Y-99797255D01*
X161822400Y-99889292D01*
X161747601Y-99952073D01*
X161559988Y-100059890D01*
X161534556Y-100074743D01*
X161507096Y-100088687D01*
X161475502Y-100101752D01*
X161437668Y-100113967D01*
X161391489Y-100125359D01*
X161334859Y-100135958D01*
X161265671Y-100145792D01*
X161181819Y-100154889D01*
X161081198Y-100163280D01*
X160961702Y-100170992D01*
X160821225Y-100178054D01*
X160657661Y-100184494D01*
X160468903Y-100190343D01*
X160252847Y-100195627D01*
X160007385Y-100200376D01*
X159730413Y-100204619D01*
X159073512Y-100211700D01*
X158265297Y-100217100D01*
X157288919Y-100221048D01*
X156127531Y-100223774D01*
X153182337Y-100226478D01*
X149294934Y-100227050D01*
X139329640Y-100205286D01*
X137587159Y-100166652D01*
X137214814Y-100137161D01*
X137056533Y-100099652D01*
X136876272Y-100016374D01*
X136838964Y-99993588D01*
X136821394Y-99980362D01*
X136804529Y-99965539D01*
X136788353Y-99948840D01*
X136772853Y-99929986D01*
X136758014Y-99908696D01*
X136743822Y-99884691D01*
X136730263Y-99857690D01*
X136717321Y-99827414D01*
X136704984Y-99793583D01*
X136693236Y-99755917D01*
X136682064Y-99714137D01*
X136671452Y-99667961D01*
X136651855Y-99561307D01*
X136634329Y-99433716D01*
X136618762Y-99282948D01*
X136605037Y-99106765D01*
X136593042Y-98902927D01*
X136582660Y-98669197D01*
X136573778Y-98403334D01*
X136566281Y-98103100D01*
X136560054Y-97766255D01*
X136554984Y-97390562D01*
X136550956Y-96973780D01*
X136545565Y-96007995D01*
X136542967Y-94850990D01*
X136542246Y-93484851D01*
X136542768Y-90053528D01*
X136542841Y-89922685D01*
X153465830Y-89922685D01*
X153469637Y-94676259D01*
X153488106Y-97313802D01*
X153506144Y-98041463D01*
X153531814Y-98482996D01*
X153566438Y-98719363D01*
X153611336Y-98831523D01*
X153636391Y-98868737D01*
X153661628Y-98903856D01*
X153687403Y-98936940D01*
X153714073Y-98968050D01*
X153741996Y-98997246D01*
X153771527Y-99024590D01*
X153803025Y-99050141D01*
X153836846Y-99073961D01*
X153873347Y-99096110D01*
X153912884Y-99116648D01*
X153955815Y-99135637D01*
X154002497Y-99153138D01*
X154053287Y-99169209D01*
X154108541Y-99183914D01*
X154168616Y-99197311D01*
X154233870Y-99209461D01*
X154304659Y-99220427D01*
X154381340Y-99230267D01*
X154464270Y-99239042D01*
X154553807Y-99246814D01*
X154650306Y-99253642D01*
X154754125Y-99259589D01*
X154865621Y-99264713D01*
X154985150Y-99269076D01*
X155249738Y-99275761D01*
X155550743Y-99280129D01*
X155891022Y-99282665D01*
X156273428Y-99283854D01*
X157303077Y-99280220D01*
X157668882Y-99272856D01*
X157953867Y-99260691D01*
X158171928Y-99242897D01*
X158336960Y-99218647D01*
X158462858Y-99187114D01*
X158563517Y-99147469D01*
X158615713Y-99123941D01*
X158664466Y-99103233D01*
X158709891Y-99083346D01*
X158752107Y-99062282D01*
X158772049Y-99050684D01*
X158791231Y-99038042D01*
X158809670Y-99024107D01*
X158827380Y-99008629D01*
X158844376Y-98991358D01*
X158860671Y-98972044D01*
X158876281Y-98950437D01*
X158891221Y-98926288D01*
X158905505Y-98899346D01*
X158919148Y-98869363D01*
X158932164Y-98836088D01*
X158944568Y-98799271D01*
X158956375Y-98758662D01*
X158967599Y-98714013D01*
X158978255Y-98665072D01*
X158988358Y-98611591D01*
X158997922Y-98553319D01*
X159006962Y-98490007D01*
X159023528Y-98347261D01*
X159038174Y-98181357D01*
X159051017Y-97990295D01*
X159062173Y-97772077D01*
X159071760Y-97524705D01*
X159079896Y-97246179D01*
X159086697Y-96934503D01*
X159092281Y-96587677D01*
X159096764Y-96203704D01*
X159102898Y-95316319D01*
X159106037Y-94256362D01*
X159107119Y-93007846D01*
X159106860Y-89881188D01*
X159106860Y-81235918D01*
X158816256Y-80945319D01*
X158525660Y-80654721D01*
X156286345Y-80654721D01*
X154047026Y-80654721D01*
X153756430Y-80945319D01*
X153465830Y-81235918D01*
X153465830Y-89922685D01*
X136542841Y-89922685D01*
X136545795Y-84601867D01*
X136564921Y-81742615D01*
X136579050Y-81235918D01*
X136585229Y-81014306D01*
X136615213Y-80609098D01*
X136656755Y-80418654D01*
X136711740Y-80334643D01*
X136767047Y-80274790D01*
X136788690Y-80250422D01*
X136806286Y-80229334D01*
X136813557Y-80219922D01*
X136819803Y-80211210D01*
X136825022Y-80203160D01*
X136829210Y-80195731D01*
X136832363Y-80188885D01*
X136834476Y-80182580D01*
X136835546Y-80176778D01*
X136835569Y-80171438D01*
X136834541Y-80166521D01*
X136832459Y-80161988D01*
X136829317Y-80157797D01*
X136825114Y-80153911D01*
X136819843Y-80150288D01*
X136813503Y-80146890D01*
X136806088Y-80143676D01*
X136797595Y-80140606D01*
X136788020Y-80137642D01*
X136777359Y-80134743D01*
X136752764Y-80128981D01*
X136690371Y-80116491D01*
X149216660Y-80068948D01*
X162301096Y-80110923D01*
G37*
%TD.AperFunction*%
D11*
%TA.AperFunction,NonConductor*%
G36*
X159274457Y-119239788D02*
G01*
X159392409Y-119245777D01*
X159511719Y-119255169D01*
X159630603Y-119267851D01*
X159747277Y-119283707D01*
X159859958Y-119302620D01*
X159966860Y-119324475D01*
X160066202Y-119349157D01*
X160156198Y-119376549D01*
X160235064Y-119406537D01*
X160328942Y-119452486D01*
X160428223Y-119511303D01*
X160531327Y-119581311D01*
X160636672Y-119660834D01*
X160742677Y-119748197D01*
X160847760Y-119841722D01*
X160950340Y-119939735D01*
X161048836Y-120040559D01*
X161141667Y-120142518D01*
X161227250Y-120243936D01*
X161304006Y-120343137D01*
X161370352Y-120438445D01*
X161424707Y-120528184D01*
X161465490Y-120610678D01*
X161480298Y-120648685D01*
X161491119Y-120684251D01*
X161497757Y-120717169D01*
X161500014Y-120747228D01*
X161500206Y-120757028D01*
X161500790Y-120766387D01*
X161501777Y-120775310D01*
X161503179Y-120783802D01*
X161505006Y-120791869D01*
X161507271Y-120799515D01*
X161509984Y-120806748D01*
X161513158Y-120813571D01*
X161516802Y-120819990D01*
X161520929Y-120826010D01*
X161525550Y-120831637D01*
X161530677Y-120836877D01*
X161536320Y-120841734D01*
X161542491Y-120846214D01*
X161549201Y-120850322D01*
X161556462Y-120854063D01*
X161564285Y-120857444D01*
X161572682Y-120860469D01*
X161581663Y-120863144D01*
X161591240Y-120865473D01*
X161601425Y-120867463D01*
X161612228Y-120869119D01*
X161623661Y-120870446D01*
X161635736Y-120871450D01*
X161648464Y-120872135D01*
X161661856Y-120872508D01*
X161675923Y-120872573D01*
X161690677Y-120872336D01*
X161722291Y-120870977D01*
X161756789Y-120868474D01*
X161814596Y-120868513D01*
X161884143Y-120876900D01*
X161963792Y-120892934D01*
X162051907Y-120915910D01*
X162146848Y-120945125D01*
X162246981Y-120979876D01*
X162350666Y-121019459D01*
X162456267Y-121063171D01*
X162562146Y-121110309D01*
X162666667Y-121160170D01*
X162768191Y-121212050D01*
X162865082Y-121265246D01*
X162955702Y-121319054D01*
X163038413Y-121372771D01*
X163111580Y-121425694D01*
X163173563Y-121477120D01*
X163225945Y-121530415D01*
X163283666Y-121599715D01*
X163345521Y-121682764D01*
X163410310Y-121777305D01*
X163476827Y-121881084D01*
X163543872Y-121991843D01*
X163610240Y-122107327D01*
X163674729Y-122225280D01*
X163736137Y-122343446D01*
X163793259Y-122459569D01*
X163844893Y-122571392D01*
X163889837Y-122676660D01*
X163926887Y-122773118D01*
X163954841Y-122858507D01*
X163972496Y-122930574D01*
X163977085Y-122960906D01*
X163978648Y-122987061D01*
X163978250Y-123013523D01*
X163977077Y-123038744D01*
X163975156Y-123062710D01*
X163972517Y-123085402D01*
X163969188Y-123106804D01*
X163965198Y-123126900D01*
X163960575Y-123145672D01*
X163955349Y-123163104D01*
X163949548Y-123179179D01*
X163943201Y-123193880D01*
X163936337Y-123207191D01*
X163928984Y-123219095D01*
X163921170Y-123229574D01*
X163912926Y-123238614D01*
X163904279Y-123246195D01*
X163895258Y-123252302D01*
X163885892Y-123256919D01*
X163876209Y-123260028D01*
X163866239Y-123261612D01*
X163856010Y-123261655D01*
X163845551Y-123260140D01*
X163834890Y-123257050D01*
X163824056Y-123252369D01*
X163813079Y-123246080D01*
X163801986Y-123238165D01*
X163790806Y-123228609D01*
X163779568Y-123217394D01*
X163768302Y-123204505D01*
X163757034Y-123189923D01*
X163745795Y-123173632D01*
X163734613Y-123155616D01*
X163723517Y-123135857D01*
X163714316Y-123118200D01*
X163705862Y-123101037D01*
X163698176Y-123084459D01*
X163691282Y-123068553D01*
X163685203Y-123053410D01*
X163679962Y-123039117D01*
X163675582Y-123025763D01*
X163672086Y-123013438D01*
X163669496Y-123002230D01*
X163667836Y-122992228D01*
X163667129Y-122983521D01*
X163667398Y-122976198D01*
X163668666Y-122970348D01*
X163669681Y-122968003D01*
X163670955Y-122966059D01*
X163672490Y-122964528D01*
X163674289Y-122963421D01*
X163676355Y-122962748D01*
X163678690Y-122962521D01*
X163687076Y-122960885D01*
X163692889Y-122956088D01*
X163696235Y-122948300D01*
X163697217Y-122937689D01*
X163695942Y-122924425D01*
X163692515Y-122908677D01*
X163687040Y-122890612D01*
X163679623Y-122870402D01*
X163659383Y-122824216D01*
X163632635Y-122771472D01*
X163600221Y-122713521D01*
X163562981Y-122651714D01*
X163521757Y-122587403D01*
X163477388Y-122521940D01*
X163430717Y-122456676D01*
X163382584Y-122392963D01*
X163333830Y-122332154D01*
X163285296Y-122275598D01*
X163237823Y-122224649D01*
X163192252Y-122180657D01*
X163143683Y-122140326D01*
X163088317Y-122100685D01*
X163026900Y-122061999D01*
X162960181Y-122024532D01*
X162888905Y-121988547D01*
X162813819Y-121954308D01*
X162735670Y-121922078D01*
X162655205Y-121892121D01*
X162573171Y-121864701D01*
X162490315Y-121840082D01*
X162407382Y-121818527D01*
X162325121Y-121800300D01*
X162244278Y-121785664D01*
X162165600Y-121774883D01*
X162089834Y-121768222D01*
X162017725Y-121765942D01*
X161978887Y-121766097D01*
X161945297Y-121767067D01*
X161930490Y-121768095D01*
X161917020Y-121769611D01*
X161904894Y-121771711D01*
X161894121Y-121774490D01*
X161884707Y-121778042D01*
X161876662Y-121782462D01*
X161869994Y-121787846D01*
X161867178Y-121790928D01*
X161864709Y-121794287D01*
X161862588Y-121797935D01*
X161860817Y-121801882D01*
X161858325Y-121810725D01*
X161857242Y-121820912D01*
X161857574Y-121832536D01*
X161859332Y-121845692D01*
X161862521Y-121860477D01*
X161867151Y-121876985D01*
X161873229Y-121895310D01*
X161880764Y-121915548D01*
X161889762Y-121937793D01*
X161900234Y-121962141D01*
X161912185Y-121988686D01*
X161940562Y-122048748D01*
X161974956Y-122118740D01*
X162062052Y-122291547D01*
X162084590Y-122337859D01*
X162106712Y-122386903D01*
X162128296Y-122438255D01*
X162149217Y-122491489D01*
X162188576Y-122601896D01*
X162223799Y-122714719D01*
X162253895Y-122826551D01*
X162266712Y-122881031D01*
X162277875Y-122933986D01*
X162287262Y-122984990D01*
X162294748Y-123033618D01*
X162300209Y-123079443D01*
X162303523Y-123122041D01*
X162305256Y-123204434D01*
X162302212Y-123293369D01*
X162294733Y-123387523D01*
X162283160Y-123485577D01*
X162267837Y-123586210D01*
X162249107Y-123688102D01*
X162227312Y-123789932D01*
X162202794Y-123890379D01*
X162175896Y-123988123D01*
X162146962Y-124081844D01*
X162116332Y-124170220D01*
X162084351Y-124251932D01*
X162051361Y-124325659D01*
X162017703Y-124390080D01*
X161983722Y-124443874D01*
X161949759Y-124485722D01*
X161935770Y-124500996D01*
X161922811Y-124516414D01*
X161910877Y-124531936D01*
X161899965Y-124547526D01*
X161890070Y-124563144D01*
X161881188Y-124578751D01*
X161873314Y-124594310D01*
X161866444Y-124609781D01*
X161860574Y-124625127D01*
X161855699Y-124640309D01*
X161851815Y-124655289D01*
X161848918Y-124670027D01*
X161847003Y-124684486D01*
X161846066Y-124698627D01*
X161846102Y-124712411D01*
X161847108Y-124725800D01*
X161849078Y-124738756D01*
X161852010Y-124751241D01*
X161855897Y-124763214D01*
X161860736Y-124774639D01*
X161866523Y-124785477D01*
X161873253Y-124795689D01*
X161880921Y-124805237D01*
X161889525Y-124814082D01*
X161899058Y-124822185D01*
X161909517Y-124829510D01*
X161920897Y-124836016D01*
X161933195Y-124841665D01*
X161946405Y-124846420D01*
X161960524Y-124850241D01*
X161975547Y-124853089D01*
X161991469Y-124854928D01*
X162136964Y-124861144D01*
X162279856Y-124856387D01*
X162419550Y-124841014D01*
X162555451Y-124815386D01*
X162686966Y-124779860D01*
X162813499Y-124734797D01*
X162934456Y-124680556D01*
X163049242Y-124617494D01*
X163157264Y-124545973D01*
X163257926Y-124466350D01*
X163350633Y-124378984D01*
X163434792Y-124284235D01*
X163509808Y-124182462D01*
X163543702Y-124129054D01*
X163575086Y-124074024D01*
X163603888Y-124017418D01*
X163630032Y-123959280D01*
X163653445Y-123899656D01*
X163674052Y-123838590D01*
X163680521Y-123819000D01*
X163687569Y-123799960D01*
X163695127Y-123781567D01*
X163703126Y-123763921D01*
X163711497Y-123747120D01*
X163720171Y-123731263D01*
X163729079Y-123716448D01*
X163738152Y-123702774D01*
X163747322Y-123690339D01*
X163756520Y-123679242D01*
X163765676Y-123669582D01*
X163774722Y-123661457D01*
X163783589Y-123654967D01*
X163792207Y-123650208D01*
X163796402Y-123648509D01*
X163800509Y-123647281D01*
X163804519Y-123646534D01*
X163808424Y-123646283D01*
X163822075Y-123646795D01*
X163835004Y-123648333D01*
X163847213Y-123650897D01*
X163858701Y-123654490D01*
X163869468Y-123659113D01*
X163879516Y-123664767D01*
X163888843Y-123671454D01*
X163897450Y-123679174D01*
X163905338Y-123687931D01*
X163912507Y-123697724D01*
X163918957Y-123708556D01*
X163924687Y-123720428D01*
X163929699Y-123733342D01*
X163933993Y-123747298D01*
X163937568Y-123762299D01*
X163940426Y-123778345D01*
X163942565Y-123795439D01*
X163943988Y-123813581D01*
X163944692Y-123832773D01*
X163944680Y-123853018D01*
X163943951Y-123874315D01*
X163942505Y-123896666D01*
X163940342Y-123920074D01*
X163937464Y-123944539D01*
X163933869Y-123970063D01*
X163929559Y-123996648D01*
X163924533Y-124024294D01*
X163918792Y-124053003D01*
X163912336Y-124082777D01*
X163905164Y-124113617D01*
X163897278Y-124145525D01*
X163888678Y-124178502D01*
X163865157Y-124258102D01*
X163837476Y-124336737D01*
X163805765Y-124414312D01*
X163770153Y-124490731D01*
X163730770Y-124565899D01*
X163687744Y-124639723D01*
X163641204Y-124712106D01*
X163591280Y-124782954D01*
X163538101Y-124852173D01*
X163481796Y-124919666D01*
X163422495Y-124985340D01*
X163360326Y-125049100D01*
X163295418Y-125110850D01*
X163227902Y-125170496D01*
X163157905Y-125227942D01*
X163085557Y-125283095D01*
X163010988Y-125335858D01*
X162934327Y-125386138D01*
X162855702Y-125433839D01*
X162775243Y-125478866D01*
X162693079Y-125521125D01*
X162609339Y-125560520D01*
X162524153Y-125596957D01*
X162437649Y-125630341D01*
X162349957Y-125660577D01*
X162261206Y-125687570D01*
X162171525Y-125711225D01*
X162081044Y-125731448D01*
X161989891Y-125748143D01*
X161898195Y-125761215D01*
X161806087Y-125770570D01*
X161713694Y-125776112D01*
X161610011Y-125782000D01*
X161511993Y-125791104D01*
X161421879Y-125802968D01*
X161341907Y-125817133D01*
X161306422Y-125824937D01*
X161274312Y-125833144D01*
X161245856Y-125841699D01*
X161221333Y-125850543D01*
X161201024Y-125859620D01*
X161185208Y-125868873D01*
X161174164Y-125878244D01*
X161170520Y-125882957D01*
X161168173Y-125887677D01*
X161160171Y-125907580D01*
X161150080Y-125928410D01*
X161137973Y-125950107D01*
X161123922Y-125972608D01*
X161090281Y-126019779D01*
X161049734Y-126069431D01*
X161002862Y-126121072D01*
X160950244Y-126174210D01*
X160892458Y-126228354D01*
X160830085Y-126283010D01*
X160763703Y-126337688D01*
X160693892Y-126391896D01*
X160621232Y-126445141D01*
X160546300Y-126496931D01*
X160469678Y-126546775D01*
X160391944Y-126594181D01*
X160313677Y-126638657D01*
X160235457Y-126679711D01*
X160144435Y-126722876D01*
X160051290Y-126762058D01*
X159956233Y-126797229D01*
X159859479Y-126828363D01*
X159761240Y-126855434D01*
X159661728Y-126878416D01*
X159561157Y-126897281D01*
X159459740Y-126912004D01*
X159357688Y-126922558D01*
X159255216Y-126928916D01*
X159152536Y-126931052D01*
X159049860Y-126928940D01*
X158947402Y-126922554D01*
X158845374Y-126911866D01*
X158743990Y-126896850D01*
X158643462Y-126877480D01*
X158643462Y-126877370D01*
X158565478Y-126859454D01*
X158493826Y-126840695D01*
X158428535Y-126821115D01*
X158369636Y-126800738D01*
X158317158Y-126779587D01*
X158271131Y-126757688D01*
X158231585Y-126735063D01*
X158198550Y-126711737D01*
X158184483Y-126699817D01*
X158172055Y-126687732D01*
X158161270Y-126675483D01*
X158152132Y-126663073D01*
X158144644Y-126650506D01*
X158138809Y-126637784D01*
X158134632Y-126624910D01*
X158132117Y-126611888D01*
X158131266Y-126598720D01*
X158132085Y-126585409D01*
X158134576Y-126571959D01*
X158138743Y-126558371D01*
X158144591Y-126544650D01*
X158152122Y-126530798D01*
X158161341Y-126516818D01*
X158172251Y-126502713D01*
X158178778Y-126495121D01*
X158185393Y-126487976D01*
X158192109Y-126481278D01*
X158198940Y-126475025D01*
X158205900Y-126469217D01*
X158213001Y-126463852D01*
X158220257Y-126458928D01*
X158227681Y-126454446D01*
X158235287Y-126450403D01*
X158243088Y-126446799D01*
X158251097Y-126443633D01*
X158259328Y-126440903D01*
X158267793Y-126438608D01*
X158276507Y-126436748D01*
X158285483Y-126435321D01*
X158294733Y-126434326D01*
X158304272Y-126433761D01*
X158314113Y-126433627D01*
X158324269Y-126433921D01*
X158334753Y-126434643D01*
X158345578Y-126435791D01*
X158356759Y-126437365D01*
X158368308Y-126439362D01*
X158380239Y-126441783D01*
X158392565Y-126444626D01*
X158405300Y-126447890D01*
X158432047Y-126455676D01*
X158460588Y-126465133D01*
X158491030Y-126476250D01*
X158547914Y-126495412D01*
X158608491Y-126511195D01*
X158672278Y-126523634D01*
X158738789Y-126532765D01*
X158807538Y-126538623D01*
X158878041Y-126541243D01*
X158949813Y-126540662D01*
X159022367Y-126536914D01*
X159095219Y-126530035D01*
X159167884Y-126520061D01*
X159239876Y-126507027D01*
X159310710Y-126490968D01*
X159379901Y-126471920D01*
X159446964Y-126449918D01*
X159511413Y-126424998D01*
X159572764Y-126397195D01*
X159624757Y-126371223D01*
X159672427Y-126346245D01*
X159716265Y-126321793D01*
X159756766Y-126297403D01*
X159794421Y-126272605D01*
X159829724Y-126246936D01*
X159863168Y-126219927D01*
X159895245Y-126191112D01*
X159926448Y-126160025D01*
X159957270Y-126126199D01*
X159988205Y-126089167D01*
X160019744Y-126048464D01*
X160052381Y-126003622D01*
X160086608Y-125954175D01*
X160122919Y-125899657D01*
X160161807Y-125839600D01*
X160190174Y-125793641D01*
X160214050Y-125751264D01*
X160233406Y-125712370D01*
X160241380Y-125694199D01*
X160248215Y-125676862D01*
X160253906Y-125660346D01*
X160258450Y-125644640D01*
X160261843Y-125629731D01*
X160264083Y-125615606D01*
X160265165Y-125602254D01*
X160265086Y-125589662D01*
X160263844Y-125577818D01*
X160261434Y-125566709D01*
X160257852Y-125556323D01*
X160253096Y-125546648D01*
X160247163Y-125537672D01*
X160240048Y-125529382D01*
X160231748Y-125521766D01*
X160222260Y-125514811D01*
X160211580Y-125508505D01*
X160199706Y-125502837D01*
X160186632Y-125497793D01*
X160172357Y-125493361D01*
X160156877Y-125489529D01*
X160140188Y-125486285D01*
X160122286Y-125483617D01*
X160103169Y-125481511D01*
X160061274Y-125478940D01*
X159910057Y-125467263D01*
X159758160Y-125442831D01*
X159606457Y-125406244D01*
X159455818Y-125358099D01*
X159307114Y-125298994D01*
X159161217Y-125229529D01*
X159018997Y-125150300D01*
X158881327Y-125061908D01*
X158749078Y-124964949D01*
X158623120Y-124860022D01*
X158504325Y-124747726D01*
X158393566Y-124628659D01*
X158291711Y-124503419D01*
X158199634Y-124372605D01*
X158118205Y-124236814D01*
X158048296Y-124096646D01*
X157887167Y-123737954D01*
X157725951Y-123942910D01*
X157684548Y-123999139D01*
X157644787Y-124060220D01*
X157606862Y-124125537D01*
X157570967Y-124194470D01*
X157537295Y-124266401D01*
X157506042Y-124340712D01*
X157477401Y-124416786D01*
X157451567Y-124494003D01*
X157428734Y-124571745D01*
X157409095Y-124649395D01*
X157392845Y-124726335D01*
X157380179Y-124801945D01*
X157371289Y-124875608D01*
X157366371Y-124946706D01*
X157365619Y-125014620D01*
X157369227Y-125078732D01*
X157373037Y-125109354D01*
X157378956Y-125143490D01*
X157386859Y-125180777D01*
X157396621Y-125220853D01*
X157408118Y-125263354D01*
X157421223Y-125307917D01*
X157451758Y-125401776D01*
X157487228Y-125499525D01*
X157526631Y-125598259D01*
X157568967Y-125695072D01*
X157590922Y-125741851D01*
X157613234Y-125787061D01*
X157657543Y-125877863D01*
X157694763Y-125961145D01*
X157724959Y-126036653D01*
X157748196Y-126104133D01*
X157764540Y-126163331D01*
X157774057Y-126213993D01*
X157776275Y-126236044D01*
X157776811Y-126255866D01*
X157775672Y-126273427D01*
X157772868Y-126288696D01*
X157768405Y-126301640D01*
X157762293Y-126312228D01*
X157754539Y-126320429D01*
X157745152Y-126326210D01*
X157734139Y-126329540D01*
X157721510Y-126330387D01*
X157707271Y-126328720D01*
X157691432Y-126324506D01*
X157674001Y-126317714D01*
X157654984Y-126308313D01*
X157634392Y-126296269D01*
X157612232Y-126281553D01*
X157563240Y-126243974D01*
X157508074Y-126195321D01*
X157442618Y-126128819D01*
X157377126Y-126051764D01*
X157312141Y-125965356D01*
X157248206Y-125870797D01*
X157185862Y-125769288D01*
X157125652Y-125662032D01*
X157068118Y-125550230D01*
X157013801Y-125435083D01*
X156963244Y-125317793D01*
X156916990Y-125199561D01*
X156875580Y-125081590D01*
X156839556Y-124965080D01*
X156809461Y-124851234D01*
X156785837Y-124741252D01*
X156769225Y-124636337D01*
X156760169Y-124537690D01*
X156758287Y-124442583D01*
X156762149Y-124340495D01*
X156771353Y-124232863D01*
X156785498Y-124121121D01*
X156804183Y-124006704D01*
X156827009Y-123891047D01*
X156853573Y-123775585D01*
X156883475Y-123661753D01*
X156916314Y-123550985D01*
X156921492Y-123535430D01*
X158701026Y-123535430D01*
X158702024Y-123552868D01*
X158705215Y-123572704D01*
X158710488Y-123594747D01*
X158726820Y-123644702D01*
X158750115Y-123701221D01*
X158779465Y-123762792D01*
X158813964Y-123827902D01*
X158852706Y-123895041D01*
X158894784Y-123962696D01*
X158939291Y-124029355D01*
X158985321Y-124093506D01*
X159031968Y-124153637D01*
X159078324Y-124208237D01*
X159123484Y-124255792D01*
X159166540Y-124294792D01*
X159186997Y-124310611D01*
X159206587Y-124323724D01*
X159302201Y-124380543D01*
X159394407Y-124431957D01*
X159483092Y-124477940D01*
X159568141Y-124518465D01*
X159649439Y-124553506D01*
X159726872Y-124583035D01*
X159800325Y-124607026D01*
X159869685Y-124625453D01*
X159934835Y-124638289D01*
X159995663Y-124645508D01*
X160052053Y-124647083D01*
X160103891Y-124642986D01*
X160151063Y-124633193D01*
X160193454Y-124617676D01*
X160212820Y-124607762D01*
X160230949Y-124596408D01*
X160247825Y-124583610D01*
X160263434Y-124569363D01*
X160267693Y-124563365D01*
X160270423Y-124555515D01*
X160271675Y-124545904D01*
X160271503Y-124534625D01*
X160269956Y-124521772D01*
X160267088Y-124507436D01*
X160257595Y-124474688D01*
X160243438Y-124437123D01*
X160225032Y-124395481D01*
X160202792Y-124350503D01*
X160177133Y-124302930D01*
X160148469Y-124253503D01*
X160117216Y-124202963D01*
X160083789Y-124152051D01*
X160048602Y-124101508D01*
X160012071Y-124052075D01*
X159974611Y-124004492D01*
X159936636Y-123959502D01*
X159898562Y-123917844D01*
X159887565Y-123905901D01*
X159876878Y-123893433D01*
X159866554Y-123880543D01*
X159856649Y-123867330D01*
X159847218Y-123853897D01*
X159838318Y-123840344D01*
X159830002Y-123826772D01*
X159822327Y-123813284D01*
X159815348Y-123799979D01*
X159809120Y-123786959D01*
X159803698Y-123774326D01*
X159799138Y-123762180D01*
X159795495Y-123750623D01*
X159792824Y-123739755D01*
X159791181Y-123729679D01*
X159790621Y-123720494D01*
X159790517Y-123716231D01*
X159790208Y-123712150D01*
X159789700Y-123708252D01*
X159788997Y-123704541D01*
X159788105Y-123701017D01*
X159787029Y-123697684D01*
X159785773Y-123694543D01*
X159784343Y-123691598D01*
X159782744Y-123688850D01*
X159780981Y-123686301D01*
X159779060Y-123683954D01*
X159776985Y-123681811D01*
X159774761Y-123679874D01*
X159772393Y-123678145D01*
X159769888Y-123676628D01*
X159767249Y-123675323D01*
X159764481Y-123674233D01*
X159761591Y-123673362D01*
X159758582Y-123672709D01*
X159755461Y-123672279D01*
X159752232Y-123672073D01*
X159748900Y-123672094D01*
X159745471Y-123672344D01*
X159741949Y-123672824D01*
X159738339Y-123673538D01*
X159734648Y-123674488D01*
X159730879Y-123675675D01*
X159727038Y-123677102D01*
X159723130Y-123678772D01*
X159719160Y-123680686D01*
X159715133Y-123682847D01*
X159711054Y-123685258D01*
X159706910Y-123687671D01*
X159702687Y-123689842D01*
X159698394Y-123691772D01*
X159694039Y-123693463D01*
X159689630Y-123694918D01*
X159685176Y-123696139D01*
X159680686Y-123697127D01*
X159676167Y-123697886D01*
X159671627Y-123698416D01*
X159667076Y-123698720D01*
X159662522Y-123698800D01*
X159657972Y-123698659D01*
X159653436Y-123698298D01*
X159648921Y-123697719D01*
X159644436Y-123696925D01*
X159639990Y-123695917D01*
X159635590Y-123694699D01*
X159631245Y-123693271D01*
X159626963Y-123691636D01*
X159622753Y-123689796D01*
X159618623Y-123687754D01*
X159614581Y-123685511D01*
X159610636Y-123683069D01*
X159606796Y-123680430D01*
X159603070Y-123677597D01*
X159599465Y-123674572D01*
X159595990Y-123671357D01*
X159592653Y-123667954D01*
X159589464Y-123664364D01*
X159586429Y-123660591D01*
X159583558Y-123656636D01*
X159580859Y-123652501D01*
X159573567Y-123643779D01*
X159562509Y-123634873D01*
X159530086Y-123616682D01*
X159485580Y-123598280D01*
X159430978Y-123580018D01*
X159368270Y-123562246D01*
X159299445Y-123545314D01*
X159226492Y-123529574D01*
X159151400Y-123515376D01*
X159076158Y-123503071D01*
X159002754Y-123493009D01*
X158933178Y-123485541D01*
X158869419Y-123481018D01*
X158813465Y-123479790D01*
X158767306Y-123482209D01*
X158748521Y-123484895D01*
X158732931Y-123488624D01*
X158720784Y-123493440D01*
X158712328Y-123499387D01*
X158706065Y-123508500D01*
X158702335Y-123520578D01*
X158701026Y-123535430D01*
X156921492Y-123535430D01*
X156951689Y-123444716D01*
X156989199Y-123344382D01*
X157028444Y-123251417D01*
X157049784Y-123207158D01*
X159718571Y-123207158D01*
X159721569Y-123248370D01*
X159727752Y-123291050D01*
X159737265Y-123335118D01*
X159746276Y-123369104D01*
X159755458Y-123399461D01*
X159765025Y-123426329D01*
X159770019Y-123438499D01*
X159775191Y-123449850D01*
X159780565Y-123460399D01*
X159786169Y-123470163D01*
X159792030Y-123479161D01*
X159798174Y-123487410D01*
X159804628Y-123494927D01*
X159811419Y-123501731D01*
X159818574Y-123507838D01*
X159826118Y-123513266D01*
X159834080Y-123518033D01*
X159842486Y-123522156D01*
X159851362Y-123525654D01*
X159860735Y-123528542D01*
X159870632Y-123530840D01*
X159881079Y-123532565D01*
X159892104Y-123533733D01*
X159903733Y-123534364D01*
X159915993Y-123534474D01*
X159928910Y-123534081D01*
X159956825Y-123531855D01*
X159987690Y-123527829D01*
X160021719Y-123522141D01*
X160045515Y-123517293D01*
X160069924Y-123511298D01*
X160094768Y-123504243D01*
X160119864Y-123496213D01*
X160145032Y-123487294D01*
X160170090Y-123477571D01*
X160194858Y-123467130D01*
X160219155Y-123456057D01*
X160242799Y-123444438D01*
X160265609Y-123432359D01*
X160287405Y-123419905D01*
X160308006Y-123407161D01*
X160327229Y-123394215D01*
X160344895Y-123381150D01*
X160360823Y-123368054D01*
X160374831Y-123355012D01*
X160374819Y-123355012D01*
X160394287Y-123334968D01*
X160403017Y-123325452D01*
X160411076Y-123316218D01*
X160418461Y-123307225D01*
X160425168Y-123298432D01*
X160429207Y-123292647D01*
X160721548Y-123292647D01*
X160725075Y-123369445D01*
X160733376Y-123446399D01*
X160746439Y-123523755D01*
X160764253Y-123601761D01*
X160786806Y-123680663D01*
X160814087Y-123760707D01*
X160846083Y-123842141D01*
X160861995Y-123879061D01*
X160877875Y-123913568D01*
X160893728Y-123945663D01*
X160909560Y-123975344D01*
X160925378Y-124002612D01*
X160941186Y-124027466D01*
X160956990Y-124049907D01*
X160972797Y-124069934D01*
X160988612Y-124087546D01*
X161004440Y-124102745D01*
X161020288Y-124115529D01*
X161036162Y-124125899D01*
X161052066Y-124133854D01*
X161068007Y-124139395D01*
X161083991Y-124142520D01*
X161100023Y-124143230D01*
X161116110Y-124141524D01*
X161132256Y-124137403D01*
X161148468Y-124130866D01*
X161164751Y-124121914D01*
X161181111Y-124110545D01*
X161197555Y-124096760D01*
X161214087Y-124080558D01*
X161230714Y-124061940D01*
X161247440Y-124040905D01*
X161264273Y-124017453D01*
X161281218Y-123991584D01*
X161298280Y-123963297D01*
X161315465Y-123932593D01*
X161332780Y-123899471D01*
X161350229Y-123863932D01*
X161367819Y-123825974D01*
X161367823Y-123825963D01*
X161398930Y-123750804D01*
X161425059Y-123674378D01*
X161446214Y-123596740D01*
X161462399Y-123517944D01*
X161473617Y-123438044D01*
X161479873Y-123357093D01*
X161481171Y-123275147D01*
X161477514Y-123192260D01*
X161468907Y-123108486D01*
X161455353Y-123023878D01*
X161436857Y-122938492D01*
X161413423Y-122852380D01*
X161385054Y-122765599D01*
X161351755Y-122678202D01*
X161313529Y-122590242D01*
X161270380Y-122501775D01*
X161099455Y-122169339D01*
X160906573Y-122567784D01*
X160866606Y-122654279D01*
X160831519Y-122738709D01*
X160801299Y-122821322D01*
X160775935Y-122902364D01*
X160755416Y-122982082D01*
X160739729Y-123060723D01*
X160728863Y-123138533D01*
X160722807Y-123215759D01*
X160721548Y-123292647D01*
X160429207Y-123292647D01*
X160431197Y-123289797D01*
X160436544Y-123281280D01*
X160441206Y-123272839D01*
X160445182Y-123264434D01*
X160448469Y-123256022D01*
X160451065Y-123247563D01*
X160452966Y-123239016D01*
X160454171Y-123230339D01*
X160454677Y-123221491D01*
X160454482Y-123212431D01*
X160453582Y-123203118D01*
X160451977Y-123193510D01*
X160449663Y-123183567D01*
X160446638Y-123173248D01*
X160442899Y-123162510D01*
X160438444Y-123151313D01*
X160433270Y-123139616D01*
X160427376Y-123127378D01*
X160420757Y-123114557D01*
X160413414Y-123101112D01*
X160396538Y-123072186D01*
X160376729Y-123040271D01*
X160353968Y-123005036D01*
X160328757Y-122969370D01*
X160302454Y-122937460D01*
X160275209Y-122909226D01*
X160247167Y-122884589D01*
X160218477Y-122863472D01*
X160189286Y-122845794D01*
X160159741Y-122831477D01*
X160129990Y-122820442D01*
X160100179Y-122812611D01*
X160070458Y-122807904D01*
X160040971Y-122806242D01*
X160011868Y-122807546D01*
X159983296Y-122811738D01*
X159955402Y-122818740D01*
X159928333Y-122828470D01*
X159902236Y-122840852D01*
X159877260Y-122855806D01*
X159853552Y-122873253D01*
X159831258Y-122893114D01*
X159810527Y-122915311D01*
X159791505Y-122939764D01*
X159774341Y-122966395D01*
X159759181Y-122995125D01*
X159746173Y-123025874D01*
X159735464Y-123058565D01*
X159727202Y-123093117D01*
X159721535Y-123129453D01*
X159718608Y-123167493D01*
X159718571Y-123207158D01*
X157049784Y-123207158D01*
X157069023Y-123167257D01*
X157110534Y-123093335D01*
X157152576Y-123031088D01*
X157194750Y-122981950D01*
X157207595Y-122968453D01*
X157219326Y-122954809D01*
X157229915Y-122941110D01*
X157239333Y-122927449D01*
X157247552Y-122913920D01*
X157254543Y-122900616D01*
X157260278Y-122887630D01*
X157264727Y-122875054D01*
X157267862Y-122862982D01*
X157268927Y-122857164D01*
X157269654Y-122851507D01*
X157270038Y-122846022D01*
X157270075Y-122840722D01*
X157269762Y-122835617D01*
X157269096Y-122830720D01*
X157268073Y-122826041D01*
X157266689Y-122821594D01*
X157264941Y-122817389D01*
X157262824Y-122813437D01*
X157260337Y-122809752D01*
X157257474Y-122806343D01*
X157254232Y-122803224D01*
X157250609Y-122800404D01*
X157239979Y-122791561D01*
X157229049Y-122779737D01*
X157217855Y-122765064D01*
X157206432Y-122747670D01*
X157183046Y-122705242D01*
X157159180Y-122653492D01*
X157144464Y-122616770D01*
X158720798Y-122616770D01*
X158721376Y-122626439D01*
X158723636Y-122634278D01*
X158727644Y-122640183D01*
X158731752Y-122643149D01*
X158737831Y-122645835D01*
X158755717Y-122650374D01*
X158780936Y-122653815D01*
X158813120Y-122656172D01*
X158851900Y-122657460D01*
X158896909Y-122657695D01*
X158947778Y-122656890D01*
X159004141Y-122655059D01*
X159131873Y-122648382D01*
X159277161Y-122637779D01*
X159437062Y-122623369D01*
X159608633Y-122605267D01*
X159608630Y-122605264D01*
X159624301Y-122602456D01*
X159641505Y-122597458D01*
X159660135Y-122590371D01*
X159680081Y-122581295D01*
X159723494Y-122557577D01*
X159770884Y-122527107D01*
X159821388Y-122490689D01*
X159874146Y-122449126D01*
X159928295Y-122403219D01*
X159982975Y-122353773D01*
X160037323Y-122301591D01*
X160090478Y-122247476D01*
X160141579Y-122192230D01*
X160189764Y-122136656D01*
X160234171Y-122081559D01*
X160273939Y-122027740D01*
X160308206Y-121976003D01*
X160336111Y-121927152D01*
X160353503Y-121893145D01*
X160368165Y-121863076D01*
X160379910Y-121836672D01*
X160384630Y-121824759D01*
X160388552Y-121813662D01*
X160391651Y-121803345D01*
X160393904Y-121793776D01*
X160395288Y-121784919D01*
X160395781Y-121776741D01*
X160395357Y-121769209D01*
X160393995Y-121762289D01*
X160391670Y-121755946D01*
X160388360Y-121750146D01*
X160384041Y-121744857D01*
X160378690Y-121740043D01*
X160372284Y-121735671D01*
X160364798Y-121731708D01*
X160356211Y-121728119D01*
X160346499Y-121724870D01*
X160335637Y-121721928D01*
X160323604Y-121719258D01*
X160295929Y-121714602D01*
X160263286Y-121710629D01*
X160225490Y-121707070D01*
X160182353Y-121703652D01*
X160115232Y-121700656D01*
X160045426Y-121701372D01*
X159973566Y-121705619D01*
X159900282Y-121713219D01*
X159826206Y-121723992D01*
X159751969Y-121737758D01*
X159678200Y-121754337D01*
X159605532Y-121773551D01*
X159534594Y-121795220D01*
X159466017Y-121819163D01*
X159400433Y-121845203D01*
X159338472Y-121873158D01*
X159280765Y-121902849D01*
X159227943Y-121934097D01*
X159180636Y-121966723D01*
X159139475Y-122000546D01*
X159100197Y-122038072D01*
X159060261Y-122079748D01*
X159020195Y-122124757D01*
X158980528Y-122172279D01*
X158941786Y-122221493D01*
X158904498Y-122271581D01*
X158869191Y-122321722D01*
X158836392Y-122371098D01*
X158806630Y-122418888D01*
X158780433Y-122464273D01*
X158758327Y-122506434D01*
X158740841Y-122544550D01*
X158728501Y-122577803D01*
X158721837Y-122605373D01*
X158720798Y-122616770D01*
X157144464Y-122616770D01*
X157135122Y-122593458D01*
X157111160Y-122526178D01*
X157087584Y-122452692D01*
X157064681Y-122374037D01*
X157042740Y-122291252D01*
X157022049Y-122205376D01*
X157002897Y-122117447D01*
X156985573Y-122028504D01*
X156970365Y-121939586D01*
X156957562Y-121851730D01*
X156947451Y-121765976D01*
X156940321Y-121683362D01*
X156936674Y-121543481D01*
X156944043Y-121398400D01*
X156961722Y-121249725D01*
X156989001Y-121099057D01*
X157025173Y-120948001D01*
X157069529Y-120798162D01*
X157121362Y-120651141D01*
X157179963Y-120508544D01*
X157244624Y-120371973D01*
X157314638Y-120243034D01*
X157389295Y-120123329D01*
X157467889Y-120014461D01*
X157549710Y-119918036D01*
X157634051Y-119835656D01*
X157720203Y-119768926D01*
X157763738Y-119741931D01*
X157807459Y-119719449D01*
X157893053Y-119680822D01*
X157928214Y-119665923D01*
X157958720Y-119654045D01*
X157984901Y-119645247D01*
X158007085Y-119639588D01*
X158016780Y-119637955D01*
X158025598Y-119637128D01*
X158033582Y-119637115D01*
X158040770Y-119637924D01*
X158047206Y-119639562D01*
X158052929Y-119642036D01*
X158057981Y-119645354D01*
X158062402Y-119649523D01*
X158066235Y-119654550D01*
X158069518Y-119660444D01*
X158072295Y-119667210D01*
X158074605Y-119674857D01*
X158077990Y-119692821D01*
X158080002Y-119714396D01*
X158080968Y-119739640D01*
X158081217Y-119768613D01*
X158080994Y-119775959D01*
X158080332Y-119783596D01*
X158077734Y-119799665D01*
X158073512Y-119816674D01*
X158067752Y-119834473D01*
X158060543Y-119852917D01*
X158051971Y-119871857D01*
X158042125Y-119891147D01*
X158031091Y-119910639D01*
X158018958Y-119930185D01*
X158005812Y-119949638D01*
X157991741Y-119968850D01*
X157976833Y-119987675D01*
X157961175Y-120005965D01*
X157944855Y-120023572D01*
X157927960Y-120040349D01*
X157910578Y-120056149D01*
X157875248Y-120089158D01*
X157841544Y-120125387D01*
X157809488Y-120164660D01*
X157779101Y-120206803D01*
X157750404Y-120251641D01*
X157723418Y-120299001D01*
X157698166Y-120348707D01*
X157674667Y-120400584D01*
X157633018Y-120510156D01*
X157598642Y-120626319D01*
X157571709Y-120747677D01*
X157552390Y-120872832D01*
X157540855Y-121000388D01*
X157537275Y-121128948D01*
X157541821Y-121257115D01*
X157554663Y-121383492D01*
X157575971Y-121506682D01*
X157605916Y-121625289D01*
X157624181Y-121682437D01*
X157644669Y-121737915D01*
X157667402Y-121791549D01*
X157692400Y-121843163D01*
X157704908Y-121866241D01*
X157718104Y-121888506D01*
X157731920Y-121909924D01*
X157746282Y-121930465D01*
X157761120Y-121950096D01*
X157776363Y-121968784D01*
X157791939Y-121986498D01*
X157807777Y-122003206D01*
X157823806Y-122018875D01*
X157839954Y-122033473D01*
X157856151Y-122046968D01*
X157872324Y-122059328D01*
X157888404Y-122070520D01*
X157904317Y-122080513D01*
X157919994Y-122089275D01*
X157935363Y-122096773D01*
X157950353Y-122102974D01*
X157964892Y-122107848D01*
X157978909Y-122111361D01*
X157992333Y-122113482D01*
X158005093Y-122114179D01*
X158017117Y-122113418D01*
X158028334Y-122111169D01*
X158038673Y-122107399D01*
X158048062Y-122102076D01*
X158056431Y-122095167D01*
X158063707Y-122086640D01*
X158069821Y-122076464D01*
X158074700Y-122064606D01*
X158078273Y-122051035D01*
X158080469Y-122035717D01*
X158081217Y-122018620D01*
X158081669Y-122009011D01*
X158082994Y-121998620D01*
X158085148Y-121987546D01*
X158088086Y-121975888D01*
X158091764Y-121963744D01*
X158096137Y-121951213D01*
X158101160Y-121938394D01*
X158106789Y-121925385D01*
X158112978Y-121912285D01*
X158119685Y-121899192D01*
X158126863Y-121886205D01*
X158134468Y-121873422D01*
X158142456Y-121860943D01*
X158150782Y-121848865D01*
X158159401Y-121837288D01*
X158168269Y-121826310D01*
X158273223Y-121700445D01*
X158403315Y-121542794D01*
X158431714Y-121509966D01*
X158462716Y-121477441D01*
X158532059Y-121413493D01*
X158610403Y-121351335D01*
X158696806Y-121291352D01*
X158790327Y-121233929D01*
X158890023Y-121179453D01*
X158994953Y-121128307D01*
X159104175Y-121080879D01*
X159216748Y-121037552D01*
X159331730Y-120998712D01*
X159448178Y-120964744D01*
X159565153Y-120936035D01*
X159681710Y-120912969D01*
X159796910Y-120895931D01*
X159909810Y-120885307D01*
X160019469Y-120881482D01*
X160547465Y-120880158D01*
X160373412Y-120532452D01*
X160342161Y-120472210D01*
X160309675Y-120413866D01*
X160275970Y-120357429D01*
X160241061Y-120302908D01*
X160204962Y-120250312D01*
X160167687Y-120199650D01*
X160129253Y-120150932D01*
X160089673Y-120104166D01*
X160048963Y-120059362D01*
X160007137Y-120016529D01*
X159964209Y-119975674D01*
X159920196Y-119936809D01*
X159875111Y-119899941D01*
X159828970Y-119865080D01*
X159781787Y-119832235D01*
X159733578Y-119801415D01*
X159684356Y-119772628D01*
X159634137Y-119745885D01*
X159582935Y-119721194D01*
X159530766Y-119698564D01*
X159477643Y-119678004D01*
X159423583Y-119659523D01*
X159368600Y-119643131D01*
X159312708Y-119628836D01*
X159255922Y-119616648D01*
X159198258Y-119606574D01*
X159139730Y-119598626D01*
X159080352Y-119592811D01*
X159020140Y-119589139D01*
X158959109Y-119587618D01*
X158897273Y-119588259D01*
X158834647Y-119591069D01*
X158800494Y-119592650D01*
X158767841Y-119593106D01*
X158736720Y-119592481D01*
X158707159Y-119590820D01*
X158679190Y-119588165D01*
X158652843Y-119584563D01*
X158628149Y-119580057D01*
X158605137Y-119574691D01*
X158583838Y-119568509D01*
X158564283Y-119561556D01*
X158546502Y-119553876D01*
X158530525Y-119545513D01*
X158516382Y-119536511D01*
X158504105Y-119526914D01*
X158493723Y-119516768D01*
X158485267Y-119506115D01*
X158478767Y-119495000D01*
X158474253Y-119483468D01*
X158471756Y-119471562D01*
X158471307Y-119459326D01*
X158472935Y-119446806D01*
X158476671Y-119434045D01*
X158482546Y-119421087D01*
X158490590Y-119407977D01*
X158500832Y-119394759D01*
X158513304Y-119381477D01*
X158528037Y-119368174D01*
X158545059Y-119354897D01*
X158564402Y-119341688D01*
X158586097Y-119328591D01*
X158610172Y-119315652D01*
X158636660Y-119302914D01*
X158695158Y-119281832D01*
X158767501Y-119264964D01*
X158851905Y-119252194D01*
X158946587Y-119243408D01*
X159049762Y-119238488D01*
X159159646Y-119237320D01*
X159274457Y-119239788D01*
G37*
%TD.AperFunction*%
%TD*%
D12*
%TO.P,D4,1,K*%
%TO.N,GND*%
X169270000Y-120000000D03*
D13*
%TO.P,D4,2,A*%
%TO.N,+3.3V*%
X166730000Y-120000000D03*
%TD*%
D12*
%TO.P,D2,1,K*%
%TO.N,GND*%
X123725000Y-85000000D03*
D13*
%TO.P,D2,2,A*%
%TO.N,+3.3V*%
X126265000Y-85000000D03*
%TD*%
D12*
%TO.P,D1,1,K*%
%TO.N,GND*%
X123725000Y-120000000D03*
D13*
%TO.P,D1,2,A*%
%TO.N,+3.3V*%
X126265000Y-120000000D03*
%TD*%
D14*
%TO.P,J1,1,Pin_1*%
%TO.N,unconnected-(J1-Pin_1-Pad1)*%
X149500000Y-124500000D03*
D15*
%TO.P,J1,2,Pin_2*%
%TO.N,unconnected-(J1-Pin_2-Pad2)*%
X149500000Y-127040000D03*
%TO.P,J1,3,Pin_3*%
%TO.N,unconnected-(J1-Pin_3-Pad3)*%
X146960000Y-124500000D03*
%TO.P,J1,4,Pin_4*%
%TO.N,unconnected-(J1-Pin_4-Pad4)*%
X146960000Y-127040000D03*
%TO.P,J1,5,Pin_5*%
%TO.N,+3.3V*%
X144420000Y-124500000D03*
%TO.P,J1,6,Pin_6*%
%TO.N,GND*%
X144420000Y-127040000D03*
%TD*%
D12*
%TO.P,D3,1,K*%
%TO.N,GND*%
X169275000Y-85000000D03*
D13*
%TO.P,D3,2,A*%
%TO.N,+3.3V*%
X166735000Y-85000000D03*
%TD*%
M02*
