%TF.GenerationSoftware,KiCad,Pcbnew,9.0.4*%
%TF.CreationDate,2025-10-07T14:54:38-07:00*%
%TF.ProjectId,DC34_Cnet_Badge_SAO,44433334-5f43-46e6-9574-5f4261646765,rev?*%
%TF.SameCoordinates,Original*%
%TF.FileFunction,Copper,L2,Bot*%
%TF.FilePolarity,Positive*%
%FSLAX46Y46*%
G04 Gerber Fmt 4.6, Leading zero omitted, Abs format (unit mm)*
G04 Created by KiCad (PCBNEW 9.0.4) date 2025-10-07 14:54:38*
%MOMM*%
%LPD*%
G01*
G04 APERTURE LIST*
%TA.AperFunction,ComponentPad*%
%ADD10R,1.800000X1.800000*%
%TD*%
%TA.AperFunction,ComponentPad*%
%ADD11C,1.800000*%
%TD*%
%TA.AperFunction,ComponentPad*%
%ADD12R,1.700000X1.700000*%
%TD*%
%TA.AperFunction,ComponentPad*%
%ADD13O,1.700000X1.700000*%
%TD*%
%TA.AperFunction,Conductor*%
%ADD14C,0.250000*%
%TD*%
G04 APERTURE END LIST*
D10*
%TO.P,D4,1,K*%
%TO.N,GND*%
X169270000Y-120000000D03*
D11*
%TO.P,D4,2,A*%
%TO.N,+3.3V*%
X166730000Y-120000000D03*
%TD*%
D10*
%TO.P,D2,1,K*%
%TO.N,GND*%
X123725000Y-85000000D03*
D11*
%TO.P,D2,2,A*%
%TO.N,+3.3V*%
X126265000Y-85000000D03*
%TD*%
D10*
%TO.P,D1,1,K*%
%TO.N,GND*%
X123725000Y-120000000D03*
D11*
%TO.P,D1,2,A*%
%TO.N,+3.3V*%
X126265000Y-120000000D03*
%TD*%
D12*
%TO.P,J1,1,Pin_1*%
%TO.N,unconnected-(J1-Pin_1-Pad1)*%
X149500000Y-124500000D03*
D13*
%TO.P,J1,2,Pin_2*%
%TO.N,unconnected-(J1-Pin_2-Pad2)*%
X149500000Y-127040000D03*
%TO.P,J1,3,Pin_3*%
%TO.N,unconnected-(J1-Pin_3-Pad3)*%
X146960000Y-124500000D03*
%TO.P,J1,4,Pin_4*%
%TO.N,unconnected-(J1-Pin_4-Pad4)*%
X146960000Y-127040000D03*
%TO.P,J1,5,Pin_5*%
%TO.N,+3.3V*%
X144420000Y-124500000D03*
%TO.P,J1,6,Pin_6*%
%TO.N,GND*%
X144420000Y-127040000D03*
%TD*%
D10*
%TO.P,D3,1,K*%
%TO.N,GND*%
X169275000Y-85000000D03*
D11*
%TO.P,D3,2,A*%
%TO.N,+3.3V*%
X166735000Y-85000000D03*
%TD*%
D14*
%TO.N,+3.3V*%
X148920000Y-120000000D02*
X166730000Y-120000000D01*
X144420000Y-124500000D02*
X148920000Y-120000000D01*
%TO.N,GND*%
X163406000Y-125864000D02*
X169270000Y-120000000D01*
X144420000Y-127040000D02*
X145596000Y-125864000D01*
X145596000Y-125864000D02*
X163406000Y-125864000D01*
X130765000Y-127040000D02*
X144420000Y-127040000D01*
X123725000Y-120000000D02*
X130765000Y-127040000D01*
%TO.N,+3.3V*%
X139920000Y-120000000D02*
X144420000Y-124500000D01*
X126265000Y-120000000D02*
X139920000Y-120000000D01*
%TO.N,GND*%
X123725000Y-120000000D02*
X123725000Y-85000000D01*
%TO.N,+3.3V*%
X126265000Y-120000000D02*
X126265000Y-85000000D01*
X166730000Y-85005000D02*
X166735000Y-85000000D01*
X166730000Y-120000000D02*
X166730000Y-85005000D01*
%TO.N,GND*%
X169270000Y-120000000D02*
X169270000Y-85005000D01*
X169270000Y-85005000D02*
X169275000Y-85000000D01*
%TD*%
M02*
