%TF.GenerationSoftware,KiCad,Pcbnew,9.0.5*%
%TF.CreationDate,2025-10-19T15:52:58-07:00*%
%TF.ProjectId,DC34_Cnet_Badge_SAO,44433334-5f43-46e6-9574-5f4261646765,rev?*%
%TF.SameCoordinates,Original*%
%TF.FileFunction,Legend,Top*%
%TF.FilePolarity,Positive*%
%FSLAX46Y46*%
G04 Gerber Fmt 4.6, Leading zero omitted, Abs format (unit mm)*
G04 Created by KiCad (PCBNEW 9.0.5) date 2025-10-19 15:52:58*
%MOMM*%
%LPD*%
G01*
G04 APERTURE LIST*
%ADD10C,0.000000*%
%ADD11C,0.150000*%
%ADD12C,0.120000*%
G04 APERTURE END LIST*
D10*
G36*
X147629111Y-112740388D02*
G01*
X159562698Y-112759319D01*
X159840649Y-112954472D01*
X159869795Y-112975834D01*
X159899754Y-112999504D01*
X159930303Y-113025237D01*
X159961217Y-113052784D01*
X159992271Y-113081901D01*
X160023241Y-113112340D01*
X160053901Y-113143855D01*
X160084027Y-113176200D01*
X160113395Y-113209128D01*
X160141779Y-113242392D01*
X160168956Y-113275747D01*
X160194700Y-113308945D01*
X160218787Y-113341740D01*
X160240992Y-113373886D01*
X160261090Y-113405135D01*
X160278857Y-113435243D01*
X160439115Y-113720859D01*
X160456161Y-121300989D01*
X160473207Y-128881115D01*
X147532740Y-128881115D01*
X134592266Y-128881115D01*
X134551400Y-128448422D01*
X134535609Y-127718968D01*
X134522819Y-126052691D01*
X134522177Y-125760394D01*
X154030249Y-125760394D01*
X154031659Y-125831725D01*
X154038451Y-125905710D01*
X154050910Y-125984396D01*
X154068627Y-126066882D01*
X154091199Y-126152266D01*
X154118216Y-126239648D01*
X154149274Y-126328127D01*
X154183964Y-126416801D01*
X154221882Y-126504768D01*
X154262619Y-126591129D01*
X154305770Y-126674981D01*
X154350928Y-126755423D01*
X154397686Y-126831555D01*
X154445638Y-126902474D01*
X154494376Y-126967280D01*
X154543496Y-127025072D01*
X154592589Y-127074948D01*
X154613852Y-127094243D01*
X154633964Y-127111437D01*
X154652918Y-127126556D01*
X154670708Y-127139621D01*
X154687328Y-127150658D01*
X154702772Y-127159691D01*
X154717035Y-127166742D01*
X154730108Y-127171835D01*
X154741988Y-127174996D01*
X154752667Y-127176246D01*
X154762139Y-127175611D01*
X154770398Y-127173113D01*
X154774071Y-127171173D01*
X154777438Y-127168777D01*
X154783254Y-127162627D01*
X154787838Y-127154685D01*
X154791185Y-127144977D01*
X154793288Y-127133526D01*
X154794142Y-127120355D01*
X154793740Y-127105488D01*
X154792076Y-127088950D01*
X154789145Y-127070764D01*
X154784939Y-127050954D01*
X154779453Y-127029543D01*
X154772681Y-127006555D01*
X154764616Y-126982015D01*
X154755252Y-126955946D01*
X154744584Y-126928371D01*
X154732605Y-126899315D01*
X154719309Y-126868802D01*
X154704690Y-126836854D01*
X154688742Y-126803497D01*
X154671459Y-126768753D01*
X154638257Y-126699761D01*
X154606504Y-126627151D01*
X154576951Y-126553100D01*
X154550349Y-126479788D01*
X154527447Y-126409393D01*
X154508996Y-126344095D01*
X154501675Y-126314038D01*
X154495748Y-126286072D01*
X154491310Y-126260470D01*
X154488453Y-126237504D01*
X154485747Y-126189420D01*
X154486312Y-126138485D01*
X154490000Y-126085162D01*
X154496667Y-126029915D01*
X154506167Y-125973207D01*
X154518354Y-125915503D01*
X154533083Y-125857266D01*
X154550208Y-125798959D01*
X154569584Y-125741046D01*
X154591065Y-125683991D01*
X154614504Y-125628257D01*
X154639758Y-125574308D01*
X154666679Y-125522608D01*
X154695123Y-125473621D01*
X154724944Y-125427809D01*
X154755996Y-125385637D01*
X154876909Y-125231923D01*
X154997755Y-125500939D01*
X155022851Y-125553885D01*
X155050188Y-125606066D01*
X155079684Y-125657426D01*
X155111260Y-125707909D01*
X155144831Y-125757459D01*
X155180318Y-125806020D01*
X155217638Y-125853536D01*
X155256709Y-125899951D01*
X155339779Y-125989251D01*
X155428875Y-126073473D01*
X155523343Y-126152168D01*
X155622530Y-126224888D01*
X155725783Y-126291182D01*
X155832447Y-126350604D01*
X155941870Y-126402703D01*
X156053398Y-126447031D01*
X156109747Y-126466141D01*
X156166377Y-126483140D01*
X156223207Y-126497972D01*
X156280154Y-126510581D01*
X156337138Y-126520910D01*
X156394076Y-126528904D01*
X156450887Y-126534507D01*
X156507489Y-126537662D01*
X156523658Y-126538425D01*
X156538910Y-126539591D01*
X156553248Y-126541171D01*
X156566674Y-126543172D01*
X156579191Y-126545605D01*
X156590801Y-126548479D01*
X156601507Y-126551803D01*
X156611312Y-126555586D01*
X156620218Y-126559838D01*
X156628228Y-126564567D01*
X156635344Y-126569783D01*
X156641569Y-126575495D01*
X156646905Y-126581712D01*
X156651355Y-126588445D01*
X156654922Y-126595701D01*
X156657608Y-126603490D01*
X156659416Y-126611821D01*
X156660348Y-126620704D01*
X156660407Y-126630148D01*
X156659595Y-126640162D01*
X156657915Y-126650755D01*
X156655370Y-126661937D01*
X156651962Y-126673716D01*
X156647694Y-126686103D01*
X156642568Y-126699106D01*
X156636587Y-126712734D01*
X156629754Y-126726997D01*
X156622070Y-126741903D01*
X156613539Y-126757463D01*
X156604164Y-126773686D01*
X156582888Y-126808155D01*
X156553722Y-126853197D01*
X156526489Y-126894086D01*
X156500819Y-126931171D01*
X156476341Y-126964803D01*
X156452686Y-126995331D01*
X156429486Y-127023105D01*
X156406369Y-127048475D01*
X156382966Y-127071790D01*
X156358909Y-127093402D01*
X156333826Y-127113659D01*
X156307349Y-127132912D01*
X156279107Y-127151510D01*
X156248732Y-127169804D01*
X156215853Y-127188143D01*
X156180101Y-127206877D01*
X156141106Y-127226356D01*
X156095093Y-127247208D01*
X156046756Y-127265898D01*
X155996459Y-127282399D01*
X155944566Y-127296685D01*
X155891440Y-127308729D01*
X155837446Y-127318505D01*
X155782947Y-127325986D01*
X155728308Y-127331145D01*
X155673893Y-127333956D01*
X155620064Y-127334392D01*
X155567187Y-127332427D01*
X155515625Y-127328033D01*
X155465742Y-127321186D01*
X155417901Y-127311856D01*
X155372468Y-127300020D01*
X155329806Y-127285648D01*
X155310717Y-127278948D01*
X155291906Y-127273429D01*
X155273425Y-127269053D01*
X155255323Y-127265778D01*
X155237650Y-127263567D01*
X155220457Y-127262379D01*
X155203794Y-127262174D01*
X155187712Y-127262914D01*
X155172261Y-127264558D01*
X155157491Y-127267067D01*
X155143453Y-127270402D01*
X155130197Y-127274522D01*
X155117773Y-127279388D01*
X155106231Y-127284961D01*
X155095623Y-127291201D01*
X155085997Y-127298069D01*
X155077406Y-127305524D01*
X155069898Y-127313527D01*
X155063525Y-127322040D01*
X155058337Y-127331021D01*
X155054383Y-127340432D01*
X155051715Y-127350233D01*
X155050382Y-127360384D01*
X155050436Y-127370846D01*
X155051926Y-127381579D01*
X155054903Y-127392544D01*
X155059416Y-127403701D01*
X155065518Y-127415010D01*
X155073256Y-127426432D01*
X155082683Y-127437928D01*
X155093849Y-127449457D01*
X155106803Y-127460980D01*
X155133803Y-127481461D01*
X155163669Y-127500551D01*
X155196250Y-127518254D01*
X155231393Y-127534571D01*
X155308758Y-127563058D01*
X155394546Y-127586031D01*
X155487542Y-127603506D01*
X155586528Y-127615503D01*
X155690287Y-127622040D01*
X155797602Y-127623135D01*
X155907257Y-127618805D01*
X156018034Y-127609070D01*
X156128717Y-127593947D01*
X156238089Y-127573454D01*
X156344932Y-127547610D01*
X156448031Y-127516432D01*
X156546168Y-127479939D01*
X156638126Y-127438149D01*
X156638126Y-127438241D01*
X156696791Y-127407450D01*
X156755491Y-127374093D01*
X156813792Y-127338539D01*
X156871258Y-127301155D01*
X156927457Y-127262312D01*
X156981952Y-127222378D01*
X157034310Y-127181723D01*
X157084097Y-127140714D01*
X157130877Y-127099721D01*
X157174216Y-127059114D01*
X157213680Y-127019260D01*
X157248834Y-126980530D01*
X157279244Y-126943291D01*
X157304475Y-126907913D01*
X157324093Y-126874765D01*
X157337663Y-126844215D01*
X157339423Y-126840675D01*
X157342157Y-126837141D01*
X157345838Y-126833618D01*
X157350441Y-126830112D01*
X157355938Y-126826628D01*
X157362303Y-126823172D01*
X157377536Y-126816364D01*
X157395928Y-126809730D01*
X157417270Y-126803313D01*
X157441353Y-126797157D01*
X157467966Y-126791304D01*
X157496900Y-126785797D01*
X157527945Y-126780679D01*
X157560892Y-126775993D01*
X157595530Y-126771782D01*
X157631650Y-126768088D01*
X157669042Y-126764955D01*
X157707496Y-126762425D01*
X157746804Y-126760542D01*
X157885179Y-126749369D01*
X158022316Y-126727043D01*
X158157438Y-126694135D01*
X158289770Y-126651213D01*
X158418537Y-126598848D01*
X158542965Y-126537607D01*
X158662278Y-126468061D01*
X158775701Y-126390778D01*
X158882459Y-126306329D01*
X158981777Y-126215282D01*
X159072880Y-126118206D01*
X159154993Y-126015672D01*
X159227341Y-125908248D01*
X159289148Y-125796503D01*
X159315857Y-125739189D01*
X159339640Y-125681008D01*
X159360401Y-125622032D01*
X159378042Y-125562331D01*
X159390406Y-125513668D01*
X159400627Y-125468208D01*
X159408702Y-125425941D01*
X159414631Y-125386860D01*
X159418412Y-125350956D01*
X159420043Y-125318219D01*
X159419524Y-125288641D01*
X159416852Y-125262214D01*
X159412028Y-125238929D01*
X159405049Y-125218776D01*
X159400751Y-125209872D01*
X159395913Y-125201748D01*
X159390537Y-125194403D01*
X159384621Y-125187836D01*
X159378165Y-125182045D01*
X159371170Y-125177030D01*
X159363634Y-125172789D01*
X159355559Y-125169322D01*
X159346943Y-125166628D01*
X159337786Y-125164704D01*
X159328089Y-125163551D01*
X159317851Y-125163167D01*
X159314922Y-125163355D01*
X159311915Y-125163915D01*
X159308835Y-125164837D01*
X159305689Y-125166111D01*
X159302483Y-125167728D01*
X159299225Y-125169679D01*
X159295920Y-125171956D01*
X159292575Y-125174548D01*
X159289196Y-125177446D01*
X159285791Y-125180641D01*
X159282364Y-125184125D01*
X159278924Y-125187886D01*
X159275475Y-125191918D01*
X159272026Y-125196209D01*
X159268581Y-125200751D01*
X159265148Y-125205535D01*
X159258343Y-125215791D01*
X159251662Y-125226903D01*
X159245157Y-125238796D01*
X159238879Y-125251397D01*
X159232879Y-125264632D01*
X159227211Y-125278426D01*
X159221924Y-125292707D01*
X159217072Y-125307400D01*
X159201617Y-125353199D01*
X159184057Y-125397917D01*
X159164449Y-125441520D01*
X159142848Y-125483975D01*
X159119309Y-125525247D01*
X159093889Y-125565303D01*
X159066643Y-125604110D01*
X159037627Y-125641633D01*
X159006897Y-125677839D01*
X158974508Y-125712694D01*
X158940516Y-125746165D01*
X158904977Y-125778218D01*
X158867947Y-125808820D01*
X158829481Y-125837936D01*
X158789635Y-125865533D01*
X158748465Y-125891577D01*
X158706026Y-125916035D01*
X158662375Y-125938873D01*
X158617567Y-125960058D01*
X158571657Y-125979555D01*
X158524702Y-125997331D01*
X158476757Y-126013352D01*
X158427879Y-126027585D01*
X158378122Y-126039996D01*
X158327542Y-126050552D01*
X158276195Y-126059218D01*
X158224138Y-126065961D01*
X158171425Y-126070747D01*
X158118113Y-126073543D01*
X158064256Y-126074316D01*
X158009912Y-126073030D01*
X157955135Y-126069653D01*
X157943193Y-126068275D01*
X157931926Y-126066138D01*
X157921337Y-126063273D01*
X157911429Y-126059707D01*
X157902206Y-126055470D01*
X157893671Y-126050590D01*
X157885826Y-126045097D01*
X157878676Y-126039019D01*
X157872224Y-126032386D01*
X157866473Y-126025225D01*
X157861425Y-126017566D01*
X157857085Y-126009437D01*
X157853456Y-126000868D01*
X157850540Y-125991888D01*
X157848342Y-125982524D01*
X157846864Y-125972807D01*
X157846110Y-125962765D01*
X157846082Y-125952427D01*
X157846785Y-125941821D01*
X157848221Y-125930976D01*
X157850394Y-125919923D01*
X157853307Y-125908688D01*
X157856963Y-125897301D01*
X157861366Y-125885791D01*
X157866519Y-125874188D01*
X157872424Y-125862518D01*
X157879086Y-125850813D01*
X157886507Y-125839099D01*
X157894691Y-125827407D01*
X157903641Y-125815765D01*
X157913360Y-125804202D01*
X157923852Y-125792746D01*
X157936570Y-125778235D01*
X157949324Y-125761360D01*
X157974809Y-125721014D01*
X158000052Y-125672699D01*
X158024794Y-125617404D01*
X158048780Y-125556120D01*
X158071752Y-125489838D01*
X158093452Y-125419548D01*
X158113625Y-125346240D01*
X158132014Y-125270904D01*
X158148360Y-125194532D01*
X158162408Y-125118113D01*
X158173900Y-125042639D01*
X158182580Y-124969098D01*
X158188190Y-124898482D01*
X158190474Y-124831781D01*
X158189175Y-124769985D01*
X158186690Y-124738037D01*
X158182595Y-124703668D01*
X158176980Y-124667197D01*
X158169941Y-124628944D01*
X158161568Y-124589228D01*
X158151956Y-124548368D01*
X158129383Y-124464494D01*
X158102966Y-124379877D01*
X158088547Y-124338088D01*
X158073446Y-124297072D01*
X158057755Y-124257148D01*
X158041567Y-124218634D01*
X158024975Y-124181851D01*
X158008072Y-124147117D01*
X157942750Y-124017506D01*
X157916954Y-123965011D01*
X157895672Y-123919963D01*
X157878855Y-123881793D01*
X157866455Y-123849930D01*
X157858424Y-123823806D01*
X157856032Y-123812718D01*
X157854714Y-123802850D01*
X157854464Y-123794132D01*
X157855277Y-123786493D01*
X157857146Y-123779862D01*
X157860065Y-123774166D01*
X157864028Y-123769335D01*
X157869030Y-123765298D01*
X157875064Y-123761983D01*
X157882124Y-123759319D01*
X157899298Y-123755661D01*
X157920506Y-123753754D01*
X157974827Y-123752911D01*
X158028909Y-123754621D01*
X158085734Y-123759617D01*
X158144743Y-123767703D01*
X158205375Y-123778680D01*
X158267071Y-123792351D01*
X158329270Y-123808518D01*
X158391413Y-123826982D01*
X158452938Y-123847548D01*
X158513286Y-123870015D01*
X158571898Y-123894188D01*
X158628212Y-123919867D01*
X158681669Y-123946856D01*
X158731708Y-123974956D01*
X158777771Y-124003970D01*
X158819295Y-124033700D01*
X158855722Y-124063947D01*
X158889900Y-124096942D01*
X158925505Y-124135154D01*
X158961906Y-124177571D01*
X158998471Y-124223178D01*
X159034571Y-124270963D01*
X159069574Y-124319911D01*
X159102850Y-124369008D01*
X159133769Y-124417241D01*
X159161699Y-124463596D01*
X159186009Y-124507059D01*
X159206070Y-124546617D01*
X159221250Y-124581256D01*
X159230919Y-124609962D01*
X159233490Y-124621774D01*
X159234446Y-124631722D01*
X159233709Y-124639679D01*
X159231200Y-124645521D01*
X159226840Y-124649118D01*
X159220551Y-124650346D01*
X159218800Y-124650516D01*
X159217251Y-124651020D01*
X159215902Y-124651851D01*
X159214751Y-124652999D01*
X159213796Y-124654457D01*
X159213035Y-124656216D01*
X159212465Y-124658267D01*
X159212085Y-124660603D01*
X159211892Y-124663216D01*
X159211883Y-124666096D01*
X159212058Y-124669235D01*
X159212413Y-124672626D01*
X159212947Y-124676259D01*
X159213658Y-124680127D01*
X159214543Y-124684221D01*
X159215599Y-124688533D01*
X159218221Y-124697777D01*
X159221506Y-124707792D01*
X159225436Y-124718512D01*
X159229995Y-124729870D01*
X159235165Y-124741799D01*
X159240929Y-124754232D01*
X159247270Y-124767104D01*
X159254171Y-124780348D01*
X159262493Y-124795166D01*
X159270879Y-124808678D01*
X159279309Y-124820896D01*
X159287759Y-124831832D01*
X159296209Y-124841499D01*
X159304637Y-124849910D01*
X159313022Y-124857077D01*
X159321342Y-124863013D01*
X159329575Y-124867730D01*
X159337701Y-124871241D01*
X159345696Y-124873558D01*
X159353541Y-124874694D01*
X159361212Y-124874662D01*
X159368690Y-124873474D01*
X159375952Y-124871143D01*
X159382976Y-124867680D01*
X159389742Y-124863100D01*
X159396227Y-124857414D01*
X159402411Y-124850635D01*
X159408271Y-124842775D01*
X159413786Y-124833847D01*
X159418934Y-124823864D01*
X159423694Y-124812838D01*
X159428045Y-124800782D01*
X159431965Y-124787708D01*
X159435431Y-124773629D01*
X159438424Y-124758557D01*
X159440921Y-124742506D01*
X159442900Y-124725487D01*
X159444340Y-124707513D01*
X159445221Y-124688597D01*
X159445519Y-124668751D01*
X159444346Y-124649134D01*
X159440905Y-124626385D01*
X159427664Y-124572335D01*
X159406699Y-124508293D01*
X159378911Y-124435950D01*
X159345204Y-124356999D01*
X159306478Y-124273131D01*
X159263636Y-124186039D01*
X159217581Y-124097415D01*
X159169214Y-124008950D01*
X159119438Y-123922337D01*
X159069155Y-123839267D01*
X159019266Y-123761433D01*
X158970675Y-123690527D01*
X158924283Y-123628241D01*
X158880993Y-123576266D01*
X158841706Y-123536295D01*
X158795218Y-123497725D01*
X158740343Y-123458033D01*
X158678309Y-123417744D01*
X158610344Y-123377387D01*
X158537676Y-123337490D01*
X158461533Y-123298580D01*
X158383143Y-123261184D01*
X158303733Y-123225830D01*
X158224532Y-123193046D01*
X158146768Y-123163358D01*
X158071669Y-123137295D01*
X158000463Y-123115384D01*
X157934377Y-123098153D01*
X157874640Y-123086129D01*
X157822480Y-123079840D01*
X157779125Y-123079813D01*
X157753251Y-123081690D01*
X157729541Y-123082710D01*
X157707925Y-123082839D01*
X157688335Y-123082045D01*
X157670704Y-123080297D01*
X157654963Y-123077563D01*
X157641044Y-123073809D01*
X157634747Y-123071540D01*
X157628880Y-123069005D01*
X157623434Y-123066198D01*
X157618401Y-123063117D01*
X157613773Y-123059757D01*
X157609541Y-123056114D01*
X157605696Y-123052184D01*
X157602230Y-123047963D01*
X157599135Y-123043448D01*
X157596401Y-123038633D01*
X157594021Y-123033516D01*
X157591986Y-123028092D01*
X157590288Y-123022356D01*
X157588917Y-123016306D01*
X157587125Y-123003245D01*
X157586543Y-122988875D01*
X157584851Y-122966331D01*
X157579872Y-122941643D01*
X157571756Y-122914968D01*
X157560650Y-122886463D01*
X157546703Y-122856286D01*
X157530063Y-122824593D01*
X157489297Y-122757289D01*
X157439537Y-122685808D01*
X157381971Y-122611407D01*
X157317783Y-122535344D01*
X157248160Y-122458875D01*
X157174288Y-122383257D01*
X157097353Y-122309748D01*
X157018540Y-122239604D01*
X156939037Y-122174083D01*
X156860028Y-122114440D01*
X156782700Y-122061935D01*
X156708239Y-122017822D01*
X156672454Y-121999306D01*
X156637831Y-121983360D01*
X156578681Y-121960869D01*
X156511183Y-121940325D01*
X156436677Y-121921813D01*
X156356500Y-121905422D01*
X156271989Y-121891237D01*
X156184483Y-121879345D01*
X156095320Y-121869833D01*
X156005837Y-121862788D01*
X155917373Y-121858297D01*
X155831266Y-121856446D01*
X155748852Y-121857321D01*
X155671471Y-121861011D01*
X155600460Y-121867601D01*
X155537158Y-121877178D01*
X155482901Y-121889829D01*
X155439028Y-121905640D01*
X155419162Y-121915194D01*
X155401106Y-121924898D01*
X155384835Y-121934720D01*
X155370327Y-121944627D01*
X155357561Y-121954585D01*
X155346511Y-121964562D01*
X155337157Y-121974524D01*
X155329475Y-121984438D01*
X155323443Y-121994271D01*
X155319036Y-122003989D01*
X155316234Y-122013560D01*
X155315013Y-122022950D01*
X155315350Y-122032127D01*
X155317223Y-122041056D01*
X155320608Y-122049706D01*
X155325483Y-122058042D01*
X155331825Y-122066032D01*
X155339612Y-122073642D01*
X155348820Y-122080840D01*
X155359427Y-122087591D01*
X155371409Y-122093864D01*
X155384745Y-122099624D01*
X155399412Y-122104839D01*
X155415386Y-122109475D01*
X155432645Y-122113500D01*
X155451166Y-122116880D01*
X155470926Y-122119581D01*
X155491902Y-122121572D01*
X155514073Y-122122818D01*
X155537414Y-122123287D01*
X155561903Y-122122945D01*
X155587518Y-122121759D01*
X155680865Y-122119171D01*
X155771797Y-122123065D01*
X155860227Y-122133387D01*
X155946064Y-122150083D01*
X156029220Y-122173099D01*
X156109607Y-122202379D01*
X156187135Y-122237870D01*
X156261716Y-122279517D01*
X156333261Y-122327267D01*
X156401680Y-122381063D01*
X156466885Y-122440853D01*
X156528788Y-122506582D01*
X156587299Y-122578195D01*
X156642329Y-122655638D01*
X156693789Y-122738857D01*
X156741592Y-122827797D01*
X156872132Y-123088576D01*
X156476135Y-123089569D01*
X156393891Y-123092438D01*
X156309215Y-123100406D01*
X156222815Y-123113185D01*
X156135397Y-123130484D01*
X156047666Y-123152016D01*
X155960329Y-123177492D01*
X155874093Y-123206621D01*
X155789663Y-123239116D01*
X155707746Y-123274687D01*
X155629049Y-123313046D01*
X155554277Y-123353903D01*
X155484136Y-123396969D01*
X155419334Y-123441956D01*
X155360576Y-123488575D01*
X155308569Y-123536536D01*
X155264019Y-123585550D01*
X155166451Y-123703791D01*
X155087734Y-123798190D01*
X155081084Y-123806423D01*
X155074620Y-123815105D01*
X155068376Y-123824163D01*
X155062385Y-123833522D01*
X155056681Y-123843108D01*
X155051298Y-123852848D01*
X155046268Y-123862667D01*
X155041626Y-123872492D01*
X155037404Y-123882249D01*
X155033636Y-123891863D01*
X155030357Y-123901261D01*
X155027598Y-123910369D01*
X155025394Y-123919113D01*
X155023779Y-123927418D01*
X155022785Y-123935212D01*
X155022446Y-123942420D01*
X155021885Y-123955242D01*
X155020238Y-123966731D01*
X155017558Y-123976910D01*
X155013899Y-123985804D01*
X155009314Y-123993436D01*
X155003856Y-123999831D01*
X154997579Y-124005013D01*
X154990537Y-124009006D01*
X154982783Y-124011834D01*
X154974370Y-124013521D01*
X154965352Y-124014091D01*
X154955783Y-124013569D01*
X154945715Y-124011978D01*
X154935202Y-124009344D01*
X154924298Y-124005688D01*
X154913055Y-124001037D01*
X154901529Y-123995414D01*
X154889771Y-123988843D01*
X154877836Y-123981348D01*
X154865776Y-123972953D01*
X154853646Y-123963683D01*
X154841498Y-123953562D01*
X154829387Y-123942613D01*
X154817366Y-123930862D01*
X154805487Y-123918331D01*
X154793805Y-123905045D01*
X154782373Y-123891028D01*
X154771244Y-123876305D01*
X154760473Y-123860899D01*
X154750111Y-123844835D01*
X154740214Y-123828136D01*
X154730833Y-123810827D01*
X154695034Y-123731891D01*
X154665969Y-123647422D01*
X154643510Y-123558467D01*
X154627528Y-123466075D01*
X154617897Y-123371292D01*
X154614487Y-123275167D01*
X154617172Y-123178747D01*
X154625823Y-123083080D01*
X154640313Y-122989214D01*
X154660513Y-122898195D01*
X154686295Y-122811073D01*
X154717532Y-122728894D01*
X154754095Y-122652707D01*
X154795858Y-122583559D01*
X154818648Y-122551951D01*
X154842691Y-122522497D01*
X154867969Y-122495326D01*
X154894467Y-122470569D01*
X154907503Y-122458720D01*
X154920174Y-122446137D01*
X154932415Y-122432932D01*
X154944158Y-122419215D01*
X154955339Y-122405096D01*
X154965892Y-122390686D01*
X154975751Y-122376096D01*
X154984851Y-122361436D01*
X154993127Y-122346817D01*
X155000512Y-122332349D01*
X155006940Y-122318144D01*
X155012347Y-122304310D01*
X155016667Y-122290960D01*
X155019834Y-122278204D01*
X155021782Y-122266152D01*
X155022446Y-122254914D01*
X155022259Y-122233184D01*
X155021534Y-122214251D01*
X155020892Y-122205819D01*
X155020024Y-122198069D01*
X155018899Y-122190997D01*
X155017485Y-122184596D01*
X155015752Y-122178861D01*
X155013669Y-122173786D01*
X155011206Y-122169366D01*
X155008332Y-122165596D01*
X155005015Y-122162469D01*
X155001226Y-122159981D01*
X154996934Y-122158125D01*
X154992107Y-122156897D01*
X154986715Y-122156290D01*
X154980727Y-122156300D01*
X154974113Y-122156920D01*
X154966841Y-122158146D01*
X154958882Y-122159971D01*
X154950204Y-122162390D01*
X154940776Y-122165398D01*
X154930568Y-122168989D01*
X154907689Y-122177898D01*
X154881320Y-122189073D01*
X154851214Y-122202470D01*
X154817127Y-122218044D01*
X154784337Y-122234905D01*
X154751686Y-122255152D01*
X154719242Y-122278633D01*
X154687072Y-122305200D01*
X154655241Y-122334700D01*
X154623817Y-122366984D01*
X154592864Y-122401902D01*
X154562451Y-122439303D01*
X154503506Y-122520953D01*
X154447513Y-122610732D01*
X154395003Y-122707436D01*
X154346506Y-122809864D01*
X154302555Y-122916811D01*
X154263681Y-123027077D01*
X154230413Y-123139456D01*
X154203284Y-123252748D01*
X154182825Y-123365748D01*
X154169566Y-123477255D01*
X154165802Y-123532072D01*
X154164038Y-123586065D01*
X154164340Y-123639083D01*
X154166774Y-123690976D01*
X154172121Y-123752937D01*
X154179704Y-123817253D01*
X154189307Y-123883145D01*
X154200713Y-123949834D01*
X154228070Y-124082488D01*
X154260043Y-124208983D01*
X154277221Y-124267974D01*
X154294903Y-124323089D01*
X154312874Y-124373549D01*
X154330918Y-124418574D01*
X154348818Y-124457387D01*
X154366357Y-124489207D01*
X154383320Y-124513257D01*
X154399490Y-124528758D01*
X154402207Y-124530872D01*
X154404638Y-124533212D01*
X154406785Y-124535768D01*
X154408651Y-124538532D01*
X154410238Y-124541496D01*
X154411549Y-124544650D01*
X154412587Y-124547985D01*
X154413355Y-124551494D01*
X154413854Y-124555167D01*
X154414089Y-124558995D01*
X154414061Y-124562970D01*
X154413773Y-124567084D01*
X154413228Y-124571327D01*
X154412428Y-124575690D01*
X154411377Y-124580165D01*
X154410077Y-124584744D01*
X154408530Y-124589417D01*
X154406740Y-124594175D01*
X154404709Y-124599011D01*
X154402439Y-124603915D01*
X154399934Y-124608879D01*
X154397196Y-124613894D01*
X154394228Y-124618950D01*
X154391032Y-124624040D01*
X154387611Y-124629155D01*
X154383968Y-124634286D01*
X154380106Y-124639424D01*
X154376027Y-124644560D01*
X154371733Y-124649687D01*
X154367229Y-124654794D01*
X154362515Y-124659873D01*
X154357596Y-124664917D01*
X154341787Y-124682048D01*
X154325965Y-124701771D01*
X154294432Y-124748457D01*
X154263299Y-124803898D01*
X154232865Y-124867019D01*
X154203432Y-124936743D01*
X154175299Y-125011994D01*
X154148768Y-125091695D01*
X154124139Y-125174771D01*
X154101713Y-125260146D01*
X154081790Y-125346743D01*
X154064671Y-125433486D01*
X154050657Y-125519298D01*
X154040048Y-125603105D01*
X154033145Y-125683829D01*
X154030249Y-125760394D01*
X134522177Y-125760394D01*
X134513814Y-121958074D01*
X135599368Y-121958074D01*
X135704714Y-121958037D01*
X137650651Y-121958037D01*
X137875009Y-121958037D01*
X138099368Y-121958037D01*
X142458344Y-121958037D01*
X143099370Y-121958037D01*
X143740395Y-121958037D01*
X143740394Y-121797780D01*
X143740018Y-121773679D01*
X143738791Y-121752040D01*
X143737812Y-121742105D01*
X143736563Y-121732739D01*
X143735026Y-121723925D01*
X143733183Y-121715649D01*
X143731013Y-121707895D01*
X143728500Y-121700646D01*
X143725624Y-121693888D01*
X143722365Y-121687605D01*
X143718706Y-121681780D01*
X143714628Y-121676399D01*
X143710111Y-121671446D01*
X143705138Y-121666905D01*
X143699689Y-121662761D01*
X143693745Y-121658997D01*
X143687287Y-121655598D01*
X143680298Y-121652549D01*
X143672758Y-121649834D01*
X143664648Y-121647437D01*
X143655950Y-121645342D01*
X143646644Y-121643535D01*
X143636713Y-121641999D01*
X143626136Y-121640718D01*
X143602974Y-121638861D01*
X143577007Y-121637838D01*
X143548086Y-121637525D01*
X143355779Y-121637525D01*
X143355779Y-121239957D01*
X144852287Y-121239957D01*
X144853139Y-121282505D01*
X144855781Y-121324977D01*
X144860219Y-121367230D01*
X144866460Y-121409121D01*
X144874509Y-121450505D01*
X144884373Y-121491240D01*
X144896058Y-121531182D01*
X144909570Y-121570187D01*
X144924915Y-121608112D01*
X144942100Y-121644813D01*
X144961130Y-121680147D01*
X144982012Y-121713970D01*
X145004752Y-121746140D01*
X145029356Y-121776511D01*
X145055831Y-121804941D01*
X145078964Y-121827262D01*
X145101710Y-121847412D01*
X145124406Y-121865492D01*
X145135841Y-121873788D01*
X145147390Y-121881603D01*
X145159095Y-121888951D01*
X145170999Y-121895845D01*
X145183144Y-121902297D01*
X145195573Y-121908320D01*
X145208326Y-121913926D01*
X145221447Y-121919128D01*
X145234978Y-121923938D01*
X145248961Y-121928370D01*
X145263438Y-121932435D01*
X145278452Y-121936147D01*
X145294044Y-121939517D01*
X145310257Y-121942560D01*
X145344715Y-121947709D01*
X145382164Y-121951696D01*
X145422941Y-121954622D01*
X145467383Y-121956586D01*
X145515830Y-121957691D01*
X145568618Y-121958037D01*
X145643389Y-121956690D01*
X145718011Y-121952829D01*
X145790501Y-121946725D01*
X145858878Y-121938648D01*
X145921161Y-121928870D01*
X145975370Y-121917661D01*
X145998827Y-121911604D01*
X146019522Y-121905292D01*
X146037208Y-121898757D01*
X146051637Y-121892033D01*
X146067070Y-121883121D01*
X146082400Y-121872983D01*
X146097602Y-121861671D01*
X146112651Y-121849235D01*
X146127521Y-121835727D01*
X146142186Y-121821199D01*
X146156622Y-121805700D01*
X146170803Y-121789284D01*
X146198298Y-121753900D01*
X146224468Y-121715457D01*
X146249110Y-121674365D01*
X146272021Y-121631033D01*
X146292997Y-121585871D01*
X146311836Y-121539289D01*
X146328334Y-121491695D01*
X146342288Y-121443501D01*
X146353494Y-121395115D01*
X146361751Y-121346948D01*
X146366854Y-121299408D01*
X146368159Y-121276002D01*
X146368600Y-121252907D01*
X146366854Y-121206405D01*
X146361751Y-121158866D01*
X146353494Y-121110699D01*
X146342288Y-121062314D01*
X146328334Y-121014120D01*
X146311836Y-120966526D01*
X146292997Y-120919944D01*
X146272021Y-120874782D01*
X146249110Y-120831450D01*
X146224468Y-120790358D01*
X146212067Y-120772140D01*
X146432702Y-120772140D01*
X146433125Y-120790373D01*
X146434380Y-120807655D01*
X146436449Y-120823958D01*
X146439313Y-120839248D01*
X146442953Y-120853495D01*
X146447350Y-120866667D01*
X146452487Y-120878733D01*
X146458343Y-120889662D01*
X146464900Y-120899423D01*
X146468436Y-120903855D01*
X146472140Y-120907983D01*
X146476010Y-120911804D01*
X146480043Y-120915313D01*
X146484238Y-120918506D01*
X146488591Y-120921380D01*
X146493101Y-120923930D01*
X146497765Y-120926153D01*
X146502581Y-120928045D01*
X146507546Y-120929601D01*
X146512659Y-120930819D01*
X146517916Y-120931693D01*
X146523316Y-120932221D01*
X146528856Y-120932398D01*
X146535946Y-120932696D01*
X146542700Y-120933618D01*
X146549124Y-120935203D01*
X146555226Y-120937489D01*
X146558158Y-120938908D01*
X146561013Y-120940516D01*
X146563791Y-120942320D01*
X146566492Y-120944323D01*
X146569119Y-120946531D01*
X146571671Y-120948949D01*
X146574150Y-120951581D01*
X146576557Y-120954433D01*
X146581157Y-120960814D01*
X146585480Y-120968132D01*
X146589531Y-120976425D01*
X146593318Y-120985733D01*
X146596849Y-120996094D01*
X146600132Y-121007549D01*
X146603172Y-121020135D01*
X146605979Y-121033893D01*
X146608558Y-121048861D01*
X146610918Y-121065078D01*
X146613066Y-121082584D01*
X146615009Y-121101418D01*
X146616754Y-121121618D01*
X146618309Y-121143224D01*
X146619681Y-121166275D01*
X146620877Y-121190810D01*
X146621906Y-121216869D01*
X146622773Y-121244490D01*
X146624054Y-121304575D01*
X146624780Y-121371379D01*
X146625009Y-121445216D01*
X146625009Y-121958037D01*
X146881419Y-121958037D01*
X147137829Y-121958037D01*
X147137829Y-121810005D01*
X148483983Y-121810005D01*
X148484271Y-121835737D01*
X148484825Y-121847402D01*
X148485826Y-121858300D01*
X148487402Y-121868459D01*
X148489684Y-121877903D01*
X148492801Y-121886659D01*
X148494713Y-121890787D01*
X148496883Y-121894753D01*
X148499326Y-121898560D01*
X148502059Y-121902211D01*
X148505097Y-121905710D01*
X148508458Y-121909059D01*
X148512158Y-121912262D01*
X148516211Y-121915323D01*
X148520636Y-121918244D01*
X148525448Y-121921029D01*
X148530662Y-121923681D01*
X148536296Y-121926203D01*
X148548887Y-121930871D01*
X148563350Y-121935059D01*
X148579814Y-121938793D01*
X148598409Y-121942099D01*
X148619264Y-121945003D01*
X148642510Y-121947532D01*
X148668275Y-121949710D01*
X148696690Y-121951565D01*
X148727883Y-121953122D01*
X148761985Y-121954407D01*
X148799125Y-121955447D01*
X148883037Y-121956892D01*
X148980656Y-121957667D01*
X149221163Y-121958037D01*
X149958342Y-121958037D01*
X149958342Y-121797780D01*
X149958062Y-121770727D01*
X149957619Y-121758423D01*
X149956892Y-121746898D01*
X149955819Y-121736129D01*
X149954340Y-121726088D01*
X149952392Y-121716752D01*
X149949915Y-121708093D01*
X149946845Y-121700088D01*
X149943123Y-121692710D01*
X149938686Y-121685934D01*
X149933474Y-121679734D01*
X149927423Y-121674085D01*
X149920474Y-121668962D01*
X149912564Y-121664338D01*
X149903631Y-121660189D01*
X149893615Y-121656489D01*
X149882454Y-121653212D01*
X149870086Y-121650333D01*
X149856450Y-121647827D01*
X149841484Y-121645667D01*
X149825126Y-121643829D01*
X149807316Y-121642288D01*
X149787991Y-121641016D01*
X149744553Y-121639183D01*
X149694319Y-121638126D01*
X149636797Y-121637642D01*
X149571495Y-121637525D01*
X149184649Y-121637525D01*
X149414513Y-121435703D01*
X149467696Y-121387452D01*
X149516897Y-121339532D01*
X149562190Y-121291794D01*
X149603654Y-121244087D01*
X149641363Y-121196263D01*
X149675393Y-121148172D01*
X149702788Y-121104502D01*
X150154268Y-121104502D01*
X150155732Y-121209347D01*
X150163071Y-121307139D01*
X150168954Y-121353404D01*
X150176320Y-121397920D01*
X150185171Y-121440694D01*
X150195514Y-121481729D01*
X150207351Y-121521031D01*
X150220687Y-121558605D01*
X150235527Y-121594456D01*
X150251874Y-121628588D01*
X150269734Y-121661008D01*
X150289111Y-121691718D01*
X150310008Y-121720726D01*
X150332431Y-121748035D01*
X150356383Y-121773650D01*
X150381869Y-121797577D01*
X150408894Y-121819821D01*
X150437461Y-121840385D01*
X150467575Y-121859276D01*
X150499240Y-121876499D01*
X150532462Y-121892058D01*
X150567243Y-121905957D01*
X150603588Y-121918203D01*
X150641502Y-121928800D01*
X150680989Y-121937754D01*
X150722054Y-121945068D01*
X150764700Y-121950748D01*
X150808932Y-121954799D01*
X150902172Y-121958034D01*
X150940769Y-121957560D01*
X150979040Y-121956158D01*
X151016845Y-121953856D01*
X151054043Y-121950684D01*
X151090493Y-121946671D01*
X151126053Y-121941845D01*
X151160583Y-121936236D01*
X151193942Y-121929873D01*
X151225988Y-121922784D01*
X151256580Y-121914999D01*
X151285578Y-121906546D01*
X151312840Y-121897455D01*
X151338225Y-121887755D01*
X151361593Y-121877475D01*
X151382801Y-121866643D01*
X151401710Y-121855289D01*
X151401711Y-121855292D01*
X151420274Y-121842335D01*
X151438203Y-121828229D01*
X151455484Y-121813020D01*
X151472105Y-121796753D01*
X151488054Y-121779472D01*
X151503316Y-121761224D01*
X151517880Y-121742053D01*
X151531733Y-121722004D01*
X151544861Y-121701123D01*
X151557253Y-121679455D01*
X151568894Y-121657044D01*
X151579773Y-121633937D01*
X151589877Y-121610178D01*
X151599192Y-121585812D01*
X151615407Y-121535441D01*
X151628314Y-121483185D01*
X151637813Y-121429406D01*
X151643800Y-121374465D01*
X151646172Y-121318722D01*
X151645971Y-121290664D01*
X151644828Y-121262541D01*
X151642729Y-121234398D01*
X151639664Y-121206280D01*
X151635618Y-121178234D01*
X151630578Y-121150303D01*
X151624533Y-121122533D01*
X151617468Y-121094970D01*
X151603213Y-121045633D01*
X151588843Y-121001611D01*
X151581434Y-120981480D01*
X151573779Y-120962542D01*
X151565807Y-120944752D01*
X151557445Y-120928065D01*
X151548621Y-120912435D01*
X151539263Y-120897817D01*
X151529299Y-120884166D01*
X151518656Y-120871437D01*
X151507262Y-120859584D01*
X151495046Y-120848562D01*
X151481934Y-120838327D01*
X151467855Y-120828832D01*
X151452737Y-120820033D01*
X151436507Y-120811884D01*
X151419093Y-120804341D01*
X151400423Y-120797357D01*
X151380426Y-120790888D01*
X151359027Y-120784888D01*
X151336156Y-120779313D01*
X151311741Y-120774117D01*
X151257987Y-120764680D01*
X151197188Y-120756217D01*
X151128767Y-120748365D01*
X151052146Y-120740763D01*
X150942248Y-120729967D01*
X150897844Y-120724970D01*
X150860075Y-120719998D01*
X150828645Y-120714867D01*
X150803255Y-120709397D01*
X150783611Y-120703404D01*
X150775850Y-120700154D01*
X150769413Y-120696706D01*
X150764265Y-120693035D01*
X150760367Y-120689120D01*
X150757683Y-120684938D01*
X150756175Y-120680465D01*
X150755807Y-120675680D01*
X150756540Y-120670558D01*
X150758339Y-120665078D01*
X150761166Y-120659217D01*
X150769756Y-120646258D01*
X150782013Y-120631500D01*
X150797641Y-120614761D01*
X150816342Y-120595858D01*
X150830849Y-120582571D01*
X150846858Y-120570083D01*
X150864340Y-120558404D01*
X150883267Y-120547540D01*
X150903611Y-120537499D01*
X150925344Y-120528290D01*
X150948439Y-120519921D01*
X150972866Y-120512399D01*
X150998599Y-120505732D01*
X151025609Y-120499928D01*
X151053868Y-120494996D01*
X151083348Y-120490942D01*
X151114022Y-120487776D01*
X151145861Y-120485504D01*
X151178837Y-120484136D01*
X151212922Y-120483678D01*
X151303412Y-120482991D01*
X151340381Y-120481760D01*
X151372320Y-120479607D01*
X151399597Y-120476282D01*
X151411602Y-120474103D01*
X151422579Y-120471538D01*
X151432573Y-120468556D01*
X151441632Y-120465126D01*
X151449799Y-120461216D01*
X151457122Y-120456797D01*
X151463646Y-120451836D01*
X151469417Y-120446303D01*
X151474481Y-120440167D01*
X151478883Y-120433397D01*
X151482670Y-120425961D01*
X151485887Y-120417828D01*
X151488580Y-120408968D01*
X151490795Y-120399350D01*
X151493974Y-120377713D01*
X151495791Y-120352669D01*
X151496612Y-120323971D01*
X151496804Y-120291368D01*
X151496702Y-120257606D01*
X151496031Y-120228047D01*
X151495312Y-120214756D01*
X151494247Y-120202411D01*
X151492767Y-120190977D01*
X151490804Y-120180419D01*
X151488290Y-120170702D01*
X151485157Y-120161791D01*
X151481336Y-120153651D01*
X151476761Y-120146248D01*
X151471361Y-120139547D01*
X151465070Y-120133512D01*
X151457820Y-120128108D01*
X151449541Y-120123301D01*
X151440166Y-120119056D01*
X151429627Y-120115338D01*
X151417855Y-120112112D01*
X151404783Y-120109344D01*
X151390342Y-120106997D01*
X151374464Y-120105037D01*
X151357082Y-120103430D01*
X151338126Y-120102140D01*
X151295222Y-120100373D01*
X151245208Y-120099457D01*
X151121669Y-120099059D01*
X151062585Y-120100028D01*
X151005387Y-120102935D01*
X150950072Y-120107785D01*
X150896639Y-120114579D01*
X150845084Y-120123319D01*
X150795406Y-120134009D01*
X150747601Y-120146650D01*
X150701667Y-120161246D01*
X150657603Y-120177799D01*
X150615405Y-120196312D01*
X150575070Y-120216786D01*
X150536597Y-120239225D01*
X150499983Y-120263632D01*
X150465226Y-120290008D01*
X150432323Y-120318356D01*
X150401271Y-120348679D01*
X150372069Y-120380979D01*
X150344713Y-120415260D01*
X150319202Y-120451522D01*
X150295533Y-120489770D01*
X150273703Y-120530005D01*
X150253709Y-120572231D01*
X150235551Y-120616449D01*
X150219224Y-120662662D01*
X150204727Y-120710873D01*
X150192057Y-120761085D01*
X150181211Y-120813299D01*
X150172188Y-120867519D01*
X150164985Y-120923746D01*
X150159598Y-120981984D01*
X150154268Y-121104502D01*
X149702788Y-121104502D01*
X149705822Y-121099665D01*
X149732724Y-121050593D01*
X149756177Y-121000805D01*
X149776256Y-120950153D01*
X149793036Y-120898486D01*
X149806596Y-120845657D01*
X149817009Y-120791515D01*
X149824353Y-120735911D01*
X149828704Y-120678696D01*
X149830137Y-120619719D01*
X149829510Y-120586214D01*
X149827620Y-120553912D01*
X149824454Y-120522805D01*
X149820001Y-120492883D01*
X149814247Y-120464138D01*
X149807180Y-120436560D01*
X149798788Y-120410140D01*
X149789058Y-120384868D01*
X149777977Y-120360736D01*
X149765534Y-120337735D01*
X149751715Y-120315854D01*
X149736508Y-120295086D01*
X149719900Y-120275420D01*
X149701879Y-120256848D01*
X149682433Y-120239360D01*
X149661549Y-120222948D01*
X149639214Y-120207601D01*
X149615416Y-120193311D01*
X149590142Y-120180069D01*
X149563380Y-120167865D01*
X149535117Y-120156690D01*
X149505342Y-120146535D01*
X149474040Y-120137391D01*
X149441201Y-120129248D01*
X149406810Y-120122098D01*
X149370857Y-120115931D01*
X149333327Y-120110738D01*
X149294210Y-120106510D01*
X149253491Y-120103238D01*
X149211160Y-120100912D01*
X149121606Y-120099062D01*
X149031958Y-120099522D01*
X148951997Y-120101088D01*
X148881185Y-120104036D01*
X148818983Y-120108645D01*
X148764853Y-120115190D01*
X148718255Y-120123951D01*
X148678651Y-120135204D01*
X148661304Y-120141852D01*
X148645503Y-120149226D01*
X148631182Y-120157363D01*
X148618272Y-120166295D01*
X148606707Y-120176059D01*
X148596420Y-120186688D01*
X148587342Y-120198218D01*
X148579407Y-120210683D01*
X148572547Y-120224118D01*
X148566695Y-120238556D01*
X148557745Y-120270586D01*
X148552020Y-120307049D01*
X148548979Y-120348223D01*
X148548085Y-120394385D01*
X148548466Y-120414024D01*
X148549587Y-120432919D01*
X148551416Y-120451049D01*
X148553924Y-120468391D01*
X148557077Y-120484926D01*
X148560846Y-120500630D01*
X148565199Y-120515484D01*
X148570105Y-120529466D01*
X148575532Y-120542553D01*
X148581450Y-120554726D01*
X148587826Y-120565962D01*
X148594631Y-120576241D01*
X148601832Y-120585540D01*
X148609398Y-120593839D01*
X148617298Y-120601116D01*
X148625501Y-120607349D01*
X148633976Y-120612518D01*
X148642691Y-120616602D01*
X148651615Y-120619578D01*
X148660717Y-120621425D01*
X148669966Y-120622122D01*
X148679330Y-120621648D01*
X148688778Y-120619981D01*
X148698279Y-120617100D01*
X148707802Y-120612984D01*
X148717315Y-120607610D01*
X148726787Y-120600959D01*
X148736188Y-120593008D01*
X148745485Y-120583736D01*
X148754647Y-120573122D01*
X148763644Y-120561144D01*
X148772444Y-120547782D01*
X148779459Y-120538443D01*
X148788401Y-120529858D01*
X148799138Y-120522018D01*
X148811537Y-120514915D01*
X148825465Y-120508541D01*
X148840790Y-120502887D01*
X148857378Y-120497944D01*
X148875098Y-120493705D01*
X148913399Y-120487302D01*
X148954633Y-120483611D01*
X148997735Y-120482564D01*
X149041645Y-120484094D01*
X149085301Y-120488132D01*
X149127641Y-120494612D01*
X149167603Y-120503466D01*
X149204125Y-120514627D01*
X149220764Y-120521051D01*
X149236145Y-120528026D01*
X149250136Y-120535545D01*
X149262602Y-120543597D01*
X149273412Y-120552176D01*
X149282433Y-120561272D01*
X149289532Y-120570878D01*
X149294576Y-120580984D01*
X149300093Y-120597658D01*
X149304156Y-120615098D01*
X149306782Y-120633278D01*
X149307984Y-120652173D01*
X149307780Y-120671755D01*
X149306185Y-120692000D01*
X149303213Y-120712882D01*
X149298880Y-120734373D01*
X149293203Y-120756450D01*
X149286195Y-120779085D01*
X149277873Y-120802253D01*
X149268252Y-120825928D01*
X149245175Y-120874695D01*
X149217088Y-120925179D01*
X149184113Y-120977172D01*
X149146375Y-121030468D01*
X149103996Y-121084859D01*
X149057101Y-121140138D01*
X149005813Y-121196097D01*
X148950255Y-121252530D01*
X148890551Y-121309230D01*
X148826823Y-121365989D01*
X148785077Y-121402602D01*
X148746068Y-121437996D01*
X148709791Y-121472179D01*
X148676239Y-121505160D01*
X148645408Y-121536945D01*
X148617289Y-121567544D01*
X148591878Y-121596963D01*
X148569167Y-121625212D01*
X148549152Y-121652297D01*
X148531825Y-121678228D01*
X148517181Y-121703012D01*
X148505213Y-121726656D01*
X148495916Y-121749170D01*
X148489282Y-121770561D01*
X148485307Y-121790836D01*
X148483983Y-121810005D01*
X147137829Y-121810005D01*
X147137829Y-121445216D01*
X147138251Y-121278399D01*
X147140708Y-121152348D01*
X147143257Y-121102825D01*
X147146984Y-121061353D01*
X147152111Y-121027217D01*
X147158862Y-120999705D01*
X147167460Y-120978101D01*
X147172521Y-120969293D01*
X147178128Y-120961694D01*
X147184307Y-120955216D01*
X147191088Y-120949769D01*
X147198497Y-120945264D01*
X147206564Y-120941612D01*
X147224779Y-120936510D01*
X147245955Y-120933750D01*
X147298086Y-120932398D01*
X147321013Y-120932006D01*
X147341781Y-120930770D01*
X147360483Y-120928595D01*
X147369088Y-120927125D01*
X147377213Y-120925386D01*
X147384868Y-120923365D01*
X147392065Y-120921051D01*
X147398816Y-120918432D01*
X147405133Y-120915495D01*
X147411027Y-120912230D01*
X147416510Y-120908625D01*
X147421595Y-120904667D01*
X147426292Y-120900346D01*
X147430613Y-120895649D01*
X147434571Y-120890565D01*
X147438176Y-120885081D01*
X147441441Y-120879187D01*
X147444377Y-120872870D01*
X147446997Y-120866119D01*
X147449311Y-120858922D01*
X147451332Y-120851267D01*
X147453071Y-120843143D01*
X147454540Y-120834537D01*
X147456716Y-120815835D01*
X147457952Y-120795068D01*
X147458343Y-120772140D01*
X147457952Y-120749212D01*
X147456716Y-120728445D01*
X147454540Y-120709743D01*
X147453071Y-120701137D01*
X147451332Y-120693013D01*
X147449311Y-120685358D01*
X147446997Y-120678161D01*
X147444377Y-120671410D01*
X147441441Y-120665093D01*
X147438176Y-120659199D01*
X147434571Y-120653716D01*
X147430613Y-120648632D01*
X147426292Y-120643935D01*
X147421595Y-120639614D01*
X147416510Y-120635656D01*
X147411027Y-120632051D01*
X147405133Y-120628786D01*
X147398816Y-120625850D01*
X147392065Y-120623231D01*
X147384868Y-120620917D01*
X147377213Y-120618896D01*
X147369088Y-120617157D01*
X147360483Y-120615688D01*
X147341781Y-120613513D01*
X147321013Y-120612277D01*
X147298086Y-120611886D01*
X147277919Y-120611571D01*
X147259179Y-120610648D01*
X147241859Y-120609147D01*
X147225955Y-120607099D01*
X147211459Y-120604533D01*
X147198365Y-120601482D01*
X147186667Y-120597974D01*
X147176360Y-120594042D01*
X147167437Y-120589715D01*
X147159891Y-120585024D01*
X147153718Y-120579999D01*
X147148910Y-120574672D01*
X147145462Y-120569072D01*
X147143367Y-120563231D01*
X147142620Y-120557179D01*
X147143214Y-120550946D01*
X147145143Y-120544564D01*
X147148401Y-120538062D01*
X147152982Y-120531471D01*
X147158880Y-120524822D01*
X147166089Y-120518145D01*
X147174602Y-120511472D01*
X147184413Y-120504832D01*
X147195517Y-120498256D01*
X147207907Y-120491774D01*
X147221577Y-120485418D01*
X147236521Y-120479218D01*
X147252733Y-120473205D01*
X147270207Y-120467408D01*
X147288937Y-120461859D01*
X147308916Y-120456588D01*
X147330138Y-120451626D01*
X147356865Y-120445335D01*
X147381202Y-120438677D01*
X147403243Y-120431559D01*
X147423078Y-120423885D01*
X147440799Y-120415562D01*
X147448895Y-120411128D01*
X147456498Y-120406496D01*
X147463617Y-120401654D01*
X147470266Y-120396591D01*
X147476455Y-120391296D01*
X147482196Y-120385756D01*
X147487500Y-120379959D01*
X147492378Y-120373894D01*
X147496843Y-120367549D01*
X147500906Y-120360912D01*
X147504577Y-120353972D01*
X147507870Y-120346716D01*
X147510794Y-120339133D01*
X147513362Y-120331212D01*
X147515584Y-120322940D01*
X147517474Y-120314305D01*
X147520297Y-120295902D01*
X147521924Y-120275908D01*
X147522446Y-120254229D01*
X147522091Y-120229169D01*
X147520817Y-120206937D01*
X147519736Y-120196830D01*
X147518307Y-120187367D01*
X147516490Y-120178528D01*
X147514247Y-120170291D01*
X147511537Y-120162636D01*
X147508320Y-120155542D01*
X147504559Y-120148988D01*
X147500213Y-120142953D01*
X147495242Y-120137416D01*
X147489608Y-120132356D01*
X147483271Y-120127753D01*
X147476192Y-120123585D01*
X147468330Y-120119832D01*
X147459647Y-120116472D01*
X147450104Y-120113485D01*
X147439660Y-120110850D01*
X147428277Y-120108545D01*
X147415914Y-120106551D01*
X147402534Y-120104846D01*
X147388095Y-120103409D01*
X147355886Y-120101256D01*
X147318973Y-120099926D01*
X147277039Y-120099250D01*
X147229770Y-120099062D01*
X147161956Y-120100024D01*
X147099374Y-120102987D01*
X147041816Y-120108067D01*
X146989079Y-120115378D01*
X146940955Y-120125035D01*
X146897238Y-120137154D01*
X146857724Y-120151849D01*
X146839478Y-120160199D01*
X146822205Y-120169237D01*
X146805879Y-120178975D01*
X146790475Y-120189430D01*
X146775967Y-120200616D01*
X146762330Y-120212546D01*
X146749536Y-120225236D01*
X146737562Y-120238699D01*
X146726380Y-120252950D01*
X146715965Y-120268003D01*
X146697335Y-120300575D01*
X146681464Y-120336529D01*
X146668147Y-120375981D01*
X146657178Y-120419044D01*
X146652391Y-120438688D01*
X146646811Y-120457782D01*
X146640507Y-120476225D01*
X146633547Y-120493920D01*
X146625999Y-120510768D01*
X146617933Y-120526669D01*
X146609415Y-120541526D01*
X146600515Y-120555238D01*
X146591302Y-120567707D01*
X146581842Y-120578835D01*
X146572206Y-120588522D01*
X146562461Y-120596669D01*
X146552676Y-120603178D01*
X146547789Y-120605787D01*
X146542918Y-120607950D01*
X146538072Y-120609653D01*
X146533257Y-120610885D01*
X146528485Y-120611634D01*
X146523762Y-120611886D01*
X146518714Y-120612074D01*
X146513775Y-120612634D01*
X146508946Y-120613560D01*
X146504231Y-120614845D01*
X146499634Y-120616485D01*
X146495159Y-120618471D01*
X146490808Y-120620800D01*
X146486585Y-120623464D01*
X146482494Y-120626457D01*
X146478538Y-120629773D01*
X146474720Y-120633406D01*
X146471045Y-120637350D01*
X146467515Y-120641599D01*
X146464134Y-120646147D01*
X146460906Y-120650987D01*
X146457833Y-120656114D01*
X146454920Y-120661522D01*
X146452170Y-120667204D01*
X146449585Y-120673154D01*
X146447171Y-120679366D01*
X146444930Y-120685834D01*
X146442866Y-120692553D01*
X146440981Y-120699515D01*
X146439281Y-120706714D01*
X146437767Y-120714146D01*
X146436444Y-120721803D01*
X146435315Y-120729680D01*
X146434384Y-120737769D01*
X146433653Y-120746067D01*
X146433127Y-120754565D01*
X146432809Y-120763258D01*
X146432702Y-120772140D01*
X146212067Y-120772140D01*
X146198298Y-120751915D01*
X146170803Y-120716531D01*
X146142186Y-120684616D01*
X146112651Y-120656579D01*
X146082400Y-120632831D01*
X146051637Y-120613780D01*
X146011981Y-120596431D01*
X145963878Y-120581836D01*
X145908581Y-120569955D01*
X145847345Y-120560747D01*
X145781423Y-120554172D01*
X145712070Y-120550191D01*
X145640540Y-120548762D01*
X145568087Y-120549845D01*
X145495965Y-120553400D01*
X145425427Y-120559388D01*
X145357729Y-120567767D01*
X145294124Y-120578498D01*
X145235866Y-120591540D01*
X145184209Y-120606854D01*
X145140408Y-120624398D01*
X145121845Y-120633994D01*
X145105716Y-120644132D01*
X145077079Y-120666009D01*
X145050128Y-120690249D01*
X145024869Y-120716710D01*
X145001307Y-120745248D01*
X144979448Y-120775720D01*
X144959300Y-120807982D01*
X144940868Y-120841890D01*
X144924158Y-120877301D01*
X144909176Y-120914071D01*
X144895929Y-120952058D01*
X144884423Y-120991117D01*
X144874664Y-121031105D01*
X144866658Y-121071878D01*
X144860411Y-121113294D01*
X144855929Y-121155208D01*
X144853219Y-121197476D01*
X144852287Y-121239957D01*
X143355779Y-121239957D01*
X143355779Y-120900346D01*
X143355779Y-120163166D01*
X143138277Y-120163166D01*
X143114359Y-120163596D01*
X143091151Y-120164867D01*
X143068733Y-120166949D01*
X143047186Y-120169815D01*
X143026589Y-120173434D01*
X143007023Y-120177778D01*
X142988568Y-120182817D01*
X142971303Y-120188524D01*
X142955309Y-120194868D01*
X142940665Y-120201821D01*
X142927453Y-120209354D01*
X142915751Y-120217437D01*
X142905640Y-120226042D01*
X142897201Y-120235140D01*
X142890512Y-120244702D01*
X142887850Y-120249648D01*
X142885655Y-120254699D01*
X142883619Y-120259417D01*
X142881142Y-120264129D01*
X142878239Y-120268828D01*
X142874924Y-120273506D01*
X142871209Y-120278156D01*
X142867109Y-120282771D01*
X142862637Y-120287343D01*
X142857808Y-120291867D01*
X142852635Y-120296333D01*
X142847132Y-120300735D01*
X142841312Y-120305067D01*
X142835190Y-120309320D01*
X142822094Y-120317563D01*
X142807953Y-120325407D01*
X142792878Y-120332793D01*
X142776979Y-120339666D01*
X142760367Y-120345966D01*
X142743151Y-120351637D01*
X142725443Y-120356621D01*
X142707351Y-120360861D01*
X142688988Y-120364298D01*
X142670463Y-120366876D01*
X142644907Y-120370247D01*
X142621602Y-120374305D01*
X142600436Y-120379161D01*
X142590622Y-120381920D01*
X142581301Y-120384920D01*
X142572461Y-120388172D01*
X142564087Y-120391691D01*
X142556166Y-120395490D01*
X142548684Y-120399582D01*
X142541628Y-120403981D01*
X142534983Y-120408701D01*
X142528735Y-120413754D01*
X142522872Y-120419155D01*
X142517380Y-120424917D01*
X142512244Y-120431053D01*
X142507451Y-120437577D01*
X142502987Y-120444502D01*
X142498839Y-120451841D01*
X142494993Y-120459610D01*
X142491434Y-120467819D01*
X142488151Y-120476484D01*
X142485128Y-120485618D01*
X142482351Y-120495234D01*
X142477485Y-120515966D01*
X142473442Y-120538788D01*
X142470113Y-120563809D01*
X142467149Y-120591891D01*
X142465211Y-120616860D01*
X142464478Y-120638894D01*
X142464620Y-120648868D01*
X142465131Y-120658175D01*
X142466033Y-120666838D01*
X142467349Y-120674881D01*
X142469100Y-120682324D01*
X142471311Y-120689192D01*
X142474002Y-120695505D01*
X142477197Y-120701287D01*
X142480918Y-120706560D01*
X142485187Y-120711347D01*
X142490027Y-120715670D01*
X142495460Y-120719551D01*
X142501509Y-120723013D01*
X142508196Y-120726078D01*
X142515544Y-120728769D01*
X142523575Y-120731108D01*
X142532312Y-120733118D01*
X142541776Y-120734821D01*
X142551991Y-120736239D01*
X142562979Y-120737396D01*
X142587363Y-120739013D01*
X142615109Y-120739852D01*
X142646395Y-120740091D01*
X142842960Y-120740091D01*
X142842960Y-121188805D01*
X142842960Y-121637525D01*
X142650652Y-121637525D01*
X142621730Y-121637838D01*
X142595764Y-121638861D01*
X142572602Y-121640718D01*
X142552094Y-121643535D01*
X142542788Y-121645342D01*
X142534090Y-121647437D01*
X142525980Y-121649834D01*
X142518440Y-121652549D01*
X142511451Y-121655598D01*
X142504994Y-121658997D01*
X142499050Y-121662761D01*
X142493600Y-121666905D01*
X142488627Y-121671446D01*
X142484110Y-121676399D01*
X142480032Y-121681780D01*
X142476373Y-121687605D01*
X142473114Y-121693888D01*
X142470238Y-121700646D01*
X142467724Y-121707895D01*
X142465555Y-121715649D01*
X142463712Y-121723925D01*
X142462175Y-121732739D01*
X142459946Y-121752040D01*
X142458719Y-121773679D01*
X142458344Y-121797780D01*
X142458344Y-121958037D01*
X138099368Y-121958037D01*
X138099368Y-121957946D01*
X139958343Y-121957946D01*
X140182702Y-121957946D01*
X140220313Y-121957768D01*
X140253480Y-121957054D01*
X140282480Y-121955529D01*
X140307593Y-121952920D01*
X140318778Y-121951123D01*
X140329096Y-121948952D01*
X140338581Y-121946374D01*
X140347268Y-121943353D01*
X140355192Y-121939856D01*
X140362388Y-121935848D01*
X140368891Y-121931295D01*
X140374734Y-121926163D01*
X140379954Y-121920418D01*
X140384585Y-121914025D01*
X140388662Y-121906950D01*
X140392219Y-121899160D01*
X140395291Y-121890619D01*
X140397914Y-121881294D01*
X140400122Y-121871150D01*
X140401949Y-121860154D01*
X140404603Y-121835465D01*
X140406154Y-121806955D01*
X140406880Y-121774348D01*
X140407060Y-121737461D01*
X140408233Y-121681176D01*
X140409690Y-121655716D01*
X140411720Y-121632045D01*
X140414315Y-121610165D01*
X140417471Y-121590076D01*
X140421182Y-121571778D01*
X140425440Y-121555273D01*
X140430241Y-121540562D01*
X140435578Y-121527646D01*
X140441446Y-121516524D01*
X140447837Y-121507199D01*
X140454747Y-121499671D01*
X140462169Y-121493941D01*
X140470097Y-121490010D01*
X140478525Y-121487878D01*
X140487447Y-121487547D01*
X140496858Y-121489017D01*
X140506750Y-121492289D01*
X140517118Y-121497364D01*
X140527957Y-121504243D01*
X140539259Y-121512927D01*
X140551019Y-121523417D01*
X140563232Y-121535713D01*
X140575890Y-121549816D01*
X140588988Y-121565727D01*
X140602520Y-121583448D01*
X140616480Y-121602978D01*
X140645659Y-121647471D01*
X140676477Y-121699215D01*
X140701389Y-121742399D01*
X140724142Y-121780486D01*
X140745297Y-121813797D01*
X140765418Y-121842650D01*
X140775265Y-121855505D01*
X140785064Y-121867366D01*
X140794886Y-121878272D01*
X140804799Y-121888263D01*
X140814876Y-121897380D01*
X140825185Y-121905662D01*
X140835797Y-121913149D01*
X140846782Y-121919882D01*
X140858210Y-121925899D01*
X140870153Y-121931242D01*
X140882679Y-121935950D01*
X140895859Y-121940063D01*
X140909763Y-121943620D01*
X140924462Y-121946663D01*
X140940026Y-121949230D01*
X140956525Y-121951362D01*
X140992608Y-121954481D01*
X141033274Y-121956337D01*
X141079085Y-121957252D01*
X141130602Y-121957545D01*
X141437478Y-121957943D01*
X141328713Y-121797780D01*
X141180691Y-121579807D01*
X140923904Y-121201671D01*
X141145191Y-120922756D01*
X141366479Y-120643838D01*
X141098700Y-120623522D01*
X141055545Y-120620587D01*
X141016486Y-120618824D01*
X140981025Y-120618465D01*
X140948666Y-120619743D01*
X140918912Y-120622894D01*
X140904856Y-120625244D01*
X140891266Y-120628149D01*
X140878078Y-120631639D01*
X140865230Y-120635744D01*
X140852661Y-120640491D01*
X140840309Y-120645910D01*
X140828110Y-120652031D01*
X140816004Y-120658883D01*
X140803927Y-120666494D01*
X140791819Y-120674895D01*
X140767257Y-120694180D01*
X140741821Y-120716972D01*
X140715014Y-120743505D01*
X140686340Y-120774011D01*
X140655300Y-120808725D01*
X140621398Y-120847880D01*
X140411876Y-121092558D01*
X140409468Y-120595764D01*
X140407060Y-120098967D01*
X140182702Y-120098967D01*
X139958343Y-120098967D01*
X139958343Y-121028456D01*
X139958343Y-121957946D01*
X138099368Y-121957946D01*
X138099368Y-121514141D01*
X138355778Y-121514141D01*
X138355778Y-121698691D01*
X138356463Y-121738882D01*
X138357443Y-121757254D01*
X138358956Y-121774524D01*
X138361086Y-121790727D01*
X138363914Y-121805898D01*
X138367523Y-121820073D01*
X138371994Y-121833285D01*
X138377410Y-121845571D01*
X138383853Y-121856965D01*
X138391405Y-121867502D01*
X138400148Y-121877218D01*
X138410164Y-121886147D01*
X138421536Y-121894325D01*
X138434345Y-121901786D01*
X138448674Y-121908566D01*
X138464605Y-121914700D01*
X138482220Y-121920222D01*
X138501601Y-121925168D01*
X138522831Y-121929572D01*
X138545990Y-121933471D01*
X138571163Y-121936898D01*
X138598429Y-121939889D01*
X138627873Y-121942479D01*
X138693619Y-121946597D01*
X138769058Y-121949531D01*
X138854846Y-121951562D01*
X138951642Y-121952970D01*
X139080789Y-121953337D01*
X139135955Y-121952344D01*
X139185569Y-121950381D01*
X139230172Y-121947310D01*
X139270305Y-121942991D01*
X139306507Y-121937287D01*
X139339318Y-121930058D01*
X139369279Y-121921165D01*
X139396931Y-121910471D01*
X139422813Y-121897836D01*
X139447465Y-121883121D01*
X139471429Y-121866187D01*
X139495245Y-121846897D01*
X139519451Y-121825110D01*
X139544590Y-121800689D01*
X139544590Y-121800690D01*
X139544590Y-121800691D01*
X139544590Y-121800692D01*
X139544590Y-121800693D01*
X139544590Y-121800694D01*
X139544589Y-121800694D01*
X139544589Y-121800695D01*
X139544589Y-121800696D01*
X139544589Y-121800697D01*
X139544589Y-121800698D01*
X139560617Y-121783974D01*
X139576196Y-121766355D01*
X139591245Y-121747990D01*
X139605683Y-121729028D01*
X139619429Y-121709618D01*
X139632403Y-121689911D01*
X139644525Y-121670055D01*
X139655713Y-121650200D01*
X139665887Y-121630496D01*
X139674966Y-121611091D01*
X139682869Y-121592135D01*
X139689517Y-121573778D01*
X139694827Y-121556168D01*
X139698721Y-121539456D01*
X139701116Y-121523790D01*
X139701932Y-121509320D01*
X139701134Y-121492497D01*
X139698786Y-121475188D01*
X139694955Y-121457458D01*
X139689707Y-121439372D01*
X139683110Y-121420997D01*
X139675230Y-121402399D01*
X139666136Y-121383644D01*
X139655894Y-121364796D01*
X139632233Y-121327089D01*
X139604786Y-121289805D01*
X139574089Y-121253470D01*
X139540677Y-121218612D01*
X139505089Y-121185757D01*
X139467861Y-121155432D01*
X139429530Y-121128163D01*
X139390631Y-121104477D01*
X139371137Y-121094142D01*
X139351702Y-121084900D01*
X139332394Y-121076818D01*
X139313280Y-121069960D01*
X139294427Y-121064394D01*
X139275901Y-121060184D01*
X139257771Y-121057396D01*
X139240102Y-121056097D01*
X139224448Y-121055322D01*
X139207927Y-121053951D01*
X139190682Y-121052017D01*
X139172852Y-121049552D01*
X139136007Y-121043168D01*
X139098521Y-121035067D01*
X139072915Y-121028456D01*
X139061523Y-121025515D01*
X139026142Y-121014781D01*
X139009412Y-121009055D01*
X138993509Y-121003133D01*
X138978576Y-120997049D01*
X138964752Y-120990837D01*
X138956881Y-120986966D01*
X138950021Y-120983293D01*
X138944177Y-120979816D01*
X138939355Y-120976534D01*
X138935558Y-120973449D01*
X138932791Y-120970558D01*
X138931795Y-120969186D01*
X138931058Y-120967862D01*
X138930581Y-120966587D01*
X138930365Y-120965360D01*
X138930409Y-120964182D01*
X138930715Y-120963052D01*
X138931283Y-120961970D01*
X138932113Y-120960936D01*
X138933207Y-120959951D01*
X138934564Y-120959014D01*
X138938072Y-120957284D01*
X138942641Y-120955745D01*
X138948277Y-120954397D01*
X138954983Y-120953241D01*
X138962765Y-120952275D01*
X138971626Y-120951498D01*
X138981572Y-120950911D01*
X138992606Y-120950513D01*
X139004734Y-120950303D01*
X139017959Y-120950281D01*
X139032287Y-120950447D01*
X139064267Y-120951338D01*
X139100712Y-120952974D01*
X139141656Y-120955351D01*
X139187136Y-120958464D01*
X139237188Y-120962310D01*
X139637829Y-120994533D01*
X139637829Y-120810066D01*
X139637571Y-120789640D01*
X139636757Y-120770272D01*
X139635329Y-120751933D01*
X139633227Y-120734597D01*
X139630394Y-120718238D01*
X139626771Y-120702829D01*
X139622298Y-120688342D01*
X139616917Y-120674751D01*
X139610569Y-120662030D01*
X139603197Y-120650151D01*
X139594740Y-120639088D01*
X139585140Y-120628814D01*
X139574339Y-120619303D01*
X139562278Y-120610526D01*
X139548898Y-120602459D01*
X139534141Y-120595073D01*
X139517947Y-120588342D01*
X139500258Y-120582239D01*
X139481015Y-120576738D01*
X139460161Y-120571812D01*
X139437635Y-120567434D01*
X139413379Y-120563577D01*
X139387334Y-120560214D01*
X139359443Y-120557319D01*
X139329645Y-120554865D01*
X139297883Y-120552825D01*
X139228230Y-120549881D01*
X139150014Y-120548271D01*
X139062765Y-120547782D01*
X138986846Y-120549115D01*
X138916096Y-120553172D01*
X138850366Y-120560041D01*
X138789504Y-120569811D01*
X138733362Y-120582568D01*
X138681790Y-120598400D01*
X138634637Y-120617396D01*
X138591754Y-120639643D01*
X138571867Y-120652013D01*
X138552992Y-120665229D01*
X138535108Y-120679302D01*
X138518199Y-120694242D01*
X138502245Y-120710060D01*
X138487227Y-120726769D01*
X138473126Y-120744378D01*
X138459925Y-120762898D01*
X138436143Y-120802718D01*
X138415733Y-120846315D01*
X138398543Y-120893778D01*
X138384424Y-120945195D01*
X138379203Y-120969617D01*
X138375434Y-120992858D01*
X138373173Y-121015072D01*
X138372477Y-121036418D01*
X138373404Y-121057051D01*
X138374494Y-121067149D01*
X138376010Y-121077127D01*
X138377961Y-121087006D01*
X138380353Y-121096804D01*
X138383193Y-121106542D01*
X138386489Y-121116238D01*
X138390248Y-121125913D01*
X138394476Y-121135585D01*
X138404370Y-121155002D01*
X138416228Y-121174645D01*
X138430108Y-121194671D01*
X138446066Y-121215237D01*
X138464160Y-121236498D01*
X138484446Y-121258612D01*
X138506981Y-121281734D01*
X138524398Y-121298411D01*
X138542825Y-121314667D01*
X138562102Y-121330414D01*
X138582069Y-121345567D01*
X138602569Y-121360040D01*
X138623440Y-121373747D01*
X138644526Y-121386602D01*
X138665665Y-121398518D01*
X138686698Y-121409409D01*
X138707467Y-121419189D01*
X138727813Y-121427773D01*
X138747575Y-121435073D01*
X138766595Y-121441004D01*
X138784713Y-121445480D01*
X138801771Y-121448415D01*
X138817608Y-121449722D01*
X138833263Y-121450497D01*
X138849783Y-121451868D01*
X138867029Y-121453802D01*
X138884858Y-121456265D01*
X138921703Y-121462648D01*
X138959190Y-121470747D01*
X138996188Y-121480297D01*
X139031568Y-121491029D01*
X139048299Y-121496755D01*
X139064201Y-121502676D01*
X139079135Y-121508759D01*
X139092958Y-121514971D01*
X139100758Y-121518823D01*
X139107486Y-121522483D01*
X139113137Y-121525950D01*
X139117707Y-121529226D01*
X139121190Y-121532311D01*
X139123584Y-121535205D01*
X139124371Y-121536581D01*
X139124883Y-121537909D01*
X139125121Y-121539189D01*
X139125083Y-121540423D01*
X139124769Y-121541608D01*
X139124179Y-121542747D01*
X139123312Y-121543838D01*
X139122167Y-121544882D01*
X139120744Y-121545879D01*
X139119042Y-121546829D01*
X139114800Y-121548587D01*
X139109437Y-121550158D01*
X139102947Y-121551542D01*
X139095327Y-121552738D01*
X139086572Y-121553749D01*
X139076677Y-121554573D01*
X139065639Y-121555212D01*
X139053452Y-121555666D01*
X139040112Y-121555935D01*
X139009955Y-121555922D01*
X138975133Y-121555175D01*
X138935609Y-121553698D01*
X138891348Y-121551495D01*
X138842314Y-121548570D01*
X138788471Y-121544925D01*
X138355778Y-121514141D01*
X138099368Y-121514141D01*
X138099368Y-121284961D01*
X138099368Y-120611886D01*
X137875009Y-120611886D01*
X137650651Y-120611886D01*
X137650651Y-121284961D01*
X137650651Y-121958037D01*
X135704714Y-121958037D01*
X136160265Y-121957877D01*
X136313776Y-121956490D01*
X136444137Y-121952110D01*
X136501676Y-121948628D01*
X136554674Y-121944193D01*
X136603548Y-121938739D01*
X136648712Y-121932195D01*
X136690583Y-121924496D01*
X136729576Y-121915572D01*
X136766108Y-121905355D01*
X136800593Y-121893778D01*
X136833447Y-121880772D01*
X136865087Y-121866270D01*
X136895927Y-121850203D01*
X136926384Y-121832504D01*
X136926384Y-121832430D01*
X136975677Y-121799824D01*
X137021791Y-121764192D01*
X137064725Y-121725736D01*
X137104478Y-121684658D01*
X137141051Y-121641159D01*
X137174443Y-121595441D01*
X137204656Y-121547706D01*
X137231688Y-121498156D01*
X137255540Y-121446992D01*
X137276211Y-121394416D01*
X137293703Y-121340629D01*
X137308014Y-121285834D01*
X137308189Y-121284961D01*
X137319145Y-121230233D01*
X137327095Y-121174026D01*
X137331866Y-121117415D01*
X137333456Y-121060603D01*
X137331866Y-121003791D01*
X137327095Y-120947180D01*
X137319145Y-120890973D01*
X137308014Y-120835371D01*
X137293703Y-120780576D01*
X137276211Y-120726790D01*
X137255540Y-120674214D01*
X137231688Y-120623050D01*
X137204656Y-120573499D01*
X137174443Y-120525765D01*
X137141051Y-120480047D01*
X137104478Y-120436548D01*
X137064725Y-120395470D01*
X137021791Y-120357014D01*
X136975677Y-120321382D01*
X136926384Y-120288776D01*
X136895927Y-120271077D01*
X136873358Y-120259319D01*
X137586549Y-120259319D01*
X137586877Y-120285376D01*
X137588076Y-120308466D01*
X137589102Y-120318954D01*
X137590464Y-120328767D01*
X137592204Y-120337927D01*
X137594361Y-120346456D01*
X137596975Y-120354377D01*
X137600086Y-120361711D01*
X137603734Y-120368481D01*
X137607958Y-120374709D01*
X137612799Y-120380417D01*
X137618296Y-120385628D01*
X137624490Y-120390363D01*
X137631420Y-120394644D01*
X137639127Y-120398494D01*
X137647650Y-120401935D01*
X137657028Y-120404989D01*
X137667303Y-120407679D01*
X137678513Y-120410026D01*
X137690700Y-120412052D01*
X137703902Y-120413781D01*
X137718159Y-120415233D01*
X137750001Y-120417398D01*
X137786544Y-120418725D01*
X137828107Y-120419391D01*
X137875010Y-120419574D01*
X137963477Y-120418725D01*
X138000019Y-120417398D01*
X138031861Y-120415233D01*
X138059321Y-120412053D01*
X138082717Y-120407680D01*
X138092992Y-120404990D01*
X138102371Y-120401936D01*
X138110893Y-120398495D01*
X138118600Y-120394645D01*
X138125530Y-120390364D01*
X138131724Y-120385629D01*
X138137222Y-120380419D01*
X138142063Y-120374711D01*
X138146287Y-120368483D01*
X138149935Y-120361713D01*
X138153045Y-120354378D01*
X138155659Y-120346457D01*
X138159556Y-120328768D01*
X138161944Y-120308467D01*
X138163143Y-120285376D01*
X138163472Y-120259319D01*
X138163143Y-120233262D01*
X138161945Y-120210170D01*
X138160919Y-120199682D01*
X138159556Y-120189869D01*
X138157816Y-120180708D01*
X138155660Y-120172179D01*
X138153046Y-120164258D01*
X138149935Y-120156923D01*
X138146287Y-120150153D01*
X138142063Y-120143924D01*
X138137222Y-120138216D01*
X138131724Y-120133006D01*
X138125530Y-120128271D01*
X138118600Y-120123989D01*
X138110894Y-120120139D01*
X138102371Y-120116698D01*
X138092992Y-120113643D01*
X138082718Y-120110954D01*
X138071507Y-120108607D01*
X138059321Y-120106580D01*
X138046119Y-120104852D01*
X138031861Y-120103400D01*
X138000020Y-120101234D01*
X137963477Y-120099908D01*
X137921913Y-120099241D01*
X137875010Y-120099059D01*
X137786544Y-120099907D01*
X137750001Y-120101234D01*
X137718159Y-120103399D01*
X137690700Y-120106580D01*
X137667303Y-120110953D01*
X137657028Y-120113643D01*
X137647650Y-120116697D01*
X137639127Y-120120138D01*
X137631420Y-120123988D01*
X137624490Y-120128269D01*
X137618296Y-120133004D01*
X137612799Y-120138215D01*
X137607958Y-120143923D01*
X137603734Y-120150151D01*
X137600086Y-120156922D01*
X137596975Y-120164256D01*
X137594361Y-120172177D01*
X137590464Y-120189868D01*
X137588076Y-120210170D01*
X137586877Y-120233261D01*
X137586549Y-120259319D01*
X136873358Y-120259319D01*
X136865087Y-120255010D01*
X136833447Y-120240508D01*
X136800593Y-120227502D01*
X136766108Y-120215925D01*
X136729576Y-120205708D01*
X136690583Y-120196784D01*
X136648712Y-120189084D01*
X136603548Y-120182541D01*
X136554674Y-120177086D01*
X136501676Y-120172652D01*
X136444137Y-120169170D01*
X136381643Y-120166572D01*
X136313776Y-120164791D01*
X136240122Y-120163759D01*
X136160265Y-120163406D01*
X135599368Y-120163206D01*
X135599368Y-121060640D01*
X135599368Y-121958074D01*
X134513814Y-121958074D01*
X134511840Y-121060640D01*
X134511488Y-120900346D01*
X134513613Y-118272136D01*
X135631422Y-118272136D01*
X135632778Y-118424775D01*
X135634722Y-118491172D01*
X135637734Y-118551969D01*
X135641980Y-118607925D01*
X135647626Y-118659801D01*
X135654842Y-118708358D01*
X135663792Y-118754357D01*
X135674644Y-118798557D01*
X135687565Y-118841720D01*
X135702722Y-118884605D01*
X135720282Y-118927974D01*
X135740412Y-118972587D01*
X135763279Y-119019205D01*
X135817892Y-119121496D01*
X135878623Y-119229458D01*
X135904711Y-119273485D01*
X135928765Y-119311470D01*
X135951401Y-119343858D01*
X135962380Y-119358092D01*
X135973234Y-119371093D01*
X135984042Y-119382918D01*
X135994879Y-119393622D01*
X136005822Y-119403261D01*
X136016949Y-119411890D01*
X136028337Y-119419565D01*
X136040061Y-119426341D01*
X136052200Y-119432274D01*
X136064829Y-119437421D01*
X136078026Y-119441836D01*
X136091867Y-119445575D01*
X136106430Y-119448693D01*
X136121791Y-119451248D01*
X136155215Y-119454885D01*
X136192754Y-119456932D01*
X136235022Y-119457834D01*
X136282635Y-119458035D01*
X136338535Y-119457304D01*
X136390684Y-119455209D01*
X136437942Y-119451897D01*
X136479166Y-119447515D01*
X136513217Y-119442210D01*
X136527195Y-119439257D01*
X136538952Y-119436128D01*
X136548344Y-119432842D01*
X136555230Y-119429417D01*
X136559466Y-119425872D01*
X136560545Y-119424059D01*
X136560908Y-119422225D01*
X136560908Y-119422226D01*
X136560908Y-119422227D01*
X136560907Y-119422227D01*
X136560661Y-119420081D01*
X136559929Y-119417349D01*
X136557061Y-119410200D01*
X136552398Y-119400920D01*
X136546037Y-119389646D01*
X136538075Y-119376521D01*
X136528609Y-119361682D01*
X136517735Y-119345269D01*
X136505549Y-119327423D01*
X136477631Y-119287988D01*
X136445628Y-119244492D01*
X136410312Y-119198053D01*
X136372456Y-119149789D01*
X136336106Y-119101952D01*
X136302098Y-119052729D01*
X136270431Y-119002213D01*
X136241106Y-118950497D01*
X136229116Y-118927027D01*
X136753214Y-118927027D01*
X136753554Y-118927958D01*
X136754562Y-118928879D01*
X136756221Y-118929786D01*
X136758516Y-118930679D01*
X136764943Y-118932419D01*
X136773710Y-118934088D01*
X136784684Y-118935678D01*
X136797731Y-118937178D01*
X136812719Y-118938580D01*
X136829514Y-118939874D01*
X136867994Y-118942102D01*
X136912105Y-118943786D01*
X136960782Y-118944851D01*
X137012959Y-118945223D01*
X137054038Y-118944942D01*
X137090870Y-118943973D01*
X137123777Y-118942130D01*
X137153078Y-118939222D01*
X137179092Y-118935064D01*
X137190966Y-118932456D01*
X137202139Y-118929465D01*
X137212650Y-118926067D01*
X137222539Y-118922239D01*
X137231846Y-118917957D01*
X137240611Y-118913197D01*
X137248874Y-118907936D01*
X137256675Y-118902151D01*
X137264054Y-118895817D01*
X137271050Y-118888912D01*
X137277705Y-118881412D01*
X137284057Y-118873294D01*
X137290147Y-118864533D01*
X137296014Y-118855107D01*
X137307242Y-118834164D01*
X137318060Y-118810277D01*
X137328787Y-118783257D01*
X137339743Y-118752916D01*
X137339743Y-118752913D01*
X137339743Y-118752912D01*
X137339743Y-118752911D01*
X137339743Y-118752910D01*
X137339742Y-118752909D01*
X137339742Y-118752908D01*
X137350894Y-118721932D01*
X137361744Y-118694441D01*
X137367172Y-118681938D01*
X137372666Y-118670229D01*
X137378272Y-118659289D01*
X137384037Y-118649092D01*
X137390008Y-118639612D01*
X137396233Y-118630823D01*
X137402757Y-118622701D01*
X137409629Y-118615219D01*
X137416894Y-118608352D01*
X137424601Y-118602074D01*
X137432796Y-118596359D01*
X137441526Y-118591183D01*
X137450837Y-118586519D01*
X137460778Y-118582341D01*
X137471395Y-118578624D01*
X137482735Y-118575343D01*
X137494845Y-118572472D01*
X137507771Y-118569984D01*
X137521562Y-118567856D01*
X137536264Y-118566060D01*
X137568587Y-118563364D01*
X137605119Y-118561692D01*
X137646233Y-118560840D01*
X137692307Y-118560601D01*
X137738380Y-118560840D01*
X137779494Y-118561692D01*
X137816025Y-118563363D01*
X137848349Y-118566059D01*
X137876841Y-118569983D01*
X137901877Y-118575342D01*
X137913217Y-118578623D01*
X137923834Y-118582339D01*
X137933775Y-118586517D01*
X137943087Y-118591181D01*
X137951816Y-118596357D01*
X137960011Y-118602071D01*
X137967718Y-118608349D01*
X137974984Y-118615217D01*
X137981855Y-118622698D01*
X137988380Y-118630821D01*
X137994604Y-118639609D01*
X138000575Y-118649089D01*
X138011947Y-118670227D01*
X138022869Y-118694440D01*
X138033719Y-118721931D01*
X138044871Y-118752908D01*
X138055933Y-118783590D01*
X138066727Y-118810863D01*
X138077601Y-118834925D01*
X138083177Y-118845813D01*
X138088904Y-118855973D01*
X138094825Y-118865428D01*
X138100985Y-118874204D01*
X138107425Y-118882325D01*
X138114191Y-118889815D01*
X138121326Y-118896700D01*
X138128873Y-118903003D01*
X138136876Y-118908751D01*
X138145379Y-118913966D01*
X138154424Y-118918675D01*
X138164056Y-118922901D01*
X138174319Y-118926669D01*
X138185255Y-118930005D01*
X138196909Y-118932932D01*
X138209323Y-118935474D01*
X138222542Y-118937658D01*
X138236610Y-118939508D01*
X138267464Y-118942301D01*
X138302233Y-118944052D01*
X138341267Y-118944959D01*
X138384914Y-118945217D01*
X138657918Y-118945217D01*
X138330566Y-118045789D01*
X138164412Y-117589267D01*
X138868598Y-117589267D01*
X138868598Y-118267246D01*
X138868598Y-118945225D01*
X139090260Y-118945225D01*
X139311922Y-118945225D01*
X139330645Y-118448420D01*
X139349367Y-117951629D01*
X139541675Y-117951629D01*
X139733983Y-117951629D01*
X139752704Y-118448420D01*
X139771427Y-118945217D01*
X140025140Y-118945217D01*
X140278854Y-118945217D01*
X140278854Y-118512101D01*
X140277901Y-118423845D01*
X140275079Y-118338461D01*
X140270447Y-118256206D01*
X140264062Y-118177336D01*
X140255981Y-118102108D01*
X140246263Y-118030781D01*
X140234965Y-117963610D01*
X140222144Y-117900852D01*
X140207859Y-117842765D01*
X140192167Y-117789606D01*
X140181408Y-117759320D01*
X140407060Y-117759320D01*
X140407483Y-117777552D01*
X140408738Y-117794835D01*
X140410807Y-117811137D01*
X140413671Y-117826427D01*
X140417311Y-117840674D01*
X140421709Y-117853846D01*
X140426845Y-117865912D01*
X140432701Y-117876840D01*
X140439259Y-117886601D01*
X140442794Y-117891033D01*
X140446498Y-117895161D01*
X140450368Y-117898982D01*
X140454402Y-117902490D01*
X140458596Y-117905684D01*
X140462950Y-117908557D01*
X140467460Y-117911107D01*
X140472124Y-117913330D01*
X140476940Y-117915222D01*
X140481905Y-117916778D01*
X140487017Y-117917996D01*
X140492274Y-117918870D01*
X140497674Y-117919398D01*
X140503214Y-117919575D01*
X140510095Y-117919833D01*
X140516667Y-117920623D01*
X140522934Y-117921972D01*
X140528902Y-117923903D01*
X140534579Y-117926441D01*
X140539968Y-117929611D01*
X140545078Y-117933438D01*
X140549913Y-117937946D01*
X140554480Y-117943161D01*
X140558785Y-117949108D01*
X140562834Y-117955810D01*
X140566633Y-117963293D01*
X140570187Y-117971582D01*
X140573504Y-117980702D01*
X140576588Y-117990677D01*
X140579447Y-118001532D01*
X140582085Y-118013292D01*
X140584509Y-118025982D01*
X140586726Y-118039627D01*
X140588741Y-118054251D01*
X140590560Y-118069879D01*
X140592189Y-118086536D01*
X140593634Y-118104248D01*
X140594902Y-118123037D01*
X140595997Y-118142931D01*
X140596928Y-118163953D01*
X140598315Y-118209481D01*
X140599112Y-118259820D01*
X140599367Y-118315168D01*
X140600545Y-118408314D01*
X140604343Y-118492194D01*
X140611156Y-118567258D01*
X140621380Y-118633954D01*
X140627895Y-118664304D01*
X140635411Y-118692732D01*
X140643977Y-118719292D01*
X140653644Y-118744041D01*
X140664461Y-118767035D01*
X140676476Y-118788331D01*
X140689740Y-118807984D01*
X140704302Y-118826051D01*
X140720211Y-118842587D01*
X140737517Y-118857650D01*
X140756269Y-118871295D01*
X140776518Y-118883578D01*
X140798311Y-118894556D01*
X140821699Y-118904285D01*
X140846732Y-118912820D01*
X140873458Y-118920219D01*
X140901927Y-118926536D01*
X140932189Y-118931829D01*
X140998288Y-118939566D01*
X141072151Y-118943879D01*
X141154174Y-118945217D01*
X141689108Y-118945217D01*
X141913468Y-118945217D01*
X142137828Y-118945217D01*
X143676290Y-118945217D01*
X143932700Y-118945217D01*
X144189110Y-118945217D01*
X144189110Y-118560604D01*
X144189110Y-118175988D01*
X144573725Y-118175988D01*
X144695770Y-118175383D01*
X144745694Y-118174321D01*
X144788869Y-118172482D01*
X144825784Y-118169663D01*
X144856928Y-118165659D01*
X144882788Y-118160267D01*
X144903853Y-118153285D01*
X144912740Y-118149133D01*
X144920611Y-118144508D01*
X144927527Y-118139383D01*
X144933550Y-118133733D01*
X144938741Y-118127532D01*
X144943159Y-118120756D01*
X144946868Y-118113379D01*
X144949926Y-118105375D01*
X144954340Y-118087386D01*
X144956888Y-118066585D01*
X144958058Y-118042768D01*
X144958340Y-118015733D01*
X144958177Y-118000127D01*
X144958058Y-117988698D01*
X144957615Y-117976399D01*
X144956888Y-117964880D01*
X144955816Y-117954115D01*
X144954340Y-117944079D01*
X144952397Y-117934745D01*
X144949926Y-117926088D01*
X144946868Y-117918084D01*
X144943159Y-117910707D01*
X144938741Y-117903930D01*
X144933550Y-117897730D01*
X144927527Y-117892080D01*
X144920611Y-117886955D01*
X144912740Y-117882329D01*
X144903853Y-117878177D01*
X144893889Y-117874474D01*
X144882788Y-117871195D01*
X144870488Y-117868313D01*
X144856928Y-117865803D01*
X144842047Y-117863640D01*
X144825784Y-117861799D01*
X144808079Y-117860254D01*
X144788869Y-117858979D01*
X144745694Y-117857140D01*
X144695770Y-117856078D01*
X144638610Y-117855591D01*
X144573725Y-117855473D01*
X144189110Y-117855473D01*
X144189110Y-117663164D01*
X144189110Y-117599063D01*
X145214753Y-117599063D01*
X145214753Y-118000127D01*
X145215736Y-118083258D01*
X145218637Y-118164126D01*
X145223387Y-118242431D01*
X145229917Y-118317876D01*
X145238158Y-118390163D01*
X145248040Y-118458994D01*
X145259495Y-118524071D01*
X145272453Y-118585095D01*
X145286844Y-118641769D01*
X145302601Y-118693795D01*
X145319652Y-118740875D01*
X145337930Y-118782710D01*
X145357364Y-118819003D01*
X145377886Y-118849457D01*
X145399426Y-118873771D01*
X145421916Y-118891650D01*
X145434590Y-118898795D01*
X145449132Y-118905387D01*
X145483296Y-118916927D01*
X145523350Y-118926308D01*
X145568239Y-118933566D01*
X145616904Y-118938736D01*
X145668291Y-118941856D01*
X145721341Y-118942962D01*
X145775000Y-118942090D01*
X145828210Y-118939277D01*
X145879915Y-118934559D01*
X145929058Y-118927973D01*
X145974583Y-118919555D01*
X146015433Y-118909342D01*
X146050552Y-118897369D01*
X146078882Y-118883674D01*
X146090172Y-118876192D01*
X146099369Y-118868293D01*
X146099366Y-118868293D01*
X146110089Y-118857776D01*
X146119849Y-118848662D01*
X146128681Y-118840950D01*
X146136625Y-118834640D01*
X146140276Y-118832011D01*
X146143718Y-118829732D01*
X146146957Y-118827804D01*
X146149997Y-118826227D01*
X146152843Y-118825000D01*
X146155499Y-118824124D01*
X146157971Y-118823598D01*
X146160263Y-118823422D01*
X146162380Y-118823598D01*
X146164326Y-118824124D01*
X146166106Y-118825000D01*
X146167725Y-118826227D01*
X146169188Y-118827804D01*
X146170498Y-118829732D01*
X146171662Y-118832011D01*
X146172683Y-118834640D01*
X146173566Y-118837620D01*
X146174317Y-118840950D01*
X146174939Y-118844631D01*
X146175437Y-118848662D01*
X146176082Y-118857776D01*
X146176289Y-118868293D01*
X146176559Y-118872488D01*
X146177361Y-118876602D01*
X146178686Y-118880630D01*
X146180525Y-118884570D01*
X146182867Y-118888417D01*
X146185702Y-118892169D01*
X146189022Y-118895822D01*
X146192815Y-118899373D01*
X146197073Y-118902818D01*
X146201785Y-118906154D01*
X146206942Y-118909378D01*
X146212534Y-118912487D01*
X146218552Y-118915476D01*
X146224984Y-118918344D01*
X146231822Y-118921085D01*
X146239056Y-118923698D01*
X146246676Y-118926178D01*
X146254672Y-118928522D01*
X146263035Y-118930728D01*
X146271754Y-118932791D01*
X146280821Y-118934708D01*
X146290224Y-118936476D01*
X146299955Y-118938091D01*
X146310003Y-118939551D01*
X146320359Y-118940852D01*
X146331014Y-118941990D01*
X146341956Y-118942962D01*
X146353177Y-118943765D01*
X146364666Y-118944395D01*
X146376415Y-118944849D01*
X146388412Y-118945124D01*
X146400649Y-118945217D01*
X146625007Y-118945217D01*
X146625007Y-118272138D01*
X146625007Y-117599063D01*
X146403457Y-117599063D01*
X146181905Y-117599063D01*
X146163072Y-118063807D01*
X146144238Y-118528552D01*
X145951930Y-118528552D01*
X145759624Y-118528552D01*
X145740790Y-118063807D01*
X145721956Y-117599063D01*
X145468354Y-117599063D01*
X145214753Y-117599063D01*
X144189110Y-117599063D01*
X144189110Y-117589267D01*
X147009625Y-117589267D01*
X147009625Y-118267246D01*
X147009625Y-118945225D01*
X147231287Y-118945225D01*
X147452950Y-118945225D01*
X147471668Y-118448420D01*
X147490392Y-117951629D01*
X147682699Y-117951629D01*
X147875007Y-117951629D01*
X147893729Y-118448420D01*
X147912453Y-118945217D01*
X148166168Y-118945217D01*
X148419880Y-118945217D01*
X148419880Y-118512101D01*
X148418927Y-118423845D01*
X148416105Y-118338461D01*
X148411473Y-118256206D01*
X148409937Y-118237235D01*
X148616521Y-118237235D01*
X148617618Y-118288409D01*
X148621530Y-118340078D01*
X148628256Y-118392172D01*
X148637797Y-118444620D01*
X148650154Y-118497351D01*
X148665328Y-118550294D01*
X148683317Y-118603379D01*
X148704124Y-118656534D01*
X148713888Y-118678873D01*
X148724115Y-118700239D01*
X148734826Y-118720639D01*
X148746042Y-118740084D01*
X148757785Y-118758582D01*
X148770075Y-118776141D01*
X148782934Y-118792772D01*
X148796382Y-118808483D01*
X148810441Y-118823283D01*
X148825131Y-118837180D01*
X148840474Y-118850185D01*
X148856490Y-118862306D01*
X148873201Y-118873551D01*
X148890628Y-118883930D01*
X148908791Y-118893453D01*
X148927711Y-118902127D01*
X148947411Y-118909962D01*
X148967910Y-118916967D01*
X148989230Y-118923151D01*
X149011392Y-118928522D01*
X149034416Y-118933091D01*
X149058324Y-118936865D01*
X149083137Y-118939854D01*
X149108876Y-118942067D01*
X149135562Y-118943512D01*
X149163216Y-118944200D01*
X149191859Y-118944138D01*
X149221511Y-118943335D01*
X149252195Y-118941802D01*
X149283931Y-118939546D01*
X149350642Y-118932903D01*
X149376035Y-118930225D01*
X149399935Y-118928287D01*
X149422299Y-118927081D01*
X149443084Y-118926597D01*
X149462248Y-118926827D01*
X149479747Y-118927763D01*
X149495538Y-118929395D01*
X149509578Y-118931714D01*
X149521825Y-118934713D01*
X149532234Y-118938382D01*
X149540765Y-118942713D01*
X149547372Y-118947698D01*
X149549941Y-118950432D01*
X149552014Y-118953326D01*
X149553584Y-118956379D01*
X149554647Y-118959590D01*
X149555197Y-118962958D01*
X149555228Y-118966481D01*
X149554736Y-118970159D01*
X149553715Y-118973990D01*
X149552059Y-118977469D01*
X149549399Y-118980954D01*
X149545763Y-118984438D01*
X149541178Y-118987916D01*
X149535670Y-118991383D01*
X149529266Y-118994833D01*
X149513877Y-119001660D01*
X149495225Y-119008353D01*
X149473524Y-119014868D01*
X149448989Y-119021160D01*
X149421833Y-119027185D01*
X149392272Y-119032899D01*
X149360518Y-119038257D01*
X149326787Y-119043215D01*
X149291291Y-119047729D01*
X149254246Y-119051755D01*
X149215866Y-119055247D01*
X149176364Y-119058162D01*
X149135956Y-119060456D01*
X149006688Y-119067152D01*
X148954244Y-119070658D01*
X148909181Y-119074660D01*
X148870938Y-119079455D01*
X148838957Y-119085337D01*
X148812677Y-119092601D01*
X148801500Y-119096844D01*
X148791539Y-119101542D01*
X148782724Y-119106733D01*
X148774984Y-119112454D01*
X148768250Y-119118741D01*
X148762452Y-119125631D01*
X148757519Y-119133162D01*
X148753383Y-119141370D01*
X148749972Y-119150291D01*
X148747217Y-119159964D01*
X148743396Y-119181708D01*
X148741360Y-119206897D01*
X148740402Y-119268790D01*
X148740402Y-119458041D01*
X149217598Y-119458041D01*
X149357710Y-119456871D01*
X149417867Y-119455209D01*
X149472182Y-119452650D01*
X149521221Y-119449062D01*
X149565552Y-119444310D01*
X149605741Y-119438262D01*
X149642356Y-119430785D01*
X149653240Y-119427857D01*
X152907057Y-119427857D01*
X152907387Y-119429403D01*
X152908365Y-119430930D01*
X152909975Y-119432436D01*
X152912201Y-119433917D01*
X152915028Y-119435374D01*
X152918438Y-119436803D01*
X152926945Y-119439572D01*
X152937594Y-119442209D01*
X152950255Y-119444698D01*
X152964799Y-119447023D01*
X152981096Y-119449169D01*
X152999018Y-119451121D01*
X153018435Y-119452863D01*
X153039218Y-119454380D01*
X153061238Y-119455655D01*
X153084366Y-119456675D01*
X153108472Y-119457422D01*
X153133427Y-119457881D01*
X153159102Y-119458038D01*
X153195643Y-119457617D01*
X153229368Y-119456281D01*
X153260502Y-119453924D01*
X153289272Y-119450440D01*
X153315905Y-119445720D01*
X153340626Y-119439659D01*
X153363663Y-119432150D01*
X153385241Y-119423085D01*
X153405587Y-119412359D01*
X153424928Y-119399863D01*
X153443489Y-119385491D01*
X153461497Y-119369137D01*
X153479179Y-119350693D01*
X153496760Y-119330053D01*
X153514468Y-119307110D01*
X153532528Y-119281756D01*
X153570241Y-119225063D01*
X153604972Y-119168753D01*
X153636797Y-119112563D01*
X153665792Y-119056225D01*
X153692032Y-118999476D01*
X153715593Y-118942049D01*
X153736551Y-118883679D01*
X153754981Y-118824102D01*
X153770960Y-118763050D01*
X153784562Y-118700260D01*
X153795865Y-118635465D01*
X153804942Y-118568401D01*
X153811870Y-118498801D01*
X153816725Y-118426401D01*
X153819583Y-118350935D01*
X153820519Y-118272138D01*
X153819583Y-118193342D01*
X153816725Y-118117877D01*
X153811870Y-118045477D01*
X153804942Y-117975878D01*
X153795865Y-117908814D01*
X153784562Y-117844019D01*
X153770960Y-117781229D01*
X153754981Y-117720178D01*
X153736551Y-117660600D01*
X153715593Y-117602230D01*
X153692032Y-117544803D01*
X153665792Y-117488054D01*
X153636797Y-117431717D01*
X153604972Y-117375526D01*
X153570241Y-117319217D01*
X153532528Y-117262523D01*
X153514468Y-117237170D01*
X153496760Y-117214226D01*
X153487968Y-117203624D01*
X153479179Y-117193585D01*
X153470365Y-117184096D01*
X153461497Y-117175141D01*
X153452548Y-117166710D01*
X153443489Y-117158787D01*
X153434292Y-117151360D01*
X153424928Y-117144416D01*
X153415369Y-117137940D01*
X153405587Y-117131920D01*
X153395554Y-117126342D01*
X153385241Y-117121193D01*
X153374620Y-117116460D01*
X153363663Y-117112129D01*
X153352341Y-117108186D01*
X153340626Y-117104619D01*
X153328490Y-117101415D01*
X153315905Y-117098559D01*
X153302842Y-117096038D01*
X153289272Y-117093840D01*
X153275168Y-117091950D01*
X153260502Y-117090355D01*
X153229368Y-117087999D01*
X153195643Y-117086663D01*
X153159102Y-117086241D01*
X153108472Y-117086857D01*
X153061238Y-117088622D01*
X153018435Y-117091412D01*
X152981096Y-117095103D01*
X152950255Y-117099574D01*
X152937594Y-117102062D01*
X152926945Y-117104699D01*
X152918438Y-117107468D01*
X152912201Y-117110355D01*
X152908365Y-117113344D01*
X152907387Y-117114872D01*
X152907057Y-117116420D01*
X152907330Y-117118352D01*
X152908138Y-117121025D01*
X152911309Y-117128511D01*
X152916464Y-117138710D01*
X152923496Y-117151454D01*
X152942763Y-117183913D01*
X152968255Y-117224550D01*
X152999119Y-117272029D01*
X153034499Y-117325015D01*
X153073541Y-117382172D01*
X153115391Y-117442161D01*
X153149824Y-117491525D01*
X153180257Y-117536660D01*
X153206935Y-117578543D01*
X153230103Y-117618154D01*
X153250007Y-117656469D01*
X153258812Y-117675446D01*
X153266893Y-117694467D01*
X153274280Y-117713652D01*
X153281005Y-117733125D01*
X153287098Y-117753008D01*
X153292589Y-117773422D01*
X153297510Y-117794491D01*
X153301891Y-117816336D01*
X153309157Y-117862843D01*
X153314631Y-117913924D01*
X153318560Y-117970554D01*
X153321188Y-118033713D01*
X153322761Y-118104378D01*
X153323725Y-118272138D01*
X153322761Y-118439899D01*
X153321187Y-118510564D01*
X153318559Y-118573722D01*
X153314630Y-118630353D01*
X153309155Y-118681433D01*
X153301890Y-118727941D01*
X153292587Y-118770855D01*
X153281002Y-118811152D01*
X153266890Y-118849811D01*
X153250005Y-118887809D01*
X153230101Y-118926124D01*
X153206933Y-118965735D01*
X153180256Y-119007619D01*
X153115391Y-119102118D01*
X153073541Y-119162107D01*
X153034499Y-119219262D01*
X152999119Y-119272246D01*
X152968255Y-119319725D01*
X152942763Y-119360362D01*
X152923496Y-119392820D01*
X152911309Y-119415764D01*
X152908138Y-119423250D01*
X152907057Y-119427857D01*
X149653240Y-119427857D01*
X149675963Y-119421744D01*
X149707131Y-119411006D01*
X149736425Y-119398439D01*
X149764413Y-119383907D01*
X149791662Y-119367279D01*
X149818740Y-119348421D01*
X149846212Y-119327199D01*
X149874647Y-119303480D01*
X149874640Y-119303477D01*
X149905634Y-119276471D01*
X149919712Y-119263718D01*
X149932890Y-119251254D01*
X149945203Y-119238923D01*
X149956684Y-119226567D01*
X149967368Y-119214028D01*
X149977289Y-119201150D01*
X149986481Y-119187775D01*
X149994979Y-119173746D01*
X150002818Y-119158905D01*
X150010030Y-119143095D01*
X150016652Y-119126159D01*
X150022716Y-119107940D01*
X150028258Y-119088279D01*
X150033311Y-119067020D01*
X150037910Y-119044005D01*
X150042090Y-119019078D01*
X150045883Y-118992080D01*
X150049326Y-118962855D01*
X150051070Y-118945220D01*
X152073724Y-118945220D01*
X152298084Y-118945220D01*
X152522441Y-118945220D01*
X152522441Y-118015733D01*
X152522441Y-117116420D01*
X152522441Y-117086244D01*
X152298084Y-117086244D01*
X152073724Y-117086244D01*
X152073724Y-118015733D01*
X152073724Y-118945220D01*
X150051070Y-118945220D01*
X150052452Y-118931244D01*
X150055295Y-118897091D01*
X150057890Y-118860239D01*
X150060270Y-118820530D01*
X150064527Y-118731911D01*
X150068339Y-118629976D01*
X150071561Y-118526926D01*
X150345307Y-118526926D01*
X150346991Y-118560139D01*
X150351512Y-118593784D01*
X150358925Y-118627789D01*
X150369284Y-118662080D01*
X150382645Y-118696586D01*
X150399062Y-118731234D01*
X150418592Y-118765952D01*
X150441287Y-118800667D01*
X150449631Y-118812334D01*
X150457912Y-118823340D01*
X150466226Y-118833706D01*
X150474669Y-118843449D01*
X150483336Y-118852588D01*
X150492324Y-118861142D01*
X150501728Y-118869130D01*
X150511645Y-118876570D01*
X150522169Y-118883480D01*
X150533397Y-118889880D01*
X150545425Y-118895789D01*
X150558349Y-118901224D01*
X150572264Y-118906205D01*
X150587266Y-118910751D01*
X150603451Y-118914879D01*
X150620915Y-118918609D01*
X150639753Y-118921960D01*
X150660063Y-118924950D01*
X150681938Y-118927597D01*
X150705476Y-118929921D01*
X150730773Y-118931941D01*
X150757923Y-118933674D01*
X150787022Y-118935140D01*
X150818168Y-118936357D01*
X150886979Y-118938120D01*
X150965123Y-118939112D01*
X151053366Y-118939483D01*
X151152475Y-118939383D01*
X151765330Y-118937795D01*
X151743246Y-118335170D01*
X151737760Y-118201907D01*
X151731032Y-118084381D01*
X151725067Y-118015733D01*
X151722100Y-117981601D01*
X151710003Y-117892578D01*
X151702467Y-117852916D01*
X151693779Y-117816321D01*
X151683819Y-117782671D01*
X151672467Y-117751842D01*
X151659602Y-117723709D01*
X151645105Y-117698149D01*
X151628855Y-117675039D01*
X151610731Y-117654254D01*
X151590615Y-117635671D01*
X151568385Y-117619166D01*
X151543922Y-117604615D01*
X151517105Y-117591895D01*
X151487813Y-117580882D01*
X151455928Y-117571452D01*
X151421329Y-117563481D01*
X151383894Y-117556846D01*
X151300042Y-117547088D01*
X151203409Y-117541188D01*
X151093034Y-117538155D01*
X150967956Y-117537001D01*
X150471161Y-117534956D01*
X150471161Y-117727265D01*
X150471161Y-117919575D01*
X150855775Y-117919575D01*
X150933650Y-117920868D01*
X151006016Y-117924583D01*
X151071370Y-117930467D01*
X151128211Y-117938271D01*
X151152969Y-117942815D01*
X151175035Y-117947745D01*
X151194222Y-117953030D01*
X151210342Y-117958638D01*
X151223206Y-117964538D01*
X151232627Y-117970699D01*
X151238418Y-117977090D01*
X151239893Y-117980361D01*
X151240390Y-117983679D01*
X151240092Y-117986964D01*
X151239209Y-117990209D01*
X151237755Y-117993407D01*
X151235745Y-117996555D01*
X151233194Y-117999650D01*
X151230115Y-118002686D01*
X151226524Y-118005660D01*
X151222435Y-118008568D01*
X151217863Y-118011406D01*
X151212822Y-118014168D01*
X151207327Y-118016853D01*
X151201392Y-118019454D01*
X151195033Y-118021969D01*
X151188262Y-118024392D01*
X151181097Y-118026721D01*
X151173549Y-118028950D01*
X151157370Y-118033095D01*
X151139841Y-118036794D01*
X151121078Y-118040014D01*
X151101198Y-118042722D01*
X151080319Y-118044885D01*
X151058557Y-118046472D01*
X151036027Y-118047447D01*
X151012848Y-118047780D01*
X150962956Y-118048889D01*
X150914580Y-118052170D01*
X150867776Y-118057549D01*
X150822598Y-118064954D01*
X150779101Y-118074312D01*
X150737341Y-118085552D01*
X150697373Y-118098600D01*
X150659251Y-118113384D01*
X150623030Y-118129832D01*
X150588766Y-118147872D01*
X150556514Y-118167430D01*
X150526328Y-118188434D01*
X150498263Y-118210813D01*
X150472375Y-118234492D01*
X150448719Y-118259401D01*
X150427349Y-118285466D01*
X150408321Y-118312615D01*
X150391689Y-118340776D01*
X150377509Y-118369876D01*
X150365835Y-118399843D01*
X150356723Y-118430603D01*
X150350228Y-118462086D01*
X150346404Y-118494218D01*
X150345307Y-118526926D01*
X150071561Y-118526926D01*
X150071982Y-118513466D01*
X150075729Y-118381123D01*
X150096959Y-117613328D01*
X149586015Y-117568098D01*
X149482518Y-117559707D01*
X149388440Y-117553864D01*
X149303152Y-117550773D01*
X149226027Y-117550640D01*
X149156439Y-117553669D01*
X149093760Y-117560064D01*
X149037363Y-117570031D01*
X148986621Y-117583773D01*
X148940906Y-117601495D01*
X148899593Y-117623402D01*
X148862053Y-117649699D01*
X148827659Y-117680590D01*
X148795784Y-117716280D01*
X148765802Y-117756974D01*
X148737085Y-117802875D01*
X148709005Y-117854189D01*
X148687604Y-117898847D01*
X148669013Y-117944568D01*
X148653234Y-117991280D01*
X148640266Y-118038913D01*
X148630111Y-118087396D01*
X148622768Y-118136658D01*
X148618237Y-118186628D01*
X148616521Y-118237235D01*
X148409937Y-118237235D01*
X148405088Y-118177336D01*
X148397007Y-118102108D01*
X148387289Y-118030781D01*
X148375991Y-117963610D01*
X148363170Y-117900852D01*
X148348885Y-117842765D01*
X148333193Y-117789606D01*
X148316151Y-117741631D01*
X148297817Y-117699099D01*
X148278250Y-117662265D01*
X148257506Y-117631387D01*
X148235643Y-117606721D01*
X148212719Y-117588526D01*
X148202166Y-117582701D01*
X148189495Y-117577217D01*
X148158393Y-117567280D01*
X148120605Y-117558728D01*
X148077320Y-117551578D01*
X148029730Y-117545843D01*
X147979024Y-117541538D01*
X147926392Y-117538678D01*
X147873024Y-117537279D01*
X147820112Y-117537354D01*
X147768845Y-117538920D01*
X147720414Y-117541990D01*
X147676008Y-117546579D01*
X147636819Y-117552703D01*
X147604035Y-117560376D01*
X147578849Y-117569613D01*
X147569476Y-117574823D01*
X147562449Y-117580429D01*
X147559787Y-117582736D01*
X147556501Y-117584966D01*
X147552612Y-117587117D01*
X147548138Y-117589189D01*
X147537513Y-117593084D01*
X147524779Y-117596638D01*
X147510089Y-117599836D01*
X147493597Y-117602665D01*
X147475457Y-117605111D01*
X147455821Y-117607159D01*
X147434843Y-117608796D01*
X147412676Y-117610009D01*
X147389474Y-117610782D01*
X147365390Y-117611103D01*
X147340578Y-117610957D01*
X147315190Y-117610330D01*
X147289381Y-117609209D01*
X147263303Y-117607580D01*
X147009625Y-117589267D01*
X144189110Y-117589267D01*
X144189110Y-117470857D01*
X144605778Y-117470857D01*
X144739016Y-117470308D01*
X144793399Y-117469308D01*
X144840353Y-117467544D01*
X144880420Y-117464808D01*
X144914146Y-117460889D01*
X144942075Y-117455579D01*
X144964752Y-117448668D01*
X144974291Y-117444546D01*
X144982721Y-117439946D01*
X144990111Y-117434840D01*
X144996528Y-117429204D01*
X145002040Y-117423010D01*
X145006716Y-117416232D01*
X145010623Y-117408845D01*
X145013830Y-117400822D01*
X145018416Y-117382763D01*
X145021017Y-117361846D01*
X145022178Y-117337861D01*
X145022444Y-117310600D01*
X145022444Y-117150346D01*
X144349367Y-117150346D01*
X143676290Y-117150346D01*
X143676290Y-118047780D01*
X143676290Y-118945217D01*
X142137828Y-118945217D01*
X142137828Y-118272138D01*
X142137828Y-118143936D01*
X142458338Y-118143936D01*
X142458573Y-118171558D01*
X142458989Y-118184092D01*
X142459715Y-118195811D01*
X142460832Y-118206742D01*
X142462423Y-118216912D01*
X142464569Y-118226350D01*
X142467353Y-118235082D01*
X142470856Y-118243136D01*
X142475162Y-118250539D01*
X142480352Y-118257319D01*
X142486508Y-118263503D01*
X142493713Y-118269118D01*
X142502049Y-118274192D01*
X142511597Y-118278752D01*
X142522441Y-118282825D01*
X142534662Y-118286440D01*
X142548342Y-118289623D01*
X142563563Y-118292401D01*
X142580409Y-118294803D01*
X142598960Y-118296855D01*
X142619299Y-118298585D01*
X142641508Y-118300020D01*
X142665670Y-118301188D01*
X142720179Y-118302832D01*
X142783483Y-118303734D01*
X142856240Y-118304115D01*
X142939107Y-118304193D01*
X143094731Y-118303734D01*
X143212545Y-118301187D01*
X143258916Y-118298583D01*
X143297807Y-118294800D01*
X143329874Y-118289619D01*
X143355775Y-118282821D01*
X143376167Y-118274187D01*
X143384503Y-118269113D01*
X143391707Y-118263498D01*
X143397864Y-118257314D01*
X143403054Y-118250534D01*
X143407360Y-118243131D01*
X143410863Y-118235077D01*
X143415793Y-118216908D01*
X143418501Y-118195807D01*
X143419643Y-118171556D01*
X143419878Y-118143936D01*
X143419643Y-118116314D01*
X143419226Y-118103780D01*
X143418501Y-118092061D01*
X143417384Y-118081130D01*
X143415793Y-118070960D01*
X143413647Y-118061522D01*
X143410863Y-118052790D01*
X143408684Y-118047780D01*
X143407360Y-118044736D01*
X143403054Y-118037333D01*
X143397864Y-118030554D01*
X143391707Y-118024370D01*
X143384503Y-118018755D01*
X143376167Y-118013681D01*
X143366618Y-118009121D01*
X143355775Y-118005048D01*
X143343554Y-118001433D01*
X143329874Y-117998251D01*
X143314652Y-117995472D01*
X143297807Y-117993071D01*
X143279256Y-117991019D01*
X143258916Y-117989289D01*
X143236707Y-117987854D01*
X143212545Y-117986686D01*
X143158036Y-117985043D01*
X143094731Y-117984140D01*
X143021974Y-117983760D01*
X142939107Y-117983681D01*
X142783483Y-117984140D01*
X142665670Y-117986685D01*
X142619299Y-117989288D01*
X142580409Y-117993069D01*
X142548342Y-117998249D01*
X142522441Y-118005046D01*
X142502049Y-118013679D01*
X142493713Y-118018753D01*
X142486508Y-118024368D01*
X142480352Y-118030551D01*
X142475162Y-118037331D01*
X142470856Y-118044734D01*
X142467353Y-118052788D01*
X142462423Y-118070958D01*
X142459715Y-118092060D01*
X142458573Y-118116313D01*
X142458338Y-118143936D01*
X142137828Y-118143936D01*
X142137828Y-117599063D01*
X141913468Y-117599063D01*
X141689108Y-117599063D01*
X141689108Y-118272138D01*
X141689108Y-118945217D01*
X141154174Y-118945217D01*
X141265929Y-118944734D01*
X141311292Y-118943725D01*
X141350288Y-118941844D01*
X141383398Y-118938821D01*
X141411103Y-118934385D01*
X141423079Y-118931554D01*
X141433885Y-118928267D01*
X141443580Y-118924493D01*
X141452225Y-118920197D01*
X141459879Y-118915344D01*
X141466604Y-118909903D01*
X141472459Y-118903838D01*
X141477504Y-118897116D01*
X141481800Y-118889703D01*
X141485407Y-118881566D01*
X141488384Y-118872670D01*
X141490793Y-118862982D01*
X141494144Y-118841094D01*
X141495942Y-118815633D01*
X141496803Y-118752908D01*
X141496521Y-118722578D01*
X141495551Y-118695566D01*
X141493704Y-118671684D01*
X141492393Y-118660858D01*
X141490793Y-118650744D01*
X141488880Y-118641319D01*
X141486630Y-118632559D01*
X141484020Y-118624440D01*
X141481027Y-118616940D01*
X141477627Y-118610035D01*
X141473797Y-118603700D01*
X141469513Y-118597914D01*
X141464751Y-118592652D01*
X141459489Y-118587890D01*
X141453702Y-118583606D01*
X141447368Y-118579776D01*
X141440462Y-118576376D01*
X141432962Y-118573383D01*
X141424844Y-118570773D01*
X141416083Y-118568524D01*
X141406658Y-118566610D01*
X141396544Y-118565010D01*
X141385718Y-118563700D01*
X141361836Y-118561853D01*
X141334824Y-118560883D01*
X141304495Y-118560601D01*
X141271348Y-118560444D01*
X141242245Y-118559683D01*
X141216923Y-118557878D01*
X141205598Y-118556447D01*
X141195120Y-118554591D01*
X141185455Y-118552255D01*
X141176571Y-118549384D01*
X141168436Y-118545924D01*
X141161015Y-118541820D01*
X141154277Y-118537016D01*
X141148188Y-118531459D01*
X141142716Y-118525093D01*
X141137828Y-118517864D01*
X141133491Y-118509717D01*
X141129671Y-118500597D01*
X141126337Y-118490449D01*
X141123455Y-118479218D01*
X141120992Y-118466851D01*
X141118916Y-118453291D01*
X141117194Y-118438485D01*
X141115793Y-118422377D01*
X141113821Y-118386038D01*
X141112738Y-118343835D01*
X141112281Y-118295331D01*
X141112241Y-118272138D01*
X141112187Y-118240086D01*
X141112738Y-118136337D01*
X141113821Y-118094134D01*
X141115793Y-118057795D01*
X141118916Y-118026881D01*
X141123455Y-118000954D01*
X141126337Y-117989724D01*
X141129671Y-117979576D01*
X141133491Y-117970456D01*
X141137828Y-117962309D01*
X141142716Y-117955080D01*
X141148188Y-117948714D01*
X141154277Y-117943157D01*
X141161015Y-117938354D01*
X141168436Y-117934250D01*
X141176571Y-117930790D01*
X141185455Y-117927920D01*
X141195120Y-117925584D01*
X141216923Y-117922297D01*
X141242245Y-117920493D01*
X141271348Y-117919731D01*
X141304495Y-117919575D01*
X141333416Y-117919262D01*
X141359382Y-117918239D01*
X141382545Y-117916382D01*
X141403052Y-117913565D01*
X141412358Y-117911757D01*
X141421056Y-117909663D01*
X141429166Y-117907266D01*
X141436706Y-117904551D01*
X141443696Y-117901502D01*
X141450153Y-117898103D01*
X141456097Y-117894339D01*
X141461546Y-117890195D01*
X141466520Y-117885654D01*
X141471036Y-117880700D01*
X141475115Y-117875319D01*
X141478774Y-117869495D01*
X141482032Y-117863212D01*
X141484908Y-117856454D01*
X141487422Y-117849205D01*
X141489591Y-117841451D01*
X141491435Y-117833174D01*
X141492971Y-117824361D01*
X141495200Y-117805059D01*
X141496427Y-117783421D01*
X141496803Y-117759320D01*
X141496427Y-117735219D01*
X141495200Y-117713580D01*
X141494220Y-117703644D01*
X141492971Y-117694278D01*
X141491435Y-117685464D01*
X141489591Y-117677188D01*
X141487422Y-117669433D01*
X141484908Y-117662185D01*
X141482032Y-117655426D01*
X141478774Y-117649143D01*
X141475115Y-117643318D01*
X141471036Y-117637937D01*
X141466520Y-117632984D01*
X141461546Y-117628443D01*
X141456097Y-117624298D01*
X141450153Y-117620534D01*
X141443696Y-117617136D01*
X141436706Y-117614087D01*
X141429166Y-117611371D01*
X141421056Y-117608974D01*
X141412358Y-117606880D01*
X141403052Y-117605072D01*
X141393121Y-117603536D01*
X141382545Y-117602255D01*
X141359382Y-117600398D01*
X141333416Y-117599376D01*
X141304495Y-117599063D01*
X141274165Y-117598781D01*
X141247153Y-117597811D01*
X141223271Y-117595964D01*
X141212445Y-117594653D01*
X141202332Y-117593053D01*
X141192906Y-117591140D01*
X141184146Y-117588890D01*
X141176028Y-117586281D01*
X141168528Y-117583288D01*
X141161622Y-117579888D01*
X141155288Y-117576058D01*
X141149501Y-117571774D01*
X141144239Y-117567012D01*
X141139477Y-117561750D01*
X141135193Y-117555963D01*
X141131362Y-117549629D01*
X141127962Y-117542723D01*
X141124969Y-117535223D01*
X141122360Y-117527105D01*
X141120110Y-117518345D01*
X141118197Y-117508920D01*
X141116596Y-117498806D01*
X141115286Y-117487980D01*
X141113439Y-117464098D01*
X141112468Y-117437086D01*
X141112187Y-117406756D01*
X141111968Y-117374666D01*
X141111102Y-117346347D01*
X141109276Y-117321565D01*
X141107905Y-117310427D01*
X141106177Y-117300085D01*
X141104053Y-117290510D01*
X141101493Y-117281673D01*
X141098458Y-117273544D01*
X141094909Y-117266093D01*
X141090807Y-117259292D01*
X141086114Y-117253111D01*
X141080789Y-117247521D01*
X141079573Y-117246502D01*
X141625004Y-117246502D01*
X141625332Y-117272559D01*
X141626531Y-117295650D01*
X141627557Y-117306139D01*
X141628919Y-117315952D01*
X141630659Y-117325112D01*
X141632816Y-117333642D01*
X141635430Y-117341563D01*
X141638541Y-117348897D01*
X141642189Y-117355667D01*
X141646413Y-117361895D01*
X141651254Y-117367604D01*
X141656751Y-117372814D01*
X141662945Y-117377549D01*
X141669876Y-117381830D01*
X141677582Y-117385680D01*
X141686105Y-117389121D01*
X141695484Y-117392176D01*
X141705758Y-117394865D01*
X141716969Y-117397212D01*
X141729155Y-117399238D01*
X141742357Y-117400967D01*
X141756615Y-117402419D01*
X141788456Y-117404584D01*
X141824999Y-117405910D01*
X141866563Y-117406576D01*
X141913466Y-117406759D01*
X142001933Y-117405910D01*
X142038476Y-117404584D01*
X142070318Y-117402419D01*
X142097777Y-117399238D01*
X142121174Y-117394865D01*
X142131449Y-117392176D01*
X142140828Y-117389121D01*
X142149350Y-117385680D01*
X142157057Y-117381830D01*
X142163987Y-117377549D01*
X142170181Y-117372814D01*
X142175678Y-117367604D01*
X142180519Y-117361895D01*
X142184744Y-117355667D01*
X142188391Y-117348897D01*
X142191502Y-117341563D01*
X142194116Y-117333642D01*
X142198013Y-117315952D01*
X142200401Y-117295650D01*
X142201600Y-117272559D01*
X142201929Y-117246502D01*
X142201600Y-117220444D01*
X142200401Y-117197353D01*
X142199376Y-117186865D01*
X142198013Y-117177052D01*
X142196273Y-117167892D01*
X142194116Y-117159362D01*
X142191502Y-117151441D01*
X142188391Y-117144107D01*
X142184744Y-117137337D01*
X142180519Y-117131109D01*
X142175678Y-117125401D01*
X142170181Y-117120191D01*
X142163987Y-117115456D01*
X142157057Y-117111175D01*
X142149350Y-117107325D01*
X142140828Y-117103884D01*
X142131449Y-117100830D01*
X142121174Y-117098140D01*
X142109964Y-117095794D01*
X142097777Y-117093767D01*
X142084575Y-117092039D01*
X142070318Y-117090587D01*
X142038476Y-117088422D01*
X142001933Y-117087096D01*
X141960370Y-117086430D01*
X141913466Y-117086247D01*
X141824999Y-117087096D01*
X141788456Y-117088423D01*
X141756615Y-117090587D01*
X141729155Y-117093768D01*
X141705758Y-117098141D01*
X141695484Y-117100830D01*
X141686105Y-117103885D01*
X141677582Y-117107326D01*
X141669876Y-117111176D01*
X141662945Y-117115457D01*
X141656751Y-117120192D01*
X141651254Y-117125402D01*
X141646413Y-117131110D01*
X141642189Y-117137338D01*
X141638541Y-117144108D01*
X141635430Y-117151443D01*
X141632816Y-117159363D01*
X141628919Y-117177053D01*
X141626531Y-117197354D01*
X141625332Y-117220445D01*
X141625004Y-117246502D01*
X141079573Y-117246502D01*
X141074794Y-117242493D01*
X141068089Y-117237996D01*
X141060636Y-117234002D01*
X141052395Y-117230482D01*
X141043327Y-117227406D01*
X141033393Y-117224744D01*
X141022554Y-117222468D01*
X141010771Y-117220548D01*
X140998004Y-117218954D01*
X140969365Y-117216630D01*
X140936323Y-117215261D01*
X140898565Y-117214611D01*
X140855778Y-117214447D01*
X140812990Y-117214611D01*
X140775232Y-117215260D01*
X140742189Y-117216629D01*
X140713550Y-117218953D01*
X140689000Y-117222466D01*
X140678161Y-117224742D01*
X140668227Y-117227403D01*
X140659159Y-117230479D01*
X140650918Y-117234000D01*
X140643465Y-117237993D01*
X140636760Y-117242489D01*
X140630765Y-117247518D01*
X140625440Y-117253108D01*
X140620746Y-117259289D01*
X140616645Y-117266090D01*
X140613096Y-117273540D01*
X140610061Y-117281669D01*
X140607501Y-117290507D01*
X140605377Y-117300082D01*
X140602278Y-117321562D01*
X140600452Y-117346345D01*
X140599586Y-117374664D01*
X140599367Y-117406756D01*
X140598991Y-117430043D01*
X140597865Y-117451827D01*
X140595987Y-117472110D01*
X140593357Y-117490889D01*
X140589977Y-117508167D01*
X140585845Y-117523942D01*
X140580963Y-117538215D01*
X140575329Y-117550985D01*
X140568944Y-117562253D01*
X140561807Y-117572019D01*
X140557957Y-117576339D01*
X140553920Y-117580282D01*
X140549694Y-117583851D01*
X140545281Y-117587043D01*
X140540680Y-117589860D01*
X140535891Y-117592302D01*
X140530914Y-117594368D01*
X140525750Y-117596058D01*
X140520397Y-117597372D01*
X140514857Y-117598311D01*
X140509129Y-117598875D01*
X140503214Y-117599063D01*
X140497674Y-117599239D01*
X140492274Y-117599767D01*
X140487017Y-117600641D01*
X140481904Y-117601859D01*
X140476939Y-117603415D01*
X140472123Y-117605307D01*
X140467459Y-117607530D01*
X140462949Y-117610080D01*
X140458596Y-117612954D01*
X140454401Y-117616147D01*
X140450368Y-117619656D01*
X140446498Y-117623477D01*
X140442794Y-117627605D01*
X140439258Y-117632038D01*
X140435893Y-117636770D01*
X140432701Y-117641798D01*
X140429684Y-117647119D01*
X140426845Y-117652727D01*
X140424185Y-117658620D01*
X140421708Y-117664793D01*
X140419416Y-117671243D01*
X140417311Y-117677966D01*
X140415395Y-117684957D01*
X140413671Y-117692212D01*
X140412141Y-117699729D01*
X140410807Y-117707503D01*
X140409672Y-117715529D01*
X140408738Y-117723805D01*
X140408008Y-117732326D01*
X140407483Y-117741088D01*
X140407166Y-117750087D01*
X140407060Y-117759320D01*
X140181408Y-117759320D01*
X140175125Y-117741631D01*
X140156791Y-117699099D01*
X140137223Y-117662265D01*
X140116479Y-117631387D01*
X140094616Y-117606721D01*
X140071692Y-117588526D01*
X140061139Y-117582701D01*
X140048467Y-117577217D01*
X140017366Y-117567280D01*
X139979578Y-117558728D01*
X139936293Y-117551578D01*
X139888703Y-117545843D01*
X139837996Y-117541538D01*
X139785365Y-117538678D01*
X139731997Y-117537279D01*
X139679085Y-117537354D01*
X139627818Y-117538920D01*
X139579387Y-117541990D01*
X139534982Y-117546579D01*
X139495792Y-117552703D01*
X139463009Y-117560376D01*
X139437823Y-117569613D01*
X139428450Y-117574823D01*
X139421423Y-117580429D01*
X139418761Y-117582736D01*
X139415475Y-117584966D01*
X139411586Y-117587117D01*
X139407112Y-117589189D01*
X139396487Y-117593084D01*
X139383753Y-117596638D01*
X139369063Y-117599836D01*
X139352571Y-117602665D01*
X139334430Y-117605111D01*
X139314794Y-117607159D01*
X139293816Y-117608796D01*
X139271649Y-117610009D01*
X139248448Y-117610782D01*
X139224364Y-117611103D01*
X139199552Y-117610957D01*
X139174164Y-117610330D01*
X139148355Y-117609209D01*
X139122277Y-117607580D01*
X138868598Y-117589267D01*
X138164412Y-117589267D01*
X138003213Y-117146360D01*
X137692111Y-117164379D01*
X137381007Y-117182395D01*
X137067111Y-118045614D01*
X136845422Y-118660608D01*
X136777983Y-118851850D01*
X136753214Y-118927027D01*
X136229116Y-118927027D01*
X136214122Y-118897675D01*
X136189480Y-118843839D01*
X136147222Y-118733503D01*
X136114332Y-118620235D01*
X136090811Y-118504783D01*
X136076659Y-118387894D01*
X136071877Y-118270314D01*
X136076465Y-118152791D01*
X136090424Y-118036073D01*
X136113755Y-117920906D01*
X136146458Y-117808036D01*
X136188535Y-117698213D01*
X136213088Y-117644676D01*
X136239985Y-117592182D01*
X136269225Y-117540822D01*
X136300809Y-117490690D01*
X136334736Y-117441880D01*
X136371007Y-117394485D01*
X136409155Y-117346222D01*
X136444742Y-117299783D01*
X136476992Y-117256287D01*
X136505125Y-117216850D01*
X136528362Y-117182591D01*
X136545925Y-117154626D01*
X136552334Y-117143353D01*
X136557033Y-117134073D01*
X136559924Y-117126926D01*
X136560909Y-117122050D01*
X136560545Y-117120214D01*
X136559466Y-117118401D01*
X136557688Y-117116614D01*
X136555230Y-117114854D01*
X136552109Y-117113125D01*
X136548344Y-117111429D01*
X136538952Y-117108142D01*
X136527195Y-117105014D01*
X136513217Y-117102061D01*
X136497160Y-117099303D01*
X136479166Y-117096757D01*
X136459379Y-117094442D01*
X136437942Y-117092376D01*
X136414996Y-117090578D01*
X136390684Y-117089066D01*
X136365149Y-117087858D01*
X136338535Y-117086972D01*
X136310983Y-117086427D01*
X136282635Y-117086241D01*
X136235022Y-117086443D01*
X136192754Y-117087345D01*
X136155215Y-117089392D01*
X136121791Y-117093029D01*
X136106430Y-117095583D01*
X136091867Y-117098702D01*
X136078026Y-117102441D01*
X136064829Y-117106856D01*
X136052200Y-117112002D01*
X136040061Y-117117936D01*
X136028337Y-117124712D01*
X136016949Y-117132387D01*
X136005822Y-117141015D01*
X135994879Y-117150654D01*
X135984042Y-117161358D01*
X135973234Y-117173183D01*
X135962380Y-117186184D01*
X135951401Y-117200418D01*
X135928765Y-117232806D01*
X135904711Y-117270790D01*
X135878623Y-117314817D01*
X135817892Y-117422778D01*
X135789050Y-117475686D01*
X135763279Y-117525069D01*
X135740412Y-117571687D01*
X135720282Y-117616300D01*
X135702722Y-117659669D01*
X135687565Y-117702555D01*
X135674644Y-117745718D01*
X135663792Y-117789918D01*
X135654842Y-117835916D01*
X135647626Y-117884473D01*
X135641980Y-117936349D01*
X135637734Y-117992305D01*
X135634722Y-118053101D01*
X135632778Y-118119498D01*
X135631422Y-118272136D01*
X134513613Y-118272136D01*
X134514693Y-116937389D01*
X134521427Y-115932400D01*
X135599365Y-115932400D01*
X135855775Y-115932400D01*
X136112186Y-115932400D01*
X136115018Y-115467655D01*
X136117851Y-115002912D01*
X136244756Y-115243296D01*
X136263538Y-115278039D01*
X136281524Y-115309452D01*
X136298911Y-115337684D01*
X136315895Y-115362887D01*
X136332673Y-115385210D01*
X136349442Y-115404804D01*
X136357885Y-115413624D01*
X136366400Y-115421819D01*
X136375011Y-115429406D01*
X136383743Y-115436404D01*
X136392621Y-115442833D01*
X136401669Y-115448711D01*
X136410912Y-115454057D01*
X136420375Y-115458890D01*
X136430081Y-115463228D01*
X136440056Y-115467091D01*
X136450325Y-115470496D01*
X136460912Y-115473463D01*
X136483138Y-115478158D01*
X136506931Y-115481326D01*
X136532489Y-115483116D01*
X136560009Y-115483680D01*
X136588605Y-115483150D01*
X136614852Y-115481419D01*
X136627172Y-115480035D01*
X136638997Y-115478272D01*
X136650359Y-115476101D01*
X136661287Y-115473495D01*
X136671812Y-115470429D01*
X136681966Y-115466876D01*
X136691779Y-115462808D01*
X136701282Y-115458199D01*
X136710506Y-115453022D01*
X136719480Y-115447251D01*
X136728237Y-115440859D01*
X136736807Y-115433819D01*
X136745221Y-115426104D01*
X136753509Y-115417688D01*
X136761702Y-115408543D01*
X136769832Y-115398644D01*
X136777928Y-115387963D01*
X136786021Y-115376474D01*
X136802324Y-115350964D01*
X136818986Y-115321900D01*
X136836253Y-115289068D01*
X136854372Y-115252254D01*
X136873589Y-115211244D01*
X136998818Y-114938808D01*
X137004220Y-115435603D01*
X137009622Y-115932400D01*
X137266032Y-115932400D01*
X137522442Y-115932400D01*
X137522442Y-115222861D01*
X137796884Y-115222861D01*
X137797534Y-115269972D01*
X137800493Y-115316891D01*
X137805764Y-115363402D01*
X137813348Y-115409289D01*
X137823248Y-115454336D01*
X137835466Y-115498329D01*
X137850005Y-115541052D01*
X137866867Y-115582289D01*
X137886054Y-115621825D01*
X137907569Y-115659445D01*
X137931413Y-115694932D01*
X137957590Y-115728073D01*
X137986100Y-115758650D01*
X138016948Y-115786448D01*
X138050135Y-115811253D01*
X138085663Y-115832849D01*
X138123080Y-115850027D01*
X138168707Y-115865769D01*
X138221388Y-115879998D01*
X138279973Y-115892642D01*
X138343307Y-115903624D01*
X138410236Y-115912871D01*
X138479609Y-115920308D01*
X138550271Y-115925860D01*
X138621069Y-115929454D01*
X138690851Y-115931013D01*
X138758463Y-115930464D01*
X138822751Y-115927733D01*
X138882563Y-115922744D01*
X138936746Y-115915424D01*
X138984145Y-115905696D01*
X139023608Y-115893488D01*
X139023609Y-115893490D01*
X139029135Y-115891150D01*
X139034553Y-115888420D01*
X139039860Y-115885308D01*
X139045049Y-115881824D01*
X139050118Y-115877979D01*
X139055061Y-115873781D01*
X139059875Y-115869240D01*
X139064554Y-115864366D01*
X139069095Y-115859168D01*
X139073492Y-115853657D01*
X139077742Y-115847842D01*
X139081840Y-115841733D01*
X139085781Y-115835339D01*
X139089561Y-115828670D01*
X139093175Y-115821736D01*
X139096620Y-115814546D01*
X139099891Y-115807111D01*
X139102983Y-115799439D01*
X139105891Y-115791541D01*
X139108612Y-115783426D01*
X139111141Y-115775104D01*
X139113473Y-115766584D01*
X139115604Y-115757877D01*
X139117530Y-115748992D01*
X139119246Y-115739938D01*
X139120747Y-115730726D01*
X139122030Y-115721364D01*
X139123090Y-115711864D01*
X139123921Y-115702233D01*
X139124521Y-115692483D01*
X139124884Y-115682623D01*
X139125006Y-115672662D01*
X139124870Y-115641010D01*
X139124123Y-115613282D01*
X139123751Y-115607194D01*
X139253211Y-115607194D01*
X139253827Y-115660957D01*
X139254763Y-115685426D01*
X139256266Y-115708349D01*
X139258448Y-115729772D01*
X139261421Y-115749741D01*
X139265294Y-115768304D01*
X139270180Y-115785506D01*
X139276190Y-115801395D01*
X139283434Y-115816016D01*
X139292026Y-115829417D01*
X139302075Y-115841644D01*
X139313693Y-115852743D01*
X139326991Y-115862761D01*
X139342081Y-115871745D01*
X139359074Y-115879740D01*
X139378081Y-115886794D01*
X139399213Y-115892953D01*
X139422583Y-115898264D01*
X139448300Y-115902773D01*
X139476476Y-115906526D01*
X139507224Y-115909570D01*
X139540653Y-115911952D01*
X139576875Y-115913719D01*
X139658145Y-115915590D01*
X139751924Y-115915556D01*
X139859101Y-115913989D01*
X139980567Y-115911262D01*
X140136132Y-115906519D01*
X140201253Y-115903487D01*
X140258917Y-115899730D01*
X140309861Y-115895031D01*
X140354822Y-115889175D01*
X140394538Y-115881949D01*
X140429746Y-115873136D01*
X140461184Y-115862522D01*
X140489589Y-115849893D01*
X140515698Y-115835032D01*
X140540249Y-115817726D01*
X140563979Y-115797758D01*
X140587626Y-115774915D01*
X140611927Y-115748982D01*
X140637619Y-115719743D01*
X140637617Y-115719735D01*
X140655311Y-115698212D01*
X140671932Y-115676067D01*
X140687476Y-115653352D01*
X140701942Y-115630119D01*
X140715329Y-115606423D01*
X140727636Y-115582314D01*
X140748997Y-115533073D01*
X140755419Y-115514107D01*
X140922230Y-115514107D01*
X140923915Y-115547320D01*
X140928436Y-115580965D01*
X140935848Y-115614970D01*
X140946207Y-115649261D01*
X140959568Y-115683768D01*
X140975986Y-115718416D01*
X140995515Y-115753134D01*
X141018211Y-115787849D01*
X141026555Y-115799516D01*
X141034836Y-115810523D01*
X141043149Y-115820888D01*
X141051592Y-115830631D01*
X141060260Y-115839770D01*
X141069247Y-115848324D01*
X141078652Y-115856312D01*
X141088568Y-115863751D01*
X141099092Y-115870662D01*
X141110321Y-115877062D01*
X141122349Y-115882970D01*
X141135272Y-115888406D01*
X141149187Y-115893387D01*
X141164189Y-115897932D01*
X141180374Y-115902060D01*
X141197838Y-115905791D01*
X141216677Y-115909141D01*
X141236986Y-115912131D01*
X141258862Y-115914778D01*
X141282400Y-115917102D01*
X141307696Y-115919122D01*
X141334846Y-115920855D01*
X141363946Y-115922320D01*
X141395091Y-115923537D01*
X141463902Y-115925300D01*
X141542046Y-115926292D01*
X141630289Y-115926663D01*
X141729398Y-115926563D01*
X142342253Y-115924975D01*
X142326257Y-115488505D01*
X142522441Y-115488505D01*
X142522441Y-115673059D01*
X142523126Y-115713249D01*
X142524105Y-115731621D01*
X142525618Y-115748891D01*
X142527748Y-115765094D01*
X142530576Y-115780265D01*
X142534185Y-115794439D01*
X142538656Y-115807651D01*
X142544072Y-115819937D01*
X142550515Y-115831331D01*
X142558067Y-115841868D01*
X142566810Y-115851584D01*
X142576826Y-115860513D01*
X142588198Y-115868691D01*
X142601007Y-115876152D01*
X142615336Y-115882932D01*
X142631267Y-115889065D01*
X142648882Y-115894587D01*
X142668263Y-115899533D01*
X142689492Y-115903938D01*
X142712652Y-115907837D01*
X142737824Y-115911264D01*
X142765091Y-115914255D01*
X142794535Y-115916846D01*
X142860281Y-115920964D01*
X142935719Y-115923899D01*
X143021508Y-115925931D01*
X143118303Y-115927340D01*
X143247450Y-115927707D01*
X143302616Y-115926714D01*
X143352231Y-115924751D01*
X143396834Y-115921679D01*
X143436966Y-115917361D01*
X143473168Y-115911656D01*
X143505979Y-115904427D01*
X143535941Y-115895534D01*
X143563592Y-115884840D01*
X143589474Y-115872204D01*
X143614127Y-115857489D01*
X143638091Y-115840555D01*
X143661906Y-115821264D01*
X143686113Y-115799477D01*
X143711252Y-115775056D01*
X143711253Y-115775056D01*
X143727281Y-115758333D01*
X143742860Y-115740714D01*
X143757909Y-115722349D01*
X143772346Y-115703387D01*
X143786093Y-115683978D01*
X143799067Y-115664271D01*
X143811189Y-115644416D01*
X143822377Y-115624561D01*
X143832551Y-115604856D01*
X143841630Y-115585451D01*
X143849533Y-115566495D01*
X143856181Y-115548138D01*
X143861492Y-115530528D01*
X143865385Y-115513816D01*
X143867780Y-115498150D01*
X143868324Y-115488505D01*
X143996800Y-115488505D01*
X143996800Y-115673059D01*
X143997485Y-115713249D01*
X143998464Y-115731621D01*
X143999978Y-115748891D01*
X144002107Y-115765094D01*
X144004936Y-115780265D01*
X144008544Y-115794439D01*
X144013015Y-115807651D01*
X144018431Y-115819937D01*
X144024874Y-115831331D01*
X144032426Y-115841868D01*
X144041169Y-115851584D01*
X144051185Y-115860513D01*
X144062557Y-115868691D01*
X144075366Y-115876152D01*
X144089695Y-115882932D01*
X144105626Y-115889065D01*
X144123241Y-115894587D01*
X144142622Y-115899533D01*
X144163851Y-115903938D01*
X144187011Y-115907837D01*
X144212183Y-115911264D01*
X144239449Y-115914255D01*
X144268893Y-115916846D01*
X144334639Y-115920964D01*
X144410077Y-115923899D01*
X144495866Y-115925931D01*
X144592661Y-115927340D01*
X144721809Y-115927707D01*
X144776975Y-115926714D01*
X144826589Y-115924751D01*
X144871193Y-115921679D01*
X144911325Y-115917361D01*
X144947527Y-115911656D01*
X144980338Y-115904427D01*
X145010300Y-115895534D01*
X145037951Y-115884840D01*
X145063833Y-115872204D01*
X145088486Y-115857489D01*
X145112450Y-115840555D01*
X145136265Y-115821264D01*
X145160472Y-115799477D01*
X145185611Y-115775056D01*
X145185612Y-115775056D01*
X145201640Y-115758333D01*
X145217219Y-115740714D01*
X145232267Y-115722349D01*
X145246705Y-115703387D01*
X145260451Y-115683978D01*
X145273426Y-115664271D01*
X145285547Y-115644416D01*
X145296735Y-115624561D01*
X145306909Y-115604856D01*
X145315988Y-115585451D01*
X145323892Y-115566495D01*
X145330539Y-115548138D01*
X145335850Y-115530528D01*
X145339743Y-115513816D01*
X145342138Y-115498150D01*
X145342954Y-115483680D01*
X145342157Y-115466857D01*
X145339809Y-115449548D01*
X145335977Y-115431818D01*
X145330729Y-115413732D01*
X145324132Y-115395358D01*
X145316253Y-115376760D01*
X145307159Y-115358004D01*
X145296916Y-115339157D01*
X145273256Y-115301450D01*
X145245809Y-115264166D01*
X145215111Y-115227831D01*
X145199329Y-115211366D01*
X145471160Y-115211366D01*
X145472820Y-115257596D01*
X145477682Y-115304522D01*
X145485569Y-115351790D01*
X145496302Y-115399041D01*
X145509705Y-115445921D01*
X145525598Y-115492072D01*
X145543805Y-115537140D01*
X145564148Y-115580767D01*
X145586448Y-115622598D01*
X145610529Y-115662276D01*
X145636212Y-115699445D01*
X145663320Y-115733749D01*
X145691676Y-115764832D01*
X145721100Y-115792338D01*
X145751416Y-115815910D01*
X145782446Y-115835192D01*
X145820337Y-115851884D01*
X145869161Y-115867228D01*
X145927390Y-115881140D01*
X145993492Y-115893537D01*
X146065939Y-115904333D01*
X146143201Y-115913446D01*
X146223749Y-115920791D01*
X146306052Y-115926285D01*
X146388581Y-115929842D01*
X146469806Y-115931380D01*
X146548198Y-115930814D01*
X146622228Y-115928060D01*
X146690365Y-115923035D01*
X146751079Y-115915654D01*
X146802842Y-115905833D01*
X146844123Y-115893488D01*
X146844123Y-115893490D01*
X146849689Y-115891134D01*
X146855142Y-115888388D01*
X146860479Y-115885260D01*
X146865694Y-115881760D01*
X146870784Y-115877897D01*
X146875744Y-115873679D01*
X146880571Y-115869117D01*
X146885260Y-115864220D01*
X146889807Y-115858997D01*
X146894208Y-115853456D01*
X146898458Y-115847608D01*
X146902554Y-115841462D01*
X146906490Y-115835026D01*
X146910264Y-115828311D01*
X146913870Y-115821325D01*
X146917305Y-115814077D01*
X146920565Y-115806578D01*
X146923644Y-115798835D01*
X146926539Y-115790859D01*
X146929246Y-115782658D01*
X146931761Y-115774242D01*
X146934079Y-115765621D01*
X146936196Y-115756802D01*
X146938109Y-115747797D01*
X146939811Y-115738613D01*
X146941301Y-115729260D01*
X146942573Y-115719747D01*
X146943623Y-115710084D01*
X146944447Y-115700280D01*
X146945041Y-115690344D01*
X146945400Y-115680286D01*
X146945521Y-115670114D01*
X146945521Y-115485648D01*
X146562278Y-115525705D01*
X146467922Y-115534249D01*
X146384314Y-115538973D01*
X146346391Y-115539891D01*
X146310975Y-115539838D01*
X146278006Y-115538810D01*
X146247424Y-115536801D01*
X146219169Y-115533807D01*
X146193181Y-115529822D01*
X146169401Y-115524841D01*
X146147768Y-115518859D01*
X146128222Y-115511871D01*
X146110704Y-115503872D01*
X146095153Y-115494857D01*
X146081509Y-115484820D01*
X146065215Y-115470965D01*
X146050504Y-115457735D01*
X146037399Y-115445120D01*
X146025925Y-115433105D01*
X146016105Y-115421680D01*
X146007964Y-115410833D01*
X146001526Y-115400549D01*
X145996816Y-115390819D01*
X145993856Y-115381629D01*
X145993041Y-115377233D01*
X145992673Y-115372967D01*
X145992754Y-115368831D01*
X145993288Y-115364822D01*
X145994279Y-115360939D01*
X145995728Y-115357180D01*
X145997640Y-115353544D01*
X146000016Y-115350030D01*
X146002860Y-115346636D01*
X146006176Y-115343359D01*
X146014232Y-115337156D01*
X146024209Y-115331408D01*
X146036131Y-115326102D01*
X146050021Y-115321228D01*
X146065905Y-115316772D01*
X146083805Y-115312722D01*
X146103747Y-115309066D01*
X146125755Y-115305792D01*
X146149852Y-115302888D01*
X146176063Y-115300341D01*
X146204412Y-115298139D01*
X146234923Y-115296271D01*
X146267621Y-115294724D01*
X146302529Y-115293485D01*
X146379074Y-115291885D01*
X146464750Y-115291373D01*
X146945521Y-115291373D01*
X146945521Y-115211366D01*
X147073722Y-115211366D01*
X147075382Y-115257596D01*
X147080244Y-115304522D01*
X147088131Y-115351790D01*
X147098865Y-115399041D01*
X147112267Y-115445921D01*
X147128160Y-115492072D01*
X147146367Y-115537140D01*
X147166710Y-115580767D01*
X147189011Y-115622598D01*
X147213092Y-115662276D01*
X147238775Y-115699445D01*
X147265883Y-115733749D01*
X147294238Y-115764832D01*
X147323662Y-115792338D01*
X147353978Y-115815910D01*
X147385008Y-115835192D01*
X147422899Y-115851884D01*
X147471724Y-115867228D01*
X147529952Y-115881140D01*
X147596055Y-115893537D01*
X147668502Y-115904333D01*
X147745765Y-115913446D01*
X147826312Y-115920791D01*
X147908615Y-115926285D01*
X147991144Y-115929842D01*
X148072370Y-115931380D01*
X148150762Y-115930814D01*
X148224791Y-115928060D01*
X148292927Y-115923035D01*
X148353641Y-115915654D01*
X148361255Y-115914209D01*
X149445520Y-115914209D01*
X149445859Y-115915141D01*
X149446867Y-115916062D01*
X149448527Y-115916969D01*
X149450821Y-115917862D01*
X149457248Y-115919602D01*
X149466015Y-115921271D01*
X149476989Y-115922861D01*
X149490037Y-115924361D01*
X149505025Y-115925763D01*
X149521820Y-115927057D01*
X149560300Y-115929285D01*
X149604411Y-115930968D01*
X149653089Y-115932034D01*
X149705266Y-115932405D01*
X149705412Y-115932404D01*
X151560904Y-115932404D01*
X151817315Y-115932404D01*
X152073727Y-115932404D01*
X152073725Y-115547785D01*
X152073725Y-115163171D01*
X152458340Y-115163171D01*
X152580385Y-115162565D01*
X152630309Y-115161504D01*
X152673484Y-115159665D01*
X152710400Y-115156845D01*
X152741543Y-115152842D01*
X152767403Y-115147450D01*
X152788468Y-115140468D01*
X152797355Y-115136316D01*
X152805227Y-115131691D01*
X152812143Y-115126566D01*
X152818166Y-115120916D01*
X152823356Y-115114715D01*
X152827775Y-115107939D01*
X152831483Y-115100562D01*
X152834542Y-115092558D01*
X152838956Y-115074568D01*
X152841504Y-115053767D01*
X152842674Y-115029950D01*
X152842956Y-115002915D01*
X152842674Y-114975879D01*
X152842231Y-114963581D01*
X152841504Y-114952063D01*
X152840433Y-114941298D01*
X152838956Y-114931261D01*
X152837014Y-114921928D01*
X152834544Y-114913272D01*
X152831485Y-114905268D01*
X152827777Y-114897891D01*
X152823358Y-114891114D01*
X152818168Y-114884914D01*
X152812146Y-114879264D01*
X152805229Y-114874139D01*
X152797358Y-114869514D01*
X152788472Y-114865362D01*
X152778508Y-114861660D01*
X152767407Y-114858380D01*
X152755107Y-114855498D01*
X152741547Y-114852989D01*
X152726666Y-114850826D01*
X152710403Y-114848985D01*
X152692698Y-114847440D01*
X152673488Y-114846166D01*
X152630312Y-114844327D01*
X152580388Y-114843265D01*
X152523226Y-114842778D01*
X152458340Y-114842660D01*
X152073725Y-114842660D01*
X152073725Y-114650352D01*
X152073725Y-114458044D01*
X152490392Y-114458044D01*
X152623630Y-114457495D01*
X152678014Y-114456495D01*
X152724968Y-114454731D01*
X152765035Y-114451995D01*
X152798760Y-114448076D01*
X152826689Y-114442766D01*
X152849366Y-114435855D01*
X152858905Y-114431733D01*
X152867335Y-114427133D01*
X152874725Y-114422028D01*
X152881141Y-114416391D01*
X152886654Y-114410197D01*
X152891329Y-114403420D01*
X152895237Y-114396033D01*
X152898444Y-114388010D01*
X152903029Y-114369951D01*
X152905630Y-114349034D01*
X152906791Y-114325051D01*
X152907057Y-114297790D01*
X152907057Y-114137531D01*
X152233983Y-114137531D01*
X151560904Y-114137531D01*
X151560904Y-115034968D01*
X151560904Y-115932404D01*
X149705412Y-115932404D01*
X149746344Y-115932124D01*
X149783177Y-115931156D01*
X149816084Y-115929312D01*
X149845385Y-115926405D01*
X149871399Y-115922246D01*
X149883273Y-115919638D01*
X149894446Y-115916647D01*
X149904957Y-115913249D01*
X149914846Y-115909420D01*
X149924153Y-115905138D01*
X149932918Y-115900378D01*
X149941181Y-115895117D01*
X149948982Y-115889332D01*
X149956360Y-115882998D01*
X149963357Y-115876093D01*
X149970011Y-115868593D01*
X149976363Y-115860475D01*
X149982453Y-115851714D01*
X149988321Y-115842288D01*
X149999548Y-115821345D01*
X150010366Y-115797458D01*
X150021093Y-115770438D01*
X150032049Y-115740097D01*
X150032048Y-115740093D01*
X150043200Y-115709117D01*
X150054050Y-115681626D01*
X150059478Y-115669123D01*
X150064972Y-115657414D01*
X150070578Y-115646474D01*
X150076343Y-115636276D01*
X150082314Y-115626796D01*
X150088539Y-115618008D01*
X150095063Y-115609885D01*
X150101935Y-115602403D01*
X150109200Y-115595536D01*
X150116907Y-115589258D01*
X150125102Y-115583544D01*
X150133832Y-115578367D01*
X150143143Y-115573703D01*
X150153084Y-115569525D01*
X150163701Y-115565808D01*
X150175041Y-115562527D01*
X150187151Y-115559656D01*
X150200077Y-115557168D01*
X150213868Y-115555040D01*
X150228569Y-115553244D01*
X150260893Y-115550548D01*
X150297424Y-115548876D01*
X150338538Y-115548024D01*
X150384612Y-115547785D01*
X150430685Y-115548024D01*
X150471800Y-115548876D01*
X150508331Y-115550547D01*
X150540654Y-115553243D01*
X150569146Y-115557167D01*
X150594183Y-115562525D01*
X150605523Y-115565806D01*
X150616139Y-115569523D01*
X150626080Y-115573700D01*
X150635392Y-115578364D01*
X150644122Y-115583541D01*
X150652317Y-115589255D01*
X150660023Y-115595533D01*
X150667289Y-115602400D01*
X150674161Y-115609882D01*
X150680685Y-115618005D01*
X150686910Y-115626793D01*
X150692881Y-115636273D01*
X150704252Y-115657412D01*
X150715174Y-115681624D01*
X150726023Y-115709116D01*
X150737176Y-115740093D01*
X150748239Y-115770775D01*
X150759033Y-115798048D01*
X150769907Y-115822110D01*
X150775483Y-115832999D01*
X150781210Y-115843158D01*
X150787132Y-115852613D01*
X150793291Y-115861389D01*
X150799732Y-115869510D01*
X150806498Y-115877000D01*
X150813633Y-115883885D01*
X150821180Y-115890188D01*
X150829183Y-115895935D01*
X150837685Y-115901151D01*
X150846731Y-115905860D01*
X150856363Y-115910086D01*
X150866625Y-115913854D01*
X150877561Y-115917189D01*
X150889215Y-115920116D01*
X150901630Y-115922659D01*
X150914849Y-115924843D01*
X150928916Y-115926692D01*
X150959770Y-115929485D01*
X150994539Y-115931237D01*
X151033573Y-115932143D01*
X151077220Y-115932401D01*
X151350224Y-115932401D01*
X151023599Y-115034968D01*
X151022872Y-115032970D01*
X150695519Y-114133543D01*
X150384417Y-114151560D01*
X150073314Y-114169579D01*
X149759417Y-115032799D01*
X149537727Y-115647790D01*
X149470288Y-115839032D01*
X149445520Y-115914209D01*
X148361255Y-115914209D01*
X148405403Y-115905833D01*
X148446684Y-115893488D01*
X148446687Y-115893490D01*
X148452252Y-115891134D01*
X148457706Y-115888388D01*
X148463042Y-115885260D01*
X148468257Y-115881760D01*
X148473347Y-115877897D01*
X148478308Y-115873679D01*
X148483135Y-115869117D01*
X148487824Y-115864220D01*
X148492371Y-115858997D01*
X148496771Y-115853456D01*
X148501021Y-115847608D01*
X148505117Y-115841462D01*
X148509054Y-115835026D01*
X148512827Y-115828311D01*
X148516434Y-115821325D01*
X148519869Y-115814077D01*
X148523128Y-115806578D01*
X148526207Y-115798835D01*
X148529103Y-115790859D01*
X148531810Y-115782658D01*
X148534325Y-115774242D01*
X148536643Y-115765621D01*
X148538760Y-115756802D01*
X148540672Y-115747797D01*
X148542375Y-115738613D01*
X148543864Y-115729260D01*
X148545136Y-115719747D01*
X148546186Y-115710084D01*
X148547010Y-115700280D01*
X148547604Y-115690344D01*
X148547963Y-115680286D01*
X148548084Y-115670114D01*
X148548084Y-115485648D01*
X148164840Y-115525705D01*
X148070484Y-115534249D01*
X147986876Y-115538973D01*
X147948953Y-115539891D01*
X147913537Y-115539838D01*
X147880567Y-115538810D01*
X147849985Y-115536801D01*
X147821731Y-115533807D01*
X147795743Y-115529822D01*
X147771963Y-115524841D01*
X147750330Y-115518859D01*
X147730784Y-115511871D01*
X147713266Y-115503872D01*
X147697714Y-115494857D01*
X147684071Y-115484820D01*
X147667777Y-115470965D01*
X147653066Y-115457735D01*
X147639961Y-115445120D01*
X147628487Y-115433105D01*
X147618667Y-115421680D01*
X147610526Y-115410833D01*
X147604088Y-115400549D01*
X147599378Y-115390819D01*
X147596418Y-115381629D01*
X147595603Y-115377233D01*
X147595235Y-115372967D01*
X147595316Y-115368831D01*
X147595850Y-115364822D01*
X147596841Y-115360939D01*
X147598290Y-115357180D01*
X147600202Y-115353544D01*
X147602578Y-115350030D01*
X147605423Y-115346636D01*
X147608738Y-115343359D01*
X147616794Y-115337156D01*
X147626771Y-115331408D01*
X147638693Y-115326102D01*
X147652583Y-115321228D01*
X147668467Y-115316772D01*
X147686368Y-115312722D01*
X147706310Y-115309066D01*
X147728317Y-115305792D01*
X147752414Y-115302888D01*
X147778626Y-115300341D01*
X147806975Y-115298139D01*
X147837486Y-115296271D01*
X147870184Y-115294724D01*
X147905092Y-115293485D01*
X147981637Y-115291885D01*
X148067313Y-115291373D01*
X148548083Y-115291373D01*
X148548083Y-115064101D01*
X148547413Y-115032052D01*
X148545412Y-115000898D01*
X148542089Y-114970646D01*
X148537452Y-114941305D01*
X148531511Y-114912882D01*
X148524277Y-114885385D01*
X148515758Y-114858823D01*
X148505963Y-114833203D01*
X148494903Y-114808534D01*
X148482587Y-114784824D01*
X148469024Y-114762081D01*
X148454224Y-114740312D01*
X148438196Y-114719527D01*
X148420950Y-114699733D01*
X148402495Y-114680938D01*
X148382840Y-114663151D01*
X148361996Y-114646379D01*
X148339971Y-114630630D01*
X148316775Y-114615913D01*
X148292418Y-114602235D01*
X148266909Y-114589605D01*
X148240257Y-114578032D01*
X148212472Y-114567522D01*
X148183564Y-114558084D01*
X148153541Y-114549726D01*
X148122414Y-114542456D01*
X148090192Y-114536282D01*
X148056884Y-114531213D01*
X148022500Y-114527256D01*
X147987049Y-114524420D01*
X147950541Y-114522712D01*
X147912986Y-114522141D01*
X147845352Y-114523631D01*
X147775937Y-114527900D01*
X147706709Y-114534650D01*
X147639642Y-114543580D01*
X147576705Y-114554393D01*
X147519871Y-114566787D01*
X147494358Y-114573484D01*
X147471109Y-114580465D01*
X147450372Y-114587691D01*
X147432392Y-114595126D01*
X147416564Y-114603034D01*
X147400644Y-114612344D01*
X147384671Y-114622988D01*
X147368685Y-114634899D01*
X147352725Y-114648012D01*
X147336829Y-114662257D01*
X147305385Y-114693883D01*
X147274667Y-114729240D01*
X147244985Y-114767793D01*
X147216651Y-114809008D01*
X147189977Y-114852349D01*
X147165274Y-114897280D01*
X147142854Y-114943266D01*
X147123029Y-114989773D01*
X147106109Y-115036264D01*
X147092407Y-115082204D01*
X147086860Y-115104800D01*
X147082234Y-115127058D01*
X147078568Y-115148910D01*
X147075902Y-115170290D01*
X147074273Y-115191131D01*
X147073722Y-115211366D01*
X146945521Y-115211366D01*
X146945521Y-115064101D01*
X146944851Y-115032052D01*
X146942850Y-115000898D01*
X146939527Y-114970646D01*
X146934890Y-114941305D01*
X146928949Y-114912882D01*
X146921715Y-114885385D01*
X146913196Y-114858823D01*
X146903402Y-114833203D01*
X146892342Y-114808534D01*
X146880025Y-114784824D01*
X146866462Y-114762081D01*
X146851662Y-114740312D01*
X146835634Y-114719527D01*
X146818388Y-114699733D01*
X146799933Y-114680938D01*
X146780278Y-114663151D01*
X146759434Y-114646379D01*
X146737409Y-114630630D01*
X146714213Y-114615913D01*
X146689856Y-114602235D01*
X146664347Y-114589605D01*
X146637695Y-114578032D01*
X146609910Y-114567522D01*
X146581002Y-114558084D01*
X146550979Y-114549726D01*
X146519852Y-114542456D01*
X146487630Y-114536282D01*
X146454322Y-114531213D01*
X146419938Y-114527256D01*
X146384487Y-114524420D01*
X146347979Y-114522712D01*
X146310424Y-114522141D01*
X146242790Y-114523631D01*
X146173375Y-114527900D01*
X146104147Y-114534650D01*
X146037080Y-114543580D01*
X145974143Y-114554393D01*
X145917308Y-114566787D01*
X145891795Y-114573484D01*
X145868547Y-114580465D01*
X145847810Y-114587691D01*
X145829830Y-114595126D01*
X145814002Y-114603034D01*
X145798082Y-114612344D01*
X145782109Y-114622988D01*
X145766123Y-114634899D01*
X145750162Y-114648012D01*
X145734266Y-114662257D01*
X145702823Y-114693883D01*
X145672105Y-114729240D01*
X145642423Y-114767793D01*
X145614089Y-114809008D01*
X145587415Y-114852349D01*
X145562712Y-114897280D01*
X145540292Y-114943266D01*
X145520467Y-114989773D01*
X145503547Y-115036264D01*
X145489845Y-115082204D01*
X145484298Y-115104800D01*
X145479672Y-115127058D01*
X145476006Y-115148910D01*
X145473340Y-115170290D01*
X145471711Y-115191131D01*
X145471160Y-115211366D01*
X145199329Y-115211366D01*
X145181700Y-115192973D01*
X145146112Y-115160118D01*
X145108884Y-115129793D01*
X145070552Y-115102524D01*
X145031654Y-115078838D01*
X145012160Y-115068503D01*
X144992725Y-115059262D01*
X144973417Y-115051179D01*
X144954303Y-115044322D01*
X144935450Y-115038755D01*
X144916924Y-115034545D01*
X144898794Y-115031757D01*
X144881125Y-115030458D01*
X144865471Y-115029683D01*
X144848950Y-115028312D01*
X144831705Y-115026378D01*
X144813875Y-115023914D01*
X144777030Y-115017530D01*
X144739544Y-115009429D01*
X144702546Y-114999878D01*
X144667166Y-114989144D01*
X144650435Y-114983417D01*
X144634533Y-114977495D01*
X144619599Y-114971412D01*
X144605776Y-114965199D01*
X144597904Y-114961329D01*
X144591045Y-114957655D01*
X144585201Y-114954178D01*
X144580379Y-114950896D01*
X144576582Y-114947811D01*
X144573815Y-114944920D01*
X144572819Y-114943548D01*
X144572082Y-114942224D01*
X144571605Y-114940949D01*
X144571389Y-114939722D01*
X144571433Y-114938543D01*
X144571739Y-114937413D01*
X144572306Y-114936332D01*
X144573137Y-114935298D01*
X144574230Y-114934313D01*
X144575587Y-114933376D01*
X144579095Y-114931645D01*
X144583665Y-114930107D01*
X144589300Y-114928759D01*
X144596007Y-114927603D01*
X144603788Y-114926636D01*
X144612649Y-114925860D01*
X144622595Y-114925273D01*
X144633629Y-114924874D01*
X144645757Y-114924665D01*
X144658982Y-114924643D01*
X144673310Y-114924808D01*
X144705290Y-114925700D01*
X144741735Y-114927336D01*
X144782679Y-114929712D01*
X144828159Y-114932825D01*
X144878211Y-114936671D01*
X145278852Y-114968896D01*
X145278852Y-114784430D01*
X145278594Y-114764005D01*
X145277780Y-114744636D01*
X145276351Y-114726297D01*
X145274250Y-114708962D01*
X145271417Y-114692603D01*
X145267793Y-114677193D01*
X145263320Y-114662707D01*
X145257939Y-114649116D01*
X145251592Y-114636395D01*
X145244219Y-114624516D01*
X145235762Y-114613453D01*
X145226163Y-114603179D01*
X145215362Y-114593667D01*
X145203301Y-114584890D01*
X145189921Y-114576822D01*
X145175163Y-114569436D01*
X145158969Y-114562705D01*
X145141280Y-114556602D01*
X145122038Y-114551101D01*
X145101183Y-114546175D01*
X145078657Y-114541796D01*
X145054401Y-114537939D01*
X145028357Y-114534576D01*
X145000465Y-114531681D01*
X144970668Y-114529227D01*
X144938906Y-114527187D01*
X144869253Y-114524242D01*
X144791036Y-114522632D01*
X144703788Y-114522143D01*
X144627869Y-114523476D01*
X144557119Y-114527533D01*
X144491388Y-114534402D01*
X144430527Y-114544172D01*
X144374385Y-114556929D01*
X144322812Y-114572762D01*
X144275659Y-114591758D01*
X144232776Y-114614005D01*
X144212889Y-114626375D01*
X144194014Y-114639591D01*
X144176130Y-114653664D01*
X144159221Y-114668604D01*
X144143266Y-114684423D01*
X144128248Y-114701132D01*
X144114148Y-114718741D01*
X144100946Y-114737262D01*
X144077165Y-114777082D01*
X144056754Y-114820679D01*
X144039564Y-114868143D01*
X144025445Y-114919560D01*
X144020224Y-114943983D01*
X144016455Y-114967223D01*
X144014194Y-114989438D01*
X144013499Y-115010783D01*
X144014426Y-115031416D01*
X144015515Y-115041514D01*
X144017032Y-115051492D01*
X144018983Y-115061371D01*
X144021375Y-115071169D01*
X144024215Y-115080907D01*
X144027511Y-115090603D01*
X144031270Y-115100278D01*
X144035498Y-115109950D01*
X144045392Y-115129367D01*
X144057250Y-115149010D01*
X144071130Y-115169036D01*
X144087088Y-115189601D01*
X144105181Y-115210862D01*
X144125467Y-115232976D01*
X144148002Y-115256098D01*
X144165420Y-115272775D01*
X144183846Y-115289030D01*
X144203123Y-115304777D01*
X144223091Y-115319930D01*
X144243590Y-115334403D01*
X144264462Y-115348109D01*
X144285547Y-115360964D01*
X144306686Y-115372880D01*
X144327720Y-115383771D01*
X144348489Y-115393551D01*
X144368835Y-115402135D01*
X144388597Y-115409435D01*
X144407617Y-115415367D01*
X144425735Y-115419843D01*
X144442792Y-115422777D01*
X144458629Y-115424084D01*
X144474284Y-115424859D01*
X144490804Y-115426230D01*
X144508050Y-115428164D01*
X144525879Y-115430628D01*
X144562724Y-115437011D01*
X144600210Y-115445111D01*
X144637208Y-115454661D01*
X144672588Y-115465393D01*
X144689319Y-115471118D01*
X144705222Y-115477039D01*
X144720155Y-115483122D01*
X144733979Y-115489333D01*
X144741779Y-115493185D01*
X144748507Y-115496846D01*
X144754158Y-115500313D01*
X144758727Y-115503590D01*
X144762211Y-115506675D01*
X144764605Y-115509569D01*
X144765392Y-115510945D01*
X144765904Y-115512273D01*
X144766141Y-115513553D01*
X144766104Y-115514787D01*
X144765790Y-115515972D01*
X144765200Y-115517111D01*
X144764332Y-115518202D01*
X144763188Y-115519246D01*
X144761765Y-115520243D01*
X144760063Y-115521193D01*
X144755821Y-115522952D01*
X144750458Y-115524523D01*
X144743968Y-115525906D01*
X144736348Y-115527103D01*
X144727593Y-115528114D01*
X144717698Y-115528938D01*
X144706660Y-115529577D01*
X144694473Y-115530031D01*
X144681132Y-115530300D01*
X144650976Y-115530287D01*
X144616153Y-115529540D01*
X144576629Y-115528063D01*
X144532368Y-115525861D01*
X144483334Y-115522935D01*
X144429491Y-115519291D01*
X143996800Y-115488505D01*
X143868324Y-115488505D01*
X143868596Y-115483680D01*
X143867799Y-115466857D01*
X143865451Y-115449548D01*
X143861619Y-115431818D01*
X143856371Y-115413732D01*
X143849774Y-115395358D01*
X143841895Y-115376760D01*
X143832800Y-115358004D01*
X143822558Y-115339157D01*
X143798898Y-115301450D01*
X143771450Y-115264166D01*
X143740753Y-115227831D01*
X143707342Y-115192973D01*
X143671754Y-115160118D01*
X143634525Y-115129793D01*
X143596194Y-115102524D01*
X143557295Y-115078838D01*
X143537801Y-115068503D01*
X143518366Y-115059262D01*
X143499058Y-115051179D01*
X143479944Y-115044322D01*
X143461091Y-115038755D01*
X143442565Y-115034545D01*
X143424434Y-115031757D01*
X143406766Y-115030458D01*
X143391111Y-115029683D01*
X143374591Y-115028312D01*
X143357345Y-115026378D01*
X143339516Y-115023914D01*
X143302671Y-115017530D01*
X143265185Y-115009429D01*
X143228187Y-114999878D01*
X143192807Y-114989144D01*
X143176076Y-114983417D01*
X143160173Y-114977495D01*
X143145240Y-114971412D01*
X143131417Y-114965199D01*
X143123545Y-114961329D01*
X143116685Y-114957655D01*
X143110842Y-114954178D01*
X143106020Y-114950896D01*
X143102223Y-114947811D01*
X143099456Y-114944920D01*
X143098460Y-114943548D01*
X143097723Y-114942224D01*
X143097246Y-114940949D01*
X143097030Y-114939722D01*
X143097074Y-114938543D01*
X143097380Y-114937413D01*
X143097947Y-114936332D01*
X143098778Y-114935298D01*
X143099871Y-114934313D01*
X143101228Y-114933376D01*
X143104736Y-114931645D01*
X143109306Y-114930107D01*
X143114941Y-114928759D01*
X143121648Y-114927603D01*
X143129429Y-114926636D01*
X143138290Y-114925860D01*
X143148236Y-114925273D01*
X143159270Y-114924874D01*
X143171397Y-114924665D01*
X143184623Y-114924643D01*
X143198951Y-114924808D01*
X143230931Y-114925700D01*
X143267375Y-114927336D01*
X143308319Y-114929712D01*
X143353799Y-114932825D01*
X143403852Y-114936671D01*
X143804494Y-114968896D01*
X143804494Y-114784430D01*
X143804235Y-114764005D01*
X143803421Y-114744636D01*
X143801993Y-114726297D01*
X143799892Y-114708962D01*
X143797059Y-114692603D01*
X143793435Y-114677193D01*
X143788962Y-114662707D01*
X143783581Y-114649116D01*
X143777234Y-114636395D01*
X143769861Y-114624516D01*
X143761404Y-114613453D01*
X143751805Y-114603179D01*
X143741004Y-114593667D01*
X143728942Y-114584890D01*
X143715562Y-114576822D01*
X143700805Y-114569436D01*
X143684611Y-114562705D01*
X143666922Y-114556602D01*
X143647680Y-114551101D01*
X143626825Y-114546175D01*
X143604299Y-114541796D01*
X143580043Y-114537939D01*
X143553998Y-114534576D01*
X143526107Y-114531681D01*
X143496309Y-114529227D01*
X143464547Y-114527187D01*
X143394893Y-114524242D01*
X143316677Y-114522632D01*
X143229428Y-114522143D01*
X143153509Y-114523476D01*
X143082759Y-114527533D01*
X143017029Y-114534402D01*
X142956167Y-114544172D01*
X142900025Y-114556929D01*
X142848453Y-114572762D01*
X142801300Y-114591758D01*
X142758418Y-114614005D01*
X142738531Y-114626375D01*
X142719655Y-114639591D01*
X142701772Y-114653664D01*
X142684862Y-114668604D01*
X142668908Y-114684423D01*
X142653890Y-114701132D01*
X142639789Y-114718741D01*
X142626588Y-114737262D01*
X142602806Y-114777082D01*
X142582396Y-114820679D01*
X142565206Y-114868143D01*
X142551087Y-114919560D01*
X142545866Y-114943983D01*
X142542097Y-114967223D01*
X142539836Y-114989438D01*
X142539140Y-115010783D01*
X142540067Y-115031416D01*
X142541157Y-115041514D01*
X142542674Y-115051492D01*
X142544624Y-115061371D01*
X142547016Y-115071169D01*
X142549857Y-115080907D01*
X142553153Y-115090603D01*
X142556911Y-115100278D01*
X142561139Y-115109950D01*
X142571033Y-115129367D01*
X142582891Y-115149010D01*
X142596771Y-115169036D01*
X142612729Y-115189601D01*
X142630823Y-115210862D01*
X142651109Y-115232976D01*
X142673644Y-115256098D01*
X142691061Y-115272775D01*
X142709488Y-115289030D01*
X142728764Y-115304777D01*
X142748732Y-115319930D01*
X142769231Y-115334403D01*
X142790103Y-115348109D01*
X142811188Y-115360964D01*
X142832327Y-115372880D01*
X142853361Y-115383771D01*
X142874130Y-115393551D01*
X142894475Y-115402135D01*
X142914237Y-115409435D01*
X142933257Y-115415367D01*
X142951375Y-115419843D01*
X142968433Y-115422777D01*
X142984270Y-115424084D01*
X142999925Y-115424859D01*
X143016445Y-115426230D01*
X143033691Y-115428164D01*
X143051520Y-115430628D01*
X143088366Y-115437011D01*
X143125852Y-115445111D01*
X143162850Y-115454661D01*
X143198230Y-115465393D01*
X143214961Y-115471118D01*
X143230864Y-115477039D01*
X143245797Y-115483122D01*
X143259620Y-115489333D01*
X143267420Y-115493185D01*
X143274148Y-115496846D01*
X143279799Y-115500313D01*
X143284369Y-115503590D01*
X143287853Y-115506675D01*
X143290246Y-115509569D01*
X143291033Y-115510945D01*
X143291545Y-115512273D01*
X143291783Y-115513553D01*
X143291745Y-115514787D01*
X143291431Y-115515972D01*
X143290841Y-115517111D01*
X143289974Y-115518202D01*
X143288829Y-115519246D01*
X143287406Y-115520243D01*
X143285704Y-115521193D01*
X143281462Y-115522952D01*
X143276099Y-115524523D01*
X143269609Y-115525906D01*
X143261989Y-115527103D01*
X143253234Y-115528114D01*
X143243340Y-115528938D01*
X143232301Y-115529577D01*
X143220114Y-115530031D01*
X143206774Y-115530300D01*
X143176617Y-115530287D01*
X143141795Y-115529540D01*
X143102271Y-115528063D01*
X143058010Y-115525861D01*
X143008976Y-115522935D01*
X142955133Y-115519291D01*
X142522441Y-115488505D01*
X142326257Y-115488505D01*
X142320168Y-115322349D01*
X142314682Y-115189087D01*
X142307954Y-115071561D01*
X142299022Y-114968781D01*
X142286925Y-114879758D01*
X142279389Y-114840096D01*
X142270701Y-114803502D01*
X142260741Y-114769852D01*
X142249389Y-114739022D01*
X142236524Y-114710890D01*
X142222027Y-114685330D01*
X142205777Y-114662219D01*
X142187653Y-114641434D01*
X142167537Y-114622851D01*
X142145307Y-114606346D01*
X142120844Y-114591796D01*
X142094027Y-114579075D01*
X142064735Y-114568062D01*
X142032850Y-114558632D01*
X141998250Y-114550661D01*
X141960816Y-114544026D01*
X141876964Y-114534269D01*
X141780331Y-114528368D01*
X141669956Y-114525336D01*
X141544878Y-114524183D01*
X141048084Y-114522138D01*
X141048084Y-114714446D01*
X141048084Y-114906753D01*
X141432699Y-114906753D01*
X141510573Y-114908047D01*
X141582939Y-114911761D01*
X141648293Y-114917646D01*
X141705134Y-114925450D01*
X141729892Y-114929994D01*
X141751959Y-114934924D01*
X141771146Y-114940209D01*
X141787265Y-114945817D01*
X141800129Y-114951717D01*
X141809551Y-114957878D01*
X141815341Y-114964268D01*
X141816816Y-114967540D01*
X141817313Y-114970857D01*
X141817015Y-114974143D01*
X141816132Y-114977387D01*
X141814679Y-114980586D01*
X141812669Y-114983734D01*
X141810117Y-114986829D01*
X141807039Y-114989865D01*
X141803448Y-114992840D01*
X141799359Y-114995748D01*
X141794786Y-114998585D01*
X141789745Y-115001348D01*
X141784250Y-115004032D01*
X141778316Y-115006634D01*
X141771956Y-115009149D01*
X141765186Y-115011572D01*
X141758020Y-115013901D01*
X141750473Y-115016131D01*
X141734293Y-115020276D01*
X141716764Y-115023975D01*
X141698001Y-115027195D01*
X141678122Y-115029903D01*
X141657243Y-115032067D01*
X141635480Y-115033653D01*
X141612951Y-115034628D01*
X141589772Y-115034961D01*
X141539879Y-115036071D01*
X141491503Y-115039351D01*
X141444699Y-115044730D01*
X141399521Y-115052135D01*
X141356025Y-115061493D01*
X141314265Y-115072733D01*
X141274296Y-115085781D01*
X141236174Y-115100565D01*
X141199954Y-115117013D01*
X141165690Y-115135052D01*
X141133437Y-115154610D01*
X141103251Y-115175615D01*
X141075187Y-115197993D01*
X141049299Y-115221673D01*
X141025642Y-115246581D01*
X141004272Y-115272646D01*
X140985244Y-115299796D01*
X140968612Y-115327956D01*
X140954432Y-115357056D01*
X140942759Y-115387023D01*
X140933647Y-115417784D01*
X140927151Y-115449266D01*
X140923327Y-115481398D01*
X140922230Y-115514107D01*
X140755419Y-115514107D01*
X140766013Y-115482817D01*
X140778669Y-115431967D01*
X140786950Y-115380946D01*
X140790844Y-115330174D01*
X140790335Y-115280073D01*
X140785409Y-115231064D01*
X140781286Y-115207101D01*
X140776053Y-115183569D01*
X140769709Y-115160521D01*
X140762252Y-115138009D01*
X140753681Y-115116087D01*
X140743993Y-115094806D01*
X140733186Y-115074220D01*
X140721260Y-115054381D01*
X140708211Y-115035341D01*
X140694040Y-115017155D01*
X140678742Y-114999873D01*
X140662318Y-114983550D01*
X140647127Y-114970713D01*
X140628409Y-114957138D01*
X140606430Y-114942941D01*
X140581455Y-114928239D01*
X140553750Y-114913149D01*
X140523579Y-114897789D01*
X140491210Y-114882276D01*
X140456906Y-114866727D01*
X140420933Y-114851259D01*
X140383557Y-114835988D01*
X140345043Y-114821034D01*
X140305656Y-114806511D01*
X140265662Y-114792538D01*
X140225326Y-114779231D01*
X140184914Y-114766709D01*
X140144690Y-114755087D01*
X140061350Y-114730389D01*
X139988871Y-114705800D01*
X139927271Y-114681541D01*
X139900556Y-114669604D01*
X139876568Y-114657832D01*
X139855308Y-114646252D01*
X139836778Y-114634892D01*
X139820982Y-114623781D01*
X139807920Y-114612944D01*
X139797595Y-114602410D01*
X139790010Y-114592206D01*
X139785166Y-114582360D01*
X139783066Y-114572900D01*
X139783712Y-114563852D01*
X139787105Y-114555245D01*
X139793249Y-114547106D01*
X139802145Y-114539462D01*
X139813795Y-114532342D01*
X139828202Y-114525772D01*
X139845368Y-114519780D01*
X139865294Y-114514394D01*
X139887984Y-114509642D01*
X139913439Y-114505550D01*
X139941661Y-114502147D01*
X139972653Y-114499459D01*
X140042955Y-114496342D01*
X140124361Y-114496419D01*
X140190531Y-114498693D01*
X140257952Y-114502757D01*
X140324742Y-114508384D01*
X140389019Y-114515345D01*
X140448900Y-114523413D01*
X140502502Y-114532359D01*
X140547942Y-114541955D01*
X140567014Y-114546925D01*
X140583339Y-114551973D01*
X140606626Y-114559648D01*
X140627285Y-114565720D01*
X140636678Y-114568096D01*
X140645472Y-114570001D01*
X140653687Y-114571410D01*
X140661342Y-114572301D01*
X140668457Y-114572650D01*
X140675051Y-114572432D01*
X140681143Y-114571626D01*
X140686753Y-114570207D01*
X140691900Y-114568151D01*
X140696604Y-114565435D01*
X140700884Y-114562036D01*
X140704759Y-114557930D01*
X140708249Y-114553093D01*
X140711373Y-114547502D01*
X140714151Y-114541133D01*
X140716602Y-114533963D01*
X140718745Y-114525968D01*
X140720600Y-114517125D01*
X140722187Y-114507409D01*
X140723524Y-114496798D01*
X140725527Y-114472795D01*
X140726766Y-114444927D01*
X140727395Y-114413006D01*
X140727571Y-114376843D01*
X140726505Y-114329786D01*
X140725051Y-114308180D01*
X140722878Y-114287808D01*
X140719903Y-114268635D01*
X140716047Y-114250626D01*
X140711230Y-114233744D01*
X140705371Y-114217954D01*
X140698390Y-114203220D01*
X140690207Y-114189508D01*
X140680741Y-114176782D01*
X140669911Y-114165005D01*
X140657638Y-114154143D01*
X140643842Y-114144161D01*
X140628442Y-114135021D01*
X140611357Y-114126690D01*
X140592507Y-114119132D01*
X140571813Y-114112310D01*
X140549193Y-114106190D01*
X140524568Y-114100736D01*
X140497856Y-114095912D01*
X140468978Y-114091683D01*
X140437854Y-114088014D01*
X140404403Y-114084868D01*
X140368545Y-114082211D01*
X140330199Y-114080007D01*
X140245723Y-114076815D01*
X140150332Y-114075008D01*
X140043386Y-114074302D01*
X139929123Y-114075441D01*
X139879251Y-114077277D01*
X139833613Y-114080126D01*
X139791752Y-114084115D01*
X139753214Y-114089370D01*
X139717543Y-114096018D01*
X139684285Y-114104185D01*
X139652983Y-114113997D01*
X139623184Y-114125581D01*
X139594431Y-114139064D01*
X139566270Y-114154572D01*
X139538246Y-114172231D01*
X139509902Y-114192168D01*
X139480785Y-114214510D01*
X139450438Y-114239382D01*
X139422607Y-114263416D01*
X139397335Y-114286614D01*
X139374516Y-114309194D01*
X139354045Y-114331370D01*
X139335817Y-114353361D01*
X139327511Y-114364354D01*
X139319726Y-114375382D01*
X139312449Y-114386471D01*
X139305667Y-114397650D01*
X139299366Y-114408944D01*
X139293535Y-114420380D01*
X139288158Y-114431987D01*
X139283224Y-114443791D01*
X139278719Y-114455818D01*
X139274630Y-114468097D01*
X139270943Y-114480654D01*
X139267647Y-114493516D01*
X139262169Y-114520264D01*
X139258092Y-114548557D01*
X139255310Y-114578612D01*
X139253719Y-114610645D01*
X139253211Y-114644873D01*
X139253727Y-114673525D01*
X139255290Y-114701326D01*
X139257926Y-114728299D01*
X139261660Y-114754467D01*
X139266517Y-114779854D01*
X139272523Y-114804483D01*
X139279703Y-114828377D01*
X139288082Y-114851560D01*
X139297686Y-114874055D01*
X139308539Y-114895885D01*
X139320667Y-114917073D01*
X139334095Y-114937644D01*
X139348849Y-114957619D01*
X139364954Y-114977023D01*
X139382434Y-114995878D01*
X139401315Y-115014209D01*
X139421623Y-115032038D01*
X139443383Y-115049388D01*
X139466620Y-115066283D01*
X139491358Y-115082747D01*
X139517625Y-115098802D01*
X139545444Y-115114472D01*
X139574840Y-115129780D01*
X139605841Y-115144749D01*
X139672752Y-115173766D01*
X139746378Y-115201707D01*
X139826923Y-115228761D01*
X139914588Y-115255112D01*
X139956237Y-115267383D01*
X139995623Y-115279755D01*
X140032662Y-115292184D01*
X140067269Y-115304625D01*
X140099360Y-115317034D01*
X140128850Y-115329366D01*
X140155656Y-115341576D01*
X140179693Y-115353621D01*
X140200876Y-115365455D01*
X140219121Y-115377034D01*
X140234344Y-115388313D01*
X140246460Y-115399248D01*
X140255385Y-115409794D01*
X140261035Y-115419908D01*
X140262605Y-115424788D01*
X140263325Y-115429543D01*
X140263183Y-115434167D01*
X140262170Y-115438656D01*
X140257114Y-115449620D01*
X140249460Y-115459945D01*
X140239355Y-115469628D01*
X140226945Y-115478664D01*
X140212377Y-115487052D01*
X140195797Y-115494787D01*
X140177351Y-115501866D01*
X140157187Y-115508285D01*
X140112290Y-115519131D01*
X140062276Y-115527298D01*
X140008319Y-115532759D01*
X139951591Y-115535485D01*
X139893264Y-115535450D01*
X139834511Y-115532626D01*
X139776504Y-115526986D01*
X139720415Y-115518502D01*
X139667417Y-115507147D01*
X139618682Y-115492893D01*
X139596280Y-115484671D01*
X139575383Y-115475714D01*
X139556138Y-115466019D01*
X139538692Y-115455581D01*
X139497283Y-115429231D01*
X139459867Y-115407206D01*
X139426262Y-115389602D01*
X139410832Y-115382488D01*
X139396286Y-115376516D01*
X139382601Y-115371698D01*
X139369756Y-115368046D01*
X139357726Y-115365572D01*
X139346489Y-115364289D01*
X139336023Y-115364207D01*
X139326304Y-115365340D01*
X139317311Y-115367699D01*
X139309019Y-115371297D01*
X139301406Y-115376146D01*
X139294449Y-115382258D01*
X139288126Y-115389644D01*
X139282414Y-115398318D01*
X139277290Y-115408290D01*
X139272731Y-115419574D01*
X139268715Y-115432181D01*
X139265218Y-115446124D01*
X139262218Y-115461414D01*
X139259691Y-115478064D01*
X139255970Y-115515491D01*
X139253870Y-115558502D01*
X139253211Y-115607194D01*
X139123751Y-115607194D01*
X139123362Y-115600815D01*
X139122258Y-115589239D01*
X139120748Y-115578525D01*
X139118767Y-115568643D01*
X139116253Y-115559562D01*
X139113142Y-115551253D01*
X139109370Y-115543686D01*
X139104875Y-115536831D01*
X139099592Y-115530659D01*
X139093458Y-115525138D01*
X139086410Y-115520240D01*
X139078384Y-115515935D01*
X139069317Y-115512192D01*
X139059145Y-115508981D01*
X139047805Y-115506274D01*
X139035233Y-115504040D01*
X139021366Y-115502248D01*
X139006141Y-115500870D01*
X138989493Y-115499875D01*
X138971360Y-115499234D01*
X138930382Y-115498892D01*
X138882701Y-115499605D01*
X138765195Y-115503239D01*
X138688920Y-115504615D01*
X138619769Y-115503120D01*
X138557616Y-115498641D01*
X138502335Y-115491069D01*
X138477232Y-115486087D01*
X138453800Y-115480291D01*
X138432023Y-115473666D01*
X138411886Y-115466198D01*
X138393372Y-115457873D01*
X138376467Y-115448677D01*
X138361154Y-115438597D01*
X138347417Y-115427619D01*
X138335241Y-115415729D01*
X138324610Y-115402912D01*
X138315509Y-115389155D01*
X138307921Y-115374445D01*
X138301831Y-115358767D01*
X138297224Y-115342108D01*
X138294083Y-115324452D01*
X138292392Y-115305788D01*
X138292137Y-115286101D01*
X138293301Y-115265376D01*
X138295869Y-115243601D01*
X138299824Y-115220760D01*
X138311836Y-115171830D01*
X138329211Y-115118474D01*
X138340347Y-115088358D01*
X138351089Y-115061834D01*
X138356480Y-115049853D01*
X138361972Y-115038693D01*
X138367634Y-115028327D01*
X138373531Y-115018729D01*
X138379730Y-115009873D01*
X138386299Y-115001733D01*
X138393303Y-114994283D01*
X138400811Y-114987498D01*
X138408888Y-114981350D01*
X138417602Y-114975816D01*
X138427018Y-114970867D01*
X138437205Y-114966479D01*
X138448229Y-114962626D01*
X138460157Y-114959281D01*
X138473055Y-114956418D01*
X138486990Y-114954012D01*
X138502029Y-114952037D01*
X138518240Y-114950466D01*
X138535688Y-114949274D01*
X138554441Y-114948435D01*
X138596127Y-114947711D01*
X138643833Y-114948086D01*
X138698093Y-114949353D01*
X138759442Y-114951305D01*
X138879009Y-114954958D01*
X138927507Y-114955687D01*
X138969171Y-114955363D01*
X139004522Y-114953746D01*
X139034077Y-114950597D01*
X139058356Y-114945673D01*
X139068679Y-114942471D01*
X139077877Y-114938736D01*
X139086016Y-114934437D01*
X139093159Y-114929544D01*
X139099372Y-114924028D01*
X139104721Y-114917857D01*
X139109268Y-114911003D01*
X139113080Y-114903435D01*
X139116221Y-114895123D01*
X139118757Y-114886037D01*
X139122269Y-114865424D01*
X139124135Y-114841353D01*
X139125006Y-114781881D01*
X139124521Y-114762060D01*
X139123090Y-114742679D01*
X139120747Y-114723818D01*
X139117530Y-114705552D01*
X139113473Y-114687959D01*
X139108612Y-114671118D01*
X139102983Y-114655104D01*
X139098674Y-114644873D01*
X139096620Y-114639997D01*
X139089561Y-114625873D01*
X139081840Y-114612810D01*
X139073492Y-114600886D01*
X139064554Y-114590177D01*
X139055061Y-114580762D01*
X139045049Y-114572717D01*
X139034553Y-114566121D01*
X139029135Y-114563391D01*
X139023609Y-114561051D01*
X138983865Y-114548583D01*
X138936808Y-114538563D01*
X138883489Y-114530926D01*
X138824958Y-114525606D01*
X138762268Y-114522537D01*
X138696468Y-114521655D01*
X138628609Y-114522894D01*
X138559743Y-114526187D01*
X138490920Y-114531471D01*
X138423191Y-114538679D01*
X138357607Y-114547745D01*
X138295219Y-114558605D01*
X138237077Y-114571193D01*
X138184234Y-114585443D01*
X138137738Y-114601291D01*
X138098643Y-114618669D01*
X138062660Y-114639563D01*
X138028950Y-114663711D01*
X137997515Y-114690898D01*
X137968356Y-114720909D01*
X137941477Y-114753529D01*
X137916879Y-114788541D01*
X137894564Y-114825730D01*
X137874536Y-114864881D01*
X137856796Y-114905779D01*
X137841347Y-114948207D01*
X137828191Y-114991951D01*
X137817330Y-115036795D01*
X137808766Y-115082523D01*
X137802503Y-115128921D01*
X137798541Y-115175772D01*
X137796884Y-115222861D01*
X137522442Y-115222861D01*
X137522442Y-115034964D01*
X137522442Y-114137527D01*
X137213725Y-114137527D01*
X136905007Y-114137527D01*
X136758878Y-114490092D01*
X136728465Y-114560914D01*
X136698048Y-114626986D01*
X136668437Y-114686860D01*
X136640445Y-114739090D01*
X136614883Y-114782232D01*
X136603268Y-114799942D01*
X136592565Y-114814837D01*
X136582875Y-114826737D01*
X136574301Y-114835461D01*
X136566943Y-114840828D01*
X136563752Y-114842196D01*
X136560904Y-114842657D01*
X136558055Y-114842196D01*
X136554864Y-114840828D01*
X136551344Y-114838576D01*
X136547507Y-114835461D01*
X136543365Y-114831508D01*
X136538932Y-114826737D01*
X136529243Y-114814837D01*
X136518540Y-114799942D01*
X136506924Y-114782232D01*
X136494498Y-114761888D01*
X136481363Y-114739090D01*
X136467620Y-114714021D01*
X136453370Y-114686860D01*
X136438716Y-114657788D01*
X136423759Y-114626986D01*
X136408600Y-114594634D01*
X136393341Y-114560914D01*
X136378084Y-114526007D01*
X136362929Y-114490092D01*
X136216799Y-114137527D01*
X135908082Y-114137527D01*
X135599365Y-114137527D01*
X135599365Y-115034964D01*
X135599365Y-115932400D01*
X134521427Y-115932400D01*
X134527440Y-115034964D01*
X134529173Y-114776373D01*
X134543548Y-114189392D01*
X134564231Y-113834257D01*
X134592386Y-113638087D01*
X134629174Y-113528002D01*
X134659008Y-113467806D01*
X134693538Y-113407891D01*
X134732377Y-113348601D01*
X134775142Y-113290280D01*
X134821445Y-113233273D01*
X134870901Y-113177924D01*
X134923125Y-113124576D01*
X134977731Y-113073575D01*
X135034334Y-113025265D01*
X135092549Y-112979990D01*
X135151988Y-112938094D01*
X135212268Y-112899922D01*
X135273001Y-112865818D01*
X135333804Y-112836126D01*
X135394290Y-112811191D01*
X135454074Y-112791357D01*
X135678751Y-112774358D01*
X136236617Y-112760553D01*
X138426798Y-112742208D01*
X142174376Y-112735695D01*
X147629111Y-112740388D01*
G37*
G36*
X141696108Y-115365639D02*
G01*
X141711334Y-115367308D01*
X141725988Y-115369723D01*
X141739960Y-115372892D01*
X141753136Y-115376820D01*
X141765403Y-115381513D01*
X141776649Y-115386979D01*
X141786761Y-115393223D01*
X141795627Y-115400251D01*
X141803133Y-115408069D01*
X141809168Y-115416684D01*
X141813618Y-115426102D01*
X141816370Y-115436329D01*
X141817313Y-115447372D01*
X141817134Y-115453769D01*
X141816595Y-115459942D01*
X141815693Y-115465893D01*
X141814426Y-115471622D01*
X141812791Y-115477131D01*
X141810785Y-115482422D01*
X141808406Y-115487496D01*
X141805651Y-115492354D01*
X141802516Y-115496998D01*
X141799001Y-115501429D01*
X141795101Y-115505648D01*
X141790814Y-115509656D01*
X141786137Y-115513456D01*
X141781068Y-115517049D01*
X141775604Y-115520435D01*
X141769743Y-115523616D01*
X141763480Y-115526594D01*
X141756815Y-115529370D01*
X141749744Y-115531945D01*
X141742265Y-115534321D01*
X141734374Y-115536499D01*
X141726069Y-115538480D01*
X141717348Y-115540266D01*
X141708207Y-115541859D01*
X141698645Y-115543258D01*
X141688657Y-115544467D01*
X141678243Y-115545486D01*
X141667398Y-115546317D01*
X141656120Y-115546961D01*
X141644407Y-115547419D01*
X141619663Y-115547784D01*
X141596223Y-115547460D01*
X141574437Y-115546493D01*
X141554317Y-115544885D01*
X141535871Y-115542642D01*
X141519107Y-115539767D01*
X141504035Y-115536265D01*
X141490663Y-115532139D01*
X141479001Y-115527395D01*
X141469058Y-115522036D01*
X141464734Y-115519127D01*
X141460842Y-115516066D01*
X141457385Y-115512853D01*
X141454363Y-115509489D01*
X141451777Y-115505975D01*
X141449628Y-115502310D01*
X141447919Y-115498496D01*
X141446648Y-115494533D01*
X141445819Y-115490422D01*
X141445432Y-115486162D01*
X141445488Y-115481755D01*
X141445987Y-115477201D01*
X141446932Y-115472501D01*
X141448324Y-115467655D01*
X141448325Y-115467655D01*
X141452978Y-115456305D01*
X141459201Y-115445585D01*
X141466882Y-115435500D01*
X141475908Y-115426057D01*
X141486167Y-115417262D01*
X141497546Y-115409121D01*
X141509932Y-115401640D01*
X141523213Y-115394826D01*
X141537275Y-115388685D01*
X141552007Y-115383223D01*
X141567295Y-115378446D01*
X141583026Y-115374361D01*
X141615370Y-115368288D01*
X141648137Y-115365055D01*
X141680426Y-115364712D01*
X141696108Y-115365639D01*
G37*
G36*
X147865943Y-114907091D02*
G01*
X147884609Y-114908067D01*
X147902640Y-114909653D01*
X147919939Y-114911817D01*
X147936409Y-114914525D01*
X147951955Y-114917745D01*
X147966478Y-114921444D01*
X147979884Y-114925589D01*
X147992074Y-114930148D01*
X148002952Y-114935086D01*
X148012422Y-114940372D01*
X148020387Y-114945973D01*
X148026750Y-114951855D01*
X148029301Y-114954891D01*
X148031415Y-114957986D01*
X148033080Y-114961134D01*
X148034285Y-114964333D01*
X148035016Y-114967577D01*
X148035263Y-114970863D01*
X148034965Y-114974149D01*
X148034079Y-114977393D01*
X148032622Y-114980591D01*
X148030606Y-114983740D01*
X148028048Y-114986835D01*
X148024961Y-114989871D01*
X148021361Y-114992845D01*
X148017261Y-114995753D01*
X148012676Y-114998591D01*
X148007622Y-115001354D01*
X148002112Y-115004038D01*
X147996162Y-115006640D01*
X147989785Y-115009154D01*
X147982997Y-115011578D01*
X147975813Y-115013907D01*
X147968246Y-115016136D01*
X147952023Y-115020281D01*
X147934447Y-115023980D01*
X147915635Y-115027200D01*
X147895703Y-115029909D01*
X147874768Y-115032072D01*
X147852948Y-115033658D01*
X147830360Y-115034634D01*
X147807119Y-115034967D01*
X147782369Y-115034666D01*
X147759070Y-115033777D01*
X147737284Y-115032320D01*
X147717068Y-115030315D01*
X147698483Y-115027783D01*
X147681587Y-115024743D01*
X147666441Y-115021215D01*
X147653102Y-115017221D01*
X147641630Y-115012779D01*
X147632085Y-115007910D01*
X147624526Y-115002635D01*
X147621510Y-114999851D01*
X147619013Y-114996973D01*
X147617041Y-114994003D01*
X147615603Y-114990945D01*
X147614706Y-114987799D01*
X147614358Y-114984570D01*
X147614565Y-114981259D01*
X147615335Y-114977869D01*
X147616676Y-114974403D01*
X147618595Y-114970863D01*
X147618595Y-114970861D01*
X147620872Y-114967575D01*
X147623609Y-114964331D01*
X147626790Y-114961133D01*
X147630401Y-114957984D01*
X147634428Y-114954890D01*
X147638855Y-114951853D01*
X147648854Y-114945971D01*
X147660280Y-114940371D01*
X147673017Y-114935085D01*
X147686947Y-114930147D01*
X147701954Y-114925589D01*
X147717921Y-114921444D01*
X147734731Y-114917745D01*
X147752267Y-114914525D01*
X147770411Y-114911817D01*
X147789048Y-114909653D01*
X147808059Y-114908067D01*
X147827328Y-114907091D01*
X147846739Y-114906759D01*
X147865943Y-114907091D01*
G37*
G36*
X146263380Y-114907091D02*
G01*
X146282046Y-114908067D01*
X146300076Y-114909653D01*
X146317375Y-114911817D01*
X146333846Y-114914525D01*
X146349391Y-114917745D01*
X146363914Y-114921444D01*
X146377320Y-114925589D01*
X146389510Y-114930148D01*
X146400388Y-114935086D01*
X146409858Y-114940372D01*
X146417822Y-114945973D01*
X146424186Y-114951855D01*
X146426736Y-114954891D01*
X146428850Y-114957986D01*
X146430516Y-114961134D01*
X146431720Y-114964333D01*
X146432452Y-114967577D01*
X146432698Y-114970863D01*
X146432400Y-114974149D01*
X146431514Y-114977393D01*
X146430057Y-114980591D01*
X146428042Y-114983740D01*
X146425483Y-114986835D01*
X146422397Y-114989871D01*
X146418796Y-114992845D01*
X146414696Y-114995753D01*
X146410112Y-114998591D01*
X146405058Y-115001354D01*
X146399548Y-115004038D01*
X146393598Y-115006640D01*
X146387221Y-115009154D01*
X146380433Y-115011578D01*
X146373248Y-115013907D01*
X146365681Y-115016136D01*
X146349459Y-115020281D01*
X146331883Y-115023980D01*
X146313071Y-115027200D01*
X146293139Y-115029909D01*
X146272205Y-115032072D01*
X146250385Y-115033658D01*
X146227796Y-115034634D01*
X146204556Y-115034967D01*
X146179805Y-115034666D01*
X146156507Y-115033777D01*
X146134720Y-115032320D01*
X146114505Y-115030315D01*
X146095920Y-115027783D01*
X146079024Y-115024743D01*
X146063877Y-115021215D01*
X146050538Y-115017221D01*
X146039067Y-115012779D01*
X146029522Y-115007910D01*
X146021963Y-115002635D01*
X146018947Y-114999851D01*
X146016449Y-114996973D01*
X146014478Y-114994003D01*
X146013040Y-114990945D01*
X146012143Y-114987799D01*
X146011794Y-114984570D01*
X146012002Y-114981259D01*
X146012772Y-114977869D01*
X146014113Y-114974403D01*
X146016032Y-114970863D01*
X146016032Y-114970861D01*
X146018309Y-114967575D01*
X146021045Y-114964331D01*
X146024226Y-114961133D01*
X146027838Y-114957984D01*
X146031864Y-114954890D01*
X146036291Y-114951853D01*
X146046290Y-114945971D01*
X146057716Y-114940371D01*
X146070453Y-114935085D01*
X146084383Y-114930147D01*
X146099390Y-114925589D01*
X146115357Y-114921444D01*
X146132167Y-114917745D01*
X146149703Y-114914525D01*
X146167847Y-114911817D01*
X146186484Y-114909653D01*
X146205495Y-114908067D01*
X146224765Y-114907091D01*
X146244175Y-114906759D01*
X146263380Y-114907091D01*
G37*
G36*
X150460093Y-114902563D02*
G01*
X150493793Y-115002227D01*
X150506507Y-115043386D01*
X150516337Y-115079243D01*
X150523190Y-115110159D01*
X150526970Y-115136495D01*
X150527679Y-115148058D01*
X150527584Y-115158612D01*
X150526674Y-115168200D01*
X150524936Y-115176869D01*
X150522360Y-115184663D01*
X150518933Y-115191627D01*
X150514643Y-115197807D01*
X150509479Y-115203248D01*
X150503428Y-115207995D01*
X150496480Y-115212092D01*
X150488622Y-115215585D01*
X150479842Y-115218519D01*
X150470129Y-115220939D01*
X150459470Y-115222890D01*
X150435270Y-115225565D01*
X150407147Y-115226906D01*
X150375007Y-115227273D01*
X150358708Y-115227024D01*
X150342914Y-115226292D01*
X150327708Y-115225102D01*
X150313167Y-115223479D01*
X150299372Y-115221448D01*
X150286403Y-115219033D01*
X150274338Y-115216259D01*
X150263258Y-115213150D01*
X150253243Y-115209731D01*
X150244371Y-115206027D01*
X150236724Y-115202063D01*
X150230379Y-115197862D01*
X150225417Y-115193451D01*
X150223480Y-115191174D01*
X150221918Y-115188853D01*
X150220742Y-115186491D01*
X150219962Y-115184093D01*
X150219586Y-115181659D01*
X150219627Y-115179195D01*
X150220539Y-115173146D01*
X150222242Y-115165005D01*
X150227847Y-115143004D01*
X150236093Y-115114300D01*
X150246631Y-115080001D01*
X150259111Y-115041215D01*
X150273183Y-114999052D01*
X150288500Y-114954618D01*
X150304712Y-114909023D01*
X150384921Y-114686928D01*
X150460093Y-114902563D01*
G37*
G36*
X151119185Y-118378458D02*
G01*
X151134411Y-118380126D01*
X151149065Y-118382541D01*
X151163037Y-118385710D01*
X151176213Y-118389638D01*
X151188480Y-118394332D01*
X151199726Y-118399798D01*
X151209838Y-118406042D01*
X151218704Y-118413070D01*
X151226210Y-118420888D01*
X151232245Y-118429503D01*
X151236694Y-118438921D01*
X151239447Y-118449148D01*
X151240390Y-118460191D01*
X151240211Y-118466588D01*
X151239672Y-118472761D01*
X151238770Y-118478712D01*
X151237503Y-118484441D01*
X151235868Y-118489951D01*
X151233862Y-118495242D01*
X151231483Y-118500316D01*
X151228727Y-118505174D01*
X151225593Y-118509818D01*
X151222078Y-118514249D01*
X151218178Y-118518468D01*
X151213891Y-118522477D01*
X151209214Y-118526277D01*
X151204145Y-118529870D01*
X151198681Y-118533256D01*
X151192820Y-118536438D01*
X151186558Y-118539416D01*
X151179893Y-118542192D01*
X151172821Y-118544767D01*
X151165342Y-118547143D01*
X151157451Y-118549321D01*
X151149147Y-118551303D01*
X151140425Y-118553089D01*
X151131285Y-118554681D01*
X151121722Y-118556081D01*
X151111735Y-118557290D01*
X151101320Y-118558309D01*
X151090475Y-118559140D01*
X151079197Y-118559784D01*
X151067484Y-118560242D01*
X151042740Y-118560607D01*
X151019299Y-118560283D01*
X150997514Y-118559316D01*
X150977394Y-118557708D01*
X150958948Y-118555465D01*
X150942184Y-118552590D01*
X150927112Y-118549087D01*
X150913740Y-118544962D01*
X150902079Y-118540217D01*
X150892135Y-118534857D01*
X150887811Y-118531948D01*
X150883919Y-118528887D01*
X150880462Y-118525675D01*
X150877440Y-118522311D01*
X150874854Y-118518796D01*
X150872706Y-118515132D01*
X150870996Y-118511318D01*
X150869726Y-118507355D01*
X150868896Y-118503244D01*
X150868509Y-118498984D01*
X150868564Y-118494578D01*
X150869064Y-118490024D01*
X150870009Y-118485324D01*
X150871401Y-118480478D01*
X150871402Y-118480475D01*
X150876055Y-118469125D01*
X150882278Y-118458404D01*
X150889959Y-118448319D01*
X150898985Y-118438876D01*
X150909244Y-118430081D01*
X150920623Y-118421940D01*
X150933009Y-118414459D01*
X150946290Y-118407645D01*
X150960352Y-118401504D01*
X150975084Y-118396042D01*
X150990372Y-118391265D01*
X151006104Y-118387179D01*
X151038448Y-118381107D01*
X151071214Y-118377874D01*
X151103503Y-118377531D01*
X151119185Y-118378458D01*
G37*
G36*
X137767785Y-117915377D02*
G01*
X137801486Y-118015042D01*
X137814200Y-118056201D01*
X137824030Y-118092059D01*
X137830883Y-118122975D01*
X137834664Y-118149311D01*
X137835372Y-118160874D01*
X137835278Y-118171427D01*
X137834367Y-118181016D01*
X137832630Y-118189684D01*
X137830053Y-118197479D01*
X137826626Y-118204443D01*
X137822337Y-118210623D01*
X137817172Y-118216064D01*
X137811122Y-118220810D01*
X137804174Y-118224908D01*
X137796316Y-118228401D01*
X137787536Y-118231335D01*
X137777822Y-118233755D01*
X137767164Y-118235706D01*
X137742964Y-118238381D01*
X137714841Y-118239722D01*
X137682701Y-118240089D01*
X137666401Y-118239840D01*
X137650608Y-118239108D01*
X137635401Y-118237918D01*
X137620861Y-118236296D01*
X137607066Y-118234264D01*
X137594096Y-118231849D01*
X137582032Y-118229075D01*
X137570952Y-118225967D01*
X137560936Y-118222548D01*
X137552065Y-118218845D01*
X137544417Y-118214881D01*
X137538072Y-118210681D01*
X137533111Y-118206270D01*
X137531173Y-118203993D01*
X137529612Y-118201672D01*
X137528436Y-118199311D01*
X137527655Y-118196912D01*
X137527280Y-118194479D01*
X137527321Y-118192015D01*
X137527321Y-118192013D01*
X137528234Y-118185962D01*
X137529938Y-118177821D01*
X137535543Y-118155819D01*
X137543789Y-118127115D01*
X137554326Y-118092817D01*
X137566805Y-118054032D01*
X137580878Y-118011869D01*
X137596194Y-117967436D01*
X137612406Y-117921840D01*
X137692615Y-117699742D01*
X137767785Y-117915377D01*
G37*
G36*
X149438832Y-117919880D02*
G01*
X149462458Y-117921047D01*
X149473165Y-117922073D01*
X149483166Y-117923456D01*
X149492486Y-117925245D01*
X149501147Y-117927485D01*
X149509175Y-117930226D01*
X149516592Y-117933513D01*
X149523423Y-117937395D01*
X149529692Y-117941919D01*
X149535422Y-117947132D01*
X149540637Y-117953082D01*
X149545362Y-117959815D01*
X149549619Y-117967379D01*
X149553434Y-117975822D01*
X149556830Y-117985191D01*
X149559830Y-117995533D01*
X149562459Y-118006896D01*
X149564740Y-118019326D01*
X149566697Y-118032872D01*
X149568355Y-118047581D01*
X149569737Y-118063499D01*
X149571769Y-118099155D01*
X149572984Y-118140219D01*
X149573573Y-118187070D01*
X149573726Y-118240086D01*
X149573168Y-118343705D01*
X149572079Y-118385870D01*
X149570105Y-118422187D01*
X149566984Y-118453091D01*
X149562457Y-118479020D01*
X149559585Y-118490255D01*
X149556264Y-118500409D01*
X149552461Y-118509537D01*
X149548145Y-118517695D01*
X149543281Y-118524935D01*
X149537839Y-118531313D01*
X149531785Y-118536883D01*
X149525087Y-118541701D01*
X149517713Y-118545819D01*
X149509629Y-118549293D01*
X149500804Y-118552178D01*
X149491204Y-118554527D01*
X149469553Y-118557839D01*
X149444416Y-118559664D01*
X149415532Y-118560439D01*
X149382642Y-118560601D01*
X149355372Y-118560188D01*
X149330411Y-118558888D01*
X149307627Y-118556608D01*
X149286890Y-118553255D01*
X149277248Y-118551148D01*
X149268069Y-118548737D01*
X149259336Y-118546012D01*
X149251034Y-118542961D01*
X149243145Y-118539572D01*
X149235653Y-118535834D01*
X149228543Y-118531735D01*
X149221797Y-118527264D01*
X149215400Y-118522409D01*
X149209335Y-118517158D01*
X149203586Y-118511499D01*
X149198136Y-118505422D01*
X149192969Y-118498915D01*
X149188069Y-118491965D01*
X149183419Y-118484562D01*
X149179003Y-118476694D01*
X149170809Y-118459516D01*
X149163355Y-118440339D01*
X149156511Y-118419069D01*
X149150146Y-118395614D01*
X149150146Y-118395617D01*
X149144970Y-118372839D01*
X149140879Y-118350165D01*
X149137852Y-118327634D01*
X149135866Y-118305288D01*
X149134898Y-118283168D01*
X149134927Y-118261313D01*
X149135930Y-118239765D01*
X149137884Y-118218564D01*
X149140767Y-118197751D01*
X149144557Y-118177366D01*
X149149232Y-118157450D01*
X149154769Y-118138045D01*
X149161145Y-118119189D01*
X149168339Y-118100925D01*
X149176327Y-118083292D01*
X149185089Y-118066332D01*
X149194600Y-118050085D01*
X149204840Y-118034591D01*
X149215785Y-118019892D01*
X149227413Y-118006028D01*
X149239702Y-117993039D01*
X149252629Y-117980966D01*
X149266173Y-117969850D01*
X149280310Y-117959732D01*
X149295018Y-117950652D01*
X149310276Y-117942651D01*
X149326060Y-117935769D01*
X149342348Y-117930047D01*
X149359118Y-117925527D01*
X149376348Y-117922247D01*
X149394014Y-117920249D01*
X149412096Y-117919575D01*
X149438832Y-117919880D01*
G37*
G36*
X150831401Y-121133954D02*
G01*
X150871805Y-121136666D01*
X150904514Y-121140109D01*
X150933667Y-121143914D01*
X150959463Y-121148284D01*
X150982102Y-121153423D01*
X150992300Y-121156345D01*
X151001784Y-121159535D01*
X151010578Y-121163018D01*
X151018707Y-121166821D01*
X151026197Y-121170969D01*
X151033072Y-121175486D01*
X151039358Y-121180399D01*
X151045078Y-121185733D01*
X151050259Y-121191514D01*
X151054925Y-121197766D01*
X151059101Y-121204515D01*
X151062811Y-121211787D01*
X151066082Y-121219607D01*
X151068937Y-121228000D01*
X151071402Y-121236992D01*
X151073502Y-121246609D01*
X151076705Y-121267816D01*
X151078746Y-121291825D01*
X151079824Y-121318840D01*
X151080139Y-121349063D01*
X151079758Y-121375805D01*
X151078569Y-121400283D01*
X151076508Y-121422597D01*
X151073507Y-121442847D01*
X151069502Y-121461133D01*
X151067102Y-121469571D01*
X151064426Y-121477556D01*
X151061465Y-121485099D01*
X151058213Y-121492214D01*
X151054659Y-121498913D01*
X151050796Y-121505209D01*
X151046617Y-121511114D01*
X151042111Y-121516640D01*
X151037273Y-121521800D01*
X151032092Y-121526608D01*
X151026561Y-121531074D01*
X151020671Y-121535212D01*
X151014415Y-121539034D01*
X151007784Y-121542553D01*
X151000769Y-121545781D01*
X150993364Y-121548730D01*
X150977345Y-121553845D01*
X150959661Y-121557996D01*
X150940247Y-121561285D01*
X150923829Y-121563033D01*
X150907712Y-121563569D01*
X150891930Y-121562911D01*
X150876514Y-121561075D01*
X150861497Y-121558078D01*
X150846912Y-121553938D01*
X150832790Y-121548670D01*
X150819164Y-121542292D01*
X150806067Y-121534820D01*
X150793531Y-121526272D01*
X150781589Y-121516664D01*
X150770272Y-121506013D01*
X150759614Y-121494336D01*
X150749646Y-121481650D01*
X150740402Y-121467972D01*
X150731913Y-121453318D01*
X150709624Y-121409600D01*
X150691389Y-121369262D01*
X150677226Y-121332263D01*
X150671677Y-121315004D01*
X150667153Y-121298564D01*
X150663655Y-121282938D01*
X150661187Y-121268122D01*
X150659750Y-121254111D01*
X150659346Y-121240899D01*
X150659979Y-121228480D01*
X150661649Y-121216851D01*
X150664360Y-121206006D01*
X150668114Y-121195940D01*
X150672913Y-121186648D01*
X150678758Y-121178125D01*
X150685653Y-121170365D01*
X150693600Y-121163364D01*
X150702601Y-121157116D01*
X150712657Y-121151617D01*
X150723772Y-121146861D01*
X150735948Y-121142843D01*
X150749187Y-121139558D01*
X150763490Y-121137002D01*
X150778861Y-121135168D01*
X150795302Y-121134052D01*
X150812814Y-121133649D01*
X150831401Y-121133954D01*
G37*
G36*
X145658454Y-120933034D02*
G01*
X145673395Y-120934920D01*
X145687829Y-120938026D01*
X145701742Y-120942317D01*
X145715123Y-120947762D01*
X145727959Y-120954329D01*
X145740238Y-120961985D01*
X145751947Y-120970699D01*
X145763073Y-120980437D01*
X145773604Y-120991169D01*
X145783528Y-121002860D01*
X145792831Y-121015480D01*
X145801502Y-121028996D01*
X145809529Y-121043376D01*
X145816897Y-121058588D01*
X145823596Y-121074598D01*
X145829612Y-121091376D01*
X145834933Y-121108889D01*
X145839547Y-121127104D01*
X145843441Y-121145989D01*
X145846602Y-121165513D01*
X145849018Y-121185642D01*
X145850677Y-121206345D01*
X145851565Y-121227590D01*
X145851672Y-121249343D01*
X145850983Y-121271574D01*
X145849486Y-121294249D01*
X145847170Y-121317337D01*
X145844021Y-121340805D01*
X145840027Y-121364620D01*
X145835176Y-121388752D01*
X145829454Y-121413167D01*
X145824795Y-121429245D01*
X145819114Y-121444555D01*
X145812460Y-121459088D01*
X145804882Y-121472831D01*
X145796432Y-121485777D01*
X145787157Y-121497913D01*
X145777109Y-121509231D01*
X145766336Y-121519720D01*
X145754889Y-121529371D01*
X145742818Y-121538172D01*
X145730171Y-121546114D01*
X145717000Y-121553186D01*
X145703352Y-121559379D01*
X145689280Y-121564683D01*
X145674831Y-121569087D01*
X145660056Y-121572581D01*
X145645004Y-121575155D01*
X145629726Y-121576800D01*
X145614271Y-121577504D01*
X145598688Y-121577258D01*
X145583028Y-121576051D01*
X145567341Y-121573874D01*
X145551675Y-121570716D01*
X145536081Y-121566568D01*
X145520608Y-121561419D01*
X145505307Y-121555259D01*
X145490227Y-121548077D01*
X145475417Y-121539865D01*
X145460928Y-121530611D01*
X145446809Y-121520305D01*
X145433110Y-121508938D01*
X145419880Y-121496500D01*
X145419880Y-121496497D01*
X145412044Y-121487797D01*
X145404428Y-121477643D01*
X145397071Y-121466163D01*
X145390013Y-121453479D01*
X145383292Y-121439717D01*
X145376949Y-121425002D01*
X145371023Y-121409459D01*
X145365553Y-121393212D01*
X145360580Y-121376387D01*
X145356141Y-121359109D01*
X145352277Y-121341501D01*
X145349027Y-121323690D01*
X145346431Y-121305800D01*
X145344527Y-121287957D01*
X145343356Y-121270284D01*
X145342957Y-121252907D01*
X145343272Y-121233906D01*
X145344213Y-121215440D01*
X145345777Y-121197514D01*
X145347959Y-121180131D01*
X145350755Y-121163296D01*
X145354161Y-121147015D01*
X145358173Y-121131290D01*
X145362786Y-121116127D01*
X145367996Y-121101531D01*
X145373800Y-121087505D01*
X145380192Y-121074054D01*
X145387169Y-121061183D01*
X145394726Y-121048897D01*
X145402859Y-121037198D01*
X145411565Y-121026093D01*
X145420839Y-121015586D01*
X145430676Y-121005680D01*
X145441072Y-120996382D01*
X145452024Y-120987694D01*
X145463527Y-120979621D01*
X145475577Y-120972169D01*
X145488170Y-120965341D01*
X145501301Y-120959143D01*
X145514966Y-120953577D01*
X145529161Y-120948650D01*
X145543883Y-120944365D01*
X145559126Y-120940727D01*
X145574886Y-120937740D01*
X145591160Y-120935410D01*
X145607942Y-120933739D01*
X145625230Y-120932734D01*
X145643019Y-120932398D01*
X145658454Y-120933034D01*
G37*
G36*
X136320522Y-120525323D02*
G01*
X136376719Y-120537431D01*
X136403438Y-120544538D01*
X136429239Y-120552347D01*
X136454121Y-120560860D01*
X136478087Y-120570077D01*
X136501136Y-120580001D01*
X136523271Y-120590632D01*
X136544492Y-120601971D01*
X136564799Y-120614019D01*
X136584194Y-120626777D01*
X136602677Y-120640246D01*
X136620250Y-120654427D01*
X136636914Y-120669322D01*
X136652668Y-120684931D01*
X136667515Y-120701256D01*
X136681455Y-120718296D01*
X136694490Y-120736055D01*
X136706619Y-120754532D01*
X136717844Y-120773729D01*
X136728165Y-120793646D01*
X136737585Y-120814285D01*
X136746103Y-120835647D01*
X136753720Y-120857732D01*
X136760438Y-120880542D01*
X136766257Y-120904079D01*
X136771179Y-120928342D01*
X136775204Y-120953333D01*
X136778332Y-120979054D01*
X136780566Y-121005504D01*
X136782352Y-121060600D01*
X136780566Y-121115697D01*
X136778332Y-121142148D01*
X136775204Y-121167868D01*
X136771179Y-121192860D01*
X136766257Y-121217123D01*
X136760438Y-121240660D01*
X136753720Y-121263471D01*
X136746103Y-121285556D01*
X136737585Y-121306918D01*
X136728165Y-121327557D01*
X136717844Y-121347474D01*
X136706619Y-121366671D01*
X136694490Y-121385148D01*
X136681455Y-121402906D01*
X136667515Y-121419947D01*
X136652668Y-121436272D01*
X136636914Y-121451881D01*
X136620250Y-121466776D01*
X136602677Y-121480957D01*
X136584194Y-121494426D01*
X136564799Y-121507184D01*
X136544492Y-121519232D01*
X136523271Y-121530571D01*
X136501136Y-121541202D01*
X136478087Y-121551126D01*
X136454121Y-121560344D01*
X136429239Y-121568857D01*
X136376719Y-121583774D01*
X136320522Y-121595883D01*
X136112189Y-121634318D01*
X136112189Y-121060600D01*
X136112189Y-120486885D01*
X136320522Y-120525323D01*
G37*
G36*
X155507265Y-124408673D02*
G01*
X155507266Y-124408675D01*
X155507263Y-124408672D01*
X155507265Y-124408673D01*
G37*
G36*
X156598297Y-123706277D02*
G01*
X156630650Y-123708841D01*
X156658998Y-123711511D01*
X156683480Y-123714491D01*
X156704236Y-123717984D01*
X156713261Y-123719986D01*
X156721407Y-123722193D01*
X156728691Y-123724630D01*
X156735132Y-123727322D01*
X156740746Y-123730294D01*
X156745551Y-123733573D01*
X156749564Y-123737183D01*
X156752803Y-123741150D01*
X156755286Y-123745500D01*
X156757029Y-123750257D01*
X156758051Y-123755447D01*
X156758368Y-123761096D01*
X156757999Y-123767229D01*
X156756961Y-123773872D01*
X156755271Y-123781049D01*
X156752947Y-123788786D01*
X156746465Y-123806043D01*
X156737657Y-123825845D01*
X156726660Y-123848397D01*
X156713617Y-123873901D01*
X156692688Y-123910541D01*
X156666987Y-123949344D01*
X156637161Y-123989708D01*
X156603856Y-124031032D01*
X156567717Y-124072713D01*
X156529392Y-124114148D01*
X156489525Y-124154735D01*
X156448764Y-124193872D01*
X156407755Y-124230956D01*
X156367142Y-124265386D01*
X156327574Y-124296559D01*
X156289696Y-124323872D01*
X156254154Y-124346724D01*
X156221594Y-124364511D01*
X156206634Y-124371318D01*
X156192662Y-124376633D01*
X156179759Y-124380380D01*
X156168005Y-124382485D01*
X156039327Y-124396063D01*
X155919401Y-124406872D01*
X155810435Y-124414824D01*
X155714637Y-124419832D01*
X155634213Y-124421809D01*
X155571371Y-124420666D01*
X155547233Y-124418897D01*
X155528319Y-124416316D01*
X155514904Y-124412911D01*
X155507265Y-124408673D01*
X155504260Y-124404246D01*
X155502565Y-124398367D01*
X155502132Y-124391116D01*
X155502912Y-124382568D01*
X155504854Y-124372801D01*
X155507910Y-124361891D01*
X155517165Y-124336951D01*
X155530280Y-124308364D01*
X155546860Y-124276744D01*
X155566508Y-124242705D01*
X155588829Y-124206862D01*
X155613428Y-124169830D01*
X155639908Y-124132224D01*
X155667874Y-124094658D01*
X155696931Y-124057747D01*
X155726681Y-124022106D01*
X155756730Y-123988349D01*
X155786681Y-123957091D01*
X155816139Y-123928947D01*
X155847010Y-123903580D01*
X155882490Y-123879110D01*
X155922107Y-123855674D01*
X155965388Y-123833405D01*
X156011858Y-123812438D01*
X156061047Y-123792909D01*
X156112479Y-123774951D01*
X156165683Y-123758699D01*
X156220184Y-123744288D01*
X156275511Y-123731853D01*
X156331189Y-123721529D01*
X156386746Y-123713449D01*
X156441708Y-123707750D01*
X156495603Y-123704565D01*
X156547957Y-123704029D01*
X156598297Y-123706277D01*
G37*
G36*
X156514370Y-124534465D02*
G01*
X156536661Y-124537996D01*
X156559019Y-124543869D01*
X156581333Y-124552145D01*
X156603492Y-124562883D01*
X156625385Y-124576141D01*
X156646903Y-124591980D01*
X156667934Y-124610457D01*
X156688368Y-124631632D01*
X156708095Y-124655565D01*
X156727003Y-124682315D01*
X156744075Y-124708740D01*
X156758933Y-124732677D01*
X156771590Y-124754372D01*
X156782062Y-124774071D01*
X156790364Y-124792023D01*
X156793706Y-124800420D01*
X156796510Y-124808473D01*
X156798779Y-124816213D01*
X156800515Y-124823670D01*
X156801719Y-124830876D01*
X156802393Y-124837861D01*
X156802540Y-124844655D01*
X156802160Y-124851291D01*
X156801256Y-124857799D01*
X156799830Y-124864210D01*
X156797883Y-124870554D01*
X156795418Y-124876863D01*
X156792436Y-124883167D01*
X156788938Y-124889498D01*
X156784928Y-124895885D01*
X156780406Y-124902361D01*
X156769835Y-124915701D01*
X156757241Y-124929764D01*
X156742639Y-124944796D01*
X156732134Y-124954578D01*
X156720188Y-124964400D01*
X156706939Y-124974198D01*
X156692522Y-124983908D01*
X156677072Y-124993465D01*
X156660725Y-125002805D01*
X156643617Y-125011865D01*
X156625884Y-125020578D01*
X156607662Y-125028883D01*
X156589086Y-125036713D01*
X156570292Y-125044005D01*
X156551416Y-125050695D01*
X156532593Y-125056718D01*
X156513960Y-125062010D01*
X156495652Y-125066506D01*
X156477805Y-125070143D01*
X156452284Y-125074409D01*
X156429135Y-125077429D01*
X156408200Y-125079097D01*
X156398512Y-125079392D01*
X156389317Y-125079310D01*
X156380596Y-125078837D01*
X156372327Y-125077960D01*
X156364491Y-125076666D01*
X156357069Y-125074943D01*
X156350039Y-125072776D01*
X156343382Y-125070153D01*
X156337078Y-125067060D01*
X156331107Y-125063485D01*
X156325448Y-125059414D01*
X156320082Y-125054833D01*
X156314989Y-125049731D01*
X156310148Y-125044092D01*
X156305540Y-125037906D01*
X156301144Y-125031157D01*
X156296941Y-125023834D01*
X156292910Y-125015922D01*
X156289032Y-125007410D01*
X156285286Y-124998282D01*
X156278110Y-124978131D01*
X156271223Y-124955365D01*
X156264465Y-124929876D01*
X156264473Y-124929876D01*
X156257338Y-124896825D01*
X156252701Y-124864815D01*
X156250452Y-124833906D01*
X156250481Y-124804157D01*
X156252675Y-124775627D01*
X156256927Y-124748375D01*
X156263123Y-124722461D01*
X156271155Y-124697943D01*
X156280911Y-124674881D01*
X156292281Y-124653334D01*
X156305154Y-124633361D01*
X156319421Y-124615021D01*
X156334969Y-124598373D01*
X156351689Y-124583477D01*
X156369471Y-124570392D01*
X156388203Y-124559177D01*
X156407775Y-124549890D01*
X156428077Y-124542592D01*
X156448998Y-124537341D01*
X156470428Y-124534197D01*
X156492255Y-124533219D01*
X156514370Y-124534465D01*
G37*
G36*
X157414321Y-124304868D02*
G01*
X157446682Y-124371219D01*
X157475352Y-124437189D01*
X157500326Y-124502737D01*
X157521603Y-124567823D01*
X157539179Y-124632406D01*
X157553051Y-124696446D01*
X157563216Y-124759902D01*
X157569671Y-124822733D01*
X157572414Y-124884898D01*
X157571441Y-124946357D01*
X157566749Y-125007070D01*
X157558335Y-125066995D01*
X157546197Y-125126093D01*
X157530330Y-125184321D01*
X157510734Y-125241640D01*
X157487403Y-125298010D01*
X157474211Y-125326478D01*
X157461124Y-125353134D01*
X157448138Y-125377975D01*
X157435249Y-125401004D01*
X157422452Y-125422219D01*
X157409743Y-125441621D01*
X157397119Y-125459211D01*
X157384573Y-125474987D01*
X157372103Y-125488951D01*
X157359704Y-125501102D01*
X157347372Y-125511441D01*
X157335101Y-125519968D01*
X157322889Y-125526683D01*
X157310730Y-125531585D01*
X157298620Y-125534676D01*
X157286555Y-125535955D01*
X157274531Y-125535423D01*
X157262543Y-125533079D01*
X157250587Y-125528923D01*
X157238659Y-125522957D01*
X157226754Y-125515179D01*
X157214868Y-125505591D01*
X157202996Y-125494191D01*
X157191135Y-125480981D01*
X157179280Y-125465960D01*
X157167427Y-125449129D01*
X157155571Y-125430488D01*
X157143708Y-125410037D01*
X157131834Y-125387775D01*
X157119944Y-125363704D01*
X157108035Y-125337823D01*
X157096101Y-125310132D01*
X157096101Y-125310133D01*
X157096101Y-125310134D01*
X157096100Y-125310135D01*
X157096100Y-125310136D01*
X157096099Y-125310137D01*
X157096099Y-125310138D01*
X157096099Y-125310139D01*
X157096099Y-125310140D01*
X157096098Y-125310140D01*
X157096098Y-125310141D01*
X157096098Y-125310142D01*
X157096098Y-125310143D01*
X157072102Y-125249068D01*
X157051641Y-125189035D01*
X157034727Y-125129858D01*
X157021366Y-125071354D01*
X157011569Y-125013337D01*
X157005343Y-124955622D01*
X157002698Y-124898024D01*
X157003642Y-124840358D01*
X157008184Y-124782438D01*
X157016334Y-124724081D01*
X157028098Y-124665100D01*
X157043488Y-124605312D01*
X157062510Y-124544530D01*
X157085175Y-124482570D01*
X157111490Y-124419247D01*
X157141465Y-124354376D01*
X157286127Y-124055542D01*
X157414321Y-124304868D01*
G37*
G36*
X155613594Y-125039303D02*
G01*
X155661414Y-125042695D01*
X155713596Y-125048296D01*
X155768648Y-125055843D01*
X155825080Y-125065072D01*
X155881399Y-125075720D01*
X155936114Y-125087525D01*
X155987733Y-125100224D01*
X156034764Y-125113554D01*
X156075715Y-125127251D01*
X156109095Y-125141053D01*
X156133412Y-125154697D01*
X156141706Y-125161377D01*
X156147174Y-125167919D01*
X156149199Y-125171020D01*
X156151352Y-125173987D01*
X156153628Y-125176817D01*
X156156020Y-125179509D01*
X156158523Y-125182062D01*
X156161129Y-125184473D01*
X156163832Y-125186742D01*
X156166627Y-125188867D01*
X156169507Y-125190845D01*
X156172466Y-125192677D01*
X156175497Y-125194359D01*
X156178595Y-125195891D01*
X156181753Y-125197271D01*
X156184964Y-125198496D01*
X156188223Y-125199567D01*
X156191523Y-125200481D01*
X156194857Y-125201236D01*
X156198221Y-125201832D01*
X156201607Y-125202265D01*
X156205009Y-125202536D01*
X156208422Y-125202642D01*
X156211837Y-125202581D01*
X156215251Y-125202353D01*
X156218655Y-125201955D01*
X156222044Y-125201387D01*
X156225412Y-125200645D01*
X156228753Y-125199730D01*
X156232059Y-125198638D01*
X156235325Y-125197369D01*
X156238545Y-125195922D01*
X156241713Y-125194294D01*
X156244821Y-125192484D01*
X156247880Y-125190676D01*
X156250900Y-125189056D01*
X156253877Y-125187620D01*
X156256808Y-125186368D01*
X156259689Y-125185297D01*
X156262516Y-125184407D01*
X156265284Y-125183695D01*
X156267991Y-125183160D01*
X156270633Y-125182799D01*
X156273205Y-125182612D01*
X156275703Y-125182597D01*
X156278125Y-125182751D01*
X156280466Y-125183074D01*
X156282722Y-125183563D01*
X156284890Y-125184217D01*
X156286965Y-125185034D01*
X156288944Y-125186012D01*
X156290824Y-125187150D01*
X156292599Y-125188446D01*
X156294267Y-125189899D01*
X156295823Y-125191506D01*
X156297264Y-125193267D01*
X156298586Y-125195178D01*
X156299785Y-125197239D01*
X156300857Y-125199448D01*
X156301799Y-125201804D01*
X156302606Y-125204303D01*
X156303275Y-125206946D01*
X156303802Y-125209730D01*
X156304184Y-125212653D01*
X156304415Y-125215714D01*
X156304493Y-125218911D01*
X156304913Y-125225799D01*
X156306146Y-125233357D01*
X156308149Y-125241508D01*
X156310881Y-125250176D01*
X156314302Y-125259285D01*
X156318369Y-125268761D01*
X156323040Y-125278526D01*
X156328275Y-125288504D01*
X156334032Y-125298621D01*
X156340269Y-125308799D01*
X156346944Y-125318964D01*
X156354017Y-125329039D01*
X156361446Y-125338948D01*
X156369189Y-125348616D01*
X156377205Y-125357966D01*
X156385452Y-125366923D01*
X156414008Y-125398167D01*
X156442489Y-125431910D01*
X156470585Y-125467596D01*
X156497984Y-125504671D01*
X156524374Y-125542579D01*
X156549444Y-125580762D01*
X156572884Y-125618667D01*
X156594382Y-125655738D01*
X156613626Y-125691417D01*
X156630306Y-125725151D01*
X156644111Y-125756383D01*
X156654728Y-125784557D01*
X156661848Y-125809117D01*
X156665158Y-125829509D01*
X156665287Y-125837968D01*
X156664348Y-125845176D01*
X156662300Y-125851064D01*
X156659106Y-125855563D01*
X156651930Y-125861895D01*
X156643579Y-125867761D01*
X156634114Y-125873162D01*
X156623600Y-125878101D01*
X156612099Y-125882579D01*
X156599675Y-125886600D01*
X156572306Y-125893277D01*
X156542000Y-125898149D01*
X156509261Y-125901235D01*
X156474593Y-125902553D01*
X156438501Y-125902119D01*
X156401489Y-125899953D01*
X156364063Y-125896073D01*
X156326727Y-125890495D01*
X156289986Y-125883239D01*
X156254344Y-125874322D01*
X156220305Y-125863762D01*
X156188376Y-125851577D01*
X156159059Y-125837785D01*
X156159062Y-125837782D01*
X156096778Y-125804684D01*
X156039838Y-125773376D01*
X155987859Y-125743519D01*
X155940459Y-125714774D01*
X155897254Y-125686802D01*
X155857863Y-125659265D01*
X155821904Y-125631823D01*
X155788993Y-125604138D01*
X155758748Y-125575871D01*
X155730787Y-125546682D01*
X155704727Y-125516234D01*
X155680187Y-125484188D01*
X155656783Y-125450203D01*
X155634132Y-125413943D01*
X155611853Y-125375067D01*
X155589564Y-125333237D01*
X155564667Y-125283017D01*
X155542766Y-125234841D01*
X155524243Y-125189860D01*
X155509484Y-125149221D01*
X155503636Y-125130890D01*
X155498873Y-125114075D01*
X155495243Y-125098920D01*
X155492795Y-125085570D01*
X155491576Y-125074167D01*
X155491635Y-125064855D01*
X155493019Y-125057779D01*
X155494223Y-125055123D01*
X155495776Y-125053080D01*
X155502118Y-125048620D01*
X155511228Y-125045008D01*
X155537010Y-125040197D01*
X155571629Y-125038383D01*
X155613594Y-125039303D01*
G37*
D11*
X162761905Y-129414819D02*
X162761905Y-128414819D01*
X162761905Y-128414819D02*
X163000000Y-128414819D01*
X163000000Y-128414819D02*
X163142857Y-128462438D01*
X163142857Y-128462438D02*
X163238095Y-128557676D01*
X163238095Y-128557676D02*
X163285714Y-128652914D01*
X163285714Y-128652914D02*
X163333333Y-128843390D01*
X163333333Y-128843390D02*
X163333333Y-128986247D01*
X163333333Y-128986247D02*
X163285714Y-129176723D01*
X163285714Y-129176723D02*
X163238095Y-129271961D01*
X163238095Y-129271961D02*
X163142857Y-129367200D01*
X163142857Y-129367200D02*
X163000000Y-129414819D01*
X163000000Y-129414819D02*
X162761905Y-129414819D01*
X164190476Y-128748152D02*
X164190476Y-129414819D01*
X163952381Y-128367200D02*
X163714286Y-129081485D01*
X163714286Y-129081485D02*
X164333333Y-129081485D01*
X131256905Y-123494819D02*
X131256905Y-122494819D01*
X131256905Y-122494819D02*
X131495000Y-122494819D01*
X131495000Y-122494819D02*
X131637857Y-122542438D01*
X131637857Y-122542438D02*
X131733095Y-122637676D01*
X131733095Y-122637676D02*
X131780714Y-122732914D01*
X131780714Y-122732914D02*
X131828333Y-122923390D01*
X131828333Y-122923390D02*
X131828333Y-123066247D01*
X131828333Y-123066247D02*
X131780714Y-123256723D01*
X131780714Y-123256723D02*
X131733095Y-123351961D01*
X131733095Y-123351961D02*
X131637857Y-123447200D01*
X131637857Y-123447200D02*
X131495000Y-123494819D01*
X131495000Y-123494819D02*
X131256905Y-123494819D01*
X132780714Y-123494819D02*
X132209286Y-123494819D01*
X132495000Y-123494819D02*
X132495000Y-122494819D01*
X132495000Y-122494819D02*
X132399762Y-122637676D01*
X132399762Y-122637676D02*
X132304524Y-122732914D01*
X132304524Y-122732914D02*
X132209286Y-122780533D01*
X131256905Y-108494819D02*
X131256905Y-107494819D01*
X131256905Y-107494819D02*
X131495000Y-107494819D01*
X131495000Y-107494819D02*
X131637857Y-107542438D01*
X131637857Y-107542438D02*
X131733095Y-107637676D01*
X131733095Y-107637676D02*
X131780714Y-107732914D01*
X131780714Y-107732914D02*
X131828333Y-107923390D01*
X131828333Y-107923390D02*
X131828333Y-108066247D01*
X131828333Y-108066247D02*
X131780714Y-108256723D01*
X131780714Y-108256723D02*
X131733095Y-108351961D01*
X131733095Y-108351961D02*
X131637857Y-108447200D01*
X131637857Y-108447200D02*
X131495000Y-108494819D01*
X131495000Y-108494819D02*
X131256905Y-108494819D01*
X132209286Y-107590057D02*
X132256905Y-107542438D01*
X132256905Y-107542438D02*
X132352143Y-107494819D01*
X132352143Y-107494819D02*
X132590238Y-107494819D01*
X132590238Y-107494819D02*
X132685476Y-107542438D01*
X132685476Y-107542438D02*
X132733095Y-107590057D01*
X132733095Y-107590057D02*
X132780714Y-107685295D01*
X132780714Y-107685295D02*
X132780714Y-107780533D01*
X132780714Y-107780533D02*
X132733095Y-107923390D01*
X132733095Y-107923390D02*
X132161667Y-108494819D01*
X132161667Y-108494819D02*
X132780714Y-108494819D01*
X162766905Y-114414819D02*
X162766905Y-113414819D01*
X162766905Y-113414819D02*
X163005000Y-113414819D01*
X163005000Y-113414819D02*
X163147857Y-113462438D01*
X163147857Y-113462438D02*
X163243095Y-113557676D01*
X163243095Y-113557676D02*
X163290714Y-113652914D01*
X163290714Y-113652914D02*
X163338333Y-113843390D01*
X163338333Y-113843390D02*
X163338333Y-113986247D01*
X163338333Y-113986247D02*
X163290714Y-114176723D01*
X163290714Y-114176723D02*
X163243095Y-114271961D01*
X163243095Y-114271961D02*
X163147857Y-114367200D01*
X163147857Y-114367200D02*
X163005000Y-114414819D01*
X163005000Y-114414819D02*
X162766905Y-114414819D01*
X163671667Y-113414819D02*
X164290714Y-113414819D01*
X164290714Y-113414819D02*
X163957381Y-113795771D01*
X163957381Y-113795771D02*
X164100238Y-113795771D01*
X164100238Y-113795771D02*
X164195476Y-113843390D01*
X164195476Y-113843390D02*
X164243095Y-113891009D01*
X164243095Y-113891009D02*
X164290714Y-113986247D01*
X164290714Y-113986247D02*
X164290714Y-114224342D01*
X164290714Y-114224342D02*
X164243095Y-114319580D01*
X164243095Y-114319580D02*
X164195476Y-114367200D01*
X164195476Y-114367200D02*
X164100238Y-114414819D01*
X164100238Y-114414819D02*
X163814524Y-114414819D01*
X163814524Y-114414819D02*
X163719286Y-114367200D01*
X163719286Y-114367200D02*
X163671667Y-114319580D01*
D12*
%TO.C,D4*%
X165060000Y-127235516D02*
G75*
G02*
X161828563Y-127080000I-1560000J1235516D01*
G01*
X164540961Y-127080000D02*
G75*
G02*
X162459039Y-127080000I-1040961J1080000D01*
G01*
X162459039Y-124920000D02*
G75*
G02*
X164540961Y-124920000I1040961J-1080000D01*
G01*
X161828563Y-124920000D02*
G75*
G02*
X165060000Y-124764484I1671437J-1080000D01*
G01*
X165060000Y-127236000D02*
X165060000Y-127080000D01*
X165060000Y-124920000D02*
X165060000Y-124764000D01*
%TO.C,D1*%
X133667335Y-127078608D02*
G75*
G02*
X130435000Y-127235516I-1672335J1078608D01*
G01*
X133036130Y-127079837D02*
G75*
G02*
X130954039Y-127080000I-1041130J1079837D01*
G01*
X130954039Y-124920000D02*
G75*
G02*
X133036130Y-124920163I1040961J-1080000D01*
G01*
X130435000Y-124764484D02*
G75*
G02*
X133667335Y-124921392I1560000J-1235516D01*
G01*
X130435000Y-127080000D02*
X130435000Y-127236000D01*
X130435000Y-124764000D02*
X130435000Y-124920000D01*
%TO.C,D2*%
X130435000Y-109764000D02*
X130435000Y-109920000D01*
X130435000Y-112080000D02*
X130435000Y-112236000D01*
X130435000Y-109764484D02*
G75*
G02*
X133667335Y-109921392I1560000J-1235516D01*
G01*
X130954039Y-109920000D02*
G75*
G02*
X133036130Y-109920163I1040961J-1080000D01*
G01*
X133036130Y-112079837D02*
G75*
G02*
X130954039Y-112080000I-1041130J1079837D01*
G01*
X133667335Y-112078608D02*
G75*
G02*
X130435000Y-112235516I-1672335J1078608D01*
G01*
%TO.C,D3*%
X165065000Y-109920000D02*
X165065000Y-109764000D01*
X165065000Y-112236000D02*
X165065000Y-112080000D01*
X161832665Y-109921392D02*
G75*
G02*
X165065000Y-109764484I1672335J-1078608D01*
G01*
X162463870Y-109920163D02*
G75*
G02*
X164545961Y-109920000I1041130J-1079837D01*
G01*
X164545961Y-112080000D02*
G75*
G02*
X162463870Y-112079837I-1040961J1080000D01*
G01*
X165065000Y-112235516D02*
G75*
G02*
X161832665Y-112078608I-1560000J1235516D01*
G01*
%TD*%
M02*
