%TF.GenerationSoftware,KiCad,Pcbnew,9.0.5*%
%TF.CreationDate,2025-10-19T15:52:58-07:00*%
%TF.ProjectId,DC34_Cnet_Badge_SAO,44433334-5f43-46e6-9574-5f4261646765,rev?*%
%TF.SameCoordinates,Original*%
%TF.FileFunction,Soldermask,Bot*%
%TF.FilePolarity,Negative*%
%FSLAX46Y46*%
G04 Gerber Fmt 4.6, Leading zero omitted, Abs format (unit mm)*
G04 Created by KiCad (PCBNEW 9.0.5) date 2025-10-19 15:52:58*
%MOMM*%
%LPD*%
G01*
G04 APERTURE LIST*
%ADD10C,0.300000*%
%ADD11C,1.800000*%
%ADD12R,1.800000X1.800000*%
%ADD13R,1.700000X1.700000*%
%ADD14O,1.700000X1.700000*%
G04 APERTURE END LIST*
D10*
X153516917Y-94586542D02*
X153588346Y-94515114D01*
X153588346Y-94515114D02*
X153731203Y-94443685D01*
X153731203Y-94443685D02*
X153874060Y-94443685D01*
X153874060Y-94443685D02*
X154016917Y-94515114D01*
X154016917Y-94515114D02*
X154088346Y-94586542D01*
X154088346Y-94586542D02*
X154159774Y-94729400D01*
X154159774Y-94729400D02*
X154159774Y-94872257D01*
X154159774Y-94872257D02*
X154088346Y-95015114D01*
X154088346Y-95015114D02*
X154016917Y-95086542D01*
X154016917Y-95086542D02*
X153874060Y-95157971D01*
X153874060Y-95157971D02*
X153731203Y-95157971D01*
X153731203Y-95157971D02*
X153588346Y-95086542D01*
X153588346Y-95086542D02*
X153516917Y-95015114D01*
X153516917Y-94443685D02*
X153516917Y-95015114D01*
X153516917Y-95015114D02*
X153445489Y-95086542D01*
X153445489Y-95086542D02*
X153374060Y-95086542D01*
X153374060Y-95086542D02*
X153231203Y-95015114D01*
X153231203Y-95015114D02*
X153159774Y-94872257D01*
X153159774Y-94872257D02*
X153159774Y-94515114D01*
X153159774Y-94515114D02*
X153302632Y-94300828D01*
X153302632Y-94300828D02*
X153516917Y-94157971D01*
X153516917Y-94157971D02*
X153802632Y-94086542D01*
X153802632Y-94086542D02*
X154088346Y-94157971D01*
X154088346Y-94157971D02*
X154302632Y-94300828D01*
X154302632Y-94300828D02*
X154445489Y-94515114D01*
X154445489Y-94515114D02*
X154516917Y-94800828D01*
X154516917Y-94800828D02*
X154445489Y-95086542D01*
X154445489Y-95086542D02*
X154302632Y-95300828D01*
X154302632Y-95300828D02*
X154088346Y-95443685D01*
X154088346Y-95443685D02*
X153802632Y-95515114D01*
X153802632Y-95515114D02*
X153516917Y-95443685D01*
X153516917Y-95443685D02*
X153302632Y-95300828D01*
X152588346Y-95229400D02*
X152445489Y-95300828D01*
X152445489Y-95300828D02*
X152159775Y-95300828D01*
X152159775Y-95300828D02*
X152016918Y-95229400D01*
X152016918Y-95229400D02*
X151945489Y-95086542D01*
X151945489Y-95086542D02*
X151945489Y-95015114D01*
X151945489Y-95015114D02*
X152016918Y-94872257D01*
X152016918Y-94872257D02*
X152159775Y-94800828D01*
X152159775Y-94800828D02*
X152374061Y-94800828D01*
X152374061Y-94800828D02*
X152516918Y-94729400D01*
X152516918Y-94729400D02*
X152588346Y-94586542D01*
X152588346Y-94586542D02*
X152588346Y-94515114D01*
X152588346Y-94515114D02*
X152516918Y-94372257D01*
X152516918Y-94372257D02*
X152374061Y-94300828D01*
X152374061Y-94300828D02*
X152159775Y-94300828D01*
X152159775Y-94300828D02*
X152016918Y-94372257D01*
X151088346Y-95300828D02*
X151231203Y-95229400D01*
X151231203Y-95229400D02*
X151302632Y-95086542D01*
X151302632Y-95086542D02*
X151302632Y-93800828D01*
X149874061Y-95300828D02*
X149874061Y-94515114D01*
X149874061Y-94515114D02*
X149945489Y-94372257D01*
X149945489Y-94372257D02*
X150088346Y-94300828D01*
X150088346Y-94300828D02*
X150374061Y-94300828D01*
X150374061Y-94300828D02*
X150516918Y-94372257D01*
X149874061Y-95229400D02*
X150016918Y-95300828D01*
X150016918Y-95300828D02*
X150374061Y-95300828D01*
X150374061Y-95300828D02*
X150516918Y-95229400D01*
X150516918Y-95229400D02*
X150588346Y-95086542D01*
X150588346Y-95086542D02*
X150588346Y-94943685D01*
X150588346Y-94943685D02*
X150516918Y-94800828D01*
X150516918Y-94800828D02*
X150374061Y-94729400D01*
X150374061Y-94729400D02*
X150016918Y-94729400D01*
X150016918Y-94729400D02*
X149874061Y-94657971D01*
X149231203Y-95229400D02*
X149088346Y-95300828D01*
X149088346Y-95300828D02*
X148802632Y-95300828D01*
X148802632Y-95300828D02*
X148659775Y-95229400D01*
X148659775Y-95229400D02*
X148588346Y-95086542D01*
X148588346Y-95086542D02*
X148588346Y-95015114D01*
X148588346Y-95015114D02*
X148659775Y-94872257D01*
X148659775Y-94872257D02*
X148802632Y-94800828D01*
X148802632Y-94800828D02*
X149016918Y-94800828D01*
X149016918Y-94800828D02*
X149159775Y-94729400D01*
X149159775Y-94729400D02*
X149231203Y-94586542D01*
X149231203Y-94586542D02*
X149231203Y-94515114D01*
X149231203Y-94515114D02*
X149159775Y-94372257D01*
X149159775Y-94372257D02*
X149016918Y-94300828D01*
X149016918Y-94300828D02*
X148802632Y-94300828D01*
X148802632Y-94300828D02*
X148659775Y-94372257D01*
X147945489Y-95300828D02*
X147945489Y-93800828D01*
X147302632Y-95300828D02*
X147302632Y-94515114D01*
X147302632Y-94515114D02*
X147374060Y-94372257D01*
X147374060Y-94372257D02*
X147516917Y-94300828D01*
X147516917Y-94300828D02*
X147731203Y-94300828D01*
X147731203Y-94300828D02*
X147874060Y-94372257D01*
X147874060Y-94372257D02*
X147945489Y-94443685D01*
X145802631Y-95300828D02*
X146659774Y-95300828D01*
X146231203Y-95300828D02*
X146231203Y-93800828D01*
X146231203Y-93800828D02*
X146374060Y-94015114D01*
X146374060Y-94015114D02*
X146516917Y-94157971D01*
X146516917Y-94157971D02*
X146659774Y-94229400D01*
X145231203Y-93943685D02*
X145159775Y-93872257D01*
X145159775Y-93872257D02*
X145016918Y-93800828D01*
X145016918Y-93800828D02*
X144659775Y-93800828D01*
X144659775Y-93800828D02*
X144516918Y-93872257D01*
X144516918Y-93872257D02*
X144445489Y-93943685D01*
X144445489Y-93943685D02*
X144374060Y-94086542D01*
X144374060Y-94086542D02*
X144374060Y-94229400D01*
X144374060Y-94229400D02*
X144445489Y-94443685D01*
X144445489Y-94443685D02*
X145302632Y-95300828D01*
X145302632Y-95300828D02*
X144374060Y-95300828D01*
X143516918Y-94443685D02*
X143659775Y-94372257D01*
X143659775Y-94372257D02*
X143731204Y-94300828D01*
X143731204Y-94300828D02*
X143802632Y-94157971D01*
X143802632Y-94157971D02*
X143802632Y-94086542D01*
X143802632Y-94086542D02*
X143731204Y-93943685D01*
X143731204Y-93943685D02*
X143659775Y-93872257D01*
X143659775Y-93872257D02*
X143516918Y-93800828D01*
X143516918Y-93800828D02*
X143231204Y-93800828D01*
X143231204Y-93800828D02*
X143088347Y-93872257D01*
X143088347Y-93872257D02*
X143016918Y-93943685D01*
X143016918Y-93943685D02*
X142945489Y-94086542D01*
X142945489Y-94086542D02*
X142945489Y-94157971D01*
X142945489Y-94157971D02*
X143016918Y-94300828D01*
X143016918Y-94300828D02*
X143088347Y-94372257D01*
X143088347Y-94372257D02*
X143231204Y-94443685D01*
X143231204Y-94443685D02*
X143516918Y-94443685D01*
X143516918Y-94443685D02*
X143659775Y-94515114D01*
X143659775Y-94515114D02*
X143731204Y-94586542D01*
X143731204Y-94586542D02*
X143802632Y-94729400D01*
X143802632Y-94729400D02*
X143802632Y-95015114D01*
X143802632Y-95015114D02*
X143731204Y-95157971D01*
X143731204Y-95157971D02*
X143659775Y-95229400D01*
X143659775Y-95229400D02*
X143516918Y-95300828D01*
X143516918Y-95300828D02*
X143231204Y-95300828D01*
X143231204Y-95300828D02*
X143088347Y-95229400D01*
X143088347Y-95229400D02*
X143016918Y-95157971D01*
X143016918Y-95157971D02*
X142945489Y-95015114D01*
X142945489Y-95015114D02*
X142945489Y-94729400D01*
X142945489Y-94729400D02*
X143016918Y-94586542D01*
X143016918Y-94586542D02*
X143088347Y-94515114D01*
X143088347Y-94515114D02*
X143231204Y-94443685D01*
X142445490Y-94300828D02*
X142088347Y-95300828D01*
X142088347Y-95300828D02*
X141731204Y-94300828D01*
X140516919Y-93800828D02*
X140802633Y-93800828D01*
X140802633Y-93800828D02*
X140945490Y-93872257D01*
X140945490Y-93872257D02*
X141016919Y-93943685D01*
X141016919Y-93943685D02*
X141159776Y-94157971D01*
X141159776Y-94157971D02*
X141231204Y-94443685D01*
X141231204Y-94443685D02*
X141231204Y-95015114D01*
X141231204Y-95015114D02*
X141159776Y-95157971D01*
X141159776Y-95157971D02*
X141088347Y-95229400D01*
X141088347Y-95229400D02*
X140945490Y-95300828D01*
X140945490Y-95300828D02*
X140659776Y-95300828D01*
X140659776Y-95300828D02*
X140516919Y-95229400D01*
X140516919Y-95229400D02*
X140445490Y-95157971D01*
X140445490Y-95157971D02*
X140374061Y-95015114D01*
X140374061Y-95015114D02*
X140374061Y-94657971D01*
X140374061Y-94657971D02*
X140445490Y-94515114D01*
X140445490Y-94515114D02*
X140516919Y-94443685D01*
X140516919Y-94443685D02*
X140659776Y-94372257D01*
X140659776Y-94372257D02*
X140945490Y-94372257D01*
X140945490Y-94372257D02*
X141088347Y-94443685D01*
X141088347Y-94443685D02*
X141159776Y-94515114D01*
X141159776Y-94515114D02*
X141231204Y-94657971D01*
D11*
%TO.C,D4*%
X162230000Y-126000000D03*
D12*
X164770000Y-126000000D03*
%TD*%
D11*
%TO.C,D1*%
X133265000Y-126000000D03*
D12*
X130725000Y-126000000D03*
%TD*%
%TO.C,D2*%
X130725000Y-111000000D03*
D11*
X133265000Y-111000000D03*
%TD*%
D12*
%TO.C,D3*%
X164775000Y-111000000D03*
D11*
X162235000Y-111000000D03*
%TD*%
D13*
%TO.C,J1*%
X149500000Y-124500000D03*
D14*
X149500000Y-127040000D03*
X146960000Y-124500000D03*
X146960000Y-127040000D03*
X144420000Y-124500000D03*
X144420000Y-127040000D03*
%TD*%
M02*
