%TF.GenerationSoftware,KiCad,Pcbnew,9.0.4*%
%TF.CreationDate,2025-10-07T14:54:38-07:00*%
%TF.ProjectId,DC34_Cnet_Badge_SAO,44433334-5f43-46e6-9574-5f4261646765,rev?*%
%TF.SameCoordinates,Original*%
%TF.FileFunction,Profile,NP*%
%FSLAX46Y46*%
G04 Gerber Fmt 4.6, Leading zero omitted, Abs format (unit mm)*
G04 Created by KiCad (PCBNEW 9.0.4) date 2025-10-07 14:54:38*
%MOMM*%
%LPD*%
G01*
G04 APERTURE LIST*
%TA.AperFunction,Profile*%
%ADD10C,0.100000*%
%TD*%
%TA.AperFunction,Profile*%
%ADD11C,0.000000*%
%TD*%
G04 APERTURE END LIST*
D10*
X124000000Y-125000000D02*
X126000000Y-125000000D01*
X126000000Y-127000000D01*
X124000000Y-127000000D01*
X124000000Y-125000000D01*
X167000000Y-125000000D02*
X169000000Y-125000000D01*
X169000000Y-127000000D01*
X167000000Y-127000000D01*
X167000000Y-125000000D01*
D11*
X169961858Y-80996488D02*
X171400983Y-82437484D01*
X171389470Y-105159819D01*
X171357724Y-124691678D01*
X171310458Y-127530424D01*
X171273163Y-128031065D01*
X171224545Y-128228955D01*
X171187053Y-128308186D01*
X171145135Y-128386550D01*
X171099009Y-128463820D01*
X171048895Y-128539772D01*
X170995013Y-128614181D01*
X170937580Y-128686821D01*
X170876815Y-128757466D01*
X170812939Y-128825892D01*
X170746169Y-128891874D01*
X170676725Y-128955185D01*
X170604825Y-129015602D01*
X170530689Y-129072897D01*
X170454536Y-129126847D01*
X170376584Y-129177226D01*
X170297053Y-129223808D01*
X170216161Y-129266369D01*
X170184811Y-129280731D01*
X170147734Y-129294225D01*
X170100952Y-129306881D01*
X170040486Y-129318728D01*
X169962359Y-129329799D01*
X169862593Y-129340121D01*
X169737211Y-129349725D01*
X169582233Y-129358642D01*
X169393683Y-129366902D01*
X169167581Y-129374534D01*
X168586816Y-129388035D01*
X167808112Y-129399387D01*
X166799649Y-129408830D01*
X165529601Y-129416604D01*
X163966146Y-129422950D01*
X159831721Y-129432321D01*
X154141789Y-129438866D01*
X146641765Y-129444508D01*
X127739782Y-129435692D01*
X124142183Y-129403165D01*
X123028242Y-129345974D01*
X123028241Y-129345974D01*
X123028240Y-129345974D01*
X123028239Y-129345974D01*
X123028238Y-129345973D01*
X123028236Y-129345972D01*
X123028235Y-129345972D01*
X123028234Y-129345971D01*
X123028233Y-129345971D01*
X123028232Y-129345971D01*
X123028231Y-129345971D01*
X122932206Y-129313626D01*
X122839825Y-129277822D01*
X122750950Y-129238443D01*
X122665448Y-129195376D01*
X122583182Y-129148505D01*
X122504018Y-129097715D01*
X122427821Y-129042892D01*
X122354455Y-128983922D01*
X122283786Y-128920689D01*
X122215677Y-128853079D01*
X122149994Y-128780976D01*
X122086603Y-128704268D01*
X122025366Y-128622837D01*
X121966150Y-128536571D01*
X121908819Y-128445354D01*
X121853238Y-128349072D01*
X121599018Y-127890076D01*
X121599018Y-104514006D01*
X121599018Y-81137941D01*
X121783836Y-80796060D01*
X121826995Y-80720433D01*
X121874572Y-80644882D01*
X121926271Y-80569698D01*
X121981794Y-80495174D01*
X122040845Y-80421601D01*
X122103127Y-80349271D01*
X122168343Y-80278477D01*
X122236196Y-80209511D01*
X122306389Y-80142664D01*
X122378626Y-80078229D01*
X122452609Y-80016498D01*
X122528042Y-79957763D01*
X122604628Y-79902315D01*
X122682070Y-79850448D01*
X122760071Y-79802452D01*
X122838334Y-79758620D01*
X122867460Y-79744621D01*
X122903124Y-79731458D01*
X122949120Y-79719103D01*
X123009243Y-79707525D01*
X123087285Y-79696693D01*
X123187041Y-79686579D01*
X123312304Y-79677153D01*
X123466867Y-79668384D01*
X123879071Y-79652699D01*
X124454001Y-79639286D01*
X125222007Y-79627905D01*
X126213439Y-79618318D01*
X127458644Y-79610284D01*
X128987974Y-79603566D01*
X133020401Y-79593119D01*
X138553514Y-79585063D01*
X145830106Y-79577485D01*
X168522729Y-79555492D01*
X169961858Y-80996488D01*
M02*
