%TF.GenerationSoftware,KiCad,Pcbnew,9.0.5*%
%TF.CreationDate,2025-10-19T16:17:39-07:00*%
%TF.ProjectId,DC34_Cnet_Badge_Main,44433334-5f43-46e6-9574-5f4261646765,rev?*%
%TF.SameCoordinates,Original*%
%TF.FileFunction,Soldermask,Bot*%
%TF.FilePolarity,Negative*%
%FSLAX46Y46*%
G04 Gerber Fmt 4.6, Leading zero omitted, Abs format (unit mm)*
G04 Created by KiCad (PCBNEW 9.0.5) date 2025-10-19 16:17:39*
%MOMM*%
%LPD*%
G01*
G04 APERTURE LIST*
G04 Aperture macros list*
%AMRoundRect*
0 Rectangle with rounded corners*
0 $1 Rounding radius*
0 $2 $3 $4 $5 $6 $7 $8 $9 X,Y pos of 4 corners*
0 Add a 4 corners polygon primitive as box body*
4,1,4,$2,$3,$4,$5,$6,$7,$8,$9,$2,$3,0*
0 Add four circle primitives for the rounded corners*
1,1,$1+$1,$2,$3*
1,1,$1+$1,$4,$5*
1,1,$1+$1,$6,$7*
1,1,$1+$1,$8,$9*
0 Add four rect primitives between the rounded corners*
20,1,$1+$1,$2,$3,$4,$5,0*
20,1,$1+$1,$4,$5,$6,$7,0*
20,1,$1+$1,$6,$7,$8,$9,0*
20,1,$1+$1,$8,$9,$2,$3,0*%
G04 Aperture macros list end*
%ADD10C,0.150000*%
%ADD11C,0.010000*%
%ADD12O,1.400000X2.000000*%
%ADD13R,1.800000X1.800000*%
%ADD14C,1.800000*%
%ADD15R,1.700000X1.700000*%
%ADD16O,1.700000X1.700000*%
%ADD17C,1.700000*%
%ADD18RoundRect,0.250000X-0.350000X-0.625000X0.350000X-0.625000X0.350000X0.625000X-0.350000X0.625000X0*%
%ADD19O,1.200000X1.750000*%
G04 APERTURE END LIST*
D10*
X83095239Y-165575169D02*
X83190477Y-165479931D01*
X83190477Y-165479931D02*
X83380953Y-165384692D01*
X83380953Y-165384692D02*
X83571429Y-165384692D01*
X83571429Y-165384692D02*
X83761905Y-165479931D01*
X83761905Y-165479931D02*
X83857144Y-165575169D01*
X83857144Y-165575169D02*
X83952382Y-165765645D01*
X83952382Y-165765645D02*
X83952382Y-165956121D01*
X83952382Y-165956121D02*
X83857144Y-166146597D01*
X83857144Y-166146597D02*
X83761905Y-166241835D01*
X83761905Y-166241835D02*
X83571429Y-166337073D01*
X83571429Y-166337073D02*
X83380953Y-166337073D01*
X83380953Y-166337073D02*
X83190477Y-166241835D01*
X83190477Y-166241835D02*
X83095239Y-166146597D01*
X83095239Y-165384692D02*
X83095239Y-166146597D01*
X83095239Y-166146597D02*
X83000001Y-166241835D01*
X83000001Y-166241835D02*
X82904763Y-166241835D01*
X82904763Y-166241835D02*
X82714286Y-166146597D01*
X82714286Y-166146597D02*
X82619048Y-165956121D01*
X82619048Y-165956121D02*
X82619048Y-165479931D01*
X82619048Y-165479931D02*
X82809525Y-165194216D01*
X82809525Y-165194216D02*
X83095239Y-165003740D01*
X83095239Y-165003740D02*
X83476191Y-164908502D01*
X83476191Y-164908502D02*
X83857144Y-165003740D01*
X83857144Y-165003740D02*
X84142858Y-165194216D01*
X84142858Y-165194216D02*
X84333334Y-165479931D01*
X84333334Y-165479931D02*
X84428572Y-165860883D01*
X84428572Y-165860883D02*
X84333334Y-166241835D01*
X84333334Y-166241835D02*
X84142858Y-166527550D01*
X84142858Y-166527550D02*
X83857144Y-166718026D01*
X83857144Y-166718026D02*
X83476191Y-166813264D01*
X83476191Y-166813264D02*
X83095239Y-166718026D01*
X83095239Y-166718026D02*
X82809525Y-166527550D01*
X81857143Y-166432312D02*
X81666667Y-166527550D01*
X81666667Y-166527550D02*
X81285715Y-166527550D01*
X81285715Y-166527550D02*
X81095238Y-166432312D01*
X81095238Y-166432312D02*
X81000000Y-166241835D01*
X81000000Y-166241835D02*
X81000000Y-166146597D01*
X81000000Y-166146597D02*
X81095238Y-165956121D01*
X81095238Y-165956121D02*
X81285715Y-165860883D01*
X81285715Y-165860883D02*
X81571429Y-165860883D01*
X81571429Y-165860883D02*
X81761905Y-165765645D01*
X81761905Y-165765645D02*
X81857143Y-165575169D01*
X81857143Y-165575169D02*
X81857143Y-165479931D01*
X81857143Y-165479931D02*
X81761905Y-165289454D01*
X81761905Y-165289454D02*
X81571429Y-165194216D01*
X81571429Y-165194216D02*
X81285715Y-165194216D01*
X81285715Y-165194216D02*
X81095238Y-165289454D01*
X79857143Y-166527550D02*
X80047619Y-166432312D01*
X80047619Y-166432312D02*
X80142857Y-166241835D01*
X80142857Y-166241835D02*
X80142857Y-164527550D01*
X78238095Y-166527550D02*
X78238095Y-165479931D01*
X78238095Y-165479931D02*
X78333333Y-165289454D01*
X78333333Y-165289454D02*
X78523809Y-165194216D01*
X78523809Y-165194216D02*
X78904762Y-165194216D01*
X78904762Y-165194216D02*
X79095238Y-165289454D01*
X78238095Y-166432312D02*
X78428571Y-166527550D01*
X78428571Y-166527550D02*
X78904762Y-166527550D01*
X78904762Y-166527550D02*
X79095238Y-166432312D01*
X79095238Y-166432312D02*
X79190476Y-166241835D01*
X79190476Y-166241835D02*
X79190476Y-166051359D01*
X79190476Y-166051359D02*
X79095238Y-165860883D01*
X79095238Y-165860883D02*
X78904762Y-165765645D01*
X78904762Y-165765645D02*
X78428571Y-165765645D01*
X78428571Y-165765645D02*
X78238095Y-165670407D01*
X77380952Y-166432312D02*
X77190476Y-166527550D01*
X77190476Y-166527550D02*
X76809524Y-166527550D01*
X76809524Y-166527550D02*
X76619047Y-166432312D01*
X76619047Y-166432312D02*
X76523809Y-166241835D01*
X76523809Y-166241835D02*
X76523809Y-166146597D01*
X76523809Y-166146597D02*
X76619047Y-165956121D01*
X76619047Y-165956121D02*
X76809524Y-165860883D01*
X76809524Y-165860883D02*
X77095238Y-165860883D01*
X77095238Y-165860883D02*
X77285714Y-165765645D01*
X77285714Y-165765645D02*
X77380952Y-165575169D01*
X77380952Y-165575169D02*
X77380952Y-165479931D01*
X77380952Y-165479931D02*
X77285714Y-165289454D01*
X77285714Y-165289454D02*
X77095238Y-165194216D01*
X77095238Y-165194216D02*
X76809524Y-165194216D01*
X76809524Y-165194216D02*
X76619047Y-165289454D01*
X75666666Y-166527550D02*
X75666666Y-164527550D01*
X74809523Y-166527550D02*
X74809523Y-165479931D01*
X74809523Y-165479931D02*
X74904761Y-165289454D01*
X74904761Y-165289454D02*
X75095237Y-165194216D01*
X75095237Y-165194216D02*
X75380952Y-165194216D01*
X75380952Y-165194216D02*
X75571428Y-165289454D01*
X75571428Y-165289454D02*
X75666666Y-165384692D01*
X72809523Y-166527550D02*
X73952380Y-166527550D01*
X73380952Y-166527550D02*
X73380952Y-164527550D01*
X73380952Y-164527550D02*
X73571428Y-164813264D01*
X73571428Y-164813264D02*
X73761904Y-165003740D01*
X73761904Y-165003740D02*
X73952380Y-165098978D01*
X72047618Y-164718026D02*
X71952380Y-164622788D01*
X71952380Y-164622788D02*
X71761904Y-164527550D01*
X71761904Y-164527550D02*
X71285713Y-164527550D01*
X71285713Y-164527550D02*
X71095237Y-164622788D01*
X71095237Y-164622788D02*
X70999999Y-164718026D01*
X70999999Y-164718026D02*
X70904761Y-164908502D01*
X70904761Y-164908502D02*
X70904761Y-165098978D01*
X70904761Y-165098978D02*
X70999999Y-165384692D01*
X70999999Y-165384692D02*
X72142856Y-166527550D01*
X72142856Y-166527550D02*
X70904761Y-166527550D01*
X69761904Y-165384692D02*
X69952380Y-165289454D01*
X69952380Y-165289454D02*
X70047618Y-165194216D01*
X70047618Y-165194216D02*
X70142856Y-165003740D01*
X70142856Y-165003740D02*
X70142856Y-164908502D01*
X70142856Y-164908502D02*
X70047618Y-164718026D01*
X70047618Y-164718026D02*
X69952380Y-164622788D01*
X69952380Y-164622788D02*
X69761904Y-164527550D01*
X69761904Y-164527550D02*
X69380951Y-164527550D01*
X69380951Y-164527550D02*
X69190475Y-164622788D01*
X69190475Y-164622788D02*
X69095237Y-164718026D01*
X69095237Y-164718026D02*
X68999999Y-164908502D01*
X68999999Y-164908502D02*
X68999999Y-165003740D01*
X68999999Y-165003740D02*
X69095237Y-165194216D01*
X69095237Y-165194216D02*
X69190475Y-165289454D01*
X69190475Y-165289454D02*
X69380951Y-165384692D01*
X69380951Y-165384692D02*
X69761904Y-165384692D01*
X69761904Y-165384692D02*
X69952380Y-165479931D01*
X69952380Y-165479931D02*
X70047618Y-165575169D01*
X70047618Y-165575169D02*
X70142856Y-165765645D01*
X70142856Y-165765645D02*
X70142856Y-166146597D01*
X70142856Y-166146597D02*
X70047618Y-166337073D01*
X70047618Y-166337073D02*
X69952380Y-166432312D01*
X69952380Y-166432312D02*
X69761904Y-166527550D01*
X69761904Y-166527550D02*
X69380951Y-166527550D01*
X69380951Y-166527550D02*
X69190475Y-166432312D01*
X69190475Y-166432312D02*
X69095237Y-166337073D01*
X69095237Y-166337073D02*
X68999999Y-166146597D01*
X68999999Y-166146597D02*
X68999999Y-165765645D01*
X68999999Y-165765645D02*
X69095237Y-165575169D01*
X69095237Y-165575169D02*
X69190475Y-165479931D01*
X69190475Y-165479931D02*
X69380951Y-165384692D01*
X68333332Y-165194216D02*
X67857142Y-166527550D01*
X67857142Y-166527550D02*
X67380951Y-165194216D01*
X65761903Y-164527550D02*
X66142856Y-164527550D01*
X66142856Y-164527550D02*
X66333332Y-164622788D01*
X66333332Y-164622788D02*
X66428570Y-164718026D01*
X66428570Y-164718026D02*
X66619046Y-165003740D01*
X66619046Y-165003740D02*
X66714284Y-165384692D01*
X66714284Y-165384692D02*
X66714284Y-166146597D01*
X66714284Y-166146597D02*
X66619046Y-166337073D01*
X66619046Y-166337073D02*
X66523808Y-166432312D01*
X66523808Y-166432312D02*
X66333332Y-166527550D01*
X66333332Y-166527550D02*
X65952379Y-166527550D01*
X65952379Y-166527550D02*
X65761903Y-166432312D01*
X65761903Y-166432312D02*
X65666665Y-166337073D01*
X65666665Y-166337073D02*
X65571427Y-166146597D01*
X65571427Y-166146597D02*
X65571427Y-165670407D01*
X65571427Y-165670407D02*
X65666665Y-165479931D01*
X65666665Y-165479931D02*
X65761903Y-165384692D01*
X65761903Y-165384692D02*
X65952379Y-165289454D01*
X65952379Y-165289454D02*
X66333332Y-165289454D01*
X66333332Y-165289454D02*
X66523808Y-165384692D01*
X66523808Y-165384692D02*
X66619046Y-165479931D01*
X66619046Y-165479931D02*
X66714284Y-165670407D01*
X113047621Y-169747438D02*
X113047621Y-167747438D01*
X112190478Y-169747438D02*
X112190478Y-168699819D01*
X112190478Y-168699819D02*
X112285716Y-168509342D01*
X112285716Y-168509342D02*
X112476192Y-168414104D01*
X112476192Y-168414104D02*
X112761907Y-168414104D01*
X112761907Y-168414104D02*
X112952383Y-168509342D01*
X112952383Y-168509342D02*
X113047621Y-168604580D01*
X111523811Y-168414104D02*
X110761907Y-168414104D01*
X111238097Y-167747438D02*
X111238097Y-169461723D01*
X111238097Y-169461723D02*
X111142859Y-169652200D01*
X111142859Y-169652200D02*
X110952383Y-169747438D01*
X110952383Y-169747438D02*
X110761907Y-169747438D01*
X110380954Y-168414104D02*
X109619050Y-168414104D01*
X110095240Y-167747438D02*
X110095240Y-169461723D01*
X110095240Y-169461723D02*
X110000002Y-169652200D01*
X110000002Y-169652200D02*
X109809526Y-169747438D01*
X109809526Y-169747438D02*
X109619050Y-169747438D01*
X108952383Y-168414104D02*
X108952383Y-170414104D01*
X108952383Y-168509342D02*
X108761907Y-168414104D01*
X108761907Y-168414104D02*
X108380954Y-168414104D01*
X108380954Y-168414104D02*
X108190478Y-168509342D01*
X108190478Y-168509342D02*
X108095240Y-168604580D01*
X108095240Y-168604580D02*
X108000002Y-168795057D01*
X108000002Y-168795057D02*
X108000002Y-169366485D01*
X108000002Y-169366485D02*
X108095240Y-169556961D01*
X108095240Y-169556961D02*
X108190478Y-169652200D01*
X108190478Y-169652200D02*
X108380954Y-169747438D01*
X108380954Y-169747438D02*
X108761907Y-169747438D01*
X108761907Y-169747438D02*
X108952383Y-169652200D01*
X107238097Y-169652200D02*
X107047621Y-169747438D01*
X107047621Y-169747438D02*
X106666669Y-169747438D01*
X106666669Y-169747438D02*
X106476192Y-169652200D01*
X106476192Y-169652200D02*
X106380954Y-169461723D01*
X106380954Y-169461723D02*
X106380954Y-169366485D01*
X106380954Y-169366485D02*
X106476192Y-169176009D01*
X106476192Y-169176009D02*
X106666669Y-169080771D01*
X106666669Y-169080771D02*
X106952383Y-169080771D01*
X106952383Y-169080771D02*
X107142859Y-168985533D01*
X107142859Y-168985533D02*
X107238097Y-168795057D01*
X107238097Y-168795057D02*
X107238097Y-168699819D01*
X107238097Y-168699819D02*
X107142859Y-168509342D01*
X107142859Y-168509342D02*
X106952383Y-168414104D01*
X106952383Y-168414104D02*
X106666669Y-168414104D01*
X106666669Y-168414104D02*
X106476192Y-168509342D01*
X105523811Y-169556961D02*
X105428573Y-169652200D01*
X105428573Y-169652200D02*
X105523811Y-169747438D01*
X105523811Y-169747438D02*
X105619049Y-169652200D01*
X105619049Y-169652200D02*
X105523811Y-169556961D01*
X105523811Y-169556961D02*
X105523811Y-169747438D01*
X105523811Y-168509342D02*
X105428573Y-168604580D01*
X105428573Y-168604580D02*
X105523811Y-168699819D01*
X105523811Y-168699819D02*
X105619049Y-168604580D01*
X105619049Y-168604580D02*
X105523811Y-168509342D01*
X105523811Y-168509342D02*
X105523811Y-168699819D01*
X103142859Y-167652200D02*
X104857144Y-170223628D01*
X101047621Y-167652200D02*
X102761906Y-170223628D01*
X99523811Y-168414104D02*
X99523811Y-170033152D01*
X99523811Y-170033152D02*
X99619049Y-170223628D01*
X99619049Y-170223628D02*
X99714287Y-170318866D01*
X99714287Y-170318866D02*
X99904764Y-170414104D01*
X99904764Y-170414104D02*
X100190478Y-170414104D01*
X100190478Y-170414104D02*
X100380954Y-170318866D01*
X99523811Y-169652200D02*
X99714287Y-169747438D01*
X99714287Y-169747438D02*
X100095240Y-169747438D01*
X100095240Y-169747438D02*
X100285716Y-169652200D01*
X100285716Y-169652200D02*
X100380954Y-169556961D01*
X100380954Y-169556961D02*
X100476192Y-169366485D01*
X100476192Y-169366485D02*
X100476192Y-168795057D01*
X100476192Y-168795057D02*
X100380954Y-168604580D01*
X100380954Y-168604580D02*
X100285716Y-168509342D01*
X100285716Y-168509342D02*
X100095240Y-168414104D01*
X100095240Y-168414104D02*
X99714287Y-168414104D01*
X99714287Y-168414104D02*
X99523811Y-168509342D01*
X98571430Y-169747438D02*
X98571430Y-168414104D01*
X98571430Y-167747438D02*
X98666668Y-167842676D01*
X98666668Y-167842676D02*
X98571430Y-167937914D01*
X98571430Y-167937914D02*
X98476192Y-167842676D01*
X98476192Y-167842676D02*
X98571430Y-167747438D01*
X98571430Y-167747438D02*
X98571430Y-167937914D01*
X97904763Y-168414104D02*
X97142859Y-168414104D01*
X97619049Y-167747438D02*
X97619049Y-169461723D01*
X97619049Y-169461723D02*
X97523811Y-169652200D01*
X97523811Y-169652200D02*
X97333335Y-169747438D01*
X97333335Y-169747438D02*
X97142859Y-169747438D01*
X96476192Y-169747438D02*
X96476192Y-167747438D01*
X95619049Y-169747438D02*
X95619049Y-168699819D01*
X95619049Y-168699819D02*
X95714287Y-168509342D01*
X95714287Y-168509342D02*
X95904763Y-168414104D01*
X95904763Y-168414104D02*
X96190478Y-168414104D01*
X96190478Y-168414104D02*
X96380954Y-168509342D01*
X96380954Y-168509342D02*
X96476192Y-168604580D01*
X93809525Y-168414104D02*
X93809525Y-169747438D01*
X94666668Y-168414104D02*
X94666668Y-169461723D01*
X94666668Y-169461723D02*
X94571430Y-169652200D01*
X94571430Y-169652200D02*
X94380954Y-169747438D01*
X94380954Y-169747438D02*
X94095239Y-169747438D01*
X94095239Y-169747438D02*
X93904763Y-169652200D01*
X93904763Y-169652200D02*
X93809525Y-169556961D01*
X92857144Y-169747438D02*
X92857144Y-167747438D01*
X92857144Y-168509342D02*
X92666668Y-168414104D01*
X92666668Y-168414104D02*
X92285715Y-168414104D01*
X92285715Y-168414104D02*
X92095239Y-168509342D01*
X92095239Y-168509342D02*
X92000001Y-168604580D01*
X92000001Y-168604580D02*
X91904763Y-168795057D01*
X91904763Y-168795057D02*
X91904763Y-169366485D01*
X91904763Y-169366485D02*
X92000001Y-169556961D01*
X92000001Y-169556961D02*
X92095239Y-169652200D01*
X92095239Y-169652200D02*
X92285715Y-169747438D01*
X92285715Y-169747438D02*
X92666668Y-169747438D01*
X92666668Y-169747438D02*
X92857144Y-169652200D01*
X91047620Y-169556961D02*
X90952382Y-169652200D01*
X90952382Y-169652200D02*
X91047620Y-169747438D01*
X91047620Y-169747438D02*
X91142858Y-169652200D01*
X91142858Y-169652200D02*
X91047620Y-169556961D01*
X91047620Y-169556961D02*
X91047620Y-169747438D01*
X89238096Y-169652200D02*
X89428572Y-169747438D01*
X89428572Y-169747438D02*
X89809525Y-169747438D01*
X89809525Y-169747438D02*
X90000001Y-169652200D01*
X90000001Y-169652200D02*
X90095239Y-169556961D01*
X90095239Y-169556961D02*
X90190477Y-169366485D01*
X90190477Y-169366485D02*
X90190477Y-168795057D01*
X90190477Y-168795057D02*
X90095239Y-168604580D01*
X90095239Y-168604580D02*
X90000001Y-168509342D01*
X90000001Y-168509342D02*
X89809525Y-168414104D01*
X89809525Y-168414104D02*
X89428572Y-168414104D01*
X89428572Y-168414104D02*
X89238096Y-168509342D01*
X88095239Y-169747438D02*
X88285715Y-169652200D01*
X88285715Y-169652200D02*
X88380953Y-169556961D01*
X88380953Y-169556961D02*
X88476191Y-169366485D01*
X88476191Y-169366485D02*
X88476191Y-168795057D01*
X88476191Y-168795057D02*
X88380953Y-168604580D01*
X88380953Y-168604580D02*
X88285715Y-168509342D01*
X88285715Y-168509342D02*
X88095239Y-168414104D01*
X88095239Y-168414104D02*
X87809524Y-168414104D01*
X87809524Y-168414104D02*
X87619048Y-168509342D01*
X87619048Y-168509342D02*
X87523810Y-168604580D01*
X87523810Y-168604580D02*
X87428572Y-168795057D01*
X87428572Y-168795057D02*
X87428572Y-169366485D01*
X87428572Y-169366485D02*
X87523810Y-169556961D01*
X87523810Y-169556961D02*
X87619048Y-169652200D01*
X87619048Y-169652200D02*
X87809524Y-169747438D01*
X87809524Y-169747438D02*
X88095239Y-169747438D01*
X86571429Y-169747438D02*
X86571429Y-168414104D01*
X86571429Y-168604580D02*
X86476191Y-168509342D01*
X86476191Y-168509342D02*
X86285715Y-168414104D01*
X86285715Y-168414104D02*
X86000000Y-168414104D01*
X86000000Y-168414104D02*
X85809524Y-168509342D01*
X85809524Y-168509342D02*
X85714286Y-168699819D01*
X85714286Y-168699819D02*
X85714286Y-169747438D01*
X85714286Y-168699819D02*
X85619048Y-168509342D01*
X85619048Y-168509342D02*
X85428572Y-168414104D01*
X85428572Y-168414104D02*
X85142858Y-168414104D01*
X85142858Y-168414104D02*
X84952381Y-168509342D01*
X84952381Y-168509342D02*
X84857143Y-168699819D01*
X84857143Y-168699819D02*
X84857143Y-169747438D01*
X82476191Y-167652200D02*
X84190476Y-170223628D01*
X81904762Y-169652200D02*
X81714286Y-169747438D01*
X81714286Y-169747438D02*
X81333334Y-169747438D01*
X81333334Y-169747438D02*
X81142857Y-169652200D01*
X81142857Y-169652200D02*
X81047619Y-169461723D01*
X81047619Y-169461723D02*
X81047619Y-169366485D01*
X81047619Y-169366485D02*
X81142857Y-169176009D01*
X81142857Y-169176009D02*
X81333334Y-169080771D01*
X81333334Y-169080771D02*
X81619048Y-169080771D01*
X81619048Y-169080771D02*
X81809524Y-168985533D01*
X81809524Y-168985533D02*
X81904762Y-168795057D01*
X81904762Y-168795057D02*
X81904762Y-168699819D01*
X81904762Y-168699819D02*
X81809524Y-168509342D01*
X81809524Y-168509342D02*
X81619048Y-168414104D01*
X81619048Y-168414104D02*
X81333334Y-168414104D01*
X81333334Y-168414104D02*
X81142857Y-168509342D01*
X79904762Y-169747438D02*
X80095238Y-169652200D01*
X80095238Y-169652200D02*
X80190476Y-169461723D01*
X80190476Y-169461723D02*
X80190476Y-167747438D01*
X78285714Y-169747438D02*
X78285714Y-168699819D01*
X78285714Y-168699819D02*
X78380952Y-168509342D01*
X78380952Y-168509342D02*
X78571428Y-168414104D01*
X78571428Y-168414104D02*
X78952381Y-168414104D01*
X78952381Y-168414104D02*
X79142857Y-168509342D01*
X78285714Y-169652200D02*
X78476190Y-169747438D01*
X78476190Y-169747438D02*
X78952381Y-169747438D01*
X78952381Y-169747438D02*
X79142857Y-169652200D01*
X79142857Y-169652200D02*
X79238095Y-169461723D01*
X79238095Y-169461723D02*
X79238095Y-169271247D01*
X79238095Y-169271247D02*
X79142857Y-169080771D01*
X79142857Y-169080771D02*
X78952381Y-168985533D01*
X78952381Y-168985533D02*
X78476190Y-168985533D01*
X78476190Y-168985533D02*
X78285714Y-168890295D01*
X77428571Y-169652200D02*
X77238095Y-169747438D01*
X77238095Y-169747438D02*
X76857143Y-169747438D01*
X76857143Y-169747438D02*
X76666666Y-169652200D01*
X76666666Y-169652200D02*
X76571428Y-169461723D01*
X76571428Y-169461723D02*
X76571428Y-169366485D01*
X76571428Y-169366485D02*
X76666666Y-169176009D01*
X76666666Y-169176009D02*
X76857143Y-169080771D01*
X76857143Y-169080771D02*
X77142857Y-169080771D01*
X77142857Y-169080771D02*
X77333333Y-168985533D01*
X77333333Y-168985533D02*
X77428571Y-168795057D01*
X77428571Y-168795057D02*
X77428571Y-168699819D01*
X77428571Y-168699819D02*
X77333333Y-168509342D01*
X77333333Y-168509342D02*
X77142857Y-168414104D01*
X77142857Y-168414104D02*
X76857143Y-168414104D01*
X76857143Y-168414104D02*
X76666666Y-168509342D01*
X75714285Y-169747438D02*
X75714285Y-167747438D01*
X74857142Y-169747438D02*
X74857142Y-168699819D01*
X74857142Y-168699819D02*
X74952380Y-168509342D01*
X74952380Y-168509342D02*
X75142856Y-168414104D01*
X75142856Y-168414104D02*
X75428571Y-168414104D01*
X75428571Y-168414104D02*
X75619047Y-168509342D01*
X75619047Y-168509342D02*
X75714285Y-168604580D01*
X72857142Y-169747438D02*
X73999999Y-169747438D01*
X73428571Y-169747438D02*
X73428571Y-167747438D01*
X73428571Y-167747438D02*
X73619047Y-168033152D01*
X73619047Y-168033152D02*
X73809523Y-168223628D01*
X73809523Y-168223628D02*
X73999999Y-168318866D01*
X72095237Y-167937914D02*
X71999999Y-167842676D01*
X71999999Y-167842676D02*
X71809523Y-167747438D01*
X71809523Y-167747438D02*
X71333332Y-167747438D01*
X71333332Y-167747438D02*
X71142856Y-167842676D01*
X71142856Y-167842676D02*
X71047618Y-167937914D01*
X71047618Y-167937914D02*
X70952380Y-168128390D01*
X70952380Y-168128390D02*
X70952380Y-168318866D01*
X70952380Y-168318866D02*
X71047618Y-168604580D01*
X71047618Y-168604580D02*
X72190475Y-169747438D01*
X72190475Y-169747438D02*
X70952380Y-169747438D01*
X69809523Y-168604580D02*
X69999999Y-168509342D01*
X69999999Y-168509342D02*
X70095237Y-168414104D01*
X70095237Y-168414104D02*
X70190475Y-168223628D01*
X70190475Y-168223628D02*
X70190475Y-168128390D01*
X70190475Y-168128390D02*
X70095237Y-167937914D01*
X70095237Y-167937914D02*
X69999999Y-167842676D01*
X69999999Y-167842676D02*
X69809523Y-167747438D01*
X69809523Y-167747438D02*
X69428570Y-167747438D01*
X69428570Y-167747438D02*
X69238094Y-167842676D01*
X69238094Y-167842676D02*
X69142856Y-167937914D01*
X69142856Y-167937914D02*
X69047618Y-168128390D01*
X69047618Y-168128390D02*
X69047618Y-168223628D01*
X69047618Y-168223628D02*
X69142856Y-168414104D01*
X69142856Y-168414104D02*
X69238094Y-168509342D01*
X69238094Y-168509342D02*
X69428570Y-168604580D01*
X69428570Y-168604580D02*
X69809523Y-168604580D01*
X69809523Y-168604580D02*
X69999999Y-168699819D01*
X69999999Y-168699819D02*
X70095237Y-168795057D01*
X70095237Y-168795057D02*
X70190475Y-168985533D01*
X70190475Y-168985533D02*
X70190475Y-169366485D01*
X70190475Y-169366485D02*
X70095237Y-169556961D01*
X70095237Y-169556961D02*
X69999999Y-169652200D01*
X69999999Y-169652200D02*
X69809523Y-169747438D01*
X69809523Y-169747438D02*
X69428570Y-169747438D01*
X69428570Y-169747438D02*
X69238094Y-169652200D01*
X69238094Y-169652200D02*
X69142856Y-169556961D01*
X69142856Y-169556961D02*
X69047618Y-169366485D01*
X69047618Y-169366485D02*
X69047618Y-168985533D01*
X69047618Y-168985533D02*
X69142856Y-168795057D01*
X69142856Y-168795057D02*
X69238094Y-168699819D01*
X69238094Y-168699819D02*
X69428570Y-168604580D01*
X68380951Y-168414104D02*
X67904761Y-169747438D01*
X67904761Y-169747438D02*
X67428570Y-168414104D01*
X65809522Y-167747438D02*
X66190475Y-167747438D01*
X66190475Y-167747438D02*
X66380951Y-167842676D01*
X66380951Y-167842676D02*
X66476189Y-167937914D01*
X66476189Y-167937914D02*
X66666665Y-168223628D01*
X66666665Y-168223628D02*
X66761903Y-168604580D01*
X66761903Y-168604580D02*
X66761903Y-169366485D01*
X66761903Y-169366485D02*
X66666665Y-169556961D01*
X66666665Y-169556961D02*
X66571427Y-169652200D01*
X66571427Y-169652200D02*
X66380951Y-169747438D01*
X66380951Y-169747438D02*
X65999998Y-169747438D01*
X65999998Y-169747438D02*
X65809522Y-169652200D01*
X65809522Y-169652200D02*
X65714284Y-169556961D01*
X65714284Y-169556961D02*
X65619046Y-169366485D01*
X65619046Y-169366485D02*
X65619046Y-168890295D01*
X65619046Y-168890295D02*
X65714284Y-168699819D01*
X65714284Y-168699819D02*
X65809522Y-168604580D01*
X65809522Y-168604580D02*
X65999998Y-168509342D01*
X65999998Y-168509342D02*
X66380951Y-168509342D01*
X66380951Y-168509342D02*
X66571427Y-168604580D01*
X66571427Y-168604580D02*
X66666665Y-168699819D01*
X66666665Y-168699819D02*
X66761903Y-168890295D01*
X63333332Y-167652200D02*
X65047617Y-170223628D01*
X62666665Y-169747438D02*
X62666665Y-167747438D01*
X62666665Y-167747438D02*
X62190475Y-167747438D01*
X62190475Y-167747438D02*
X61904760Y-167842676D01*
X61904760Y-167842676D02*
X61714284Y-168033152D01*
X61714284Y-168033152D02*
X61619046Y-168223628D01*
X61619046Y-168223628D02*
X61523808Y-168604580D01*
X61523808Y-168604580D02*
X61523808Y-168890295D01*
X61523808Y-168890295D02*
X61619046Y-169271247D01*
X61619046Y-169271247D02*
X61714284Y-169461723D01*
X61714284Y-169461723D02*
X61904760Y-169652200D01*
X61904760Y-169652200D02*
X62190475Y-169747438D01*
X62190475Y-169747438D02*
X62666665Y-169747438D01*
X59523808Y-169556961D02*
X59619046Y-169652200D01*
X59619046Y-169652200D02*
X59904760Y-169747438D01*
X59904760Y-169747438D02*
X60095236Y-169747438D01*
X60095236Y-169747438D02*
X60380951Y-169652200D01*
X60380951Y-169652200D02*
X60571427Y-169461723D01*
X60571427Y-169461723D02*
X60666665Y-169271247D01*
X60666665Y-169271247D02*
X60761903Y-168890295D01*
X60761903Y-168890295D02*
X60761903Y-168604580D01*
X60761903Y-168604580D02*
X60666665Y-168223628D01*
X60666665Y-168223628D02*
X60571427Y-168033152D01*
X60571427Y-168033152D02*
X60380951Y-167842676D01*
X60380951Y-167842676D02*
X60095236Y-167747438D01*
X60095236Y-167747438D02*
X59904760Y-167747438D01*
X59904760Y-167747438D02*
X59619046Y-167842676D01*
X59619046Y-167842676D02*
X59523808Y-167937914D01*
X58857141Y-167747438D02*
X57619046Y-167747438D01*
X57619046Y-167747438D02*
X58285713Y-168509342D01*
X58285713Y-168509342D02*
X57999998Y-168509342D01*
X57999998Y-168509342D02*
X57809522Y-168604580D01*
X57809522Y-168604580D02*
X57714284Y-168699819D01*
X57714284Y-168699819D02*
X57619046Y-168890295D01*
X57619046Y-168890295D02*
X57619046Y-169366485D01*
X57619046Y-169366485D02*
X57714284Y-169556961D01*
X57714284Y-169556961D02*
X57809522Y-169652200D01*
X57809522Y-169652200D02*
X57999998Y-169747438D01*
X57999998Y-169747438D02*
X58571427Y-169747438D01*
X58571427Y-169747438D02*
X58761903Y-169652200D01*
X58761903Y-169652200D02*
X58857141Y-169556961D01*
X55904760Y-168414104D02*
X55904760Y-169747438D01*
X56380951Y-167652200D02*
X56857141Y-169080771D01*
X56857141Y-169080771D02*
X55619046Y-169080771D01*
X55333332Y-169937914D02*
X53809522Y-169937914D01*
X52190474Y-169556961D02*
X52285712Y-169652200D01*
X52285712Y-169652200D02*
X52571426Y-169747438D01*
X52571426Y-169747438D02*
X52761902Y-169747438D01*
X52761902Y-169747438D02*
X53047617Y-169652200D01*
X53047617Y-169652200D02*
X53238093Y-169461723D01*
X53238093Y-169461723D02*
X53333331Y-169271247D01*
X53333331Y-169271247D02*
X53428569Y-168890295D01*
X53428569Y-168890295D02*
X53428569Y-168604580D01*
X53428569Y-168604580D02*
X53333331Y-168223628D01*
X53333331Y-168223628D02*
X53238093Y-168033152D01*
X53238093Y-168033152D02*
X53047617Y-167842676D01*
X53047617Y-167842676D02*
X52761902Y-167747438D01*
X52761902Y-167747438D02*
X52571426Y-167747438D01*
X52571426Y-167747438D02*
X52285712Y-167842676D01*
X52285712Y-167842676D02*
X52190474Y-167937914D01*
X51333331Y-168414104D02*
X51333331Y-169747438D01*
X51333331Y-168604580D02*
X51238093Y-168509342D01*
X51238093Y-168509342D02*
X51047617Y-168414104D01*
X51047617Y-168414104D02*
X50761902Y-168414104D01*
X50761902Y-168414104D02*
X50571426Y-168509342D01*
X50571426Y-168509342D02*
X50476188Y-168699819D01*
X50476188Y-168699819D02*
X50476188Y-169747438D01*
X48761902Y-169652200D02*
X48952378Y-169747438D01*
X48952378Y-169747438D02*
X49333331Y-169747438D01*
X49333331Y-169747438D02*
X49523807Y-169652200D01*
X49523807Y-169652200D02*
X49619045Y-169461723D01*
X49619045Y-169461723D02*
X49619045Y-168699819D01*
X49619045Y-168699819D02*
X49523807Y-168509342D01*
X49523807Y-168509342D02*
X49333331Y-168414104D01*
X49333331Y-168414104D02*
X48952378Y-168414104D01*
X48952378Y-168414104D02*
X48761902Y-168509342D01*
X48761902Y-168509342D02*
X48666664Y-168699819D01*
X48666664Y-168699819D02*
X48666664Y-168890295D01*
X48666664Y-168890295D02*
X49619045Y-169080771D01*
X48095235Y-168414104D02*
X47333331Y-168414104D01*
X47809521Y-167747438D02*
X47809521Y-169461723D01*
X47809521Y-169461723D02*
X47714283Y-169652200D01*
X47714283Y-169652200D02*
X47523807Y-169747438D01*
X47523807Y-169747438D02*
X47333331Y-169747438D01*
X47142855Y-169937914D02*
X45619045Y-169937914D01*
X44476187Y-168699819D02*
X44190473Y-168795057D01*
X44190473Y-168795057D02*
X44095235Y-168890295D01*
X44095235Y-168890295D02*
X43999997Y-169080771D01*
X43999997Y-169080771D02*
X43999997Y-169366485D01*
X43999997Y-169366485D02*
X44095235Y-169556961D01*
X44095235Y-169556961D02*
X44190473Y-169652200D01*
X44190473Y-169652200D02*
X44380949Y-169747438D01*
X44380949Y-169747438D02*
X45142854Y-169747438D01*
X45142854Y-169747438D02*
X45142854Y-167747438D01*
X45142854Y-167747438D02*
X44476187Y-167747438D01*
X44476187Y-167747438D02*
X44285711Y-167842676D01*
X44285711Y-167842676D02*
X44190473Y-167937914D01*
X44190473Y-167937914D02*
X44095235Y-168128390D01*
X44095235Y-168128390D02*
X44095235Y-168318866D01*
X44095235Y-168318866D02*
X44190473Y-168509342D01*
X44190473Y-168509342D02*
X44285711Y-168604580D01*
X44285711Y-168604580D02*
X44476187Y-168699819D01*
X44476187Y-168699819D02*
X45142854Y-168699819D01*
X42285711Y-169747438D02*
X42285711Y-168699819D01*
X42285711Y-168699819D02*
X42380949Y-168509342D01*
X42380949Y-168509342D02*
X42571425Y-168414104D01*
X42571425Y-168414104D02*
X42952378Y-168414104D01*
X42952378Y-168414104D02*
X43142854Y-168509342D01*
X42285711Y-169652200D02*
X42476187Y-169747438D01*
X42476187Y-169747438D02*
X42952378Y-169747438D01*
X42952378Y-169747438D02*
X43142854Y-169652200D01*
X43142854Y-169652200D02*
X43238092Y-169461723D01*
X43238092Y-169461723D02*
X43238092Y-169271247D01*
X43238092Y-169271247D02*
X43142854Y-169080771D01*
X43142854Y-169080771D02*
X42952378Y-168985533D01*
X42952378Y-168985533D02*
X42476187Y-168985533D01*
X42476187Y-168985533D02*
X42285711Y-168890295D01*
X40476187Y-169747438D02*
X40476187Y-167747438D01*
X40476187Y-169652200D02*
X40666663Y-169747438D01*
X40666663Y-169747438D02*
X41047616Y-169747438D01*
X41047616Y-169747438D02*
X41238092Y-169652200D01*
X41238092Y-169652200D02*
X41333330Y-169556961D01*
X41333330Y-169556961D02*
X41428568Y-169366485D01*
X41428568Y-169366485D02*
X41428568Y-168795057D01*
X41428568Y-168795057D02*
X41333330Y-168604580D01*
X41333330Y-168604580D02*
X41238092Y-168509342D01*
X41238092Y-168509342D02*
X41047616Y-168414104D01*
X41047616Y-168414104D02*
X40666663Y-168414104D01*
X40666663Y-168414104D02*
X40476187Y-168509342D01*
X38666663Y-168414104D02*
X38666663Y-170033152D01*
X38666663Y-170033152D02*
X38761901Y-170223628D01*
X38761901Y-170223628D02*
X38857139Y-170318866D01*
X38857139Y-170318866D02*
X39047616Y-170414104D01*
X39047616Y-170414104D02*
X39333330Y-170414104D01*
X39333330Y-170414104D02*
X39523806Y-170318866D01*
X38666663Y-169652200D02*
X38857139Y-169747438D01*
X38857139Y-169747438D02*
X39238092Y-169747438D01*
X39238092Y-169747438D02*
X39428568Y-169652200D01*
X39428568Y-169652200D02*
X39523806Y-169556961D01*
X39523806Y-169556961D02*
X39619044Y-169366485D01*
X39619044Y-169366485D02*
X39619044Y-168795057D01*
X39619044Y-168795057D02*
X39523806Y-168604580D01*
X39523806Y-168604580D02*
X39428568Y-168509342D01*
X39428568Y-168509342D02*
X39238092Y-168414104D01*
X39238092Y-168414104D02*
X38857139Y-168414104D01*
X38857139Y-168414104D02*
X38666663Y-168509342D01*
X36952377Y-169652200D02*
X37142853Y-169747438D01*
X37142853Y-169747438D02*
X37523806Y-169747438D01*
X37523806Y-169747438D02*
X37714282Y-169652200D01*
X37714282Y-169652200D02*
X37809520Y-169461723D01*
X37809520Y-169461723D02*
X37809520Y-168699819D01*
X37809520Y-168699819D02*
X37714282Y-168509342D01*
X37714282Y-168509342D02*
X37523806Y-168414104D01*
X37523806Y-168414104D02*
X37142853Y-168414104D01*
X37142853Y-168414104D02*
X36952377Y-168509342D01*
X36952377Y-168509342D02*
X36857139Y-168699819D01*
X36857139Y-168699819D02*
X36857139Y-168890295D01*
X36857139Y-168890295D02*
X37809520Y-169080771D01*
D11*
%TO.C,Ref\u002A\u002A*%
X49469086Y-39697090D02*
X49470559Y-39711469D01*
X49458372Y-39803827D01*
X49413210Y-39915366D01*
X49337092Y-40042617D01*
X49232039Y-40182115D01*
X49100072Y-40330390D01*
X49031073Y-40401379D01*
X48969270Y-40460713D01*
X48929106Y-40492305D01*
X48907366Y-40498601D01*
X48900834Y-40482049D01*
X48905285Y-40468997D01*
X48930645Y-40422766D01*
X48975703Y-40349922D01*
X49037309Y-40255270D01*
X49112313Y-40143616D01*
X49197565Y-40019764D01*
X49289916Y-39888520D01*
X49316424Y-39851395D01*
X49377820Y-39767382D01*
X49420346Y-39713619D01*
X49447440Y-39686431D01*
X49462540Y-39682146D01*
X49469086Y-39697090D01*
G36*
X49469086Y-39697090D02*
G01*
X49470559Y-39711469D01*
X49458372Y-39803827D01*
X49413210Y-39915366D01*
X49337092Y-40042617D01*
X49232039Y-40182115D01*
X49100072Y-40330390D01*
X49031073Y-40401379D01*
X48969270Y-40460713D01*
X48929106Y-40492305D01*
X48907366Y-40498601D01*
X48900834Y-40482049D01*
X48905285Y-40468997D01*
X48930645Y-40422766D01*
X48975703Y-40349922D01*
X49037309Y-40255270D01*
X49112313Y-40143616D01*
X49197565Y-40019764D01*
X49289916Y-39888520D01*
X49316424Y-39851395D01*
X49377820Y-39767382D01*
X49420346Y-39713619D01*
X49447440Y-39686431D01*
X49462540Y-39682146D01*
X49469086Y-39697090D01*
G37*
X48491874Y-38960640D02*
X48547495Y-38993149D01*
X48574249Y-39028675D01*
X48621940Y-39125079D01*
X48661095Y-39249751D01*
X48688477Y-39393503D01*
X48700912Y-39556678D01*
X48692042Y-39703939D01*
X48662524Y-39826841D01*
X48613516Y-39920605D01*
X48546176Y-39980454D01*
X48490033Y-40003977D01*
X48404834Y-40010350D01*
X48332068Y-39977760D01*
X48276199Y-39907412D01*
X48270302Y-39894754D01*
X48246955Y-39826234D01*
X48222279Y-39731306D01*
X48198760Y-39622251D01*
X48178884Y-39511353D01*
X48165136Y-39410895D01*
X48160000Y-39333160D01*
X48173634Y-39227089D01*
X48224567Y-39108458D01*
X48308863Y-39010913D01*
X48344877Y-38985775D01*
X48420184Y-38958491D01*
X48491874Y-38960640D01*
G36*
X48491874Y-38960640D02*
G01*
X48547495Y-38993149D01*
X48574249Y-39028675D01*
X48621940Y-39125079D01*
X48661095Y-39249751D01*
X48688477Y-39393503D01*
X48700912Y-39556678D01*
X48692042Y-39703939D01*
X48662524Y-39826841D01*
X48613516Y-39920605D01*
X48546176Y-39980454D01*
X48490033Y-40003977D01*
X48404834Y-40010350D01*
X48332068Y-39977760D01*
X48276199Y-39907412D01*
X48270302Y-39894754D01*
X48246955Y-39826234D01*
X48222279Y-39731306D01*
X48198760Y-39622251D01*
X48178884Y-39511353D01*
X48165136Y-39410895D01*
X48160000Y-39333160D01*
X48173634Y-39227089D01*
X48224567Y-39108458D01*
X48308863Y-39010913D01*
X48344877Y-38985775D01*
X48420184Y-38958491D01*
X48491874Y-38960640D01*
G37*
X39728678Y-25265046D02*
X39843724Y-25301568D01*
X39979693Y-25352244D01*
X40127999Y-25413365D01*
X40280060Y-25481223D01*
X40427292Y-25552109D01*
X40561112Y-25622315D01*
X40672935Y-25688133D01*
X40704820Y-25710152D01*
X40788374Y-25789207D01*
X40845810Y-25878000D01*
X40875580Y-25969501D01*
X40876137Y-26056679D01*
X40845931Y-26132504D01*
X40783417Y-26189947D01*
X40754488Y-26202184D01*
X40669176Y-26211162D01*
X40560109Y-26196210D01*
X40434065Y-26158591D01*
X40297822Y-26099566D01*
X40277608Y-26089318D01*
X40172695Y-26032106D01*
X40053952Y-25962159D01*
X39929872Y-25884989D01*
X39808949Y-25806107D01*
X39699675Y-25731025D01*
X39610544Y-25665255D01*
X39550050Y-25614308D01*
X39514138Y-25572474D01*
X39470355Y-25493569D01*
X39447257Y-25412207D01*
X39450426Y-25343562D01*
X39453391Y-25335241D01*
X39496357Y-25279583D01*
X39566277Y-25249075D01*
X39654111Y-25247959D01*
X39728678Y-25265046D01*
G36*
X39728678Y-25265046D02*
G01*
X39843724Y-25301568D01*
X39979693Y-25352244D01*
X40127999Y-25413365D01*
X40280060Y-25481223D01*
X40427292Y-25552109D01*
X40561112Y-25622315D01*
X40672935Y-25688133D01*
X40704820Y-25710152D01*
X40788374Y-25789207D01*
X40845810Y-25878000D01*
X40875580Y-25969501D01*
X40876137Y-26056679D01*
X40845931Y-26132504D01*
X40783417Y-26189947D01*
X40754488Y-26202184D01*
X40669176Y-26211162D01*
X40560109Y-26196210D01*
X40434065Y-26158591D01*
X40297822Y-26099566D01*
X40277608Y-26089318D01*
X40172695Y-26032106D01*
X40053952Y-25962159D01*
X39929872Y-25884989D01*
X39808949Y-25806107D01*
X39699675Y-25731025D01*
X39610544Y-25665255D01*
X39550050Y-25614308D01*
X39514138Y-25572474D01*
X39470355Y-25493569D01*
X39447257Y-25412207D01*
X39450426Y-25343562D01*
X39453391Y-25335241D01*
X39496357Y-25279583D01*
X39566277Y-25249075D01*
X39654111Y-25247959D01*
X39728678Y-25265046D01*
G37*
X30019719Y-23828428D02*
X30124583Y-23837326D01*
X30240527Y-23850971D01*
X30357461Y-23868177D01*
X30465292Y-23887759D01*
X30553933Y-23908531D01*
X30626636Y-23930446D01*
X30783844Y-23992856D01*
X30908966Y-24065744D01*
X30999953Y-24146985D01*
X31054755Y-24234460D01*
X31071323Y-24326046D01*
X31047608Y-24419621D01*
X31043276Y-24428245D01*
X31006195Y-24481708D01*
X30966263Y-24515496D01*
X30909613Y-24534949D01*
X30817415Y-24533497D01*
X30721120Y-24491661D01*
X30618788Y-24408847D01*
X30616543Y-24406656D01*
X30564722Y-24358753D01*
X30524273Y-24334263D01*
X30477602Y-24326548D01*
X30407121Y-24328969D01*
X30293307Y-24334269D01*
X30190345Y-24333816D01*
X30111680Y-24325036D01*
X30047809Y-24306767D01*
X29989231Y-24277846D01*
X29915850Y-24221552D01*
X29856051Y-24148260D01*
X29815558Y-24067915D01*
X29796193Y-23988202D01*
X29799776Y-23916810D01*
X29828130Y-23861425D01*
X29883074Y-23829736D01*
X29883590Y-23829609D01*
X29936024Y-23825460D01*
X30019719Y-23828428D01*
G36*
X30019719Y-23828428D02*
G01*
X30124583Y-23837326D01*
X30240527Y-23850971D01*
X30357461Y-23868177D01*
X30465292Y-23887759D01*
X30553933Y-23908531D01*
X30626636Y-23930446D01*
X30783844Y-23992856D01*
X30908966Y-24065744D01*
X30999953Y-24146985D01*
X31054755Y-24234460D01*
X31071323Y-24326046D01*
X31047608Y-24419621D01*
X31043276Y-24428245D01*
X31006195Y-24481708D01*
X30966263Y-24515496D01*
X30909613Y-24534949D01*
X30817415Y-24533497D01*
X30721120Y-24491661D01*
X30618788Y-24408847D01*
X30616543Y-24406656D01*
X30564722Y-24358753D01*
X30524273Y-24334263D01*
X30477602Y-24326548D01*
X30407121Y-24328969D01*
X30293307Y-24334269D01*
X30190345Y-24333816D01*
X30111680Y-24325036D01*
X30047809Y-24306767D01*
X29989231Y-24277846D01*
X29915850Y-24221552D01*
X29856051Y-24148260D01*
X29815558Y-24067915D01*
X29796193Y-23988202D01*
X29799776Y-23916810D01*
X29828130Y-23861425D01*
X29883074Y-23829736D01*
X29883590Y-23829609D01*
X29936024Y-23825460D01*
X30019719Y-23828428D01*
G37*
X28369167Y-21241872D02*
X28290589Y-21316439D01*
X28094319Y-21503256D01*
X27923603Y-21666794D01*
X27774395Y-21811066D01*
X27642651Y-21940085D01*
X27524326Y-22057864D01*
X27415375Y-22168416D01*
X27311753Y-22275755D01*
X27209416Y-22383894D01*
X27104318Y-22496846D01*
X27103646Y-22497573D01*
X26998172Y-22611305D01*
X26900158Y-22716211D01*
X26813838Y-22807820D01*
X26743447Y-22881661D01*
X26693220Y-22933263D01*
X26667392Y-22958155D01*
X26653331Y-22969534D01*
X26618124Y-22993784D01*
X26598920Y-22994463D01*
X26594455Y-22967241D01*
X26603467Y-22907788D01*
X26624691Y-22811772D01*
X26631493Y-22779364D01*
X26646589Y-22695995D01*
X26665177Y-22583324D01*
X26686002Y-22449301D01*
X26707810Y-22301877D01*
X26729345Y-22149000D01*
X26742814Y-22051860D01*
X26763546Y-21906242D01*
X26783082Y-21773412D01*
X26800324Y-21660663D01*
X26814171Y-21575289D01*
X26823523Y-21524584D01*
X26837192Y-21469615D01*
X26885096Y-21349318D01*
X26953402Y-21260313D01*
X27046250Y-21196500D01*
X27066775Y-21186368D01*
X27095524Y-21173666D01*
X27126188Y-21163683D01*
X27163819Y-21156032D01*
X27213469Y-21150329D01*
X27280191Y-21146188D01*
X27369037Y-21143223D01*
X27485057Y-21141048D01*
X27633306Y-21139278D01*
X27818834Y-21137527D01*
X28485584Y-21131470D01*
X28369167Y-21241872D01*
G36*
X28369167Y-21241872D02*
G01*
X28290589Y-21316439D01*
X28094319Y-21503256D01*
X27923603Y-21666794D01*
X27774395Y-21811066D01*
X27642651Y-21940085D01*
X27524326Y-22057864D01*
X27415375Y-22168416D01*
X27311753Y-22275755D01*
X27209416Y-22383894D01*
X27104318Y-22496846D01*
X27103646Y-22497573D01*
X26998172Y-22611305D01*
X26900158Y-22716211D01*
X26813838Y-22807820D01*
X26743447Y-22881661D01*
X26693220Y-22933263D01*
X26667392Y-22958155D01*
X26653331Y-22969534D01*
X26618124Y-22993784D01*
X26598920Y-22994463D01*
X26594455Y-22967241D01*
X26603467Y-22907788D01*
X26624691Y-22811772D01*
X26631493Y-22779364D01*
X26646589Y-22695995D01*
X26665177Y-22583324D01*
X26686002Y-22449301D01*
X26707810Y-22301877D01*
X26729345Y-22149000D01*
X26742814Y-22051860D01*
X26763546Y-21906242D01*
X26783082Y-21773412D01*
X26800324Y-21660663D01*
X26814171Y-21575289D01*
X26823523Y-21524584D01*
X26837192Y-21469615D01*
X26885096Y-21349318D01*
X26953402Y-21260313D01*
X27046250Y-21196500D01*
X27066775Y-21186368D01*
X27095524Y-21173666D01*
X27126188Y-21163683D01*
X27163819Y-21156032D01*
X27213469Y-21150329D01*
X27280191Y-21146188D01*
X27369037Y-21143223D01*
X27485057Y-21141048D01*
X27633306Y-21139278D01*
X27818834Y-21137527D01*
X28485584Y-21131470D01*
X28369167Y-21241872D01*
G37*
X30845667Y-52396167D02*
X29886924Y-52396167D01*
X29901225Y-50263625D01*
X29902420Y-50090827D01*
X29904629Y-49795707D01*
X29906960Y-49512014D01*
X29909378Y-49242838D01*
X29911848Y-48991270D01*
X29914333Y-48760399D01*
X29916798Y-48553318D01*
X29919207Y-48373116D01*
X29921525Y-48222885D01*
X29923715Y-48105714D01*
X29925743Y-48024694D01*
X29927571Y-47982917D01*
X29939617Y-47834750D01*
X29771955Y-48088750D01*
X29760027Y-48106804D01*
X29706224Y-48187787D01*
X29649325Y-48272637D01*
X29587801Y-48363543D01*
X29520123Y-48462695D01*
X29444761Y-48572282D01*
X29360188Y-48694496D01*
X29264874Y-48831525D01*
X29157291Y-48985559D01*
X29035910Y-49158789D01*
X28899202Y-49353403D01*
X28745638Y-49571592D01*
X28573690Y-49815545D01*
X28381829Y-50087453D01*
X28168525Y-50389504D01*
X27932251Y-50723890D01*
X26750367Y-52396167D01*
X25850334Y-52396167D01*
X25850334Y-46321334D01*
X26806695Y-46321334D01*
X26799473Y-48581820D01*
X26792250Y-50842307D01*
X27147944Y-50316014D01*
X27205582Y-50231467D01*
X27288587Y-50110968D01*
X27391978Y-49961773D01*
X27513642Y-49786889D01*
X27651469Y-49589322D01*
X27803347Y-49372078D01*
X27967165Y-49138164D01*
X28140810Y-48890587D01*
X28322171Y-48632352D01*
X28509137Y-48366466D01*
X28699597Y-48095936D01*
X28891438Y-47823768D01*
X29082549Y-47552969D01*
X29270819Y-47286544D01*
X29454136Y-47027501D01*
X29630389Y-46778845D01*
X29797466Y-46543584D01*
X29947950Y-46331917D01*
X30396809Y-46326204D01*
X30845667Y-46320492D01*
X30845667Y-52396167D01*
G36*
X30845667Y-52396167D02*
G01*
X29886924Y-52396167D01*
X29901225Y-50263625D01*
X29902420Y-50090827D01*
X29904629Y-49795707D01*
X29906960Y-49512014D01*
X29909378Y-49242838D01*
X29911848Y-48991270D01*
X29914333Y-48760399D01*
X29916798Y-48553318D01*
X29919207Y-48373116D01*
X29921525Y-48222885D01*
X29923715Y-48105714D01*
X29925743Y-48024694D01*
X29927571Y-47982917D01*
X29939617Y-47834750D01*
X29771955Y-48088750D01*
X29760027Y-48106804D01*
X29706224Y-48187787D01*
X29649325Y-48272637D01*
X29587801Y-48363543D01*
X29520123Y-48462695D01*
X29444761Y-48572282D01*
X29360188Y-48694496D01*
X29264874Y-48831525D01*
X29157291Y-48985559D01*
X29035910Y-49158789D01*
X28899202Y-49353403D01*
X28745638Y-49571592D01*
X28573690Y-49815545D01*
X28381829Y-50087453D01*
X28168525Y-50389504D01*
X27932251Y-50723890D01*
X26750367Y-52396167D01*
X25850334Y-52396167D01*
X25850334Y-46321334D01*
X26806695Y-46321334D01*
X26799473Y-48581820D01*
X26792250Y-50842307D01*
X27147944Y-50316014D01*
X27205582Y-50231467D01*
X27288587Y-50110968D01*
X27391978Y-49961773D01*
X27513642Y-49786889D01*
X27651469Y-49589322D01*
X27803347Y-49372078D01*
X27967165Y-49138164D01*
X28140810Y-48890587D01*
X28322171Y-48632352D01*
X28509137Y-48366466D01*
X28699597Y-48095936D01*
X28891438Y-47823768D01*
X29082549Y-47552969D01*
X29270819Y-47286544D01*
X29454136Y-47027501D01*
X29630389Y-46778845D01*
X29797466Y-46543584D01*
X29947950Y-46331917D01*
X30396809Y-46326204D01*
X30845667Y-46320492D01*
X30845667Y-52396167D01*
G37*
X19410375Y-46882104D02*
X19430983Y-46884410D01*
X19496057Y-46891127D01*
X19585833Y-46899982D01*
X19691955Y-46910194D01*
X19806069Y-46920983D01*
X19919822Y-46931568D01*
X20024858Y-46941169D01*
X20112824Y-46949005D01*
X20175364Y-46954295D01*
X20204125Y-46956260D01*
X20207668Y-46969644D01*
X20211654Y-47020001D01*
X20215051Y-47102434D01*
X20217687Y-47211274D01*
X20219394Y-47340852D01*
X20220000Y-47485500D01*
X20220000Y-48014667D01*
X21024334Y-48014667D01*
X21024334Y-48819000D01*
X20220000Y-48819000D01*
X20220000Y-50097722D01*
X20219913Y-50347994D01*
X20219435Y-50601463D01*
X20218297Y-50819141D01*
X20216229Y-51004542D01*
X20212961Y-51161176D01*
X20208226Y-51292555D01*
X20201752Y-51402191D01*
X20193271Y-51493595D01*
X20182513Y-51570279D01*
X20169210Y-51635756D01*
X20153091Y-51693536D01*
X20133887Y-51747132D01*
X20111329Y-51800055D01*
X20085148Y-51855816D01*
X20073282Y-51879931D01*
X19981502Y-52032830D01*
X19871352Y-52157596D01*
X19732510Y-52266243D01*
X19634235Y-52325790D01*
X19437433Y-52412777D01*
X19214584Y-52472088D01*
X19179909Y-52477782D01*
X19068643Y-52488205D01*
X18931321Y-52493398D01*
X18779304Y-52493622D01*
X18623953Y-52489137D01*
X18476628Y-52480202D01*
X18348690Y-52467078D01*
X18251500Y-52450026D01*
X18188070Y-52434340D01*
X18101473Y-52410251D01*
X18045857Y-52388250D01*
X18014467Y-52364166D01*
X18000549Y-52333825D01*
X17997348Y-52293057D01*
X17997347Y-52292317D01*
X17999165Y-52239598D01*
X18004035Y-52157548D01*
X18011136Y-52056392D01*
X18019646Y-51946355D01*
X18028741Y-51837663D01*
X18037601Y-51740542D01*
X18045401Y-51665217D01*
X18051321Y-51621913D01*
X18059989Y-51577910D01*
X18213953Y-51619225D01*
X18227821Y-51622842D01*
X18339733Y-51644848D01*
X18470858Y-51657914D01*
X18632500Y-51663229D01*
X18726717Y-51663875D01*
X18811500Y-51662555D01*
X18873107Y-51657383D01*
X18922060Y-51646725D01*
X18968879Y-51628948D01*
X19024084Y-51602417D01*
X19106538Y-51553915D01*
X19194975Y-51471522D01*
X19253550Y-51366831D01*
X19287846Y-51232000D01*
X19292101Y-51186878D01*
X19296368Y-51100062D01*
X19300151Y-50977691D01*
X19303389Y-50823314D01*
X19306020Y-50640480D01*
X19307986Y-50432735D01*
X19309224Y-50203629D01*
X19309674Y-49956709D01*
X19309834Y-48819000D01*
X18061000Y-48819000D01*
X18061000Y-48014667D01*
X19309834Y-48014667D01*
X19309834Y-46870209D01*
X19410375Y-46882104D01*
G36*
X19410375Y-46882104D02*
G01*
X19430983Y-46884410D01*
X19496057Y-46891127D01*
X19585833Y-46899982D01*
X19691955Y-46910194D01*
X19806069Y-46920983D01*
X19919822Y-46931568D01*
X20024858Y-46941169D01*
X20112824Y-46949005D01*
X20175364Y-46954295D01*
X20204125Y-46956260D01*
X20207668Y-46969644D01*
X20211654Y-47020001D01*
X20215051Y-47102434D01*
X20217687Y-47211274D01*
X20219394Y-47340852D01*
X20220000Y-47485500D01*
X20220000Y-48014667D01*
X21024334Y-48014667D01*
X21024334Y-48819000D01*
X20220000Y-48819000D01*
X20220000Y-50097722D01*
X20219913Y-50347994D01*
X20219435Y-50601463D01*
X20218297Y-50819141D01*
X20216229Y-51004542D01*
X20212961Y-51161176D01*
X20208226Y-51292555D01*
X20201752Y-51402191D01*
X20193271Y-51493595D01*
X20182513Y-51570279D01*
X20169210Y-51635756D01*
X20153091Y-51693536D01*
X20133887Y-51747132D01*
X20111329Y-51800055D01*
X20085148Y-51855816D01*
X20073282Y-51879931D01*
X19981502Y-52032830D01*
X19871352Y-52157596D01*
X19732510Y-52266243D01*
X19634235Y-52325790D01*
X19437433Y-52412777D01*
X19214584Y-52472088D01*
X19179909Y-52477782D01*
X19068643Y-52488205D01*
X18931321Y-52493398D01*
X18779304Y-52493622D01*
X18623953Y-52489137D01*
X18476628Y-52480202D01*
X18348690Y-52467078D01*
X18251500Y-52450026D01*
X18188070Y-52434340D01*
X18101473Y-52410251D01*
X18045857Y-52388250D01*
X18014467Y-52364166D01*
X18000549Y-52333825D01*
X17997348Y-52293057D01*
X17997347Y-52292317D01*
X17999165Y-52239598D01*
X18004035Y-52157548D01*
X18011136Y-52056392D01*
X18019646Y-51946355D01*
X18028741Y-51837663D01*
X18037601Y-51740542D01*
X18045401Y-51665217D01*
X18051321Y-51621913D01*
X18059989Y-51577910D01*
X18213953Y-51619225D01*
X18227821Y-51622842D01*
X18339733Y-51644848D01*
X18470858Y-51657914D01*
X18632500Y-51663229D01*
X18726717Y-51663875D01*
X18811500Y-51662555D01*
X18873107Y-51657383D01*
X18922060Y-51646725D01*
X18968879Y-51628948D01*
X19024084Y-51602417D01*
X19106538Y-51553915D01*
X19194975Y-51471522D01*
X19253550Y-51366831D01*
X19287846Y-51232000D01*
X19292101Y-51186878D01*
X19296368Y-51100062D01*
X19300151Y-50977691D01*
X19303389Y-50823314D01*
X19306020Y-50640480D01*
X19307986Y-50432735D01*
X19309224Y-50203629D01*
X19309674Y-49956709D01*
X19309834Y-48819000D01*
X18061000Y-48819000D01*
X18061000Y-48014667D01*
X19309834Y-48014667D01*
X19309834Y-46870209D01*
X19410375Y-46882104D01*
G37*
X32899147Y-49459292D02*
X32899202Y-49630066D01*
X32899464Y-49905505D01*
X32900098Y-50143607D01*
X32901296Y-50347583D01*
X32903250Y-50520641D01*
X32906152Y-50665991D01*
X32910192Y-50786842D01*
X32915564Y-50886405D01*
X32922459Y-50967887D01*
X32931068Y-51034500D01*
X32941583Y-51089451D01*
X32954196Y-51135952D01*
X32969099Y-51177210D01*
X32986483Y-51216436D01*
X33006541Y-51256840D01*
X33011318Y-51266041D01*
X33109247Y-51407776D01*
X33237044Y-51522799D01*
X33390468Y-51609240D01*
X33565278Y-51665228D01*
X33757236Y-51688893D01*
X33962101Y-51678364D01*
X34006251Y-51671620D01*
X34193540Y-51621924D01*
X34352181Y-51542281D01*
X34481154Y-51433324D01*
X34579442Y-51295682D01*
X34587445Y-51281014D01*
X34610068Y-51239199D01*
X34629619Y-51200322D01*
X34646339Y-51161151D01*
X34660469Y-51118451D01*
X34672248Y-51068989D01*
X34681918Y-51009531D01*
X34689718Y-50936843D01*
X34695891Y-50847692D01*
X34700676Y-50738845D01*
X34704313Y-50607067D01*
X34707045Y-50449124D01*
X34709110Y-50261784D01*
X34710750Y-50041813D01*
X34712205Y-49785977D01*
X34713716Y-49491042D01*
X34721292Y-48014667D01*
X35631370Y-48014667D01*
X35623672Y-49565125D01*
X35622392Y-49824182D01*
X35620930Y-50096741D01*
X35619299Y-50332924D01*
X35617249Y-50535973D01*
X35614530Y-50709126D01*
X35610889Y-50855623D01*
X35606078Y-50978705D01*
X35599844Y-51081610D01*
X35591936Y-51167580D01*
X35582105Y-51239852D01*
X35570099Y-51301668D01*
X35555667Y-51356267D01*
X35538559Y-51406888D01*
X35518524Y-51456772D01*
X35495311Y-51509158D01*
X35468669Y-51567286D01*
X35455632Y-51595138D01*
X35327174Y-51819213D01*
X35171377Y-52010992D01*
X34987832Y-52170837D01*
X34776132Y-52299110D01*
X34535868Y-52396176D01*
X34502581Y-52406524D01*
X34395313Y-52436597D01*
X34290794Y-52461821D01*
X34207612Y-52477584D01*
X34152955Y-52484742D01*
X33897677Y-52501892D01*
X33639073Y-52494543D01*
X33385475Y-52464005D01*
X33145218Y-52411591D01*
X32926636Y-52338611D01*
X32738063Y-52246376D01*
X32662506Y-52197666D01*
X32490692Y-52057740D01*
X32335098Y-51890889D01*
X32204389Y-51707140D01*
X32107230Y-51516518D01*
X32098677Y-51495450D01*
X32076833Y-51440577D01*
X32057877Y-51389117D01*
X32041586Y-51337802D01*
X32027739Y-51283365D01*
X32016113Y-51222538D01*
X32006486Y-51152053D01*
X31998637Y-51068643D01*
X31992344Y-50969040D01*
X31987383Y-50849978D01*
X31983534Y-50708187D01*
X31980575Y-50540402D01*
X31978282Y-50343354D01*
X31976435Y-50113776D01*
X31974811Y-49848400D01*
X31973188Y-49543959D01*
X31965207Y-48014667D01*
X32898834Y-48014667D01*
X32899147Y-49459292D01*
G36*
X32899147Y-49459292D02*
G01*
X32899202Y-49630066D01*
X32899464Y-49905505D01*
X32900098Y-50143607D01*
X32901296Y-50347583D01*
X32903250Y-50520641D01*
X32906152Y-50665991D01*
X32910192Y-50786842D01*
X32915564Y-50886405D01*
X32922459Y-50967887D01*
X32931068Y-51034500D01*
X32941583Y-51089451D01*
X32954196Y-51135952D01*
X32969099Y-51177210D01*
X32986483Y-51216436D01*
X33006541Y-51256840D01*
X33011318Y-51266041D01*
X33109247Y-51407776D01*
X33237044Y-51522799D01*
X33390468Y-51609240D01*
X33565278Y-51665228D01*
X33757236Y-51688893D01*
X33962101Y-51678364D01*
X34006251Y-51671620D01*
X34193540Y-51621924D01*
X34352181Y-51542281D01*
X34481154Y-51433324D01*
X34579442Y-51295682D01*
X34587445Y-51281014D01*
X34610068Y-51239199D01*
X34629619Y-51200322D01*
X34646339Y-51161151D01*
X34660469Y-51118451D01*
X34672248Y-51068989D01*
X34681918Y-51009531D01*
X34689718Y-50936843D01*
X34695891Y-50847692D01*
X34700676Y-50738845D01*
X34704313Y-50607067D01*
X34707045Y-50449124D01*
X34709110Y-50261784D01*
X34710750Y-50041813D01*
X34712205Y-49785977D01*
X34713716Y-49491042D01*
X34721292Y-48014667D01*
X35631370Y-48014667D01*
X35623672Y-49565125D01*
X35622392Y-49824182D01*
X35620930Y-50096741D01*
X35619299Y-50332924D01*
X35617249Y-50535973D01*
X35614530Y-50709126D01*
X35610889Y-50855623D01*
X35606078Y-50978705D01*
X35599844Y-51081610D01*
X35591936Y-51167580D01*
X35582105Y-51239852D01*
X35570099Y-51301668D01*
X35555667Y-51356267D01*
X35538559Y-51406888D01*
X35518524Y-51456772D01*
X35495311Y-51509158D01*
X35468669Y-51567286D01*
X35455632Y-51595138D01*
X35327174Y-51819213D01*
X35171377Y-52010992D01*
X34987832Y-52170837D01*
X34776132Y-52299110D01*
X34535868Y-52396176D01*
X34502581Y-52406524D01*
X34395313Y-52436597D01*
X34290794Y-52461821D01*
X34207612Y-52477584D01*
X34152955Y-52484742D01*
X33897677Y-52501892D01*
X33639073Y-52494543D01*
X33385475Y-52464005D01*
X33145218Y-52411591D01*
X32926636Y-52338611D01*
X32738063Y-52246376D01*
X32662506Y-52197666D01*
X32490692Y-52057740D01*
X32335098Y-51890889D01*
X32204389Y-51707140D01*
X32107230Y-51516518D01*
X32098677Y-51495450D01*
X32076833Y-51440577D01*
X32057877Y-51389117D01*
X32041586Y-51337802D01*
X32027739Y-51283365D01*
X32016113Y-51222538D01*
X32006486Y-51152053D01*
X31998637Y-51068643D01*
X31992344Y-50969040D01*
X31987383Y-50849978D01*
X31983534Y-50708187D01*
X31980575Y-50540402D01*
X31978282Y-50343354D01*
X31976435Y-50113776D01*
X31974811Y-49848400D01*
X31973188Y-49543959D01*
X31965207Y-48014667D01*
X32898834Y-48014667D01*
X32899147Y-49459292D01*
G37*
X40349500Y-54428167D02*
X39460500Y-54428167D01*
X39460500Y-53295750D01*
X39460463Y-53187391D01*
X39460173Y-52979018D01*
X39459620Y-52785858D01*
X39458831Y-52611785D01*
X39457834Y-52460674D01*
X39456657Y-52336399D01*
X39455329Y-52242834D01*
X39453877Y-52183854D01*
X39452329Y-52163334D01*
X39451540Y-52163510D01*
X39427621Y-52176897D01*
X39379225Y-52207387D01*
X39315773Y-52249066D01*
X39287228Y-52267635D01*
X39073734Y-52378465D01*
X38839773Y-52453184D01*
X38584462Y-52492008D01*
X38306917Y-52495152D01*
X38090146Y-52474005D01*
X37825889Y-52416057D01*
X37583206Y-52323382D01*
X37358737Y-52200447D01*
X37148191Y-52045655D01*
X36965624Y-51864219D01*
X36809483Y-51654030D01*
X36678213Y-51412977D01*
X36570261Y-51138948D01*
X36484075Y-50829834D01*
X36476863Y-50793137D01*
X36463226Y-50688105D01*
X36452201Y-50554446D01*
X36444027Y-50401458D01*
X36438944Y-50238436D01*
X36438692Y-50214900D01*
X37381842Y-50214900D01*
X37391221Y-50430223D01*
X37413957Y-50630840D01*
X37449936Y-50803980D01*
X37494387Y-50942302D01*
X37588394Y-51146216D01*
X37707054Y-51320381D01*
X37848321Y-51462485D01*
X38010152Y-51570216D01*
X38190500Y-51641262D01*
X38323591Y-51669587D01*
X38542317Y-51682451D01*
X38761116Y-51655598D01*
X38975246Y-51590204D01*
X39179968Y-51487445D01*
X39370542Y-51348497D01*
X39460500Y-51271035D01*
X39460500Y-49211374D01*
X39321664Y-49078549D01*
X39187697Y-48968071D01*
X39006765Y-48858458D01*
X38813164Y-48777516D01*
X38619057Y-48731257D01*
X38444442Y-48719085D01*
X38240809Y-48739390D01*
X38053293Y-48797248D01*
X37884231Y-48890959D01*
X37735959Y-49018820D01*
X37610813Y-49179131D01*
X37511130Y-49370191D01*
X37439246Y-49590299D01*
X37434964Y-49608385D01*
X37403601Y-49791212D01*
X37385931Y-49997640D01*
X37381842Y-50214900D01*
X36438692Y-50214900D01*
X36437189Y-50074677D01*
X36439003Y-49919478D01*
X36444625Y-49782133D01*
X36454293Y-49671940D01*
X36501539Y-49403003D01*
X36585162Y-49117845D01*
X36699034Y-48859009D01*
X36841905Y-48627945D01*
X37012526Y-48426101D01*
X37209649Y-48254925D01*
X37432023Y-48115867D01*
X37678401Y-48010376D01*
X37947532Y-47939901D01*
X38089407Y-47920643D01*
X38252942Y-47911215D01*
X38422243Y-47911979D01*
X38585502Y-47922521D01*
X38730912Y-47942431D01*
X38846667Y-47971295D01*
X38953619Y-48010559D01*
X39186829Y-48118945D01*
X39386756Y-48247757D01*
X39407318Y-48263084D01*
X39467816Y-48305173D01*
X39511888Y-48331270D01*
X39531148Y-48336236D01*
X39531977Y-48334504D01*
X39543156Y-48302956D01*
X39562086Y-48243766D01*
X39585168Y-48168125D01*
X39631052Y-48014667D01*
X40349500Y-48014667D01*
X40349500Y-49211374D01*
X40349500Y-54428167D01*
G36*
X40349500Y-54428167D02*
G01*
X39460500Y-54428167D01*
X39460500Y-53295750D01*
X39460463Y-53187391D01*
X39460173Y-52979018D01*
X39459620Y-52785858D01*
X39458831Y-52611785D01*
X39457834Y-52460674D01*
X39456657Y-52336399D01*
X39455329Y-52242834D01*
X39453877Y-52183854D01*
X39452329Y-52163334D01*
X39451540Y-52163510D01*
X39427621Y-52176897D01*
X39379225Y-52207387D01*
X39315773Y-52249066D01*
X39287228Y-52267635D01*
X39073734Y-52378465D01*
X38839773Y-52453184D01*
X38584462Y-52492008D01*
X38306917Y-52495152D01*
X38090146Y-52474005D01*
X37825889Y-52416057D01*
X37583206Y-52323382D01*
X37358737Y-52200447D01*
X37148191Y-52045655D01*
X36965624Y-51864219D01*
X36809483Y-51654030D01*
X36678213Y-51412977D01*
X36570261Y-51138948D01*
X36484075Y-50829834D01*
X36476863Y-50793137D01*
X36463226Y-50688105D01*
X36452201Y-50554446D01*
X36444027Y-50401458D01*
X36438944Y-50238436D01*
X36438692Y-50214900D01*
X37381842Y-50214900D01*
X37391221Y-50430223D01*
X37413957Y-50630840D01*
X37449936Y-50803980D01*
X37494387Y-50942302D01*
X37588394Y-51146216D01*
X37707054Y-51320381D01*
X37848321Y-51462485D01*
X38010152Y-51570216D01*
X38190500Y-51641262D01*
X38323591Y-51669587D01*
X38542317Y-51682451D01*
X38761116Y-51655598D01*
X38975246Y-51590204D01*
X39179968Y-51487445D01*
X39370542Y-51348497D01*
X39460500Y-51271035D01*
X39460500Y-49211374D01*
X39321664Y-49078549D01*
X39187697Y-48968071D01*
X39006765Y-48858458D01*
X38813164Y-48777516D01*
X38619057Y-48731257D01*
X38444442Y-48719085D01*
X38240809Y-48739390D01*
X38053293Y-48797248D01*
X37884231Y-48890959D01*
X37735959Y-49018820D01*
X37610813Y-49179131D01*
X37511130Y-49370191D01*
X37439246Y-49590299D01*
X37434964Y-49608385D01*
X37403601Y-49791212D01*
X37385931Y-49997640D01*
X37381842Y-50214900D01*
X36438692Y-50214900D01*
X36437189Y-50074677D01*
X36439003Y-49919478D01*
X36444625Y-49782133D01*
X36454293Y-49671940D01*
X36501539Y-49403003D01*
X36585162Y-49117845D01*
X36699034Y-48859009D01*
X36841905Y-48627945D01*
X37012526Y-48426101D01*
X37209649Y-48254925D01*
X37432023Y-48115867D01*
X37678401Y-48010376D01*
X37947532Y-47939901D01*
X38089407Y-47920643D01*
X38252942Y-47911215D01*
X38422243Y-47911979D01*
X38585502Y-47922521D01*
X38730912Y-47942431D01*
X38846667Y-47971295D01*
X38953619Y-48010559D01*
X39186829Y-48118945D01*
X39386756Y-48247757D01*
X39407318Y-48263084D01*
X39467816Y-48305173D01*
X39511888Y-48331270D01*
X39531148Y-48336236D01*
X39531977Y-48334504D01*
X39543156Y-48302956D01*
X39562086Y-48243766D01*
X39585168Y-48168125D01*
X39631052Y-48014667D01*
X40349500Y-48014667D01*
X40349500Y-49211374D01*
X40349500Y-54428167D01*
G37*
X45769802Y-47910763D02*
X46011897Y-47933249D01*
X46230715Y-47983993D01*
X46434692Y-48066106D01*
X46632266Y-48182696D01*
X46831872Y-48336874D01*
X46834382Y-48339022D01*
X46897419Y-48391784D01*
X46936737Y-48415128D01*
X46960720Y-48406113D01*
X46977754Y-48361801D01*
X46996226Y-48279250D01*
X47002928Y-48248621D01*
X47022323Y-48164730D01*
X47039929Y-48094042D01*
X47060966Y-48014667D01*
X47800167Y-48014667D01*
X47800167Y-52396167D01*
X46890000Y-52396167D01*
X46890000Y-49377570D01*
X46775089Y-49238257D01*
X46658029Y-49109181D01*
X46480964Y-48956144D01*
X46294314Y-48840402D01*
X46100727Y-48762932D01*
X45902850Y-48724708D01*
X45703332Y-48726707D01*
X45504819Y-48769906D01*
X45416223Y-48811187D01*
X45310212Y-48893908D01*
X45220578Y-49001336D01*
X45157014Y-49123612D01*
X45156366Y-49125349D01*
X45140225Y-49173085D01*
X45126195Y-49225625D01*
X45114131Y-49286097D01*
X45103891Y-49357627D01*
X45095329Y-49443343D01*
X45088304Y-49546372D01*
X45082669Y-49669842D01*
X45078283Y-49816880D01*
X45075000Y-49990613D01*
X45072678Y-50194168D01*
X45071172Y-50430673D01*
X45070339Y-50703255D01*
X45070034Y-51015042D01*
X45069667Y-52396167D01*
X44159500Y-52396167D01*
X44159500Y-49351680D01*
X43995459Y-49176946D01*
X43943204Y-49122832D01*
X43776661Y-48972808D01*
X43611357Y-48860744D01*
X43441762Y-48783948D01*
X43262346Y-48739729D01*
X43067576Y-48725396D01*
X43013072Y-48725643D01*
X42931378Y-48729247D01*
X42868303Y-48739676D01*
X42808231Y-48760151D01*
X42735543Y-48793895D01*
X42655314Y-48839274D01*
X42560163Y-48918390D01*
X42483936Y-49021068D01*
X42418462Y-49156654D01*
X42370917Y-49274084D01*
X42364973Y-50835125D01*
X42359030Y-52396167D01*
X41426394Y-52396167D01*
X41434702Y-50771625D01*
X41435223Y-50669059D01*
X41436768Y-50368028D01*
X41438321Y-50105210D01*
X41440127Y-49877469D01*
X41442434Y-49681667D01*
X41445488Y-49514666D01*
X41449534Y-49373331D01*
X41454820Y-49254525D01*
X41461591Y-49155109D01*
X41470093Y-49071947D01*
X41480574Y-49001902D01*
X41493278Y-48941838D01*
X41508453Y-48888616D01*
X41526345Y-48839100D01*
X41547199Y-48790153D01*
X41571263Y-48738637D01*
X41598782Y-48681417D01*
X41716184Y-48477635D01*
X41861705Y-48301573D01*
X42032250Y-48159593D01*
X42116469Y-48106049D01*
X42296880Y-48017108D01*
X42491561Y-47956039D01*
X42707828Y-47920855D01*
X42953000Y-47909569D01*
X42957216Y-47909571D01*
X43200784Y-47921447D01*
X43419103Y-47958417D01*
X43619667Y-48023568D01*
X43809970Y-48119987D01*
X43997510Y-48250761D01*
X44189779Y-48418978D01*
X44402917Y-48622205D01*
X44477000Y-48506512D01*
X44486586Y-48492150D01*
X44543903Y-48417832D01*
X44617021Y-48335113D01*
X44692525Y-48259373D01*
X44718244Y-48235939D01*
X44878321Y-48111466D01*
X45046672Y-48019029D01*
X45230261Y-47956132D01*
X45436052Y-47920281D01*
X45671011Y-47908982D01*
X45769802Y-47910763D01*
G36*
X45769802Y-47910763D02*
G01*
X46011897Y-47933249D01*
X46230715Y-47983993D01*
X46434692Y-48066106D01*
X46632266Y-48182696D01*
X46831872Y-48336874D01*
X46834382Y-48339022D01*
X46897419Y-48391784D01*
X46936737Y-48415128D01*
X46960720Y-48406113D01*
X46977754Y-48361801D01*
X46996226Y-48279250D01*
X47002928Y-48248621D01*
X47022323Y-48164730D01*
X47039929Y-48094042D01*
X47060966Y-48014667D01*
X47800167Y-48014667D01*
X47800167Y-52396167D01*
X46890000Y-52396167D01*
X46890000Y-49377570D01*
X46775089Y-49238257D01*
X46658029Y-49109181D01*
X46480964Y-48956144D01*
X46294314Y-48840402D01*
X46100727Y-48762932D01*
X45902850Y-48724708D01*
X45703332Y-48726707D01*
X45504819Y-48769906D01*
X45416223Y-48811187D01*
X45310212Y-48893908D01*
X45220578Y-49001336D01*
X45157014Y-49123612D01*
X45156366Y-49125349D01*
X45140225Y-49173085D01*
X45126195Y-49225625D01*
X45114131Y-49286097D01*
X45103891Y-49357627D01*
X45095329Y-49443343D01*
X45088304Y-49546372D01*
X45082669Y-49669842D01*
X45078283Y-49816880D01*
X45075000Y-49990613D01*
X45072678Y-50194168D01*
X45071172Y-50430673D01*
X45070339Y-50703255D01*
X45070034Y-51015042D01*
X45069667Y-52396167D01*
X44159500Y-52396167D01*
X44159500Y-49351680D01*
X43995459Y-49176946D01*
X43943204Y-49122832D01*
X43776661Y-48972808D01*
X43611357Y-48860744D01*
X43441762Y-48783948D01*
X43262346Y-48739729D01*
X43067576Y-48725396D01*
X43013072Y-48725643D01*
X42931378Y-48729247D01*
X42868303Y-48739676D01*
X42808231Y-48760151D01*
X42735543Y-48793895D01*
X42655314Y-48839274D01*
X42560163Y-48918390D01*
X42483936Y-49021068D01*
X42418462Y-49156654D01*
X42370917Y-49274084D01*
X42364973Y-50835125D01*
X42359030Y-52396167D01*
X41426394Y-52396167D01*
X41434702Y-50771625D01*
X41435223Y-50669059D01*
X41436768Y-50368028D01*
X41438321Y-50105210D01*
X41440127Y-49877469D01*
X41442434Y-49681667D01*
X41445488Y-49514666D01*
X41449534Y-49373331D01*
X41454820Y-49254525D01*
X41461591Y-49155109D01*
X41470093Y-49071947D01*
X41480574Y-49001902D01*
X41493278Y-48941838D01*
X41508453Y-48888616D01*
X41526345Y-48839100D01*
X41547199Y-48790153D01*
X41571263Y-48738637D01*
X41598782Y-48681417D01*
X41716184Y-48477635D01*
X41861705Y-48301573D01*
X42032250Y-48159593D01*
X42116469Y-48106049D01*
X42296880Y-48017108D01*
X42491561Y-47956039D01*
X42707828Y-47920855D01*
X42953000Y-47909569D01*
X42957216Y-47909571D01*
X43200784Y-47921447D01*
X43419103Y-47958417D01*
X43619667Y-48023568D01*
X43809970Y-48119987D01*
X43997510Y-48250761D01*
X44189779Y-48418978D01*
X44402917Y-48622205D01*
X44477000Y-48506512D01*
X44486586Y-48492150D01*
X44543903Y-48417832D01*
X44617021Y-48335113D01*
X44692525Y-48259373D01*
X44718244Y-48235939D01*
X44878321Y-48111466D01*
X45046672Y-48019029D01*
X45230261Y-47956132D01*
X45436052Y-47920281D01*
X45671011Y-47908982D01*
X45769802Y-47910763D01*
G37*
X52807962Y-50569254D02*
X52753238Y-50898148D01*
X52702864Y-51088802D01*
X52598389Y-51359266D01*
X52461898Y-51606986D01*
X52295930Y-51829515D01*
X52103021Y-52024407D01*
X51885710Y-52189219D01*
X51646536Y-52321504D01*
X51388037Y-52418816D01*
X51112750Y-52478711D01*
X51056194Y-52485502D01*
X50912980Y-52495293D01*
X50752641Y-52498595D01*
X50589938Y-52495552D01*
X50439631Y-52486306D01*
X50316481Y-52471000D01*
X50071417Y-52413160D01*
X49807110Y-52312691D01*
X49565622Y-52177857D01*
X49348424Y-52010217D01*
X49156986Y-51811330D01*
X48992779Y-51582755D01*
X48857274Y-51326051D01*
X48751941Y-51042777D01*
X48678252Y-50734491D01*
X48668790Y-50672714D01*
X48654126Y-50520623D01*
X48645971Y-50345796D01*
X48644323Y-50161090D01*
X48644542Y-50152894D01*
X49589460Y-50152894D01*
X49592660Y-50355504D01*
X49609093Y-50547234D01*
X49638756Y-50713417D01*
X49682902Y-50865567D01*
X49773742Y-51080873D01*
X49889473Y-51266785D01*
X50028150Y-51421278D01*
X50187828Y-51542327D01*
X50366565Y-51627906D01*
X50562417Y-51675988D01*
X50668853Y-51687659D01*
X50808988Y-51688423D01*
X50946074Y-51668032D01*
X51098815Y-51624697D01*
X51170683Y-51597283D01*
X51337378Y-51503094D01*
X51484907Y-51374626D01*
X51611656Y-51215111D01*
X51716011Y-51027785D01*
X51796357Y-50815882D01*
X51851080Y-50582636D01*
X51878566Y-50331283D01*
X51877201Y-50065056D01*
X51850874Y-49828201D01*
X51794680Y-49584977D01*
X51711889Y-49367531D01*
X51604144Y-49177830D01*
X51473090Y-49017843D01*
X51320371Y-48889536D01*
X51147631Y-48794880D01*
X50956515Y-48735841D01*
X50748667Y-48714387D01*
X50648903Y-48717591D01*
X50443588Y-48752722D01*
X50255856Y-48825238D01*
X50087360Y-48933678D01*
X49939751Y-49076579D01*
X49814679Y-49252477D01*
X49713797Y-49459911D01*
X49638756Y-49697417D01*
X49622754Y-49773696D01*
X49599491Y-49954070D01*
X49589460Y-50152894D01*
X48644542Y-50152894D01*
X48649179Y-49979360D01*
X48660539Y-49813461D01*
X48678400Y-49676250D01*
X48688913Y-49620200D01*
X48768264Y-49310291D01*
X48878191Y-49028230D01*
X49017966Y-48774869D01*
X49186861Y-48551058D01*
X49384148Y-48357649D01*
X49609100Y-48195492D01*
X49860988Y-48065440D01*
X50139084Y-47968342D01*
X50172706Y-47959356D01*
X50234829Y-47945135D01*
X50298498Y-47934942D01*
X50371869Y-47928134D01*
X50463097Y-47924068D01*
X50580339Y-47922100D01*
X50731750Y-47921587D01*
X50813074Y-47921705D01*
X50946223Y-47922875D01*
X51049327Y-47925827D01*
X51130541Y-47931203D01*
X51198023Y-47939647D01*
X51259930Y-47951802D01*
X51324417Y-47968310D01*
X51392578Y-47989000D01*
X51574042Y-48059237D01*
X51758117Y-48149364D01*
X51929866Y-48251616D01*
X52074355Y-48358229D01*
X52107744Y-48387134D01*
X52296959Y-48582752D01*
X52459039Y-48807588D01*
X52593025Y-49058055D01*
X52697956Y-49330564D01*
X52772875Y-49621527D01*
X52816821Y-49927355D01*
X52828837Y-50244460D01*
X52823256Y-50331283D01*
X52807962Y-50569254D01*
G36*
X52807962Y-50569254D02*
G01*
X52753238Y-50898148D01*
X52702864Y-51088802D01*
X52598389Y-51359266D01*
X52461898Y-51606986D01*
X52295930Y-51829515D01*
X52103021Y-52024407D01*
X51885710Y-52189219D01*
X51646536Y-52321504D01*
X51388037Y-52418816D01*
X51112750Y-52478711D01*
X51056194Y-52485502D01*
X50912980Y-52495293D01*
X50752641Y-52498595D01*
X50589938Y-52495552D01*
X50439631Y-52486306D01*
X50316481Y-52471000D01*
X50071417Y-52413160D01*
X49807110Y-52312691D01*
X49565622Y-52177857D01*
X49348424Y-52010217D01*
X49156986Y-51811330D01*
X48992779Y-51582755D01*
X48857274Y-51326051D01*
X48751941Y-51042777D01*
X48678252Y-50734491D01*
X48668790Y-50672714D01*
X48654126Y-50520623D01*
X48645971Y-50345796D01*
X48644323Y-50161090D01*
X48644542Y-50152894D01*
X49589460Y-50152894D01*
X49592660Y-50355504D01*
X49609093Y-50547234D01*
X49638756Y-50713417D01*
X49682902Y-50865567D01*
X49773742Y-51080873D01*
X49889473Y-51266785D01*
X50028150Y-51421278D01*
X50187828Y-51542327D01*
X50366565Y-51627906D01*
X50562417Y-51675988D01*
X50668853Y-51687659D01*
X50808988Y-51688423D01*
X50946074Y-51668032D01*
X51098815Y-51624697D01*
X51170683Y-51597283D01*
X51337378Y-51503094D01*
X51484907Y-51374626D01*
X51611656Y-51215111D01*
X51716011Y-51027785D01*
X51796357Y-50815882D01*
X51851080Y-50582636D01*
X51878566Y-50331283D01*
X51877201Y-50065056D01*
X51850874Y-49828201D01*
X51794680Y-49584977D01*
X51711889Y-49367531D01*
X51604144Y-49177830D01*
X51473090Y-49017843D01*
X51320371Y-48889536D01*
X51147631Y-48794880D01*
X50956515Y-48735841D01*
X50748667Y-48714387D01*
X50648903Y-48717591D01*
X50443588Y-48752722D01*
X50255856Y-48825238D01*
X50087360Y-48933678D01*
X49939751Y-49076579D01*
X49814679Y-49252477D01*
X49713797Y-49459911D01*
X49638756Y-49697417D01*
X49622754Y-49773696D01*
X49599491Y-49954070D01*
X49589460Y-50152894D01*
X48644542Y-50152894D01*
X48649179Y-49979360D01*
X48660539Y-49813461D01*
X48678400Y-49676250D01*
X48688913Y-49620200D01*
X48768264Y-49310291D01*
X48878191Y-49028230D01*
X49017966Y-48774869D01*
X49186861Y-48551058D01*
X49384148Y-48357649D01*
X49609100Y-48195492D01*
X49860988Y-48065440D01*
X50139084Y-47968342D01*
X50172706Y-47959356D01*
X50234829Y-47945135D01*
X50298498Y-47934942D01*
X50371869Y-47928134D01*
X50463097Y-47924068D01*
X50580339Y-47922100D01*
X50731750Y-47921587D01*
X50813074Y-47921705D01*
X50946223Y-47922875D01*
X51049327Y-47925827D01*
X51130541Y-47931203D01*
X51198023Y-47939647D01*
X51259930Y-47951802D01*
X51324417Y-47968310D01*
X51392578Y-47989000D01*
X51574042Y-48059237D01*
X51758117Y-48149364D01*
X51929866Y-48251616D01*
X52074355Y-48358229D01*
X52107744Y-48387134D01*
X52296959Y-48582752D01*
X52459039Y-48807588D01*
X52593025Y-49058055D01*
X52697956Y-49330564D01*
X52772875Y-49621527D01*
X52816821Y-49927355D01*
X52828837Y-50244460D01*
X52823256Y-50331283D01*
X52807962Y-50569254D01*
G37*
X25107049Y-49766479D02*
X25123342Y-49946541D01*
X25132593Y-50141097D01*
X25134159Y-50337678D01*
X25127396Y-50523813D01*
X25126819Y-50532781D01*
X25088356Y-50854856D01*
X25017426Y-51150094D01*
X24914538Y-51417939D01*
X24780198Y-51657834D01*
X24614914Y-51869225D01*
X24419193Y-52051556D01*
X24193542Y-52204272D01*
X23938468Y-52326816D01*
X23654480Y-52418632D01*
X23342084Y-52479167D01*
X23318670Y-52482009D01*
X23209620Y-52489819D01*
X23071826Y-52493719D01*
X22915436Y-52493972D01*
X22750596Y-52490843D01*
X22587453Y-52484594D01*
X22436152Y-52475490D01*
X22306842Y-52463793D01*
X22209667Y-52449767D01*
X22174827Y-52442828D01*
X21968118Y-52394592D01*
X21780354Y-52338753D01*
X21623226Y-52278721D01*
X21615670Y-52275353D01*
X21552012Y-52242607D01*
X21519930Y-52213400D01*
X21511034Y-52180373D01*
X21511045Y-52178579D01*
X21513532Y-52136620D01*
X21519711Y-52064372D01*
X21528625Y-51970888D01*
X21539318Y-51865224D01*
X21550832Y-51756435D01*
X21562211Y-51653575D01*
X21572499Y-51565698D01*
X21580738Y-51501860D01*
X21585972Y-51471114D01*
X21590415Y-51465748D01*
X21621075Y-51463983D01*
X21683047Y-51478070D01*
X21779998Y-51508722D01*
X21873994Y-51539568D01*
X22047851Y-51589557D01*
X22211410Y-51624850D01*
X22377699Y-51647471D01*
X22559747Y-51659449D01*
X22770584Y-51662809D01*
X22893715Y-51662182D01*
X23012284Y-51659750D01*
X23104888Y-51654777D01*
X23180506Y-51646513D01*
X23248115Y-51634206D01*
X23316694Y-51617104D01*
X23459588Y-51570658D01*
X23662785Y-51473369D01*
X23834991Y-51348028D01*
X23975507Y-51195184D01*
X24083634Y-51015386D01*
X24110844Y-50952842D01*
X24152368Y-50837040D01*
X24187037Y-50716373D01*
X24210932Y-50605136D01*
X24220133Y-50517625D01*
X24220500Y-50470000D01*
X21341834Y-50470000D01*
X21341834Y-50172833D01*
X21341850Y-50159072D01*
X21354169Y-49807484D01*
X21372466Y-49644500D01*
X22295392Y-49644500D01*
X24174335Y-49644500D01*
X24145063Y-49533535D01*
X24113412Y-49432583D01*
X24029032Y-49252326D01*
X23918035Y-49094355D01*
X23784927Y-48961042D01*
X23634215Y-48854761D01*
X23470407Y-48777885D01*
X23298009Y-48732785D01*
X23121527Y-48721835D01*
X22945470Y-48747408D01*
X22774342Y-48811875D01*
X22648465Y-48892540D01*
X22529414Y-49012854D01*
X22433483Y-49165841D01*
X22359773Y-49352969D01*
X22307386Y-49575709D01*
X22295392Y-49644500D01*
X21372466Y-49644500D01*
X21389853Y-49489628D01*
X21449529Y-49203581D01*
X21533826Y-48947424D01*
X21643369Y-48719235D01*
X21778787Y-48517092D01*
X21940707Y-48339076D01*
X22009349Y-48276661D01*
X22164481Y-48157870D01*
X22328107Y-48065781D01*
X22511103Y-47994849D01*
X22724343Y-47939529D01*
X22801674Y-47926721D01*
X22941982Y-47914298D01*
X23100070Y-47909710D01*
X23261714Y-47912907D01*
X23412688Y-47923838D01*
X23538768Y-47942451D01*
X23648044Y-47968244D01*
X23911072Y-48059422D01*
X24153723Y-48186271D01*
X24374164Y-48346831D01*
X24570561Y-48539146D01*
X24741082Y-48761259D01*
X24883892Y-49011213D01*
X24997159Y-49287051D01*
X25079050Y-49586815D01*
X25084359Y-49613384D01*
X25088971Y-49644500D01*
X25107049Y-49766479D01*
G36*
X25107049Y-49766479D02*
G01*
X25123342Y-49946541D01*
X25132593Y-50141097D01*
X25134159Y-50337678D01*
X25127396Y-50523813D01*
X25126819Y-50532781D01*
X25088356Y-50854856D01*
X25017426Y-51150094D01*
X24914538Y-51417939D01*
X24780198Y-51657834D01*
X24614914Y-51869225D01*
X24419193Y-52051556D01*
X24193542Y-52204272D01*
X23938468Y-52326816D01*
X23654480Y-52418632D01*
X23342084Y-52479167D01*
X23318670Y-52482009D01*
X23209620Y-52489819D01*
X23071826Y-52493719D01*
X22915436Y-52493972D01*
X22750596Y-52490843D01*
X22587453Y-52484594D01*
X22436152Y-52475490D01*
X22306842Y-52463793D01*
X22209667Y-52449767D01*
X22174827Y-52442828D01*
X21968118Y-52394592D01*
X21780354Y-52338753D01*
X21623226Y-52278721D01*
X21615670Y-52275353D01*
X21552012Y-52242607D01*
X21519930Y-52213400D01*
X21511034Y-52180373D01*
X21511045Y-52178579D01*
X21513532Y-52136620D01*
X21519711Y-52064372D01*
X21528625Y-51970888D01*
X21539318Y-51865224D01*
X21550832Y-51756435D01*
X21562211Y-51653575D01*
X21572499Y-51565698D01*
X21580738Y-51501860D01*
X21585972Y-51471114D01*
X21590415Y-51465748D01*
X21621075Y-51463983D01*
X21683047Y-51478070D01*
X21779998Y-51508722D01*
X21873994Y-51539568D01*
X22047851Y-51589557D01*
X22211410Y-51624850D01*
X22377699Y-51647471D01*
X22559747Y-51659449D01*
X22770584Y-51662809D01*
X22893715Y-51662182D01*
X23012284Y-51659750D01*
X23104888Y-51654777D01*
X23180506Y-51646513D01*
X23248115Y-51634206D01*
X23316694Y-51617104D01*
X23459588Y-51570658D01*
X23662785Y-51473369D01*
X23834991Y-51348028D01*
X23975507Y-51195184D01*
X24083634Y-51015386D01*
X24110844Y-50952842D01*
X24152368Y-50837040D01*
X24187037Y-50716373D01*
X24210932Y-50605136D01*
X24220133Y-50517625D01*
X24220500Y-50470000D01*
X21341834Y-50470000D01*
X21341834Y-50172833D01*
X21341850Y-50159072D01*
X21354169Y-49807484D01*
X21372466Y-49644500D01*
X22295392Y-49644500D01*
X24174335Y-49644500D01*
X24145063Y-49533535D01*
X24113412Y-49432583D01*
X24029032Y-49252326D01*
X23918035Y-49094355D01*
X23784927Y-48961042D01*
X23634215Y-48854761D01*
X23470407Y-48777885D01*
X23298009Y-48732785D01*
X23121527Y-48721835D01*
X22945470Y-48747408D01*
X22774342Y-48811875D01*
X22648465Y-48892540D01*
X22529414Y-49012854D01*
X22433483Y-49165841D01*
X22359773Y-49352969D01*
X22307386Y-49575709D01*
X22295392Y-49644500D01*
X21372466Y-49644500D01*
X21389853Y-49489628D01*
X21449529Y-49203581D01*
X21533826Y-48947424D01*
X21643369Y-48719235D01*
X21778787Y-48517092D01*
X21940707Y-48339076D01*
X22009349Y-48276661D01*
X22164481Y-48157870D01*
X22328107Y-48065781D01*
X22511103Y-47994849D01*
X22724343Y-47939529D01*
X22801674Y-47926721D01*
X22941982Y-47914298D01*
X23100070Y-47909710D01*
X23261714Y-47912907D01*
X23412688Y-47923838D01*
X23538768Y-47942451D01*
X23648044Y-47968244D01*
X23911072Y-48059422D01*
X24153723Y-48186271D01*
X24374164Y-48346831D01*
X24570561Y-48539146D01*
X24741082Y-48761259D01*
X24883892Y-49011213D01*
X24997159Y-49287051D01*
X25079050Y-49586815D01*
X25084359Y-49613384D01*
X25088971Y-49644500D01*
X25107049Y-49766479D01*
G37*
X54971359Y-46226961D02*
X55122116Y-46228041D01*
X55242179Y-46230310D01*
X55338497Y-46234196D01*
X55418016Y-46240126D01*
X55487681Y-46248526D01*
X55554440Y-46259825D01*
X55625238Y-46274449D01*
X55969295Y-46367767D01*
X56302298Y-46497530D01*
X56608527Y-46659729D01*
X56887233Y-46853600D01*
X57137667Y-47078378D01*
X57359080Y-47333297D01*
X57550723Y-47617593D01*
X57711847Y-47930499D01*
X57841704Y-48271251D01*
X57939543Y-48639084D01*
X57959230Y-48753720D01*
X57977573Y-48917439D01*
X57990813Y-49104198D01*
X57998711Y-49303767D01*
X58001026Y-49505912D01*
X57997518Y-49700404D01*
X57987948Y-49877011D01*
X57972074Y-50025500D01*
X57951442Y-50156298D01*
X57905377Y-50386209D01*
X57849012Y-50593006D01*
X57779197Y-50789154D01*
X57640883Y-51087063D01*
X57468121Y-51365961D01*
X57265407Y-51615171D01*
X57033119Y-51834422D01*
X56771636Y-52023439D01*
X56481338Y-52181952D01*
X56162602Y-52309687D01*
X55815808Y-52406372D01*
X55441334Y-52471734D01*
X55395088Y-52477018D01*
X55232058Y-52488837D01*
X55043056Y-52494597D01*
X54839424Y-52494555D01*
X54632508Y-52488967D01*
X54433652Y-52478091D01*
X54254198Y-52462182D01*
X54105492Y-52441499D01*
X54053467Y-52431649D01*
X53944513Y-52408015D01*
X53829861Y-52379988D01*
X53717354Y-52349814D01*
X53614831Y-52319739D01*
X53530134Y-52292006D01*
X53471103Y-52268862D01*
X53445580Y-52252552D01*
X53444551Y-52245019D01*
X53445434Y-52202117D01*
X53449860Y-52129223D01*
X53457079Y-52034361D01*
X53466340Y-51925552D01*
X53476891Y-51810818D01*
X53487980Y-51698183D01*
X53498857Y-51595669D01*
X53508771Y-51511299D01*
X53516969Y-51453094D01*
X53522700Y-51429078D01*
X53537423Y-51426903D01*
X53583395Y-51433936D01*
X53646979Y-51450737D01*
X53749374Y-51478708D01*
X53895507Y-51511899D01*
X54061419Y-51544377D01*
X54235162Y-51573977D01*
X54404787Y-51598534D01*
X54558344Y-51615881D01*
X54637891Y-51622118D01*
X54929198Y-51627176D01*
X55217140Y-51605526D01*
X55494897Y-51558564D01*
X55755652Y-51487688D01*
X55992585Y-51394294D01*
X56198879Y-51279779D01*
X56355382Y-51165145D01*
X56547016Y-50984446D01*
X56707461Y-50778733D01*
X56837504Y-50546533D01*
X56937929Y-50286369D01*
X57009524Y-49996767D01*
X57053072Y-49676251D01*
X57057396Y-49622456D01*
X57064274Y-49290675D01*
X57036986Y-48970933D01*
X56976562Y-48666516D01*
X56884031Y-48380711D01*
X56760423Y-48116805D01*
X56606766Y-47878085D01*
X56424090Y-47667838D01*
X56310719Y-47564694D01*
X56083855Y-47401614D01*
X55830831Y-47269060D01*
X55555425Y-47168868D01*
X55261417Y-47102875D01*
X55167295Y-47091135D01*
X55003661Y-47080628D01*
X54822015Y-47077931D01*
X54636347Y-47082867D01*
X54460651Y-47095259D01*
X54308917Y-47114929D01*
X54226165Y-47131066D01*
X54098179Y-47160359D01*
X53962670Y-47195125D01*
X53837959Y-47230854D01*
X53821036Y-47236013D01*
X53726295Y-47263727D01*
X53649300Y-47284310D01*
X53597581Y-47295858D01*
X53578667Y-47296465D01*
X53578639Y-47295691D01*
X53576113Y-47266931D01*
X53569955Y-47203489D01*
X53560832Y-47112037D01*
X53549407Y-46999248D01*
X53536347Y-46871793D01*
X53534822Y-46856877D01*
X53522859Y-46730636D01*
X53513969Y-46619662D01*
X53508567Y-46530656D01*
X53507068Y-46470317D01*
X53509889Y-46445345D01*
X53510077Y-46445162D01*
X53542421Y-46427807D01*
X53606809Y-46403056D01*
X53694322Y-46373657D01*
X53796041Y-46342356D01*
X53903048Y-46311898D01*
X54006424Y-46285029D01*
X54097250Y-46264496D01*
X54150454Y-46254651D01*
X54221866Y-46244532D01*
X54302410Y-46237042D01*
X54398724Y-46231847D01*
X54517446Y-46228612D01*
X54665214Y-46227004D01*
X54848667Y-46226688D01*
X54971359Y-46226961D01*
G36*
X54971359Y-46226961D02*
G01*
X55122116Y-46228041D01*
X55242179Y-46230310D01*
X55338497Y-46234196D01*
X55418016Y-46240126D01*
X55487681Y-46248526D01*
X55554440Y-46259825D01*
X55625238Y-46274449D01*
X55969295Y-46367767D01*
X56302298Y-46497530D01*
X56608527Y-46659729D01*
X56887233Y-46853600D01*
X57137667Y-47078378D01*
X57359080Y-47333297D01*
X57550723Y-47617593D01*
X57711847Y-47930499D01*
X57841704Y-48271251D01*
X57939543Y-48639084D01*
X57959230Y-48753720D01*
X57977573Y-48917439D01*
X57990813Y-49104198D01*
X57998711Y-49303767D01*
X58001026Y-49505912D01*
X57997518Y-49700404D01*
X57987948Y-49877011D01*
X57972074Y-50025500D01*
X57951442Y-50156298D01*
X57905377Y-50386209D01*
X57849012Y-50593006D01*
X57779197Y-50789154D01*
X57640883Y-51087063D01*
X57468121Y-51365961D01*
X57265407Y-51615171D01*
X57033119Y-51834422D01*
X56771636Y-52023439D01*
X56481338Y-52181952D01*
X56162602Y-52309687D01*
X55815808Y-52406372D01*
X55441334Y-52471734D01*
X55395088Y-52477018D01*
X55232058Y-52488837D01*
X55043056Y-52494597D01*
X54839424Y-52494555D01*
X54632508Y-52488967D01*
X54433652Y-52478091D01*
X54254198Y-52462182D01*
X54105492Y-52441499D01*
X54053467Y-52431649D01*
X53944513Y-52408015D01*
X53829861Y-52379988D01*
X53717354Y-52349814D01*
X53614831Y-52319739D01*
X53530134Y-52292006D01*
X53471103Y-52268862D01*
X53445580Y-52252552D01*
X53444551Y-52245019D01*
X53445434Y-52202117D01*
X53449860Y-52129223D01*
X53457079Y-52034361D01*
X53466340Y-51925552D01*
X53476891Y-51810818D01*
X53487980Y-51698183D01*
X53498857Y-51595669D01*
X53508771Y-51511299D01*
X53516969Y-51453094D01*
X53522700Y-51429078D01*
X53537423Y-51426903D01*
X53583395Y-51433936D01*
X53646979Y-51450737D01*
X53749374Y-51478708D01*
X53895507Y-51511899D01*
X54061419Y-51544377D01*
X54235162Y-51573977D01*
X54404787Y-51598534D01*
X54558344Y-51615881D01*
X54637891Y-51622118D01*
X54929198Y-51627176D01*
X55217140Y-51605526D01*
X55494897Y-51558564D01*
X55755652Y-51487688D01*
X55992585Y-51394294D01*
X56198879Y-51279779D01*
X56355382Y-51165145D01*
X56547016Y-50984446D01*
X56707461Y-50778733D01*
X56837504Y-50546533D01*
X56937929Y-50286369D01*
X57009524Y-49996767D01*
X57053072Y-49676251D01*
X57057396Y-49622456D01*
X57064274Y-49290675D01*
X57036986Y-48970933D01*
X56976562Y-48666516D01*
X56884031Y-48380711D01*
X56760423Y-48116805D01*
X56606766Y-47878085D01*
X56424090Y-47667838D01*
X56310719Y-47564694D01*
X56083855Y-47401614D01*
X55830831Y-47269060D01*
X55555425Y-47168868D01*
X55261417Y-47102875D01*
X55167295Y-47091135D01*
X55003661Y-47080628D01*
X54822015Y-47077931D01*
X54636347Y-47082867D01*
X54460651Y-47095259D01*
X54308917Y-47114929D01*
X54226165Y-47131066D01*
X54098179Y-47160359D01*
X53962670Y-47195125D01*
X53837959Y-47230854D01*
X53821036Y-47236013D01*
X53726295Y-47263727D01*
X53649300Y-47284310D01*
X53597581Y-47295858D01*
X53578667Y-47296465D01*
X53578639Y-47295691D01*
X53576113Y-47266931D01*
X53569955Y-47203489D01*
X53560832Y-47112037D01*
X53549407Y-46999248D01*
X53536347Y-46871793D01*
X53534822Y-46856877D01*
X53522859Y-46730636D01*
X53513969Y-46619662D01*
X53508567Y-46530656D01*
X53507068Y-46470317D01*
X53509889Y-46445345D01*
X53510077Y-46445162D01*
X53542421Y-46427807D01*
X53606809Y-46403056D01*
X53694322Y-46373657D01*
X53796041Y-46342356D01*
X53903048Y-46311898D01*
X54006424Y-46285029D01*
X54097250Y-46264496D01*
X54150454Y-46254651D01*
X54221866Y-46244532D01*
X54302410Y-46237042D01*
X54398724Y-46231847D01*
X54517446Y-46228612D01*
X54665214Y-46227004D01*
X54848667Y-46226688D01*
X54971359Y-46226961D01*
G37*
X37985121Y-18004591D02*
X38276035Y-18009389D01*
X38542692Y-18018394D01*
X38790800Y-18031974D01*
X39026064Y-18050500D01*
X39254194Y-18074339D01*
X39480896Y-18103861D01*
X39711876Y-18139435D01*
X39952844Y-18181430D01*
X40536818Y-18300511D01*
X41290365Y-18491321D01*
X42030121Y-18721111D01*
X42754350Y-18989172D01*
X43461314Y-19294794D01*
X44149277Y-19637269D01*
X44816501Y-20015889D01*
X45461250Y-20429942D01*
X45801766Y-20669592D01*
X46407427Y-21135254D01*
X46984348Y-21631238D01*
X47531762Y-22156367D01*
X48048903Y-22709463D01*
X48535003Y-23289351D01*
X48989296Y-23894855D01*
X49411015Y-24524796D01*
X49799392Y-25177999D01*
X50153660Y-25853288D01*
X50473053Y-26549484D01*
X50756804Y-27265413D01*
X51004145Y-27999897D01*
X51214311Y-28751759D01*
X51386532Y-29519824D01*
X51401525Y-29597471D01*
X51427342Y-29738323D01*
X51450867Y-29875079D01*
X51469989Y-29995287D01*
X51482597Y-30086500D01*
X51485508Y-30111878D01*
X51500447Y-30276151D01*
X51513240Y-30475574D01*
X51523897Y-30704985D01*
X51532430Y-30959221D01*
X51538852Y-31233121D01*
X51543173Y-31521521D01*
X51545407Y-31819259D01*
X51545564Y-32121172D01*
X51543657Y-32422098D01*
X51539697Y-32716875D01*
X51533696Y-33000339D01*
X51525666Y-33267328D01*
X51515618Y-33512680D01*
X51503566Y-33731233D01*
X51489519Y-33917822D01*
X51473491Y-34067287D01*
X51439444Y-34295628D01*
X51377576Y-34632084D01*
X51299534Y-34992169D01*
X51207398Y-35367942D01*
X51103248Y-35751464D01*
X50989165Y-36134795D01*
X50867227Y-36509995D01*
X50739516Y-36869124D01*
X50665853Y-37063288D01*
X50588957Y-37257894D01*
X50509225Y-37450653D01*
X50423775Y-37648080D01*
X50329723Y-37856690D01*
X50224188Y-38082996D01*
X50104287Y-38333514D01*
X49967137Y-38614757D01*
X49942209Y-38665451D01*
X49862720Y-38826234D01*
X49789559Y-38972920D01*
X49724761Y-39101516D01*
X49670362Y-39208028D01*
X49628396Y-39288463D01*
X49600898Y-39338826D01*
X49589903Y-39355124D01*
X49589084Y-39352497D01*
X49585103Y-39318121D01*
X49579447Y-39248383D01*
X49572473Y-39148593D01*
X49564540Y-39024064D01*
X49556006Y-38880107D01*
X49547228Y-38722034D01*
X49543947Y-38661621D01*
X49521180Y-38277380D01*
X49496730Y-37930264D01*
X49469805Y-37615743D01*
X49439616Y-37329288D01*
X49405372Y-37066369D01*
X49366282Y-36822456D01*
X49321556Y-36593021D01*
X49270404Y-36373533D01*
X49212035Y-36159463D01*
X49145658Y-35946282D01*
X49070484Y-35729459D01*
X48985721Y-35504465D01*
X48957873Y-35432279D01*
X48877226Y-35212244D01*
X48814399Y-35020030D01*
X48767375Y-34848513D01*
X48734141Y-34690568D01*
X48712681Y-34539071D01*
X48699159Y-34442245D01*
X48676740Y-34339536D01*
X48643787Y-34232527D01*
X48597835Y-34114953D01*
X48536417Y-33980547D01*
X48457067Y-33823045D01*
X48357319Y-33636180D01*
X48329296Y-33584633D01*
X48218192Y-33379240D01*
X48125816Y-33205852D01*
X48050566Y-33060455D01*
X47990836Y-32939036D01*
X47945025Y-32837583D01*
X47911527Y-32752083D01*
X47888738Y-32678523D01*
X47875056Y-32612890D01*
X47868875Y-32551172D01*
X47868593Y-32489355D01*
X47872605Y-32423427D01*
X47876230Y-32374470D01*
X47878076Y-32300383D01*
X47870663Y-32238713D01*
X47850375Y-32180513D01*
X47813596Y-32116836D01*
X47756708Y-32038734D01*
X47676096Y-31937259D01*
X47649619Y-31903651D01*
X47569060Y-31794546D01*
X47487528Y-31676034D01*
X47419167Y-31568418D01*
X47390545Y-31522158D01*
X47322232Y-31420264D01*
X47251375Y-31323645D01*
X47189405Y-31248233D01*
X47158813Y-31212676D01*
X47070752Y-31083951D01*
X47015159Y-30954621D01*
X46995627Y-30832398D01*
X46992875Y-30792702D01*
X46966715Y-30698121D01*
X46911107Y-30592637D01*
X46823845Y-30472494D01*
X46702724Y-30333940D01*
X46592789Y-30212730D01*
X46481300Y-30078968D01*
X46385410Y-29948001D01*
X46295639Y-29806716D01*
X46202507Y-29642000D01*
X46126663Y-29507911D01*
X46021327Y-29335087D01*
X45907719Y-29160528D01*
X45792549Y-28994180D01*
X45682528Y-28845986D01*
X45584364Y-28725892D01*
X45492463Y-28625306D01*
X45377553Y-28515369D01*
X45259449Y-28423074D01*
X45124867Y-28337181D01*
X45049733Y-28290006D01*
X44964090Y-28229274D01*
X44867912Y-28153995D01*
X44757424Y-28060987D01*
X44628853Y-27947068D01*
X44478426Y-27809058D01*
X44302367Y-27643774D01*
X44261898Y-27605503D01*
X44076208Y-27431223D01*
X43913520Y-27281411D01*
X43768162Y-27151410D01*
X43634465Y-27036562D01*
X43506757Y-26932208D01*
X43379369Y-26833689D01*
X43246630Y-26736348D01*
X43102869Y-26635527D01*
X42942417Y-26526567D01*
X42897984Y-26496703D01*
X42764808Y-26406651D01*
X42639768Y-26321065D01*
X42517626Y-26236197D01*
X42393142Y-26148300D01*
X42261077Y-26053627D01*
X42116190Y-25948428D01*
X41953241Y-25828957D01*
X41766993Y-25691467D01*
X41552204Y-25532209D01*
X41437853Y-25447590D01*
X41176111Y-25256809D01*
X40937013Y-25087725D01*
X40713717Y-24936279D01*
X40499381Y-24798411D01*
X40287162Y-24670063D01*
X40070219Y-24547175D01*
X39841708Y-24425688D01*
X39594788Y-24301544D01*
X39322616Y-24170683D01*
X39018349Y-24029046D01*
X38234626Y-23681452D01*
X37317841Y-23305554D01*
X36392060Y-22957762D01*
X35470584Y-22643273D01*
X35304458Y-22589207D01*
X35018310Y-22494508D01*
X34759619Y-22406771D01*
X34531034Y-22326928D01*
X34335206Y-22255912D01*
X34174783Y-22194656D01*
X34052417Y-22144091D01*
X33999837Y-22121204D01*
X33879856Y-22070988D01*
X33774096Y-22031021D01*
X33671355Y-21997889D01*
X33560433Y-21968178D01*
X33430132Y-21938473D01*
X33269250Y-21905362D01*
X33191857Y-21889377D01*
X33058581Y-21859695D01*
X32933104Y-21829299D01*
X32826706Y-21800971D01*
X32750667Y-21777493D01*
X32723227Y-21768084D01*
X32654377Y-21747697D01*
X32582874Y-21732617D01*
X32498798Y-21721392D01*
X32392230Y-21712571D01*
X32253250Y-21704701D01*
X32083535Y-21692652D01*
X31811850Y-21659904D01*
X31542888Y-21612280D01*
X31289623Y-21552210D01*
X31065032Y-21482125D01*
X30992319Y-21457085D01*
X30874494Y-21423812D01*
X30754718Y-21401488D01*
X30612834Y-21385821D01*
X30510117Y-21376467D01*
X30367586Y-21362511D01*
X30218984Y-21347136D01*
X30083667Y-21332301D01*
X30056859Y-21329137D01*
X29956913Y-21316092D01*
X29834627Y-21298741D01*
X29695838Y-21278043D01*
X29546383Y-21254957D01*
X29392099Y-21230444D01*
X29238825Y-21205462D01*
X29092396Y-21180971D01*
X28958650Y-21157931D01*
X28843425Y-21137301D01*
X28752558Y-21120041D01*
X28691886Y-21107110D01*
X28667247Y-21099468D01*
X28666209Y-21087905D01*
X28687861Y-21062478D01*
X28692411Y-21059015D01*
X28728238Y-21031266D01*
X28788281Y-20984427D01*
X28865390Y-20924084D01*
X28952411Y-20855826D01*
X29149136Y-20704914D01*
X29692327Y-20321695D01*
X30267612Y-19961543D01*
X30871606Y-19625957D01*
X31500926Y-19316442D01*
X32152187Y-19034497D01*
X32822005Y-18781625D01*
X33506996Y-18559329D01*
X34203775Y-18369109D01*
X34908958Y-18212467D01*
X34966153Y-18201270D01*
X35171736Y-18162237D01*
X35359802Y-18129051D01*
X35536333Y-18101186D01*
X35707316Y-18078117D01*
X35878734Y-18059319D01*
X36056574Y-18044266D01*
X36246818Y-18032432D01*
X36455453Y-18023293D01*
X36688463Y-18016322D01*
X36951832Y-18010994D01*
X37251546Y-18006784D01*
X37307691Y-18006140D01*
X37664242Y-18003631D01*
X37985121Y-18004591D01*
G36*
X37985121Y-18004591D02*
G01*
X38276035Y-18009389D01*
X38542692Y-18018394D01*
X38790800Y-18031974D01*
X39026064Y-18050500D01*
X39254194Y-18074339D01*
X39480896Y-18103861D01*
X39711876Y-18139435D01*
X39952844Y-18181430D01*
X40536818Y-18300511D01*
X41290365Y-18491321D01*
X42030121Y-18721111D01*
X42754350Y-18989172D01*
X43461314Y-19294794D01*
X44149277Y-19637269D01*
X44816501Y-20015889D01*
X45461250Y-20429942D01*
X45801766Y-20669592D01*
X46407427Y-21135254D01*
X46984348Y-21631238D01*
X47531762Y-22156367D01*
X48048903Y-22709463D01*
X48535003Y-23289351D01*
X48989296Y-23894855D01*
X49411015Y-24524796D01*
X49799392Y-25177999D01*
X50153660Y-25853288D01*
X50473053Y-26549484D01*
X50756804Y-27265413D01*
X51004145Y-27999897D01*
X51214311Y-28751759D01*
X51386532Y-29519824D01*
X51401525Y-29597471D01*
X51427342Y-29738323D01*
X51450867Y-29875079D01*
X51469989Y-29995287D01*
X51482597Y-30086500D01*
X51485508Y-30111878D01*
X51500447Y-30276151D01*
X51513240Y-30475574D01*
X51523897Y-30704985D01*
X51532430Y-30959221D01*
X51538852Y-31233121D01*
X51543173Y-31521521D01*
X51545407Y-31819259D01*
X51545564Y-32121172D01*
X51543657Y-32422098D01*
X51539697Y-32716875D01*
X51533696Y-33000339D01*
X51525666Y-33267328D01*
X51515618Y-33512680D01*
X51503566Y-33731233D01*
X51489519Y-33917822D01*
X51473491Y-34067287D01*
X51439444Y-34295628D01*
X51377576Y-34632084D01*
X51299534Y-34992169D01*
X51207398Y-35367942D01*
X51103248Y-35751464D01*
X50989165Y-36134795D01*
X50867227Y-36509995D01*
X50739516Y-36869124D01*
X50665853Y-37063288D01*
X50588957Y-37257894D01*
X50509225Y-37450653D01*
X50423775Y-37648080D01*
X50329723Y-37856690D01*
X50224188Y-38082996D01*
X50104287Y-38333514D01*
X49967137Y-38614757D01*
X49942209Y-38665451D01*
X49862720Y-38826234D01*
X49789559Y-38972920D01*
X49724761Y-39101516D01*
X49670362Y-39208028D01*
X49628396Y-39288463D01*
X49600898Y-39338826D01*
X49589903Y-39355124D01*
X49589084Y-39352497D01*
X49585103Y-39318121D01*
X49579447Y-39248383D01*
X49572473Y-39148593D01*
X49564540Y-39024064D01*
X49556006Y-38880107D01*
X49547228Y-38722034D01*
X49543947Y-38661621D01*
X49521180Y-38277380D01*
X49496730Y-37930264D01*
X49469805Y-37615743D01*
X49439616Y-37329288D01*
X49405372Y-37066369D01*
X49366282Y-36822456D01*
X49321556Y-36593021D01*
X49270404Y-36373533D01*
X49212035Y-36159463D01*
X49145658Y-35946282D01*
X49070484Y-35729459D01*
X48985721Y-35504465D01*
X48957873Y-35432279D01*
X48877226Y-35212244D01*
X48814399Y-35020030D01*
X48767375Y-34848513D01*
X48734141Y-34690568D01*
X48712681Y-34539071D01*
X48699159Y-34442245D01*
X48676740Y-34339536D01*
X48643787Y-34232527D01*
X48597835Y-34114953D01*
X48536417Y-33980547D01*
X48457067Y-33823045D01*
X48357319Y-33636180D01*
X48329296Y-33584633D01*
X48218192Y-33379240D01*
X48125816Y-33205852D01*
X48050566Y-33060455D01*
X47990836Y-32939036D01*
X47945025Y-32837583D01*
X47911527Y-32752083D01*
X47888738Y-32678523D01*
X47875056Y-32612890D01*
X47868875Y-32551172D01*
X47868593Y-32489355D01*
X47872605Y-32423427D01*
X47876230Y-32374470D01*
X47878076Y-32300383D01*
X47870663Y-32238713D01*
X47850375Y-32180513D01*
X47813596Y-32116836D01*
X47756708Y-32038734D01*
X47676096Y-31937259D01*
X47649619Y-31903651D01*
X47569060Y-31794546D01*
X47487528Y-31676034D01*
X47419167Y-31568418D01*
X47390545Y-31522158D01*
X47322232Y-31420264D01*
X47251375Y-31323645D01*
X47189405Y-31248233D01*
X47158813Y-31212676D01*
X47070752Y-31083951D01*
X47015159Y-30954621D01*
X46995627Y-30832398D01*
X46992875Y-30792702D01*
X46966715Y-30698121D01*
X46911107Y-30592637D01*
X46823845Y-30472494D01*
X46702724Y-30333940D01*
X46592789Y-30212730D01*
X46481300Y-30078968D01*
X46385410Y-29948001D01*
X46295639Y-29806716D01*
X46202507Y-29642000D01*
X46126663Y-29507911D01*
X46021327Y-29335087D01*
X45907719Y-29160528D01*
X45792549Y-28994180D01*
X45682528Y-28845986D01*
X45584364Y-28725892D01*
X45492463Y-28625306D01*
X45377553Y-28515369D01*
X45259449Y-28423074D01*
X45124867Y-28337181D01*
X45049733Y-28290006D01*
X44964090Y-28229274D01*
X44867912Y-28153995D01*
X44757424Y-28060987D01*
X44628853Y-27947068D01*
X44478426Y-27809058D01*
X44302367Y-27643774D01*
X44261898Y-27605503D01*
X44076208Y-27431223D01*
X43913520Y-27281411D01*
X43768162Y-27151410D01*
X43634465Y-27036562D01*
X43506757Y-26932208D01*
X43379369Y-26833689D01*
X43246630Y-26736348D01*
X43102869Y-26635527D01*
X42942417Y-26526567D01*
X42897984Y-26496703D01*
X42764808Y-26406651D01*
X42639768Y-26321065D01*
X42517626Y-26236197D01*
X42393142Y-26148300D01*
X42261077Y-26053627D01*
X42116190Y-25948428D01*
X41953241Y-25828957D01*
X41766993Y-25691467D01*
X41552204Y-25532209D01*
X41437853Y-25447590D01*
X41176111Y-25256809D01*
X40937013Y-25087725D01*
X40713717Y-24936279D01*
X40499381Y-24798411D01*
X40287162Y-24670063D01*
X40070219Y-24547175D01*
X39841708Y-24425688D01*
X39594788Y-24301544D01*
X39322616Y-24170683D01*
X39018349Y-24029046D01*
X38234626Y-23681452D01*
X37317841Y-23305554D01*
X36392060Y-22957762D01*
X35470584Y-22643273D01*
X35304458Y-22589207D01*
X35018310Y-22494508D01*
X34759619Y-22406771D01*
X34531034Y-22326928D01*
X34335206Y-22255912D01*
X34174783Y-22194656D01*
X34052417Y-22144091D01*
X33999837Y-22121204D01*
X33879856Y-22070988D01*
X33774096Y-22031021D01*
X33671355Y-21997889D01*
X33560433Y-21968178D01*
X33430132Y-21938473D01*
X33269250Y-21905362D01*
X33191857Y-21889377D01*
X33058581Y-21859695D01*
X32933104Y-21829299D01*
X32826706Y-21800971D01*
X32750667Y-21777493D01*
X32723227Y-21768084D01*
X32654377Y-21747697D01*
X32582874Y-21732617D01*
X32498798Y-21721392D01*
X32392230Y-21712571D01*
X32253250Y-21704701D01*
X32083535Y-21692652D01*
X31811850Y-21659904D01*
X31542888Y-21612280D01*
X31289623Y-21552210D01*
X31065032Y-21482125D01*
X30992319Y-21457085D01*
X30874494Y-21423812D01*
X30754718Y-21401488D01*
X30612834Y-21385821D01*
X30510117Y-21376467D01*
X30367586Y-21362511D01*
X30218984Y-21347136D01*
X30083667Y-21332301D01*
X30056859Y-21329137D01*
X29956913Y-21316092D01*
X29834627Y-21298741D01*
X29695838Y-21278043D01*
X29546383Y-21254957D01*
X29392099Y-21230444D01*
X29238825Y-21205462D01*
X29092396Y-21180971D01*
X28958650Y-21157931D01*
X28843425Y-21137301D01*
X28752558Y-21120041D01*
X28691886Y-21107110D01*
X28667247Y-21099468D01*
X28666209Y-21087905D01*
X28687861Y-21062478D01*
X28692411Y-21059015D01*
X28728238Y-21031266D01*
X28788281Y-20984427D01*
X28865390Y-20924084D01*
X28952411Y-20855826D01*
X29149136Y-20704914D01*
X29692327Y-20321695D01*
X30267612Y-19961543D01*
X30871606Y-19625957D01*
X31500926Y-19316442D01*
X32152187Y-19034497D01*
X32822005Y-18781625D01*
X33506996Y-18559329D01*
X34203775Y-18369109D01*
X34908958Y-18212467D01*
X34966153Y-18201270D01*
X35171736Y-18162237D01*
X35359802Y-18129051D01*
X35536333Y-18101186D01*
X35707316Y-18078117D01*
X35878734Y-18059319D01*
X36056574Y-18044266D01*
X36246818Y-18032432D01*
X36455453Y-18023293D01*
X36688463Y-18016322D01*
X36951832Y-18010994D01*
X37251546Y-18006784D01*
X37307691Y-18006140D01*
X37664242Y-18003631D01*
X37985121Y-18004591D01*
G37*
X32769855Y-25838462D02*
X32759717Y-25869743D01*
X32740549Y-25935327D01*
X32734324Y-25979214D01*
X32740288Y-26014859D01*
X32757688Y-26055718D01*
X32787989Y-26101587D01*
X32845363Y-26157401D01*
X32929477Y-26218689D01*
X33042587Y-26286704D01*
X33186953Y-26362700D01*
X33364832Y-26447931D01*
X33578484Y-26543650D01*
X33830167Y-26651111D01*
X34066206Y-26748672D01*
X34307724Y-26844392D01*
X34517128Y-26921573D01*
X34697436Y-26980565D01*
X34851667Y-27021718D01*
X34982840Y-27045383D01*
X35093973Y-27051911D01*
X35188086Y-27041651D01*
X35268198Y-27014955D01*
X35337326Y-26972173D01*
X35398490Y-26913655D01*
X35454709Y-26839753D01*
X35491889Y-26778075D01*
X35518067Y-26701349D01*
X35513553Y-26624194D01*
X35479604Y-26531027D01*
X35467150Y-26500192D01*
X35449822Y-26436281D01*
X35448238Y-26390079D01*
X35458516Y-26369654D01*
X35504423Y-26328195D01*
X35575299Y-26288891D01*
X35660012Y-26257358D01*
X35747431Y-26239208D01*
X35787340Y-26235777D01*
X35832058Y-26240466D01*
X35871588Y-26263211D01*
X35922572Y-26310816D01*
X35940991Y-26330234D01*
X35980916Y-26383632D01*
X36010459Y-26446460D01*
X36031014Y-26525270D01*
X36043972Y-26626615D01*
X36050725Y-26757049D01*
X36052667Y-26923125D01*
X36052667Y-27229000D01*
X37557461Y-27229000D01*
X37528299Y-27919506D01*
X37769441Y-27946061D01*
X37940097Y-27965538D01*
X38122477Y-27988873D01*
X38269982Y-28011745D01*
X38386737Y-28035374D01*
X38476872Y-28060982D01*
X38544513Y-28089790D01*
X38593788Y-28123017D01*
X38628826Y-28161886D01*
X38653753Y-28207617D01*
X38670862Y-28242606D01*
X38741401Y-28336677D01*
X38846705Y-28424001D01*
X38990559Y-28507954D01*
X39088739Y-28564546D01*
X39194050Y-28649683D01*
X39283181Y-28757174D01*
X39365716Y-28896956D01*
X39372800Y-28910487D01*
X39422991Y-28995956D01*
X39478391Y-29067907D01*
X39545859Y-29132085D01*
X39632255Y-29194234D01*
X39744440Y-29260100D01*
X39889273Y-29335428D01*
X40017610Y-29401358D01*
X40159447Y-29480202D01*
X40267625Y-29549682D01*
X40345661Y-29612752D01*
X40397072Y-29672367D01*
X40425375Y-29731480D01*
X40434088Y-29793046D01*
X40449747Y-29853458D01*
X40497808Y-29940347D01*
X40577460Y-30051243D01*
X40687884Y-30185007D01*
X40828260Y-30340500D01*
X40935052Y-30457308D01*
X41151362Y-30708230D01*
X41367181Y-30976401D01*
X41577178Y-31254420D01*
X41776021Y-31534888D01*
X41958378Y-31810405D01*
X42118918Y-32073571D01*
X42252309Y-32316986D01*
X42301595Y-32408509D01*
X42351137Y-32491517D01*
X42393933Y-32554477D01*
X42424232Y-32588314D01*
X42456808Y-32605523D01*
X42534928Y-32628711D01*
X42637485Y-32645395D01*
X42714425Y-32655864D01*
X42813757Y-32679225D01*
X42900762Y-32716741D01*
X42988522Y-32774584D01*
X43090122Y-32858925D01*
X43100708Y-32868172D01*
X43269916Y-32994222D01*
X43454854Y-33096463D01*
X43640917Y-33166734D01*
X43730637Y-33194795D01*
X43816869Y-33233549D01*
X43881185Y-33284210D01*
X43934888Y-33356271D01*
X43989286Y-33459222D01*
X43995532Y-33472289D01*
X44054057Y-33604115D01*
X44104879Y-33734945D01*
X44144953Y-33855685D01*
X44171231Y-33957242D01*
X44180667Y-34030521D01*
X44179085Y-34055156D01*
X44157292Y-34120387D01*
X44105206Y-34194483D01*
X44069894Y-34242375D01*
X44046067Y-34297338D01*
X44046001Y-34352375D01*
X44071936Y-34412247D01*
X44126109Y-34481716D01*
X44210760Y-34565541D01*
X44328128Y-34668484D01*
X44393719Y-34724795D01*
X44478904Y-34803368D01*
X44538688Y-34871493D01*
X44578145Y-34938789D01*
X44602346Y-35014873D01*
X44616366Y-35109363D01*
X44625275Y-35231877D01*
X44628025Y-35276345D01*
X44637994Y-35389014D01*
X44651579Y-35466819D01*
X44670714Y-35515405D01*
X44697332Y-35540417D01*
X44733365Y-35547500D01*
X44751217Y-35548817D01*
X44823482Y-35567384D01*
X44912503Y-35603388D01*
X45005228Y-35651055D01*
X45088607Y-35704615D01*
X45173924Y-35781949D01*
X45242717Y-35881522D01*
X45249377Y-35895979D01*
X45277657Y-35994628D01*
X45289776Y-36123248D01*
X45285695Y-36284113D01*
X45284866Y-36292077D01*
X45265377Y-36479495D01*
X45228782Y-36711667D01*
X45204894Y-36856972D01*
X45179002Y-37073340D01*
X45170499Y-37262823D01*
X45179189Y-37432658D01*
X45204876Y-37590084D01*
X45226695Y-37683744D01*
X45269416Y-37850664D01*
X45317921Y-38024763D01*
X45368645Y-38193878D01*
X45418020Y-38345845D01*
X45462479Y-38468500D01*
X45463634Y-38471445D01*
X45512268Y-38602283D01*
X45544906Y-38711150D01*
X45564542Y-38813571D01*
X45574169Y-38925068D01*
X45576782Y-39061167D01*
X45576256Y-39111043D01*
X45566518Y-39275137D01*
X45545661Y-39423922D01*
X45515213Y-39548558D01*
X45476702Y-39640207D01*
X45456911Y-39670906D01*
X45433457Y-39692211D01*
X45397502Y-39706040D01*
X45339154Y-39716119D01*
X45248525Y-39726174D01*
X45226585Y-39728037D01*
X45134214Y-39731844D01*
X45008715Y-39733025D01*
X44856942Y-39731820D01*
X44685747Y-39728472D01*
X44501983Y-39723221D01*
X44312505Y-39716309D01*
X44124163Y-39707977D01*
X43943813Y-39698467D01*
X43778306Y-39688020D01*
X43634497Y-39676876D01*
X43519238Y-39665279D01*
X43344515Y-39640882D01*
X43194818Y-39610868D01*
X43063457Y-39572931D01*
X42938292Y-39524122D01*
X42913790Y-39513534D01*
X42835657Y-39482511D01*
X42760117Y-39458409D01*
X42679683Y-39440036D01*
X42586867Y-39426197D01*
X42474181Y-39415700D01*
X42334138Y-39407350D01*
X42159250Y-39399955D01*
X42127652Y-39398758D01*
X41963342Y-39391771D01*
X41830369Y-39383628D01*
X41719335Y-39372536D01*
X41620846Y-39356701D01*
X41525506Y-39334330D01*
X41423918Y-39303628D01*
X41306687Y-39262804D01*
X41164417Y-39210062D01*
X41120761Y-39193829D01*
X40906385Y-39119840D01*
X40717506Y-39065694D01*
X40545401Y-39029140D01*
X40381349Y-39007928D01*
X40381337Y-39007926D01*
X40278678Y-38995078D01*
X40172223Y-38975667D01*
X40085016Y-38953896D01*
X40003154Y-38929672D01*
X39823675Y-38885099D01*
X39640168Y-38852830D01*
X39433630Y-38829230D01*
X39289429Y-38813083D01*
X39172332Y-38791529D01*
X39076121Y-38761589D01*
X38989939Y-38719860D01*
X38902930Y-38662940D01*
X38840592Y-38623686D01*
X38714915Y-38572198D01*
X38563860Y-38542117D01*
X38381000Y-38531830D01*
X38345138Y-38531457D01*
X38230727Y-38528156D01*
X38108467Y-38522088D01*
X37986719Y-38513933D01*
X37873842Y-38504373D01*
X37778196Y-38494089D01*
X37708143Y-38483761D01*
X37672042Y-38474072D01*
X37671920Y-38474003D01*
X37644237Y-38452323D01*
X37593720Y-38407401D01*
X37527515Y-38345762D01*
X37452770Y-38273928D01*
X37355403Y-38182769D01*
X37269265Y-38112624D01*
X37184472Y-38056934D01*
X37088248Y-38006322D01*
X36949583Y-37943437D01*
X36791850Y-37885752D01*
X36638745Y-37848796D01*
X36475038Y-37829096D01*
X36285500Y-37823176D01*
X35999750Y-37822917D01*
X35812509Y-37912875D01*
X35802990Y-37917427D01*
X35675929Y-37971730D01*
X35572970Y-37998200D01*
X35485263Y-37994959D01*
X35403957Y-37960128D01*
X35320203Y-37891827D01*
X35225150Y-37788178D01*
X35204592Y-37764186D01*
X35069453Y-37617696D01*
X34935995Y-37495784D01*
X34797953Y-37395435D01*
X34649056Y-37313630D01*
X34483039Y-37247352D01*
X34293633Y-37193583D01*
X34074571Y-37149306D01*
X33819584Y-37111504D01*
X33771727Y-37105238D01*
X33628876Y-37084797D01*
X33520778Y-37064856D01*
X33441661Y-37042896D01*
X33385755Y-37016397D01*
X33347287Y-36982840D01*
X33320487Y-36939704D01*
X33299583Y-36884470D01*
X33298000Y-36879624D01*
X33241441Y-36764403D01*
X33157903Y-36663488D01*
X33058790Y-36590788D01*
X33053457Y-36588115D01*
X33024097Y-36577421D01*
X32984273Y-36570313D01*
X32927625Y-36566546D01*
X32847791Y-36565876D01*
X32738411Y-36568056D01*
X32593124Y-36572842D01*
X32496071Y-36576076D01*
X32345738Y-36578916D01*
X32217290Y-36576942D01*
X32100308Y-36568976D01*
X31984372Y-36553839D01*
X31859062Y-36530354D01*
X31713961Y-36497342D01*
X31538647Y-36453626D01*
X31418104Y-36424017D01*
X31288324Y-36396105D01*
X31197896Y-36382412D01*
X31147063Y-36382983D01*
X31118007Y-36395191D01*
X31060935Y-36435013D01*
X30999759Y-36490852D01*
X30944151Y-36552600D01*
X30903782Y-36610148D01*
X30888325Y-36653388D01*
X30888671Y-36665814D01*
X30894888Y-36700549D01*
X30913434Y-36732953D01*
X30950197Y-36769225D01*
X31011068Y-36815561D01*
X31101934Y-36878158D01*
X31103450Y-36879181D01*
X31202721Y-36949360D01*
X31275732Y-37011651D01*
X31329126Y-37075981D01*
X31369545Y-37152282D01*
X31403634Y-37250483D01*
X31438035Y-37380512D01*
X31463189Y-37454225D01*
X31528090Y-37564835D01*
X31613635Y-37650984D01*
X31636398Y-37665147D01*
X31726904Y-37693944D01*
X31848890Y-37703438D01*
X31997677Y-37693518D01*
X32168584Y-37664073D01*
X32290495Y-37638312D01*
X32420857Y-37615072D01*
X32525030Y-37605445D01*
X32611409Y-37611118D01*
X32688390Y-37633781D01*
X32764370Y-37675122D01*
X32847745Y-37736829D01*
X32946912Y-37820590D01*
X32947281Y-37820911D01*
X33064261Y-37921385D01*
X33156842Y-37997954D01*
X33231672Y-38055456D01*
X33295402Y-38098727D01*
X33354681Y-38132604D01*
X33416159Y-38161925D01*
X33436503Y-38171047D01*
X33492958Y-38200381D01*
X33532015Y-38233315D01*
X33564971Y-38281645D01*
X33603122Y-38357168D01*
X33634479Y-38417219D01*
X33682310Y-38488467D01*
X33724334Y-38526236D01*
X33741941Y-38532110D01*
X33792195Y-38539851D01*
X33872313Y-38545658D01*
X33985408Y-38549669D01*
X34134590Y-38552022D01*
X34322972Y-38552855D01*
X34500226Y-38553343D01*
X34647167Y-38555239D01*
X34761963Y-38559463D01*
X34849796Y-38566940D01*
X34915847Y-38578597D01*
X34965298Y-38595359D01*
X35003330Y-38618151D01*
X35035126Y-38647898D01*
X35065867Y-38685525D01*
X35103367Y-38737346D01*
X35184793Y-38863865D01*
X35269241Y-39010741D01*
X35349400Y-39164934D01*
X35417958Y-39313409D01*
X35440043Y-39364410D01*
X35477462Y-39444770D01*
X35506198Y-39494513D01*
X35530179Y-39519837D01*
X35553337Y-39526938D01*
X35567479Y-39526695D01*
X35621685Y-39525223D01*
X35709580Y-39522564D01*
X35825787Y-39518890D01*
X35964925Y-39514372D01*
X36121618Y-39509181D01*
X36290485Y-39503488D01*
X36983387Y-39479933D01*
X37219524Y-39704616D01*
X37244472Y-39728226D01*
X37368035Y-39839669D01*
X37475585Y-39924027D01*
X37576134Y-39986202D01*
X37678697Y-40031092D01*
X37792287Y-40063596D01*
X37925917Y-40088616D01*
X37957495Y-40093549D01*
X38085558Y-40113549D01*
X38220779Y-40134662D01*
X38338667Y-40153063D01*
X38475521Y-40177367D01*
X38648030Y-40220405D01*
X38785620Y-40273379D01*
X38892448Y-40338457D01*
X38972674Y-40417806D01*
X39030456Y-40513594D01*
X39086427Y-40609150D01*
X39164377Y-40683068D01*
X39174858Y-40689760D01*
X39265643Y-40736303D01*
X39395922Y-40788147D01*
X39566176Y-40845445D01*
X39776885Y-40908351D01*
X40028529Y-40977018D01*
X40321588Y-41051598D01*
X40350915Y-41058864D01*
X40688475Y-41145625D01*
X40992230Y-41230156D01*
X41269802Y-41314893D01*
X41528817Y-41402270D01*
X41776897Y-41494723D01*
X42021667Y-41594688D01*
X42175749Y-41661539D01*
X42411136Y-41769254D01*
X42642695Y-41882744D01*
X42875684Y-42004978D01*
X43115359Y-42138927D01*
X43366974Y-42287558D01*
X43635787Y-42453842D01*
X43927053Y-42640747D01*
X44246028Y-42851242D01*
X44328715Y-42906296D01*
X44461121Y-42993898D01*
X44579933Y-43071822D01*
X44680843Y-43137282D01*
X44759543Y-43187490D01*
X44811724Y-43219658D01*
X44833079Y-43231000D01*
X44841597Y-43225617D01*
X44875176Y-43194291D01*
X44928361Y-43139697D01*
X44995952Y-43067232D01*
X45072749Y-42982292D01*
X45170901Y-42871342D01*
X45340268Y-42674771D01*
X45480943Y-42503578D01*
X45594558Y-42355593D01*
X45682745Y-42228644D01*
X45747137Y-42120563D01*
X45789364Y-42029177D01*
X45804622Y-41990641D01*
X45828271Y-41948912D01*
X45858887Y-41930067D01*
X45908994Y-41922990D01*
X45955277Y-41923400D01*
X46017436Y-41940969D01*
X46091663Y-41983526D01*
X46121547Y-42002808D01*
X46177139Y-42031910D01*
X46225645Y-42041457D01*
X46285250Y-42036415D01*
X46329811Y-42026482D01*
X46423461Y-41992597D01*
X46543658Y-41936154D01*
X46692098Y-41856270D01*
X46870479Y-41752062D01*
X47080500Y-41622647D01*
X47231670Y-41528007D01*
X47417987Y-41412855D01*
X47579604Y-41315144D01*
X47722642Y-41231307D01*
X47853218Y-41157777D01*
X47977454Y-41090984D01*
X48101467Y-41027362D01*
X48149621Y-41003432D01*
X48270228Y-40946858D01*
X48356540Y-40913200D01*
X48409813Y-40902906D01*
X48431302Y-40916423D01*
X48422264Y-40954198D01*
X48383954Y-41016678D01*
X48317629Y-41104311D01*
X48301189Y-41124770D01*
X48186340Y-41260541D01*
X48045394Y-41417500D01*
X47883654Y-41590361D01*
X47706427Y-41773836D01*
X47519014Y-41962639D01*
X47326722Y-42151482D01*
X47134853Y-42335080D01*
X46948713Y-42508145D01*
X46773605Y-42665390D01*
X46614834Y-42801529D01*
X46218172Y-43119901D01*
X45610104Y-43566273D01*
X44980292Y-43981098D01*
X44332024Y-44362587D01*
X43668590Y-44708948D01*
X42993279Y-45018393D01*
X42309379Y-45289132D01*
X41620180Y-45519375D01*
X41286393Y-45615929D01*
X40938980Y-45707632D01*
X40586975Y-45792419D01*
X40236659Y-45869055D01*
X39894314Y-45936307D01*
X39566220Y-45992942D01*
X39258657Y-46037726D01*
X38977907Y-46069427D01*
X38730250Y-46086811D01*
X38494799Y-46095659D01*
X38213481Y-46102606D01*
X37929488Y-46105328D01*
X37632958Y-46103832D01*
X37314027Y-46098126D01*
X36962834Y-46088219D01*
X36951854Y-46087862D01*
X36648296Y-46077125D01*
X36380388Y-46065545D01*
X36141668Y-46052470D01*
X35925672Y-46037247D01*
X35725938Y-46019222D01*
X35536001Y-45997745D01*
X35349399Y-45972160D01*
X35159668Y-45941817D01*
X34960345Y-45906063D01*
X34744967Y-45864244D01*
X34200736Y-45744243D01*
X33461829Y-45544489D01*
X32736795Y-45305571D01*
X32027229Y-45028335D01*
X31334728Y-44713629D01*
X30660888Y-44362300D01*
X30007305Y-43975196D01*
X29375576Y-43553163D01*
X28767298Y-43097050D01*
X28184065Y-42607703D01*
X27627475Y-42085971D01*
X27093667Y-41528148D01*
X26589338Y-40940781D01*
X26119332Y-40329017D01*
X25684109Y-39693659D01*
X25284126Y-39035512D01*
X24919843Y-38355380D01*
X24591720Y-37654067D01*
X24300214Y-36932377D01*
X24045786Y-36191114D01*
X23828893Y-35431084D01*
X23796301Y-35303084D01*
X28677156Y-35303084D01*
X28698749Y-35362101D01*
X28702686Y-35369331D01*
X28742273Y-35423682D01*
X28808922Y-35499814D01*
X28897908Y-35593354D01*
X29004509Y-35699931D01*
X29124004Y-35815172D01*
X29251669Y-35934704D01*
X29382783Y-36054156D01*
X29512621Y-36169156D01*
X29636463Y-36275331D01*
X29749585Y-36368309D01*
X29847265Y-36443718D01*
X29924780Y-36497185D01*
X29951158Y-36512722D01*
X30048116Y-36557054D01*
X30136087Y-36579380D01*
X30188265Y-36583463D01*
X30229281Y-36576763D01*
X30267114Y-36551719D01*
X30317369Y-36501641D01*
X30349841Y-36461949D01*
X30403575Y-36382041D01*
X30462252Y-36282185D01*
X30519149Y-36173321D01*
X30568570Y-36068519D01*
X30612422Y-35959554D01*
X30634712Y-35873565D01*
X30636327Y-35803527D01*
X30618155Y-35742415D01*
X30581084Y-35683203D01*
X30531139Y-35628552D01*
X30421383Y-35543477D01*
X30279766Y-35462266D01*
X30112710Y-35387134D01*
X29926635Y-35320291D01*
X29727964Y-35263950D01*
X29523117Y-35220323D01*
X29318517Y-35191622D01*
X29120584Y-35180060D01*
X29002575Y-35180100D01*
X28869775Y-35186036D01*
X28773813Y-35200017D01*
X28711709Y-35223328D01*
X28680483Y-35257255D01*
X28677156Y-35303084D01*
X23796301Y-35303084D01*
X23788395Y-35272033D01*
X23720433Y-34994140D01*
X23664015Y-34744936D01*
X23617898Y-34516898D01*
X23580838Y-34302501D01*
X23551592Y-34094220D01*
X23535941Y-33949502D01*
X43147319Y-33949502D01*
X43147621Y-34043753D01*
X43171672Y-34121704D01*
X43225624Y-34197737D01*
X43229859Y-34202635D01*
X43275418Y-34262199D01*
X43317441Y-34332668D01*
X43359514Y-34421547D01*
X43405222Y-34536344D01*
X43458150Y-34684564D01*
X43478885Y-34744313D01*
X43532137Y-34892727D01*
X43578277Y-35011698D01*
X43620841Y-35109537D01*
X43663365Y-35194558D01*
X43709387Y-35275072D01*
X43726062Y-35304658D01*
X43777158Y-35422072D01*
X43812967Y-35546911D01*
X43840251Y-35649536D01*
X43885111Y-35781194D01*
X43893846Y-35803527D01*
X43942060Y-35926806D01*
X44006338Y-36074867D01*
X44073184Y-36213869D01*
X44137840Y-36332305D01*
X44176628Y-36392703D01*
X44242742Y-36476156D01*
X44303639Y-36529910D01*
X44377384Y-36570210D01*
X44464228Y-36593099D01*
X44548559Y-36583416D01*
X44612022Y-36554630D01*
X44686858Y-36485159D01*
X44734498Y-36390839D01*
X44739743Y-36369973D01*
X44742151Y-36292077D01*
X44717611Y-36204315D01*
X44664065Y-36101190D01*
X44579451Y-35977206D01*
X44573013Y-35968486D01*
X44492781Y-35854048D01*
X44437117Y-35760349D01*
X44401319Y-35678455D01*
X44380689Y-35599432D01*
X44373129Y-35562947D01*
X44346167Y-35481764D01*
X44301606Y-35403324D01*
X44231806Y-35312923D01*
X44224575Y-35304234D01*
X44163886Y-35221714D01*
X44122446Y-35139696D01*
X44094541Y-35043920D01*
X44074459Y-34920123D01*
X44044973Y-34775084D01*
X43986271Y-34597149D01*
X43905699Y-34413090D01*
X43808781Y-34234084D01*
X43701040Y-34071308D01*
X43588000Y-33935939D01*
X43525823Y-33874473D01*
X43475139Y-33834684D01*
X43427048Y-33812531D01*
X43369113Y-33800309D01*
X43302174Y-33796396D01*
X43222073Y-33816455D01*
X43170205Y-33867658D01*
X43147319Y-33949502D01*
X23535941Y-33949502D01*
X23528915Y-33884532D01*
X23511565Y-33665911D01*
X23498298Y-33430834D01*
X23494692Y-33338578D01*
X23490798Y-33189551D01*
X23487799Y-33012575D01*
X23485662Y-32812336D01*
X23484354Y-32593519D01*
X23483841Y-32360808D01*
X23484091Y-32118891D01*
X23485068Y-31872451D01*
X23486741Y-31626174D01*
X23489076Y-31384747D01*
X23492039Y-31152853D01*
X23495597Y-30935178D01*
X23499716Y-30736408D01*
X23504364Y-30561229D01*
X23509507Y-30414324D01*
X23515111Y-30300381D01*
X23521144Y-30224084D01*
X23537819Y-30087837D01*
X23591734Y-29739839D01*
X23663967Y-29365337D01*
X23752544Y-28971508D01*
X23855491Y-28565530D01*
X23970834Y-28154578D01*
X24096599Y-27745831D01*
X24230813Y-27346464D01*
X24371500Y-26963656D01*
X24516687Y-26604584D01*
X24631097Y-26342247D01*
X24840624Y-25893698D01*
X24848581Y-25878108D01*
X31904882Y-25878108D01*
X31933861Y-25975926D01*
X31977674Y-26040440D01*
X32063205Y-26121689D01*
X32162612Y-26180127D01*
X32215788Y-26201386D01*
X32255620Y-26209240D01*
X32293844Y-26199472D01*
X32350053Y-26171144D01*
X32364711Y-26162774D01*
X32435006Y-26110025D01*
X32506466Y-26040547D01*
X32566732Y-25967388D01*
X32603445Y-25903599D01*
X32621294Y-25829703D01*
X32613263Y-25731806D01*
X32571074Y-25645496D01*
X32499477Y-25576615D01*
X32403222Y-25531002D01*
X32287058Y-25514500D01*
X32231317Y-25517549D01*
X32120212Y-25548661D01*
X32023819Y-25616388D01*
X31967874Y-25679206D01*
X31916583Y-25777750D01*
X31904882Y-25878108D01*
X24848581Y-25878108D01*
X25063701Y-25456627D01*
X25304456Y-25023745D01*
X25567015Y-24587762D01*
X25855506Y-24141389D01*
X26174056Y-23677337D01*
X26192992Y-23650485D01*
X26278083Y-23530676D01*
X26343151Y-23441278D01*
X26391444Y-23378494D01*
X26426214Y-23338523D01*
X26450710Y-23317567D01*
X26468182Y-23311827D01*
X26481881Y-23317504D01*
X26492947Y-23326459D01*
X26535747Y-23362258D01*
X26596866Y-23414174D01*
X26666968Y-23474300D01*
X26708643Y-23509800D01*
X26814469Y-23594043D01*
X26905144Y-23653909D01*
X26990677Y-23694482D01*
X27081081Y-23720845D01*
X27186365Y-23738084D01*
X27261689Y-23747554D01*
X27393436Y-23765449D01*
X27495152Y-23782132D01*
X27575047Y-23799555D01*
X27641332Y-23819668D01*
X27702218Y-23844420D01*
X27765917Y-23875764D01*
X27820475Y-23902390D01*
X27917695Y-23939388D01*
X27991102Y-23951861D01*
X28039362Y-23945442D01*
X28117928Y-23927984D01*
X28214871Y-23902212D01*
X28319185Y-23870843D01*
X28403156Y-23844757D01*
X28503039Y-23817314D01*
X28586785Y-23800755D01*
X28668337Y-23792534D01*
X28761635Y-23790109D01*
X28833769Y-23791119D01*
X28931852Y-23800554D01*
X29003244Y-23822865D01*
X29057496Y-23861693D01*
X29104155Y-23920677D01*
X29114306Y-23939358D01*
X29135155Y-24017333D01*
X29139580Y-24111574D01*
X29127782Y-24204921D01*
X29099960Y-24280214D01*
X29097818Y-24283799D01*
X29050718Y-24344227D01*
X28990353Y-24386397D01*
X28911326Y-24411339D01*
X28808237Y-24420083D01*
X28675691Y-24413658D01*
X28508290Y-24393094D01*
X28503787Y-24392437D01*
X28396255Y-24377487D01*
X28261545Y-24359854D01*
X28104981Y-24340144D01*
X27931883Y-24318965D01*
X27747574Y-24296922D01*
X27557377Y-24274623D01*
X27366614Y-24252675D01*
X27180607Y-24231685D01*
X27004679Y-24212259D01*
X26844151Y-24195004D01*
X26704346Y-24180527D01*
X26590586Y-24169435D01*
X26508194Y-24162335D01*
X26462491Y-24159833D01*
X26379198Y-24167260D01*
X26269162Y-24208082D01*
X26181530Y-24284766D01*
X26115927Y-24397568D01*
X26087444Y-24501068D01*
X26092687Y-24605667D01*
X26133071Y-24721194D01*
X26174032Y-24797787D01*
X26265567Y-24911322D01*
X26381875Y-24992266D01*
X26527667Y-25044479D01*
X26535902Y-25046395D01*
X26621072Y-25061947D01*
X26743517Y-25079087D01*
X26898808Y-25097430D01*
X27082521Y-25116592D01*
X27290229Y-25136187D01*
X27517505Y-25155831D01*
X27759924Y-25175139D01*
X28013059Y-25193727D01*
X28272485Y-25211210D01*
X28533774Y-25227203D01*
X28792500Y-25241321D01*
X28878470Y-25245295D01*
X29100932Y-25252377D01*
X29335360Y-25255873D01*
X29574009Y-25255922D01*
X29809133Y-25252664D01*
X30032986Y-25246241D01*
X30237823Y-25236790D01*
X30415899Y-25224454D01*
X30559466Y-25209371D01*
X30600912Y-25203976D01*
X30718546Y-25191287D01*
X30806878Y-25189290D01*
X30875460Y-25200434D01*
X30933847Y-25227167D01*
X30991594Y-25271936D01*
X31058253Y-25337192D01*
X31061717Y-25340729D01*
X31130683Y-25404621D01*
X31201164Y-25460018D01*
X31258417Y-25495278D01*
X31295151Y-25509670D01*
X31417569Y-25532007D01*
X31570115Y-25529575D01*
X31749682Y-25502329D01*
X31787823Y-25494152D01*
X31957397Y-25448093D01*
X32090355Y-25392773D01*
X32191029Y-25326028D01*
X32263753Y-25245697D01*
X32285183Y-25206942D01*
X32301006Y-25118275D01*
X32276454Y-25022741D01*
X32212285Y-24921389D01*
X32109262Y-24815264D01*
X31968143Y-24705415D01*
X31789690Y-24592888D01*
X31722844Y-24550564D01*
X31643190Y-24489631D01*
X31579303Y-24428980D01*
X31538202Y-24375475D01*
X31526910Y-24335981D01*
X31536032Y-24317826D01*
X31561562Y-24304775D01*
X31608112Y-24299964D01*
X31680810Y-24303378D01*
X31784785Y-24315002D01*
X31925167Y-24334821D01*
X31994938Y-24344630D01*
X32129425Y-24361487D01*
X32271963Y-24377399D01*
X32401417Y-24389920D01*
X32498898Y-24399171D01*
X32620613Y-24414756D01*
X32729457Y-24435611D01*
X32835498Y-24464621D01*
X32948807Y-24504670D01*
X33079451Y-24558642D01*
X33237500Y-24629423D01*
X33271815Y-24645008D01*
X33421112Y-24710832D01*
X33585100Y-24780622D01*
X33746152Y-24846965D01*
X33886644Y-24902446D01*
X33967124Y-24933577D01*
X34160255Y-25012049D01*
X34320767Y-25084153D01*
X34454723Y-25153176D01*
X34568189Y-25222404D01*
X34667229Y-25295124D01*
X34757907Y-25374623D01*
X34784403Y-25400799D01*
X34849890Y-25476691D01*
X34893697Y-25545486D01*
X34909667Y-25598116D01*
X34898443Y-25624370D01*
X34867334Y-25662667D01*
X34836162Y-25685683D01*
X34783925Y-25700737D01*
X34703292Y-25704983D01*
X34654964Y-25702284D01*
X34515745Y-25669314D01*
X34364874Y-25600279D01*
X34206631Y-25496972D01*
X34180487Y-25477951D01*
X34008811Y-25373545D01*
X33823216Y-25291327D01*
X33633394Y-25234317D01*
X33449036Y-25205538D01*
X33279834Y-25208012D01*
X33226691Y-25216078D01*
X33172737Y-25233471D01*
X33124377Y-25266287D01*
X33065437Y-25323217D01*
X33034582Y-25356903D01*
X32931423Y-25496806D01*
X32840627Y-25661777D01*
X32773363Y-25829703D01*
X32769855Y-25838462D01*
G36*
X32769855Y-25838462D02*
G01*
X32759717Y-25869743D01*
X32740549Y-25935327D01*
X32734324Y-25979214D01*
X32740288Y-26014859D01*
X32757688Y-26055718D01*
X32787989Y-26101587D01*
X32845363Y-26157401D01*
X32929477Y-26218689D01*
X33042587Y-26286704D01*
X33186953Y-26362700D01*
X33364832Y-26447931D01*
X33578484Y-26543650D01*
X33830167Y-26651111D01*
X34066206Y-26748672D01*
X34307724Y-26844392D01*
X34517128Y-26921573D01*
X34697436Y-26980565D01*
X34851667Y-27021718D01*
X34982840Y-27045383D01*
X35093973Y-27051911D01*
X35188086Y-27041651D01*
X35268198Y-27014955D01*
X35337326Y-26972173D01*
X35398490Y-26913655D01*
X35454709Y-26839753D01*
X35491889Y-26778075D01*
X35518067Y-26701349D01*
X35513553Y-26624194D01*
X35479604Y-26531027D01*
X35467150Y-26500192D01*
X35449822Y-26436281D01*
X35448238Y-26390079D01*
X35458516Y-26369654D01*
X35504423Y-26328195D01*
X35575299Y-26288891D01*
X35660012Y-26257358D01*
X35747431Y-26239208D01*
X35787340Y-26235777D01*
X35832058Y-26240466D01*
X35871588Y-26263211D01*
X35922572Y-26310816D01*
X35940991Y-26330234D01*
X35980916Y-26383632D01*
X36010459Y-26446460D01*
X36031014Y-26525270D01*
X36043972Y-26626615D01*
X36050725Y-26757049D01*
X36052667Y-26923125D01*
X36052667Y-27229000D01*
X37557461Y-27229000D01*
X37528299Y-27919506D01*
X37769441Y-27946061D01*
X37940097Y-27965538D01*
X38122477Y-27988873D01*
X38269982Y-28011745D01*
X38386737Y-28035374D01*
X38476872Y-28060982D01*
X38544513Y-28089790D01*
X38593788Y-28123017D01*
X38628826Y-28161886D01*
X38653753Y-28207617D01*
X38670862Y-28242606D01*
X38741401Y-28336677D01*
X38846705Y-28424001D01*
X38990559Y-28507954D01*
X39088739Y-28564546D01*
X39194050Y-28649683D01*
X39283181Y-28757174D01*
X39365716Y-28896956D01*
X39372800Y-28910487D01*
X39422991Y-28995956D01*
X39478391Y-29067907D01*
X39545859Y-29132085D01*
X39632255Y-29194234D01*
X39744440Y-29260100D01*
X39889273Y-29335428D01*
X40017610Y-29401358D01*
X40159447Y-29480202D01*
X40267625Y-29549682D01*
X40345661Y-29612752D01*
X40397072Y-29672367D01*
X40425375Y-29731480D01*
X40434088Y-29793046D01*
X40449747Y-29853458D01*
X40497808Y-29940347D01*
X40577460Y-30051243D01*
X40687884Y-30185007D01*
X40828260Y-30340500D01*
X40935052Y-30457308D01*
X41151362Y-30708230D01*
X41367181Y-30976401D01*
X41577178Y-31254420D01*
X41776021Y-31534888D01*
X41958378Y-31810405D01*
X42118918Y-32073571D01*
X42252309Y-32316986D01*
X42301595Y-32408509D01*
X42351137Y-32491517D01*
X42393933Y-32554477D01*
X42424232Y-32588314D01*
X42456808Y-32605523D01*
X42534928Y-32628711D01*
X42637485Y-32645395D01*
X42714425Y-32655864D01*
X42813757Y-32679225D01*
X42900762Y-32716741D01*
X42988522Y-32774584D01*
X43090122Y-32858925D01*
X43100708Y-32868172D01*
X43269916Y-32994222D01*
X43454854Y-33096463D01*
X43640917Y-33166734D01*
X43730637Y-33194795D01*
X43816869Y-33233549D01*
X43881185Y-33284210D01*
X43934888Y-33356271D01*
X43989286Y-33459222D01*
X43995532Y-33472289D01*
X44054057Y-33604115D01*
X44104879Y-33734945D01*
X44144953Y-33855685D01*
X44171231Y-33957242D01*
X44180667Y-34030521D01*
X44179085Y-34055156D01*
X44157292Y-34120387D01*
X44105206Y-34194483D01*
X44069894Y-34242375D01*
X44046067Y-34297338D01*
X44046001Y-34352375D01*
X44071936Y-34412247D01*
X44126109Y-34481716D01*
X44210760Y-34565541D01*
X44328128Y-34668484D01*
X44393719Y-34724795D01*
X44478904Y-34803368D01*
X44538688Y-34871493D01*
X44578145Y-34938789D01*
X44602346Y-35014873D01*
X44616366Y-35109363D01*
X44625275Y-35231877D01*
X44628025Y-35276345D01*
X44637994Y-35389014D01*
X44651579Y-35466819D01*
X44670714Y-35515405D01*
X44697332Y-35540417D01*
X44733365Y-35547500D01*
X44751217Y-35548817D01*
X44823482Y-35567384D01*
X44912503Y-35603388D01*
X45005228Y-35651055D01*
X45088607Y-35704615D01*
X45173924Y-35781949D01*
X45242717Y-35881522D01*
X45249377Y-35895979D01*
X45277657Y-35994628D01*
X45289776Y-36123248D01*
X45285695Y-36284113D01*
X45284866Y-36292077D01*
X45265377Y-36479495D01*
X45228782Y-36711667D01*
X45204894Y-36856972D01*
X45179002Y-37073340D01*
X45170499Y-37262823D01*
X45179189Y-37432658D01*
X45204876Y-37590084D01*
X45226695Y-37683744D01*
X45269416Y-37850664D01*
X45317921Y-38024763D01*
X45368645Y-38193878D01*
X45418020Y-38345845D01*
X45462479Y-38468500D01*
X45463634Y-38471445D01*
X45512268Y-38602283D01*
X45544906Y-38711150D01*
X45564542Y-38813571D01*
X45574169Y-38925068D01*
X45576782Y-39061167D01*
X45576256Y-39111043D01*
X45566518Y-39275137D01*
X45545661Y-39423922D01*
X45515213Y-39548558D01*
X45476702Y-39640207D01*
X45456911Y-39670906D01*
X45433457Y-39692211D01*
X45397502Y-39706040D01*
X45339154Y-39716119D01*
X45248525Y-39726174D01*
X45226585Y-39728037D01*
X45134214Y-39731844D01*
X45008715Y-39733025D01*
X44856942Y-39731820D01*
X44685747Y-39728472D01*
X44501983Y-39723221D01*
X44312505Y-39716309D01*
X44124163Y-39707977D01*
X43943813Y-39698467D01*
X43778306Y-39688020D01*
X43634497Y-39676876D01*
X43519238Y-39665279D01*
X43344515Y-39640882D01*
X43194818Y-39610868D01*
X43063457Y-39572931D01*
X42938292Y-39524122D01*
X42913790Y-39513534D01*
X42835657Y-39482511D01*
X42760117Y-39458409D01*
X42679683Y-39440036D01*
X42586867Y-39426197D01*
X42474181Y-39415700D01*
X42334138Y-39407350D01*
X42159250Y-39399955D01*
X42127652Y-39398758D01*
X41963342Y-39391771D01*
X41830369Y-39383628D01*
X41719335Y-39372536D01*
X41620846Y-39356701D01*
X41525506Y-39334330D01*
X41423918Y-39303628D01*
X41306687Y-39262804D01*
X41164417Y-39210062D01*
X41120761Y-39193829D01*
X40906385Y-39119840D01*
X40717506Y-39065694D01*
X40545401Y-39029140D01*
X40381349Y-39007928D01*
X40381337Y-39007926D01*
X40278678Y-38995078D01*
X40172223Y-38975667D01*
X40085016Y-38953896D01*
X40003154Y-38929672D01*
X39823675Y-38885099D01*
X39640168Y-38852830D01*
X39433630Y-38829230D01*
X39289429Y-38813083D01*
X39172332Y-38791529D01*
X39076121Y-38761589D01*
X38989939Y-38719860D01*
X38902930Y-38662940D01*
X38840592Y-38623686D01*
X38714915Y-38572198D01*
X38563860Y-38542117D01*
X38381000Y-38531830D01*
X38345138Y-38531457D01*
X38230727Y-38528156D01*
X38108467Y-38522088D01*
X37986719Y-38513933D01*
X37873842Y-38504373D01*
X37778196Y-38494089D01*
X37708143Y-38483761D01*
X37672042Y-38474072D01*
X37671920Y-38474003D01*
X37644237Y-38452323D01*
X37593720Y-38407401D01*
X37527515Y-38345762D01*
X37452770Y-38273928D01*
X37355403Y-38182769D01*
X37269265Y-38112624D01*
X37184472Y-38056934D01*
X37088248Y-38006322D01*
X36949583Y-37943437D01*
X36791850Y-37885752D01*
X36638745Y-37848796D01*
X36475038Y-37829096D01*
X36285500Y-37823176D01*
X35999750Y-37822917D01*
X35812509Y-37912875D01*
X35802990Y-37917427D01*
X35675929Y-37971730D01*
X35572970Y-37998200D01*
X35485263Y-37994959D01*
X35403957Y-37960128D01*
X35320203Y-37891827D01*
X35225150Y-37788178D01*
X35204592Y-37764186D01*
X35069453Y-37617696D01*
X34935995Y-37495784D01*
X34797953Y-37395435D01*
X34649056Y-37313630D01*
X34483039Y-37247352D01*
X34293633Y-37193583D01*
X34074571Y-37149306D01*
X33819584Y-37111504D01*
X33771727Y-37105238D01*
X33628876Y-37084797D01*
X33520778Y-37064856D01*
X33441661Y-37042896D01*
X33385755Y-37016397D01*
X33347287Y-36982840D01*
X33320487Y-36939704D01*
X33299583Y-36884470D01*
X33298000Y-36879624D01*
X33241441Y-36764403D01*
X33157903Y-36663488D01*
X33058790Y-36590788D01*
X33053457Y-36588115D01*
X33024097Y-36577421D01*
X32984273Y-36570313D01*
X32927625Y-36566546D01*
X32847791Y-36565876D01*
X32738411Y-36568056D01*
X32593124Y-36572842D01*
X32496071Y-36576076D01*
X32345738Y-36578916D01*
X32217290Y-36576942D01*
X32100308Y-36568976D01*
X31984372Y-36553839D01*
X31859062Y-36530354D01*
X31713961Y-36497342D01*
X31538647Y-36453626D01*
X31418104Y-36424017D01*
X31288324Y-36396105D01*
X31197896Y-36382412D01*
X31147063Y-36382983D01*
X31118007Y-36395191D01*
X31060935Y-36435013D01*
X30999759Y-36490852D01*
X30944151Y-36552600D01*
X30903782Y-36610148D01*
X30888325Y-36653388D01*
X30888671Y-36665814D01*
X30894888Y-36700549D01*
X30913434Y-36732953D01*
X30950197Y-36769225D01*
X31011068Y-36815561D01*
X31101934Y-36878158D01*
X31103450Y-36879181D01*
X31202721Y-36949360D01*
X31275732Y-37011651D01*
X31329126Y-37075981D01*
X31369545Y-37152282D01*
X31403634Y-37250483D01*
X31438035Y-37380512D01*
X31463189Y-37454225D01*
X31528090Y-37564835D01*
X31613635Y-37650984D01*
X31636398Y-37665147D01*
X31726904Y-37693944D01*
X31848890Y-37703438D01*
X31997677Y-37693518D01*
X32168584Y-37664073D01*
X32290495Y-37638312D01*
X32420857Y-37615072D01*
X32525030Y-37605445D01*
X32611409Y-37611118D01*
X32688390Y-37633781D01*
X32764370Y-37675122D01*
X32847745Y-37736829D01*
X32946912Y-37820590D01*
X32947281Y-37820911D01*
X33064261Y-37921385D01*
X33156842Y-37997954D01*
X33231672Y-38055456D01*
X33295402Y-38098727D01*
X33354681Y-38132604D01*
X33416159Y-38161925D01*
X33436503Y-38171047D01*
X33492958Y-38200381D01*
X33532015Y-38233315D01*
X33564971Y-38281645D01*
X33603122Y-38357168D01*
X33634479Y-38417219D01*
X33682310Y-38488467D01*
X33724334Y-38526236D01*
X33741941Y-38532110D01*
X33792195Y-38539851D01*
X33872313Y-38545658D01*
X33985408Y-38549669D01*
X34134590Y-38552022D01*
X34322972Y-38552855D01*
X34500226Y-38553343D01*
X34647167Y-38555239D01*
X34761963Y-38559463D01*
X34849796Y-38566940D01*
X34915847Y-38578597D01*
X34965298Y-38595359D01*
X35003330Y-38618151D01*
X35035126Y-38647898D01*
X35065867Y-38685525D01*
X35103367Y-38737346D01*
X35184793Y-38863865D01*
X35269241Y-39010741D01*
X35349400Y-39164934D01*
X35417958Y-39313409D01*
X35440043Y-39364410D01*
X35477462Y-39444770D01*
X35506198Y-39494513D01*
X35530179Y-39519837D01*
X35553337Y-39526938D01*
X35567479Y-39526695D01*
X35621685Y-39525223D01*
X35709580Y-39522564D01*
X35825787Y-39518890D01*
X35964925Y-39514372D01*
X36121618Y-39509181D01*
X36290485Y-39503488D01*
X36983387Y-39479933D01*
X37219524Y-39704616D01*
X37244472Y-39728226D01*
X37368035Y-39839669D01*
X37475585Y-39924027D01*
X37576134Y-39986202D01*
X37678697Y-40031092D01*
X37792287Y-40063596D01*
X37925917Y-40088616D01*
X37957495Y-40093549D01*
X38085558Y-40113549D01*
X38220779Y-40134662D01*
X38338667Y-40153063D01*
X38475521Y-40177367D01*
X38648030Y-40220405D01*
X38785620Y-40273379D01*
X38892448Y-40338457D01*
X38972674Y-40417806D01*
X39030456Y-40513594D01*
X39086427Y-40609150D01*
X39164377Y-40683068D01*
X39174858Y-40689760D01*
X39265643Y-40736303D01*
X39395922Y-40788147D01*
X39566176Y-40845445D01*
X39776885Y-40908351D01*
X40028529Y-40977018D01*
X40321588Y-41051598D01*
X40350915Y-41058864D01*
X40688475Y-41145625D01*
X40992230Y-41230156D01*
X41269802Y-41314893D01*
X41528817Y-41402270D01*
X41776897Y-41494723D01*
X42021667Y-41594688D01*
X42175749Y-41661539D01*
X42411136Y-41769254D01*
X42642695Y-41882744D01*
X42875684Y-42004978D01*
X43115359Y-42138927D01*
X43366974Y-42287558D01*
X43635787Y-42453842D01*
X43927053Y-42640747D01*
X44246028Y-42851242D01*
X44328715Y-42906296D01*
X44461121Y-42993898D01*
X44579933Y-43071822D01*
X44680843Y-43137282D01*
X44759543Y-43187490D01*
X44811724Y-43219658D01*
X44833079Y-43231000D01*
X44841597Y-43225617D01*
X44875176Y-43194291D01*
X44928361Y-43139697D01*
X44995952Y-43067232D01*
X45072749Y-42982292D01*
X45170901Y-42871342D01*
X45340268Y-42674771D01*
X45480943Y-42503578D01*
X45594558Y-42355593D01*
X45682745Y-42228644D01*
X45747137Y-42120563D01*
X45789364Y-42029177D01*
X45804622Y-41990641D01*
X45828271Y-41948912D01*
X45858887Y-41930067D01*
X45908994Y-41922990D01*
X45955277Y-41923400D01*
X46017436Y-41940969D01*
X46091663Y-41983526D01*
X46121547Y-42002808D01*
X46177139Y-42031910D01*
X46225645Y-42041457D01*
X46285250Y-42036415D01*
X46329811Y-42026482D01*
X46423461Y-41992597D01*
X46543658Y-41936154D01*
X46692098Y-41856270D01*
X46870479Y-41752062D01*
X47080500Y-41622647D01*
X47231670Y-41528007D01*
X47417987Y-41412855D01*
X47579604Y-41315144D01*
X47722642Y-41231307D01*
X47853218Y-41157777D01*
X47977454Y-41090984D01*
X48101467Y-41027362D01*
X48149621Y-41003432D01*
X48270228Y-40946858D01*
X48356540Y-40913200D01*
X48409813Y-40902906D01*
X48431302Y-40916423D01*
X48422264Y-40954198D01*
X48383954Y-41016678D01*
X48317629Y-41104311D01*
X48301189Y-41124770D01*
X48186340Y-41260541D01*
X48045394Y-41417500D01*
X47883654Y-41590361D01*
X47706427Y-41773836D01*
X47519014Y-41962639D01*
X47326722Y-42151482D01*
X47134853Y-42335080D01*
X46948713Y-42508145D01*
X46773605Y-42665390D01*
X46614834Y-42801529D01*
X46218172Y-43119901D01*
X45610104Y-43566273D01*
X44980292Y-43981098D01*
X44332024Y-44362587D01*
X43668590Y-44708948D01*
X42993279Y-45018393D01*
X42309379Y-45289132D01*
X41620180Y-45519375D01*
X41286393Y-45615929D01*
X40938980Y-45707632D01*
X40586975Y-45792419D01*
X40236659Y-45869055D01*
X39894314Y-45936307D01*
X39566220Y-45992942D01*
X39258657Y-46037726D01*
X38977907Y-46069427D01*
X38730250Y-46086811D01*
X38494799Y-46095659D01*
X38213481Y-46102606D01*
X37929488Y-46105328D01*
X37632958Y-46103832D01*
X37314027Y-46098126D01*
X36962834Y-46088219D01*
X36951854Y-46087862D01*
X36648296Y-46077125D01*
X36380388Y-46065545D01*
X36141668Y-46052470D01*
X35925672Y-46037247D01*
X35725938Y-46019222D01*
X35536001Y-45997745D01*
X35349399Y-45972160D01*
X35159668Y-45941817D01*
X34960345Y-45906063D01*
X34744967Y-45864244D01*
X34200736Y-45744243D01*
X33461829Y-45544489D01*
X32736795Y-45305571D01*
X32027229Y-45028335D01*
X31334728Y-44713629D01*
X30660888Y-44362300D01*
X30007305Y-43975196D01*
X29375576Y-43553163D01*
X28767298Y-43097050D01*
X28184065Y-42607703D01*
X27627475Y-42085971D01*
X27093667Y-41528148D01*
X26589338Y-40940781D01*
X26119332Y-40329017D01*
X25684109Y-39693659D01*
X25284126Y-39035512D01*
X24919843Y-38355380D01*
X24591720Y-37654067D01*
X24300214Y-36932377D01*
X24045786Y-36191114D01*
X23828893Y-35431084D01*
X23796301Y-35303084D01*
X28677156Y-35303084D01*
X28698749Y-35362101D01*
X28702686Y-35369331D01*
X28742273Y-35423682D01*
X28808922Y-35499814D01*
X28897908Y-35593354D01*
X29004509Y-35699931D01*
X29124004Y-35815172D01*
X29251669Y-35934704D01*
X29382783Y-36054156D01*
X29512621Y-36169156D01*
X29636463Y-36275331D01*
X29749585Y-36368309D01*
X29847265Y-36443718D01*
X29924780Y-36497185D01*
X29951158Y-36512722D01*
X30048116Y-36557054D01*
X30136087Y-36579380D01*
X30188265Y-36583463D01*
X30229281Y-36576763D01*
X30267114Y-36551719D01*
X30317369Y-36501641D01*
X30349841Y-36461949D01*
X30403575Y-36382041D01*
X30462252Y-36282185D01*
X30519149Y-36173321D01*
X30568570Y-36068519D01*
X30612422Y-35959554D01*
X30634712Y-35873565D01*
X30636327Y-35803527D01*
X30618155Y-35742415D01*
X30581084Y-35683203D01*
X30531139Y-35628552D01*
X30421383Y-35543477D01*
X30279766Y-35462266D01*
X30112710Y-35387134D01*
X29926635Y-35320291D01*
X29727964Y-35263950D01*
X29523117Y-35220323D01*
X29318517Y-35191622D01*
X29120584Y-35180060D01*
X29002575Y-35180100D01*
X28869775Y-35186036D01*
X28773813Y-35200017D01*
X28711709Y-35223328D01*
X28680483Y-35257255D01*
X28677156Y-35303084D01*
X23796301Y-35303084D01*
X23788395Y-35272033D01*
X23720433Y-34994140D01*
X23664015Y-34744936D01*
X23617898Y-34516898D01*
X23580838Y-34302501D01*
X23551592Y-34094220D01*
X23535941Y-33949502D01*
X43147319Y-33949502D01*
X43147621Y-34043753D01*
X43171672Y-34121704D01*
X43225624Y-34197737D01*
X43229859Y-34202635D01*
X43275418Y-34262199D01*
X43317441Y-34332668D01*
X43359514Y-34421547D01*
X43405222Y-34536344D01*
X43458150Y-34684564D01*
X43478885Y-34744313D01*
X43532137Y-34892727D01*
X43578277Y-35011698D01*
X43620841Y-35109537D01*
X43663365Y-35194558D01*
X43709387Y-35275072D01*
X43726062Y-35304658D01*
X43777158Y-35422072D01*
X43812967Y-35546911D01*
X43840251Y-35649536D01*
X43885111Y-35781194D01*
X43893846Y-35803527D01*
X43942060Y-35926806D01*
X44006338Y-36074867D01*
X44073184Y-36213869D01*
X44137840Y-36332305D01*
X44176628Y-36392703D01*
X44242742Y-36476156D01*
X44303639Y-36529910D01*
X44377384Y-36570210D01*
X44464228Y-36593099D01*
X44548559Y-36583416D01*
X44612022Y-36554630D01*
X44686858Y-36485159D01*
X44734498Y-36390839D01*
X44739743Y-36369973D01*
X44742151Y-36292077D01*
X44717611Y-36204315D01*
X44664065Y-36101190D01*
X44579451Y-35977206D01*
X44573013Y-35968486D01*
X44492781Y-35854048D01*
X44437117Y-35760349D01*
X44401319Y-35678455D01*
X44380689Y-35599432D01*
X44373129Y-35562947D01*
X44346167Y-35481764D01*
X44301606Y-35403324D01*
X44231806Y-35312923D01*
X44224575Y-35304234D01*
X44163886Y-35221714D01*
X44122446Y-35139696D01*
X44094541Y-35043920D01*
X44074459Y-34920123D01*
X44044973Y-34775084D01*
X43986271Y-34597149D01*
X43905699Y-34413090D01*
X43808781Y-34234084D01*
X43701040Y-34071308D01*
X43588000Y-33935939D01*
X43525823Y-33874473D01*
X43475139Y-33834684D01*
X43427048Y-33812531D01*
X43369113Y-33800309D01*
X43302174Y-33796396D01*
X43222073Y-33816455D01*
X43170205Y-33867658D01*
X43147319Y-33949502D01*
X23535941Y-33949502D01*
X23528915Y-33884532D01*
X23511565Y-33665911D01*
X23498298Y-33430834D01*
X23494692Y-33338578D01*
X23490798Y-33189551D01*
X23487799Y-33012575D01*
X23485662Y-32812336D01*
X23484354Y-32593519D01*
X23483841Y-32360808D01*
X23484091Y-32118891D01*
X23485068Y-31872451D01*
X23486741Y-31626174D01*
X23489076Y-31384747D01*
X23492039Y-31152853D01*
X23495597Y-30935178D01*
X23499716Y-30736408D01*
X23504364Y-30561229D01*
X23509507Y-30414324D01*
X23515111Y-30300381D01*
X23521144Y-30224084D01*
X23537819Y-30087837D01*
X23591734Y-29739839D01*
X23663967Y-29365337D01*
X23752544Y-28971508D01*
X23855491Y-28565530D01*
X23970834Y-28154578D01*
X24096599Y-27745831D01*
X24230813Y-27346464D01*
X24371500Y-26963656D01*
X24516687Y-26604584D01*
X24631097Y-26342247D01*
X24840624Y-25893698D01*
X24848581Y-25878108D01*
X31904882Y-25878108D01*
X31933861Y-25975926D01*
X31977674Y-26040440D01*
X32063205Y-26121689D01*
X32162612Y-26180127D01*
X32215788Y-26201386D01*
X32255620Y-26209240D01*
X32293844Y-26199472D01*
X32350053Y-26171144D01*
X32364711Y-26162774D01*
X32435006Y-26110025D01*
X32506466Y-26040547D01*
X32566732Y-25967388D01*
X32603445Y-25903599D01*
X32621294Y-25829703D01*
X32613263Y-25731806D01*
X32571074Y-25645496D01*
X32499477Y-25576615D01*
X32403222Y-25531002D01*
X32287058Y-25514500D01*
X32231317Y-25517549D01*
X32120212Y-25548661D01*
X32023819Y-25616388D01*
X31967874Y-25679206D01*
X31916583Y-25777750D01*
X31904882Y-25878108D01*
X24848581Y-25878108D01*
X25063701Y-25456627D01*
X25304456Y-25023745D01*
X25567015Y-24587762D01*
X25855506Y-24141389D01*
X26174056Y-23677337D01*
X26192992Y-23650485D01*
X26278083Y-23530676D01*
X26343151Y-23441278D01*
X26391444Y-23378494D01*
X26426214Y-23338523D01*
X26450710Y-23317567D01*
X26468182Y-23311827D01*
X26481881Y-23317504D01*
X26492947Y-23326459D01*
X26535747Y-23362258D01*
X26596866Y-23414174D01*
X26666968Y-23474300D01*
X26708643Y-23509800D01*
X26814469Y-23594043D01*
X26905144Y-23653909D01*
X26990677Y-23694482D01*
X27081081Y-23720845D01*
X27186365Y-23738084D01*
X27261689Y-23747554D01*
X27393436Y-23765449D01*
X27495152Y-23782132D01*
X27575047Y-23799555D01*
X27641332Y-23819668D01*
X27702218Y-23844420D01*
X27765917Y-23875764D01*
X27820475Y-23902390D01*
X27917695Y-23939388D01*
X27991102Y-23951861D01*
X28039362Y-23945442D01*
X28117928Y-23927984D01*
X28214871Y-23902212D01*
X28319185Y-23870843D01*
X28403156Y-23844757D01*
X28503039Y-23817314D01*
X28586785Y-23800755D01*
X28668337Y-23792534D01*
X28761635Y-23790109D01*
X28833769Y-23791119D01*
X28931852Y-23800554D01*
X29003244Y-23822865D01*
X29057496Y-23861693D01*
X29104155Y-23920677D01*
X29114306Y-23939358D01*
X29135155Y-24017333D01*
X29139580Y-24111574D01*
X29127782Y-24204921D01*
X29099960Y-24280214D01*
X29097818Y-24283799D01*
X29050718Y-24344227D01*
X28990353Y-24386397D01*
X28911326Y-24411339D01*
X28808237Y-24420083D01*
X28675691Y-24413658D01*
X28508290Y-24393094D01*
X28503787Y-24392437D01*
X28396255Y-24377487D01*
X28261545Y-24359854D01*
X28104981Y-24340144D01*
X27931883Y-24318965D01*
X27747574Y-24296922D01*
X27557377Y-24274623D01*
X27366614Y-24252675D01*
X27180607Y-24231685D01*
X27004679Y-24212259D01*
X26844151Y-24195004D01*
X26704346Y-24180527D01*
X26590586Y-24169435D01*
X26508194Y-24162335D01*
X26462491Y-24159833D01*
X26379198Y-24167260D01*
X26269162Y-24208082D01*
X26181530Y-24284766D01*
X26115927Y-24397568D01*
X26087444Y-24501068D01*
X26092687Y-24605667D01*
X26133071Y-24721194D01*
X26174032Y-24797787D01*
X26265567Y-24911322D01*
X26381875Y-24992266D01*
X26527667Y-25044479D01*
X26535902Y-25046395D01*
X26621072Y-25061947D01*
X26743517Y-25079087D01*
X26898808Y-25097430D01*
X27082521Y-25116592D01*
X27290229Y-25136187D01*
X27517505Y-25155831D01*
X27759924Y-25175139D01*
X28013059Y-25193727D01*
X28272485Y-25211210D01*
X28533774Y-25227203D01*
X28792500Y-25241321D01*
X28878470Y-25245295D01*
X29100932Y-25252377D01*
X29335360Y-25255873D01*
X29574009Y-25255922D01*
X29809133Y-25252664D01*
X30032986Y-25246241D01*
X30237823Y-25236790D01*
X30415899Y-25224454D01*
X30559466Y-25209371D01*
X30600912Y-25203976D01*
X30718546Y-25191287D01*
X30806878Y-25189290D01*
X30875460Y-25200434D01*
X30933847Y-25227167D01*
X30991594Y-25271936D01*
X31058253Y-25337192D01*
X31061717Y-25340729D01*
X31130683Y-25404621D01*
X31201164Y-25460018D01*
X31258417Y-25495278D01*
X31295151Y-25509670D01*
X31417569Y-25532007D01*
X31570115Y-25529575D01*
X31749682Y-25502329D01*
X31787823Y-25494152D01*
X31957397Y-25448093D01*
X32090355Y-25392773D01*
X32191029Y-25326028D01*
X32263753Y-25245697D01*
X32285183Y-25206942D01*
X32301006Y-25118275D01*
X32276454Y-25022741D01*
X32212285Y-24921389D01*
X32109262Y-24815264D01*
X31968143Y-24705415D01*
X31789690Y-24592888D01*
X31722844Y-24550564D01*
X31643190Y-24489631D01*
X31579303Y-24428980D01*
X31538202Y-24375475D01*
X31526910Y-24335981D01*
X31536032Y-24317826D01*
X31561562Y-24304775D01*
X31608112Y-24299964D01*
X31680810Y-24303378D01*
X31784785Y-24315002D01*
X31925167Y-24334821D01*
X31994938Y-24344630D01*
X32129425Y-24361487D01*
X32271963Y-24377399D01*
X32401417Y-24389920D01*
X32498898Y-24399171D01*
X32620613Y-24414756D01*
X32729457Y-24435611D01*
X32835498Y-24464621D01*
X32948807Y-24504670D01*
X33079451Y-24558642D01*
X33237500Y-24629423D01*
X33271815Y-24645008D01*
X33421112Y-24710832D01*
X33585100Y-24780622D01*
X33746152Y-24846965D01*
X33886644Y-24902446D01*
X33967124Y-24933577D01*
X34160255Y-25012049D01*
X34320767Y-25084153D01*
X34454723Y-25153176D01*
X34568189Y-25222404D01*
X34667229Y-25295124D01*
X34757907Y-25374623D01*
X34784403Y-25400799D01*
X34849890Y-25476691D01*
X34893697Y-25545486D01*
X34909667Y-25598116D01*
X34898443Y-25624370D01*
X34867334Y-25662667D01*
X34836162Y-25685683D01*
X34783925Y-25700737D01*
X34703292Y-25704983D01*
X34654964Y-25702284D01*
X34515745Y-25669314D01*
X34364874Y-25600279D01*
X34206631Y-25496972D01*
X34180487Y-25477951D01*
X34008811Y-25373545D01*
X33823216Y-25291327D01*
X33633394Y-25234317D01*
X33449036Y-25205538D01*
X33279834Y-25208012D01*
X33226691Y-25216078D01*
X33172737Y-25233471D01*
X33124377Y-25266287D01*
X33065437Y-25323217D01*
X33034582Y-25356903D01*
X32931423Y-25496806D01*
X32840627Y-25661777D01*
X32773363Y-25829703D01*
X32769855Y-25838462D01*
G37*
%TD*%
D12*
%TO.C,U2*%
X138280000Y-53700000D03*
X135740000Y-53700000D03*
X133200000Y-53700000D03*
X130660000Y-53700000D03*
X128120000Y-53700000D03*
X125580000Y-53700000D03*
X123040000Y-53700000D03*
X120500000Y-53700000D03*
X117960000Y-53700000D03*
X115420000Y-53700000D03*
X112880000Y-53700000D03*
X110340000Y-53700000D03*
X107800000Y-53700000D03*
X105260000Y-53700000D03*
X102720000Y-53700000D03*
X102720000Y-28300000D03*
X105260000Y-28300000D03*
X107800000Y-28300000D03*
X110340000Y-28300000D03*
X112880000Y-28300000D03*
X115420000Y-28300000D03*
X117960000Y-28300000D03*
X120500000Y-28300000D03*
X123040000Y-28300000D03*
X125580000Y-28300000D03*
X128120000Y-28300000D03*
X130660000Y-28300000D03*
X133200000Y-28300000D03*
X135740000Y-28300000D03*
X138280000Y-28300000D03*
%TD*%
D13*
%TO.C,D1*%
X53500000Y-60500000D03*
D14*
X50960000Y-60500000D03*
%TD*%
D15*
%TO.C,J5*%
X104500000Y-7000000D03*
D16*
X104500000Y-9540000D03*
X107040000Y-7000000D03*
X107040000Y-9540000D03*
X109579999Y-7000000D03*
X109580000Y-9540000D03*
%TD*%
D15*
%TO.C,J1*%
X64570529Y-25380000D03*
D17*
X64570529Y-27920000D03*
X64570529Y-30460000D03*
X64570529Y-33000000D03*
X64570529Y-35540000D03*
X64570529Y-38080000D03*
X64570529Y-40620000D03*
%TD*%
D14*
%TO.C,S1*%
X146500000Y-148500000D03*
X146500000Y-151000000D03*
X146500000Y-153500000D03*
X143300000Y-148500000D03*
X143300000Y-151000000D03*
X143300000Y-153500000D03*
%TD*%
D15*
%TO.C,J2*%
X73825000Y-18770000D03*
D17*
X76365000Y-18770000D03*
X78904999Y-18770001D03*
X81445000Y-18770000D03*
X83985000Y-18769999D03*
X86525000Y-18770001D03*
%TD*%
D18*
%TO.C,J4*%
X133000000Y-153450000D03*
D19*
X135000000Y-153450000D03*
%TD*%
D15*
%TO.C,U1*%
X145717500Y-159250000D03*
D16*
X145717500Y-161790000D03*
X145717500Y-164330000D03*
X145717500Y-166870000D03*
X145717500Y-169410000D03*
X145717500Y-171950000D03*
%TD*%
D15*
%TO.C,J3*%
X75310001Y-132310002D03*
D17*
X75310000Y-129770000D03*
X75309999Y-127230002D03*
X75310000Y-124690002D03*
X75310000Y-122150000D03*
X75310001Y-119610001D03*
X75309999Y-117070000D03*
X75310001Y-114530001D03*
%TD*%
M02*
