%TF.GenerationSoftware,KiCad,Pcbnew,9.0.5*%
%TF.CreationDate,2025-10-19T16:17:39-07:00*%
%TF.ProjectId,DC34_Cnet_Badge_Main,44433334-5f43-46e6-9574-5f4261646765,rev?*%
%TF.SameCoordinates,Original*%
%TF.FileFunction,Legend,Bot*%
%TF.FilePolarity,Positive*%
%FSLAX46Y46*%
G04 Gerber Fmt 4.6, Leading zero omitted, Abs format (unit mm)*
G04 Created by KiCad (PCBNEW 9.0.5) date 2025-10-19 16:17:39*
%MOMM*%
%LPD*%
G01*
G04 APERTURE LIST*
%ADD10C,0.150000*%
%ADD11C,0.120000*%
G04 APERTURE END LIST*
D10*
X121404761Y-105747438D02*
X122357142Y-105747438D01*
X122357142Y-105747438D02*
X122357142Y-103747438D01*
X120738094Y-105747438D02*
X120738094Y-103747438D01*
X119785713Y-105747438D02*
X119785713Y-103747438D01*
X119785713Y-103747438D02*
X119023808Y-103747438D01*
X119023808Y-103747438D02*
X118833332Y-103842676D01*
X118833332Y-103842676D02*
X118738094Y-103937914D01*
X118738094Y-103937914D02*
X118642856Y-104128390D01*
X118642856Y-104128390D02*
X118642856Y-104414104D01*
X118642856Y-104414104D02*
X118738094Y-104604580D01*
X118738094Y-104604580D02*
X118833332Y-104699819D01*
X118833332Y-104699819D02*
X119023808Y-104795057D01*
X119023808Y-104795057D02*
X119785713Y-104795057D01*
X117404761Y-103747438D02*
X117023808Y-103747438D01*
X117023808Y-103747438D02*
X116833332Y-103842676D01*
X116833332Y-103842676D02*
X116642856Y-104033152D01*
X116642856Y-104033152D02*
X116547618Y-104414104D01*
X116547618Y-104414104D02*
X116547618Y-105080771D01*
X116547618Y-105080771D02*
X116642856Y-105461723D01*
X116642856Y-105461723D02*
X116833332Y-105652200D01*
X116833332Y-105652200D02*
X117023808Y-105747438D01*
X117023808Y-105747438D02*
X117404761Y-105747438D01*
X117404761Y-105747438D02*
X117595237Y-105652200D01*
X117595237Y-105652200D02*
X117785713Y-105461723D01*
X117785713Y-105461723D02*
X117880951Y-105080771D01*
X117880951Y-105080771D02*
X117880951Y-104414104D01*
X117880951Y-104414104D02*
X117785713Y-104033152D01*
X117785713Y-104033152D02*
X117595237Y-103842676D01*
X117595237Y-103842676D02*
X117404761Y-103747438D01*
X99500000Y-73500000D02*
X139500000Y-73500000D01*
X139500000Y-138500000D01*
X99500000Y-138500000D01*
X99500000Y-73500000D01*
X80333334Y-8454819D02*
X80333334Y-9169104D01*
X80333334Y-9169104D02*
X80380953Y-9311961D01*
X80380953Y-9311961D02*
X80476191Y-9407200D01*
X80476191Y-9407200D02*
X80619048Y-9454819D01*
X80619048Y-9454819D02*
X80714286Y-9454819D01*
X79904762Y-8550057D02*
X79857143Y-8502438D01*
X79857143Y-8502438D02*
X79761905Y-8454819D01*
X79761905Y-8454819D02*
X79523810Y-8454819D01*
X79523810Y-8454819D02*
X79428572Y-8502438D01*
X79428572Y-8502438D02*
X79380953Y-8550057D01*
X79380953Y-8550057D02*
X79333334Y-8645295D01*
X79333334Y-8645295D02*
X79333334Y-8740533D01*
X79333334Y-8740533D02*
X79380953Y-8883390D01*
X79380953Y-8883390D02*
X79952381Y-9454819D01*
X79952381Y-9454819D02*
X79333334Y-9454819D01*
X81225419Y-15591792D02*
X81177800Y-15639411D01*
X81177800Y-15639411D02*
X81130180Y-15782268D01*
X81130180Y-15782268D02*
X81130180Y-15877506D01*
X81130180Y-15877506D02*
X81177800Y-16020363D01*
X81177800Y-16020363D02*
X81273038Y-16115601D01*
X81273038Y-16115601D02*
X81368276Y-16163220D01*
X81368276Y-16163220D02*
X81558752Y-16210839D01*
X81558752Y-16210839D02*
X81701609Y-16210839D01*
X81701609Y-16210839D02*
X81892085Y-16163220D01*
X81892085Y-16163220D02*
X81987323Y-16115601D01*
X81987323Y-16115601D02*
X82082561Y-16020363D01*
X82082561Y-16020363D02*
X82130180Y-15877506D01*
X82130180Y-15877506D02*
X82130180Y-15782268D01*
X82130180Y-15782268D02*
X82082561Y-15639411D01*
X82082561Y-15639411D02*
X82034942Y-15591792D01*
X81130180Y-14687030D02*
X81130180Y-15163220D01*
X81130180Y-15163220D02*
X82130180Y-15163220D01*
X81130180Y-14353696D02*
X82130180Y-14353696D01*
X81130180Y-13782268D02*
X81701609Y-14210839D01*
X82130180Y-13782268D02*
X81558752Y-14353696D01*
X78130180Y-16163220D02*
X79130180Y-16163220D01*
X79130180Y-16163220D02*
X78415895Y-15829887D01*
X78415895Y-15829887D02*
X79130180Y-15496554D01*
X79130180Y-15496554D02*
X78130180Y-15496554D01*
X79130180Y-14829887D02*
X79130180Y-14639411D01*
X79130180Y-14639411D02*
X79082561Y-14544173D01*
X79082561Y-14544173D02*
X78987323Y-14448935D01*
X78987323Y-14448935D02*
X78796847Y-14401316D01*
X78796847Y-14401316D02*
X78463514Y-14401316D01*
X78463514Y-14401316D02*
X78273038Y-14448935D01*
X78273038Y-14448935D02*
X78177800Y-14544173D01*
X78177800Y-14544173D02*
X78130180Y-14639411D01*
X78130180Y-14639411D02*
X78130180Y-14829887D01*
X78130180Y-14829887D02*
X78177800Y-14925125D01*
X78177800Y-14925125D02*
X78273038Y-15020363D01*
X78273038Y-15020363D02*
X78463514Y-15067982D01*
X78463514Y-15067982D02*
X78796847Y-15067982D01*
X78796847Y-15067982D02*
X78987323Y-15020363D01*
X78987323Y-15020363D02*
X79082561Y-14925125D01*
X79082561Y-14925125D02*
X79130180Y-14829887D01*
X78177800Y-14020363D02*
X78130180Y-13877506D01*
X78130180Y-13877506D02*
X78130180Y-13639411D01*
X78130180Y-13639411D02*
X78177800Y-13544173D01*
X78177800Y-13544173D02*
X78225419Y-13496554D01*
X78225419Y-13496554D02*
X78320657Y-13448935D01*
X78320657Y-13448935D02*
X78415895Y-13448935D01*
X78415895Y-13448935D02*
X78511133Y-13496554D01*
X78511133Y-13496554D02*
X78558752Y-13544173D01*
X78558752Y-13544173D02*
X78606371Y-13639411D01*
X78606371Y-13639411D02*
X78653990Y-13829887D01*
X78653990Y-13829887D02*
X78701609Y-13925125D01*
X78701609Y-13925125D02*
X78749228Y-13972744D01*
X78749228Y-13972744D02*
X78844466Y-14020363D01*
X78844466Y-14020363D02*
X78939704Y-14020363D01*
X78939704Y-14020363D02*
X79034942Y-13972744D01*
X79034942Y-13972744D02*
X79082561Y-13925125D01*
X79082561Y-13925125D02*
X79130180Y-13829887D01*
X79130180Y-13829887D02*
X79130180Y-13591792D01*
X79130180Y-13591792D02*
X79082561Y-13448935D01*
X78130180Y-13020363D02*
X79130180Y-13020363D01*
X83630180Y-16163219D02*
X84630180Y-16163219D01*
X84630180Y-16163219D02*
X83915895Y-15829886D01*
X83915895Y-15829886D02*
X84630180Y-15496553D01*
X84630180Y-15496553D02*
X83630180Y-15496553D01*
X83630180Y-15020362D02*
X84630180Y-15020362D01*
X83677800Y-14591791D02*
X83630180Y-14448934D01*
X83630180Y-14448934D02*
X83630180Y-14210839D01*
X83630180Y-14210839D02*
X83677800Y-14115601D01*
X83677800Y-14115601D02*
X83725419Y-14067982D01*
X83725419Y-14067982D02*
X83820657Y-14020363D01*
X83820657Y-14020363D02*
X83915895Y-14020363D01*
X83915895Y-14020363D02*
X84011133Y-14067982D01*
X84011133Y-14067982D02*
X84058752Y-14115601D01*
X84058752Y-14115601D02*
X84106371Y-14210839D01*
X84106371Y-14210839D02*
X84153990Y-14401315D01*
X84153990Y-14401315D02*
X84201609Y-14496553D01*
X84201609Y-14496553D02*
X84249228Y-14544172D01*
X84249228Y-14544172D02*
X84344466Y-14591791D01*
X84344466Y-14591791D02*
X84439704Y-14591791D01*
X84439704Y-14591791D02*
X84534942Y-14544172D01*
X84534942Y-14544172D02*
X84582561Y-14496553D01*
X84582561Y-14496553D02*
X84630180Y-14401315D01*
X84630180Y-14401315D02*
X84630180Y-14163220D01*
X84630180Y-14163220D02*
X84582561Y-14020363D01*
X84630180Y-13401315D02*
X84630180Y-13210839D01*
X84630180Y-13210839D02*
X84582561Y-13115601D01*
X84582561Y-13115601D02*
X84487323Y-13020363D01*
X84487323Y-13020363D02*
X84296847Y-12972744D01*
X84296847Y-12972744D02*
X83963514Y-12972744D01*
X83963514Y-12972744D02*
X83773038Y-13020363D01*
X83773038Y-13020363D02*
X83677800Y-13115601D01*
X83677800Y-13115601D02*
X83630180Y-13210839D01*
X83630180Y-13210839D02*
X83630180Y-13401315D01*
X83630180Y-13401315D02*
X83677800Y-13496553D01*
X83677800Y-13496553D02*
X83773038Y-13591791D01*
X83773038Y-13591791D02*
X83963514Y-13639410D01*
X83963514Y-13639410D02*
X84296847Y-13639410D01*
X84296847Y-13639410D02*
X84487323Y-13591791D01*
X84487323Y-13591791D02*
X84582561Y-13496553D01*
X84582561Y-13496553D02*
X84630180Y-13401315D01*
X75725418Y-15591792D02*
X75677799Y-15639411D01*
X75677799Y-15639411D02*
X75630179Y-15782268D01*
X75630179Y-15782268D02*
X75630179Y-15877506D01*
X75630179Y-15877506D02*
X75677799Y-16020363D01*
X75677799Y-16020363D02*
X75773037Y-16115601D01*
X75773037Y-16115601D02*
X75868275Y-16163220D01*
X75868275Y-16163220D02*
X76058751Y-16210839D01*
X76058751Y-16210839D02*
X76201608Y-16210839D01*
X76201608Y-16210839D02*
X76392084Y-16163220D01*
X76392084Y-16163220D02*
X76487322Y-16115601D01*
X76487322Y-16115601D02*
X76582560Y-16020363D01*
X76582560Y-16020363D02*
X76630179Y-15877506D01*
X76630179Y-15877506D02*
X76630179Y-15782268D01*
X76630179Y-15782268D02*
X76582560Y-15639411D01*
X76582560Y-15639411D02*
X76534941Y-15591792D01*
X75677799Y-15210839D02*
X75630179Y-15067982D01*
X75630179Y-15067982D02*
X75630179Y-14829887D01*
X75630179Y-14829887D02*
X75677799Y-14734649D01*
X75677799Y-14734649D02*
X75725418Y-14687030D01*
X75725418Y-14687030D02*
X75820656Y-14639411D01*
X75820656Y-14639411D02*
X75915894Y-14639411D01*
X75915894Y-14639411D02*
X76011132Y-14687030D01*
X76011132Y-14687030D02*
X76058751Y-14734649D01*
X76058751Y-14734649D02*
X76106370Y-14829887D01*
X76106370Y-14829887D02*
X76153989Y-15020363D01*
X76153989Y-15020363D02*
X76201608Y-15115601D01*
X76201608Y-15115601D02*
X76249227Y-15163220D01*
X76249227Y-15163220D02*
X76344465Y-15210839D01*
X76344465Y-15210839D02*
X76439703Y-15210839D01*
X76439703Y-15210839D02*
X76534941Y-15163220D01*
X76534941Y-15163220D02*
X76582560Y-15115601D01*
X76582560Y-15115601D02*
X76630179Y-15020363D01*
X76630179Y-15020363D02*
X76630179Y-14782268D01*
X76630179Y-14782268D02*
X76582560Y-14639411D01*
X87082561Y-15639411D02*
X87130180Y-15734649D01*
X87130180Y-15734649D02*
X87130180Y-15877506D01*
X87130180Y-15877506D02*
X87082561Y-16020363D01*
X87082561Y-16020363D02*
X86987323Y-16115601D01*
X86987323Y-16115601D02*
X86892085Y-16163220D01*
X86892085Y-16163220D02*
X86701609Y-16210839D01*
X86701609Y-16210839D02*
X86558752Y-16210839D01*
X86558752Y-16210839D02*
X86368276Y-16163220D01*
X86368276Y-16163220D02*
X86273038Y-16115601D01*
X86273038Y-16115601D02*
X86177800Y-16020363D01*
X86177800Y-16020363D02*
X86130180Y-15877506D01*
X86130180Y-15877506D02*
X86130180Y-15782268D01*
X86130180Y-15782268D02*
X86177800Y-15639411D01*
X86177800Y-15639411D02*
X86225419Y-15591792D01*
X86225419Y-15591792D02*
X86558752Y-15591792D01*
X86558752Y-15591792D02*
X86558752Y-15782268D01*
X86130180Y-15163220D02*
X87130180Y-15163220D01*
X87130180Y-15163220D02*
X86130180Y-14591792D01*
X86130180Y-14591792D02*
X87130180Y-14591792D01*
X86130180Y-14115601D02*
X87130180Y-14115601D01*
X87130180Y-14115601D02*
X87130180Y-13877506D01*
X87130180Y-13877506D02*
X87082561Y-13734649D01*
X87082561Y-13734649D02*
X86987323Y-13639411D01*
X86987323Y-13639411D02*
X86892085Y-13591792D01*
X86892085Y-13591792D02*
X86701609Y-13544173D01*
X86701609Y-13544173D02*
X86558752Y-13544173D01*
X86558752Y-13544173D02*
X86368276Y-13591792D01*
X86368276Y-13591792D02*
X86273038Y-13639411D01*
X86273038Y-13639411D02*
X86177800Y-13734649D01*
X86177800Y-13734649D02*
X86130180Y-13877506D01*
X86130180Y-13877506D02*
X86130180Y-14115601D01*
X74130180Y-16258458D02*
X74130180Y-15639411D01*
X74130180Y-15639411D02*
X73749228Y-15972744D01*
X73749228Y-15972744D02*
X73749228Y-15829887D01*
X73749228Y-15829887D02*
X73701609Y-15734649D01*
X73701609Y-15734649D02*
X73653990Y-15687030D01*
X73653990Y-15687030D02*
X73558752Y-15639411D01*
X73558752Y-15639411D02*
X73320657Y-15639411D01*
X73320657Y-15639411D02*
X73225419Y-15687030D01*
X73225419Y-15687030D02*
X73177800Y-15734649D01*
X73177800Y-15734649D02*
X73130180Y-15829887D01*
X73130180Y-15829887D02*
X73130180Y-16115601D01*
X73130180Y-16115601D02*
X73177800Y-16210839D01*
X73177800Y-16210839D02*
X73225419Y-16258458D01*
X74130180Y-15353696D02*
X73130180Y-15020363D01*
X73130180Y-15020363D02*
X74130180Y-14687030D01*
X74130180Y-14448934D02*
X74130180Y-13829887D01*
X74130180Y-13829887D02*
X73749228Y-14163220D01*
X73749228Y-14163220D02*
X73749228Y-14020363D01*
X73749228Y-14020363D02*
X73701609Y-13925125D01*
X73701609Y-13925125D02*
X73653990Y-13877506D01*
X73653990Y-13877506D02*
X73558752Y-13829887D01*
X73558752Y-13829887D02*
X73320657Y-13829887D01*
X73320657Y-13829887D02*
X73225419Y-13877506D01*
X73225419Y-13877506D02*
X73177800Y-13925125D01*
X73177800Y-13925125D02*
X73130180Y-14020363D01*
X73130180Y-14020363D02*
X73130180Y-14306077D01*
X73130180Y-14306077D02*
X73177800Y-14401315D01*
X73177800Y-14401315D02*
X73225419Y-14448934D01*
X134333333Y-155454819D02*
X134333333Y-156169104D01*
X134333333Y-156169104D02*
X134380952Y-156311961D01*
X134380952Y-156311961D02*
X134476190Y-156407200D01*
X134476190Y-156407200D02*
X134619047Y-156454819D01*
X134619047Y-156454819D02*
X134714285Y-156454819D01*
X133428571Y-155788152D02*
X133428571Y-156454819D01*
X133666666Y-155407200D02*
X133904761Y-156121485D01*
X133904761Y-156121485D02*
X133285714Y-156121485D01*
X135455595Y-165895180D02*
X135455595Y-165085657D01*
X135455595Y-165085657D02*
X135503214Y-164990419D01*
X135503214Y-164990419D02*
X135550833Y-164942800D01*
X135550833Y-164942800D02*
X135646071Y-164895180D01*
X135646071Y-164895180D02*
X135836547Y-164895180D01*
X135836547Y-164895180D02*
X135931785Y-164942800D01*
X135931785Y-164942800D02*
X135979404Y-164990419D01*
X135979404Y-164990419D02*
X136027023Y-165085657D01*
X136027023Y-165085657D02*
X136027023Y-165895180D01*
X137027023Y-164895180D02*
X136455595Y-164895180D01*
X136741309Y-164895180D02*
X136741309Y-165895180D01*
X136741309Y-165895180D02*
X136646071Y-165752323D01*
X136646071Y-165752323D02*
X136550833Y-165657085D01*
X136550833Y-165657085D02*
X136455595Y-165609466D01*
X53454819Y-122666668D02*
X54169104Y-122666668D01*
X54169104Y-122666668D02*
X54311961Y-122619049D01*
X54311961Y-122619049D02*
X54407200Y-122523811D01*
X54407200Y-122523811D02*
X54454819Y-122380954D01*
X54454819Y-122380954D02*
X54454819Y-122285716D01*
X53454819Y-123047621D02*
X53454819Y-123666668D01*
X53454819Y-123666668D02*
X53835771Y-123333335D01*
X53835771Y-123333335D02*
X53835771Y-123476192D01*
X53835771Y-123476192D02*
X53883390Y-123571430D01*
X53883390Y-123571430D02*
X53931009Y-123619049D01*
X53931009Y-123619049D02*
X54026247Y-123666668D01*
X54026247Y-123666668D02*
X54264342Y-123666668D01*
X54264342Y-123666668D02*
X54359580Y-123619049D01*
X54359580Y-123619049D02*
X54407200Y-123571430D01*
X54407200Y-123571430D02*
X54454819Y-123476192D01*
X54454819Y-123476192D02*
X54454819Y-123190478D01*
X54454819Y-123190478D02*
X54407200Y-123095240D01*
X54407200Y-123095240D02*
X54359580Y-123047621D01*
X72663222Y-125369819D02*
X72663222Y-124369819D01*
X71615604Y-125369819D02*
X71948937Y-124893628D01*
X72187032Y-125369819D02*
X72187032Y-124369819D01*
X72187032Y-124369819D02*
X71806080Y-124369819D01*
X71806080Y-124369819D02*
X71710842Y-124417438D01*
X71710842Y-124417438D02*
X71663223Y-124465057D01*
X71663223Y-124465057D02*
X71615604Y-124560295D01*
X71615604Y-124560295D02*
X71615604Y-124703152D01*
X71615604Y-124703152D02*
X71663223Y-124798390D01*
X71663223Y-124798390D02*
X71710842Y-124846009D01*
X71710842Y-124846009D02*
X71806080Y-124893628D01*
X71806080Y-124893628D02*
X72187032Y-124893628D01*
X70520366Y-125465057D02*
X70615604Y-125417438D01*
X70615604Y-125417438D02*
X70710842Y-125322200D01*
X70710842Y-125322200D02*
X70853699Y-125179342D01*
X70853699Y-125179342D02*
X70948937Y-125131723D01*
X70948937Y-125131723D02*
X71044175Y-125131723D01*
X70996556Y-125369819D02*
X71091794Y-125322200D01*
X71091794Y-125322200D02*
X71187032Y-125226961D01*
X71187032Y-125226961D02*
X71234651Y-125036485D01*
X71234651Y-125036485D02*
X71234651Y-124703152D01*
X71234651Y-124703152D02*
X71187032Y-124512676D01*
X71187032Y-124512676D02*
X71091794Y-124417438D01*
X71091794Y-124417438D02*
X70996556Y-124369819D01*
X70996556Y-124369819D02*
X70806080Y-124369819D01*
X70806080Y-124369819D02*
X70710842Y-124417438D01*
X70710842Y-124417438D02*
X70615604Y-124512676D01*
X70615604Y-124512676D02*
X70567985Y-124703152D01*
X70567985Y-124703152D02*
X70567985Y-125036485D01*
X70567985Y-125036485D02*
X70615604Y-125226961D01*
X70615604Y-125226961D02*
X70710842Y-125322200D01*
X70710842Y-125322200D02*
X70806080Y-125369819D01*
X70806080Y-125369819D02*
X70996556Y-125369819D01*
X72758457Y-131869820D02*
X72139410Y-131869820D01*
X72139410Y-131869820D02*
X72472743Y-132250772D01*
X72472743Y-132250772D02*
X72329886Y-132250772D01*
X72329886Y-132250772D02*
X72234648Y-132298391D01*
X72234648Y-132298391D02*
X72187029Y-132346010D01*
X72187029Y-132346010D02*
X72139410Y-132441248D01*
X72139410Y-132441248D02*
X72139410Y-132679343D01*
X72139410Y-132679343D02*
X72187029Y-132774581D01*
X72187029Y-132774581D02*
X72234648Y-132822201D01*
X72234648Y-132822201D02*
X72329886Y-132869820D01*
X72329886Y-132869820D02*
X72615600Y-132869820D01*
X72615600Y-132869820D02*
X72710838Y-132822201D01*
X72710838Y-132822201D02*
X72758457Y-132774581D01*
X71853695Y-131869820D02*
X71520362Y-132869820D01*
X71520362Y-132869820D02*
X71187029Y-131869820D01*
X70948933Y-131869820D02*
X70329886Y-131869820D01*
X70329886Y-131869820D02*
X70663219Y-132250772D01*
X70663219Y-132250772D02*
X70520362Y-132250772D01*
X70520362Y-132250772D02*
X70425124Y-132298391D01*
X70425124Y-132298391D02*
X70377505Y-132346010D01*
X70377505Y-132346010D02*
X70329886Y-132441248D01*
X70329886Y-132441248D02*
X70329886Y-132679343D01*
X70329886Y-132679343D02*
X70377505Y-132774581D01*
X70377505Y-132774581D02*
X70425124Y-132822201D01*
X70425124Y-132822201D02*
X70520362Y-132869820D01*
X70520362Y-132869820D02*
X70806076Y-132869820D01*
X70806076Y-132869820D02*
X70901314Y-132822201D01*
X70901314Y-132822201D02*
X70948933Y-132774581D01*
X72710838Y-117322201D02*
X72567981Y-117369820D01*
X72567981Y-117369820D02*
X72329886Y-117369820D01*
X72329886Y-117369820D02*
X72234648Y-117322201D01*
X72234648Y-117322201D02*
X72187029Y-117274581D01*
X72187029Y-117274581D02*
X72139410Y-117179343D01*
X72139410Y-117179343D02*
X72139410Y-117084105D01*
X72139410Y-117084105D02*
X72187029Y-116988867D01*
X72187029Y-116988867D02*
X72234648Y-116941248D01*
X72234648Y-116941248D02*
X72329886Y-116893629D01*
X72329886Y-116893629D02*
X72520362Y-116846010D01*
X72520362Y-116846010D02*
X72615600Y-116798391D01*
X72615600Y-116798391D02*
X72663219Y-116750772D01*
X72663219Y-116750772D02*
X72710838Y-116655534D01*
X72710838Y-116655534D02*
X72710838Y-116560296D01*
X72710838Y-116560296D02*
X72663219Y-116465058D01*
X72663219Y-116465058D02*
X72615600Y-116417439D01*
X72615600Y-116417439D02*
X72520362Y-116369820D01*
X72520362Y-116369820D02*
X72282267Y-116369820D01*
X72282267Y-116369820D02*
X72139410Y-116417439D01*
X71139410Y-117274581D02*
X71187029Y-117322201D01*
X71187029Y-117322201D02*
X71329886Y-117369820D01*
X71329886Y-117369820D02*
X71425124Y-117369820D01*
X71425124Y-117369820D02*
X71567981Y-117322201D01*
X71567981Y-117322201D02*
X71663219Y-117226962D01*
X71663219Y-117226962D02*
X71710838Y-117131724D01*
X71710838Y-117131724D02*
X71758457Y-116941248D01*
X71758457Y-116941248D02*
X71758457Y-116798391D01*
X71758457Y-116798391D02*
X71710838Y-116607915D01*
X71710838Y-116607915D02*
X71663219Y-116512677D01*
X71663219Y-116512677D02*
X71567981Y-116417439D01*
X71567981Y-116417439D02*
X71425124Y-116369820D01*
X71425124Y-116369820D02*
X71329886Y-116369820D01*
X71329886Y-116369820D02*
X71187029Y-116417439D01*
X71187029Y-116417439D02*
X71139410Y-116465058D01*
X70710838Y-117369820D02*
X70710838Y-116369820D01*
X70139410Y-117369820D02*
X70567981Y-116798391D01*
X70139410Y-116369820D02*
X70710838Y-116941248D01*
X72663220Y-119869821D02*
X72663220Y-118869821D01*
X72663220Y-118869821D02*
X72329887Y-119584106D01*
X72329887Y-119584106D02*
X71996554Y-118869821D01*
X71996554Y-118869821D02*
X71996554Y-119869821D01*
X71329887Y-118869821D02*
X71139411Y-118869821D01*
X71139411Y-118869821D02*
X71044173Y-118917440D01*
X71044173Y-118917440D02*
X70948935Y-119012678D01*
X70948935Y-119012678D02*
X70901316Y-119203154D01*
X70901316Y-119203154D02*
X70901316Y-119536487D01*
X70901316Y-119536487D02*
X70948935Y-119726963D01*
X70948935Y-119726963D02*
X71044173Y-119822202D01*
X71044173Y-119822202D02*
X71139411Y-119869821D01*
X71139411Y-119869821D02*
X71329887Y-119869821D01*
X71329887Y-119869821D02*
X71425125Y-119822202D01*
X71425125Y-119822202D02*
X71520363Y-119726963D01*
X71520363Y-119726963D02*
X71567982Y-119536487D01*
X71567982Y-119536487D02*
X71567982Y-119203154D01*
X71567982Y-119203154D02*
X71520363Y-119012678D01*
X71520363Y-119012678D02*
X71425125Y-118917440D01*
X71425125Y-118917440D02*
X71329887Y-118869821D01*
X70520363Y-119822202D02*
X70377506Y-119869821D01*
X70377506Y-119869821D02*
X70139411Y-119869821D01*
X70139411Y-119869821D02*
X70044173Y-119822202D01*
X70044173Y-119822202D02*
X69996554Y-119774582D01*
X69996554Y-119774582D02*
X69948935Y-119679344D01*
X69948935Y-119679344D02*
X69948935Y-119584106D01*
X69948935Y-119584106D02*
X69996554Y-119488868D01*
X69996554Y-119488868D02*
X70044173Y-119441249D01*
X70044173Y-119441249D02*
X70139411Y-119393630D01*
X70139411Y-119393630D02*
X70329887Y-119346011D01*
X70329887Y-119346011D02*
X70425125Y-119298392D01*
X70425125Y-119298392D02*
X70472744Y-119250773D01*
X70472744Y-119250773D02*
X70520363Y-119155535D01*
X70520363Y-119155535D02*
X70520363Y-119060297D01*
X70520363Y-119060297D02*
X70472744Y-118965059D01*
X70472744Y-118965059D02*
X70425125Y-118917440D01*
X70425125Y-118917440D02*
X70329887Y-118869821D01*
X70329887Y-118869821D02*
X70091792Y-118869821D01*
X70091792Y-118869821D02*
X69948935Y-118917440D01*
X69520363Y-119869821D02*
X69520363Y-118869821D01*
X72663222Y-122369820D02*
X72663222Y-121369820D01*
X72663222Y-121369820D02*
X72329889Y-122084105D01*
X72329889Y-122084105D02*
X71996556Y-121369820D01*
X71996556Y-121369820D02*
X71996556Y-122369820D01*
X71520365Y-122369820D02*
X71520365Y-121369820D01*
X71091794Y-122322201D02*
X70948937Y-122369820D01*
X70948937Y-122369820D02*
X70710842Y-122369820D01*
X70710842Y-122369820D02*
X70615604Y-122322201D01*
X70615604Y-122322201D02*
X70567985Y-122274581D01*
X70567985Y-122274581D02*
X70520366Y-122179343D01*
X70520366Y-122179343D02*
X70520366Y-122084105D01*
X70520366Y-122084105D02*
X70567985Y-121988867D01*
X70567985Y-121988867D02*
X70615604Y-121941248D01*
X70615604Y-121941248D02*
X70710842Y-121893629D01*
X70710842Y-121893629D02*
X70901318Y-121846010D01*
X70901318Y-121846010D02*
X70996556Y-121798391D01*
X70996556Y-121798391D02*
X71044175Y-121750772D01*
X71044175Y-121750772D02*
X71091794Y-121655534D01*
X71091794Y-121655534D02*
X71091794Y-121560296D01*
X71091794Y-121560296D02*
X71044175Y-121465058D01*
X71044175Y-121465058D02*
X70996556Y-121417439D01*
X70996556Y-121417439D02*
X70901318Y-121369820D01*
X70901318Y-121369820D02*
X70663223Y-121369820D01*
X70663223Y-121369820D02*
X70520366Y-121417439D01*
X69901318Y-121369820D02*
X69710842Y-121369820D01*
X69710842Y-121369820D02*
X69615604Y-121417439D01*
X69615604Y-121417439D02*
X69520366Y-121512677D01*
X69520366Y-121512677D02*
X69472747Y-121703153D01*
X69472747Y-121703153D02*
X69472747Y-122036486D01*
X69472747Y-122036486D02*
X69520366Y-122226962D01*
X69520366Y-122226962D02*
X69615604Y-122322201D01*
X69615604Y-122322201D02*
X69710842Y-122369820D01*
X69710842Y-122369820D02*
X69901318Y-122369820D01*
X69901318Y-122369820D02*
X69996556Y-122322201D01*
X69996556Y-122322201D02*
X70091794Y-122226962D01*
X70091794Y-122226962D02*
X70139413Y-122036486D01*
X70139413Y-122036486D02*
X70139413Y-121703153D01*
X70139413Y-121703153D02*
X70091794Y-121512677D01*
X70091794Y-121512677D02*
X69996556Y-121417439D01*
X69996556Y-121417439D02*
X69901318Y-121369820D01*
X72710840Y-114822199D02*
X72567983Y-114869818D01*
X72567983Y-114869818D02*
X72329888Y-114869818D01*
X72329888Y-114869818D02*
X72234650Y-114822199D01*
X72234650Y-114822199D02*
X72187031Y-114774579D01*
X72187031Y-114774579D02*
X72139412Y-114679341D01*
X72139412Y-114679341D02*
X72139412Y-114584103D01*
X72139412Y-114584103D02*
X72187031Y-114488865D01*
X72187031Y-114488865D02*
X72234650Y-114441246D01*
X72234650Y-114441246D02*
X72329888Y-114393627D01*
X72329888Y-114393627D02*
X72520364Y-114346008D01*
X72520364Y-114346008D02*
X72615602Y-114298389D01*
X72615602Y-114298389D02*
X72663221Y-114250770D01*
X72663221Y-114250770D02*
X72710840Y-114155532D01*
X72710840Y-114155532D02*
X72710840Y-114060294D01*
X72710840Y-114060294D02*
X72663221Y-113965056D01*
X72663221Y-113965056D02*
X72615602Y-113917437D01*
X72615602Y-113917437D02*
X72520364Y-113869818D01*
X72520364Y-113869818D02*
X72282269Y-113869818D01*
X72282269Y-113869818D02*
X72139412Y-113917437D01*
X71710840Y-114869818D02*
X71710840Y-113869818D01*
X71710840Y-113869818D02*
X71472745Y-113869818D01*
X71472745Y-113869818D02*
X71329888Y-113917437D01*
X71329888Y-113917437D02*
X71234650Y-114012675D01*
X71234650Y-114012675D02*
X71187031Y-114107913D01*
X71187031Y-114107913D02*
X71139412Y-114298389D01*
X71139412Y-114298389D02*
X71139412Y-114441246D01*
X71139412Y-114441246D02*
X71187031Y-114631722D01*
X71187031Y-114631722D02*
X71234650Y-114726960D01*
X71234650Y-114726960D02*
X71329888Y-114822199D01*
X71329888Y-114822199D02*
X71472745Y-114869818D01*
X71472745Y-114869818D02*
X71710840Y-114869818D01*
X70758459Y-114584103D02*
X70282269Y-114584103D01*
X70853697Y-114869818D02*
X70520364Y-113869818D01*
X70520364Y-113869818D02*
X70187031Y-114869818D01*
X72091792Y-130369820D02*
X72425125Y-129893629D01*
X72663220Y-130369820D02*
X72663220Y-129369820D01*
X72663220Y-129369820D02*
X72282268Y-129369820D01*
X72282268Y-129369820D02*
X72187030Y-129417439D01*
X72187030Y-129417439D02*
X72139411Y-129465058D01*
X72139411Y-129465058D02*
X72091792Y-129560296D01*
X72091792Y-129560296D02*
X72091792Y-129703153D01*
X72091792Y-129703153D02*
X72139411Y-129798391D01*
X72139411Y-129798391D02*
X72187030Y-129846010D01*
X72187030Y-129846010D02*
X72282268Y-129893629D01*
X72282268Y-129893629D02*
X72663220Y-129893629D01*
X71710839Y-130322201D02*
X71567982Y-130369820D01*
X71567982Y-130369820D02*
X71329887Y-130369820D01*
X71329887Y-130369820D02*
X71234649Y-130322201D01*
X71234649Y-130322201D02*
X71187030Y-130274581D01*
X71187030Y-130274581D02*
X71139411Y-130179343D01*
X71139411Y-130179343D02*
X71139411Y-130084105D01*
X71139411Y-130084105D02*
X71187030Y-129988867D01*
X71187030Y-129988867D02*
X71234649Y-129941248D01*
X71234649Y-129941248D02*
X71329887Y-129893629D01*
X71329887Y-129893629D02*
X71520363Y-129846010D01*
X71520363Y-129846010D02*
X71615601Y-129798391D01*
X71615601Y-129798391D02*
X71663220Y-129750772D01*
X71663220Y-129750772D02*
X71710839Y-129655534D01*
X71710839Y-129655534D02*
X71710839Y-129560296D01*
X71710839Y-129560296D02*
X71663220Y-129465058D01*
X71663220Y-129465058D02*
X71615601Y-129417439D01*
X71615601Y-129417439D02*
X71520363Y-129369820D01*
X71520363Y-129369820D02*
X71282268Y-129369820D01*
X71282268Y-129369820D02*
X71139411Y-129417439D01*
X70853696Y-129369820D02*
X70282268Y-129369820D01*
X70567982Y-130369820D02*
X70567982Y-129369820D01*
X72139411Y-126917440D02*
X72234649Y-126869821D01*
X72234649Y-126869821D02*
X72377506Y-126869821D01*
X72377506Y-126869821D02*
X72520363Y-126917440D01*
X72520363Y-126917440D02*
X72615601Y-127012678D01*
X72615601Y-127012678D02*
X72663220Y-127107916D01*
X72663220Y-127107916D02*
X72710839Y-127298392D01*
X72710839Y-127298392D02*
X72710839Y-127441249D01*
X72710839Y-127441249D02*
X72663220Y-127631725D01*
X72663220Y-127631725D02*
X72615601Y-127726963D01*
X72615601Y-127726963D02*
X72520363Y-127822202D01*
X72520363Y-127822202D02*
X72377506Y-127869821D01*
X72377506Y-127869821D02*
X72282268Y-127869821D01*
X72282268Y-127869821D02*
X72139411Y-127822202D01*
X72139411Y-127822202D02*
X72091792Y-127774582D01*
X72091792Y-127774582D02*
X72091792Y-127441249D01*
X72091792Y-127441249D02*
X72282268Y-127441249D01*
X71663220Y-127869821D02*
X71663220Y-126869821D01*
X71663220Y-126869821D02*
X71091792Y-127869821D01*
X71091792Y-127869821D02*
X71091792Y-126869821D01*
X70615601Y-127869821D02*
X70615601Y-126869821D01*
X70615601Y-126869821D02*
X70377506Y-126869821D01*
X70377506Y-126869821D02*
X70234649Y-126917440D01*
X70234649Y-126917440D02*
X70139411Y-127012678D01*
X70139411Y-127012678D02*
X70091792Y-127107916D01*
X70091792Y-127107916D02*
X70044173Y-127298392D01*
X70044173Y-127298392D02*
X70044173Y-127441249D01*
X70044173Y-127441249D02*
X70091792Y-127631725D01*
X70091792Y-127631725D02*
X70139411Y-127726963D01*
X70139411Y-127726963D02*
X70234649Y-127822202D01*
X70234649Y-127822202D02*
X70377506Y-127869821D01*
X70377506Y-127869821D02*
X70615601Y-127869821D01*
%TO.C,J2*%
X71500000Y-3000000D02*
X73499999Y-3000000D01*
X71500000Y-21000000D02*
X71500000Y-3000000D01*
D11*
X72445000Y-17390001D02*
X72445000Y-18770000D01*
D10*
X73499999Y-3000000D02*
X73500000Y-1000000D01*
D11*
X73825001Y-17390000D02*
X72445000Y-17390001D01*
X75094999Y-17390000D02*
X75094999Y-20150000D01*
X75094999Y-17390000D02*
X87905001Y-17390000D01*
X75094999Y-20150000D02*
X87905000Y-20150000D01*
D10*
X87500000Y-3000000D02*
X87500000Y-1000000D01*
D11*
X87905001Y-17390000D02*
X87905000Y-20150000D01*
D10*
X89500000Y-3000000D02*
X87500000Y-3000000D01*
X89500000Y-3000000D02*
X89500000Y-21000000D01*
X89500000Y-21000000D02*
X71500000Y-21000000D01*
X87499999Y-1000001D02*
G75*
G02*
X73500002Y-1000001I-6999999J11076477D01*
G01*
D11*
%TO.C,J4*%
X130940000Y-147090000D02*
X137060000Y-147090000D01*
X130940000Y-153310000D02*
X131860000Y-153310000D01*
X130940000Y-154910000D02*
X130940000Y-147090000D01*
X131700000Y-149350000D02*
X132700000Y-149350000D01*
X131700000Y-150950000D02*
X131700000Y-149350000D01*
X131860000Y-153310000D02*
X131860000Y-154910000D01*
X131860000Y-154910000D02*
X130940000Y-154910000D01*
X132140000Y-153310000D02*
X131860000Y-153310000D01*
X132140000Y-153310000D02*
X132140000Y-154525000D01*
X132200000Y-149350000D02*
X132200000Y-147090000D01*
X132700000Y-149350000D02*
X132700000Y-147090000D01*
X132700000Y-149350000D02*
X132700000Y-150950000D01*
X132700000Y-150950000D02*
X131700000Y-150950000D01*
X133500000Y-147090000D02*
X133500000Y-151450000D01*
X133500000Y-151450000D02*
X134500000Y-151450000D01*
X134500000Y-151450000D02*
X134500000Y-147090000D01*
X135300000Y-149350000D02*
X135300000Y-150950000D01*
X135300000Y-150950000D02*
X136300000Y-150950000D01*
X136140000Y-153310000D02*
X135860000Y-153310000D01*
X136140000Y-154910000D02*
X136140000Y-153310000D01*
X136300000Y-149350000D02*
X135300000Y-149350000D01*
X136300000Y-150950000D02*
X136300000Y-149350000D01*
X137060000Y-147090000D02*
X137060000Y-154910000D01*
X137060000Y-153310000D02*
X136140000Y-153310000D01*
X137060000Y-154910000D02*
X136140000Y-154910000D01*
%TO.C,U1*%
X122517500Y-157450000D02*
X143517500Y-157450000D01*
X122517500Y-173450000D02*
X122517500Y-157450000D01*
X143517500Y-173450000D02*
X122517500Y-173450000D01*
X144387500Y-160520000D02*
X144387500Y-173280000D01*
X147047500Y-157920000D02*
X145717500Y-157920000D01*
X147047500Y-159250000D02*
X147047500Y-157920000D01*
X147047500Y-160520000D02*
X144387500Y-160520000D01*
X147047500Y-160520000D02*
X147047500Y-173280000D01*
X147047500Y-173280000D02*
X144387500Y-173280000D01*
D10*
%TO.C,J3*%
X17499999Y-142500000D02*
X17500001Y-103500002D01*
D11*
X73929998Y-132310001D02*
X73930000Y-133690000D01*
X73929999Y-113150002D02*
X76690000Y-113150001D01*
X73930000Y-133690000D02*
X75310000Y-133690001D01*
X73930001Y-131040002D02*
X73929999Y-113150002D01*
X73930001Y-131040002D02*
X76690000Y-131040000D01*
X76690000Y-131040000D02*
X76690000Y-113150001D01*
D10*
X77500001Y-103499999D02*
X17500001Y-103500002D01*
X77500002Y-142500002D02*
X17499999Y-142500000D01*
X77500002Y-142500002D02*
X77500001Y-103499999D01*
%TD*%
M02*
